M48
;Layer_Color=9474304
;FILE_FORMAT=2:5
INCH,LZ
;TYPE=PLATED
T1F00S00C0.02800
T2F00S00C0.04000
T3F00S00C0.05500
T4F00S00C0.11500
T5F00S00C0.13600
;TYPE=NON_PLATED
T6F00S00C0.03543
%
T01
X00307Y0053
X00675Y00445
X0067005Y0016088
X0201279Y004
X022Y00475
X02275Y00322
X0235Y00275
X0245Y0055
X027
X0282246Y0049921
X0324969
X0377638Y0049414
X037Y00375
X0466911Y0052434
X0542839Y0066327
Y0108902
X0554861Y0132531
X0557838Y0178086
X05748Y0094653
X0512661Y0129677
X0498962
X04625Y0129935
Y0140235
Y0156
Y016841
X0472108Y0188099
X0451586Y02025
X0409667Y0201691
X0372841Y021
X0378031Y015
X03926Y0122799
X0456835Y0118154
X0450064Y0100159
X0466793Y0089931
X0444501Y0146945
X0508823Y018
X0522898
X0513864Y0195053
X0416753Y0057495
X0362417Y0062142
X03525Y0062059
Y00725
X034Y00717
X03575Y00895
X0358501Y0107899
X0359416Y0119147
Y0132531
X03525Y0138235
X034109Y0134414
Y015
X0324969Y01425
X0288Y0145
X0282246Y01145
X0260113Y0110196
X026Y01225
X0246236Y0120324
X022Y0127197
Y015
X0236259Y0145
X022Y0173323
Y01825
Y02
X02775Y01875
X029Y019
X0305579Y018
X027Y0164144
Y0096914
X02625Y0090086
Y0076338
X0260113Y0058971
X02925Y00636
X0287197Y0070853
X0235Y00875
X02275Y00925
X02201Y00975
X0354623Y0164144
X03575Y01775
X0351428Y0194846
X0185Y02
X01775Y0182999
X015311Y0171759
X0141Y014
Y01225
X0152959Y01275
Y0096914
X0171Y01025
X00675Y0105
Y00587
X00975Y0135
Y0155
X0098086Y0171358
X00975Y01925
X01625Y02075
X00305Y0206071
Y01701
X00307Y0105
X00539Y02125
Y0255
X0031513Y0267186
X00175Y03175
X0021Y0335
X00139Y03429
X0049586Y033227
X007Y0347814
X0145Y03365
X0151Y0355
X0161
X0161133Y0365
X01875Y03475
X01725Y0295
X0153276Y0278315
X0195626Y028
Y0239766
X01775Y02225
X01625Y02325
X01775Y02575
X0122965Y0241329
X00975Y02125
X00675
X022Y02325
X0220809Y0254609
X02225Y03
X0245
X024532Y035241
X0245Y0365
X02575Y03675
X027Y03425
X03225Y0351914
X0325Y032
X03425Y0315
X03525Y0311968
X03381Y0276
X0345Y02625
X0347502Y022
X03275Y02175
X0276249Y0240575
X04179Y0240699
Y02627
Y02825
X04391Y02894
X0425Y0305
X0460494Y0305512
X0466793Y0311043
X0466793Y0323401
X0431378Y0342657
X0382784Y0311043
X0369241Y0291629
X04325Y0226689
X0525431Y0254
X05013Y0372
X0215135Y03854
X01875Y0370914
X0141Y03715
T02
X0125Y00145
X0135
X0145
X0155
X0165
X0175
X0257Y002
X0267
X0277
X0287
X0297
X0307
X034
X035
X036
X037
X038
X039
X05745Y0138
Y0148
Y0158
Y0168
X0211Y00795
Y00695
X0201
Y00795
X0191
Y00695
X0181
Y00795
X0171
Y00695
X0161
Y00795
X0151
Y00695
X0141
Y00795
X0131
Y00695
X0121
Y00795
X0111
Y00695
X0101
Y00795
X0091
Y00695
X0081
Y00795
X0071
Y00695
X0061
Y00795
X0051
Y00695
X0041
Y00795
X0031
Y00695
Y03095
Y03195
X0041
Y03095
X0051
Y03195
X0061
Y03095
X0071
Y03195
X0081
Y03095
X0091
Y03195
X0101
Y03095
X0111
Y03195
X0121
Y03095
X0131
Y03195
X0141
Y03095
X0151
Y03195
X0161
Y03095
X0171
Y03195
X0181
Y03095
X0191
Y03195
X0201
Y03095
X0211
Y03195
X03725Y03735
X03825
X03625
X03525
X03425
X03325
X03225
X03125
T03
X043Y002
X045
X05065
X05265
T04
X02943Y0250616
X0399418
Y03766
X02943
T05
X0025Y0025
X0575
Y0375
X0025
T06
X05775Y03
Y0317323
M30
