G04*
G04 #@! TF.GenerationSoftware,Altium Limited,Altium Designer,22.1.2 (22)*
G04*
G04 Layer_Color=8388736*
%FSLAX25Y25*%
%MOIN*%
G70*
G04*
G04 #@! TF.SameCoordinates,7B21E419-2DB3-41AA-89A7-F06F8FB5CF2D*
G04*
G04*
G04 #@! TF.FilePolarity,Negative*
G04*
G01*
G75*
%ADD16R,0.06906X0.07299*%
%ADD17O,0.08480X0.03362*%
%ADD18O,0.02772X0.07299*%
%ADD19R,0.05921X0.06709*%
%ADD20R,0.23047X0.09268*%
%ADD21R,0.07299X0.06906*%
%ADD22R,0.07693X0.12417*%
G04:AMPARAMS|DCode=23|XSize=147.8mil|YSize=90.71mil|CornerRadius=25.18mil|HoleSize=0mil|Usage=FLASHONLY|Rotation=0.000|XOffset=0mil|YOffset=0mil|HoleType=Round|Shape=RoundedRectangle|*
%AMROUNDEDRECTD23*
21,1,0.14780,0.04035,0,0,0.0*
21,1,0.09744,0.09071,0,0,0.0*
1,1,0.05035,0.04872,-0.02018*
1,1,0.05035,-0.04872,-0.02018*
1,1,0.05035,-0.04872,0.02018*
1,1,0.05035,0.04872,0.02018*
%
%ADD23ROUNDEDRECTD23*%
G04:AMPARAMS|DCode=24|XSize=167.48mil|YSize=90.71mil|CornerRadius=25.18mil|HoleSize=0mil|Usage=FLASHONLY|Rotation=0.000|XOffset=0mil|YOffset=0mil|HoleType=Round|Shape=RoundedRectangle|*
%AMROUNDEDRECTD24*
21,1,0.16748,0.04035,0,0,0.0*
21,1,0.11713,0.09071,0,0,0.0*
1,1,0.05035,0.05856,-0.02018*
1,1,0.05035,-0.05856,-0.02018*
1,1,0.05035,-0.05856,0.02018*
1,1,0.05035,0.05856,0.02018*
%
%ADD24ROUNDEDRECTD24*%
G04:AMPARAMS|DCode=25|XSize=147.8mil|YSize=90.71mil|CornerRadius=25.18mil|HoleSize=0mil|Usage=FLASHONLY|Rotation=0.000|XOffset=0mil|YOffset=0mil|HoleType=Round|Shape=RoundedRectangle|*
%AMROUNDEDRECTD25*
21,1,0.14780,0.04036,0,0,0.0*
21,1,0.09744,0.09071,0,0,0.0*
1,1,0.05035,0.04872,-0.02018*
1,1,0.05035,-0.04872,-0.02018*
1,1,0.05035,-0.04872,0.02018*
1,1,0.05035,0.04872,0.02018*
%
%ADD25ROUNDEDRECTD25*%
G04:AMPARAMS|DCode=26|XSize=120.24mil|YSize=29.69mil|CornerRadius=9.92mil|HoleSize=0mil|Usage=FLASHONLY|Rotation=0.000|XOffset=0mil|YOffset=0mil|HoleType=Round|Shape=RoundedRectangle|*
%AMROUNDEDRECTD26*
21,1,0.12024,0.00984,0,0,0.0*
21,1,0.10039,0.02969,0,0,0.0*
1,1,0.01984,0.05020,-0.00492*
1,1,0.01984,-0.05020,-0.00492*
1,1,0.01984,-0.05020,0.00492*
1,1,0.01984,0.05020,0.00492*
%
%ADD26ROUNDEDRECTD26*%
%ADD27R,0.12811X0.07299*%
%ADD28O,0.10055X0.03362*%
%ADD29C,0.08000*%
%ADD30R,0.08000X0.08000*%
%ADD31R,0.07500X0.07500*%
%ADD32C,0.07500*%
%ADD33C,0.15500*%
%ADD34C,0.04543*%
%ADD35R,0.11000X0.11000*%
%ADD36C,0.11000*%
%ADD37R,0.07500X0.07500*%
%ADD38C,0.06000*%
%ADD39C,0.19000*%
D16*
X487249Y132531D02*
D03*
X479572D02*
D03*
X550161Y256469D02*
D03*
X557838D02*
D03*
X508033Y254000D02*
D03*
X500356D02*
D03*
X470632D02*
D03*
X462955D02*
D03*
X491778Y188099D02*
D03*
X499455D02*
D03*
X479572Y161500D02*
D03*
X487250D02*
D03*
X411734Y132531D02*
D03*
X404056D02*
D03*
X387583Y96646D02*
D03*
X379906D02*
D03*
D17*
X476242Y316043D02*
D03*
Y311043D02*
D03*
Y306043D02*
D03*
Y301043D02*
D03*
Y296043D02*
D03*
Y291043D02*
D03*
Y286043D02*
D03*
Y281043D02*
D03*
X494746Y316043D02*
D03*
Y311043D02*
D03*
Y306043D02*
D03*
Y301043D02*
D03*
Y296043D02*
D03*
Y291043D02*
D03*
Y286043D02*
D03*
Y281043D02*
D03*
D18*
X504984Y143795D02*
D03*
X507543D02*
D03*
X510102D02*
D03*
X512661D02*
D03*
X515220D02*
D03*
X517779D02*
D03*
X520339D02*
D03*
X522898D02*
D03*
X525457D02*
D03*
X528016D02*
D03*
X504984Y168205D02*
D03*
X507543D02*
D03*
X510102D02*
D03*
X512661D02*
D03*
X515220D02*
D03*
X517779D02*
D03*
X520339D02*
D03*
X522898D02*
D03*
X525457D02*
D03*
X528016D02*
D03*
D19*
X537622Y125000D02*
D03*
X546480D02*
D03*
X529551Y188099D02*
D03*
X538410D02*
D03*
D20*
X466793Y225000D02*
D03*
X504195D02*
D03*
D21*
X451000Y313400D02*
D03*
Y305723D02*
D03*
D22*
X450000Y74890D02*
D03*
Y61701D02*
D03*
X526500Y61725D02*
D03*
Y74914D02*
D03*
D23*
X568248Y289272D02*
D03*
D24*
X584980D02*
D03*
Y328051D02*
D03*
D25*
X568248D02*
D03*
D26*
X568347Y305512D02*
D03*
Y302362D02*
D03*
Y311811D02*
D03*
Y314961D02*
D03*
Y308661D02*
D03*
D27*
X504277Y98403D02*
D03*
X486954D02*
D03*
X545339Y227468D02*
D03*
X562661D02*
D03*
X428761Y98469D02*
D03*
X411439D02*
D03*
D28*
X340913Y79500D02*
D03*
Y84500D02*
D03*
Y89500D02*
D03*
Y94500D02*
D03*
Y99500D02*
D03*
Y104500D02*
D03*
Y109500D02*
D03*
Y114500D02*
D03*
Y119500D02*
D03*
Y124500D02*
D03*
X305087Y79500D02*
D03*
Y84500D02*
D03*
Y89500D02*
D03*
Y94500D02*
D03*
Y99500D02*
D03*
Y104500D02*
D03*
Y109500D02*
D03*
Y114500D02*
D03*
Y119500D02*
D03*
Y124500D02*
D03*
D29*
X211000Y79500D02*
D03*
Y69500D02*
D03*
X201000Y79500D02*
D03*
Y69500D02*
D03*
X191000Y79500D02*
D03*
Y69500D02*
D03*
X181000Y79500D02*
D03*
Y69500D02*
D03*
X171000Y79500D02*
D03*
Y69500D02*
D03*
X161000Y79500D02*
D03*
Y69500D02*
D03*
X151000Y79500D02*
D03*
Y69500D02*
D03*
X141000Y79500D02*
D03*
Y69500D02*
D03*
X131000Y79500D02*
D03*
Y69500D02*
D03*
X121000Y79500D02*
D03*
Y69500D02*
D03*
X111000Y79500D02*
D03*
Y69500D02*
D03*
X101000Y79500D02*
D03*
Y69500D02*
D03*
X91000Y79500D02*
D03*
Y69500D02*
D03*
X81000Y79500D02*
D03*
Y69500D02*
D03*
X71000Y79500D02*
D03*
Y69500D02*
D03*
X61000Y79500D02*
D03*
Y69500D02*
D03*
X51000Y79500D02*
D03*
Y69500D02*
D03*
X41000Y79500D02*
D03*
Y69500D02*
D03*
X31000Y79500D02*
D03*
Y319500D02*
D03*
X41000Y309500D02*
D03*
Y319500D02*
D03*
X51000Y309500D02*
D03*
Y319500D02*
D03*
X61000Y309500D02*
D03*
Y319500D02*
D03*
X71000Y309500D02*
D03*
Y319500D02*
D03*
X81000Y309500D02*
D03*
Y319500D02*
D03*
X91000Y309500D02*
D03*
Y319500D02*
D03*
X101000Y309500D02*
D03*
Y319500D02*
D03*
X111000Y309500D02*
D03*
Y319500D02*
D03*
X121000Y309500D02*
D03*
Y319500D02*
D03*
X131000Y309500D02*
D03*
Y319500D02*
D03*
X141000Y309500D02*
D03*
Y319500D02*
D03*
X151000Y309500D02*
D03*
Y319500D02*
D03*
X161000Y309500D02*
D03*
Y319500D02*
D03*
X171000Y309500D02*
D03*
Y319500D02*
D03*
X181000Y309500D02*
D03*
Y319500D02*
D03*
X191000Y309500D02*
D03*
Y319500D02*
D03*
X201000Y309500D02*
D03*
Y319500D02*
D03*
X211000Y309500D02*
D03*
Y319500D02*
D03*
D30*
X31000Y69500D02*
D03*
Y309500D02*
D03*
D31*
X175000Y14500D02*
D03*
X382500Y373500D02*
D03*
X340000Y20000D02*
D03*
X257000D02*
D03*
D32*
X165000Y14500D02*
D03*
X155000D02*
D03*
X145000D02*
D03*
X135000D02*
D03*
X125000D02*
D03*
X372500Y373500D02*
D03*
X362500D02*
D03*
X352500D02*
D03*
X342500D02*
D03*
X332500D02*
D03*
X322500D02*
D03*
X312500D02*
D03*
X574500Y148000D02*
D03*
Y158000D02*
D03*
Y168000D02*
D03*
X390000Y20000D02*
D03*
X380000D02*
D03*
X370000D02*
D03*
X360000D02*
D03*
X350000D02*
D03*
X307000D02*
D03*
X297000D02*
D03*
X287000D02*
D03*
X277000D02*
D03*
X267000D02*
D03*
D33*
X294300Y250616D02*
D03*
X399418D02*
D03*
Y376600D02*
D03*
X294300D02*
D03*
D34*
X577500Y300000D02*
D03*
Y317323D02*
D03*
D35*
X506500Y20000D02*
D03*
X430000D02*
D03*
D36*
X526500D02*
D03*
X450000D02*
D03*
D37*
X574500Y138000D02*
D03*
D38*
X276249Y240575D02*
D03*
X215135Y385400D02*
D03*
X444501Y146945D02*
D03*
X574800Y94653D02*
D03*
X338100Y276000D02*
D03*
X122965Y241329D02*
D03*
X351428Y194846D02*
D03*
X416753Y57495D02*
D03*
X30500Y206071D02*
D03*
X67005Y16088D02*
D03*
X153110Y171759D02*
D03*
X220809Y254609D02*
D03*
X409667Y201691D02*
D03*
X466911Y52434D02*
D03*
X542839Y66327D02*
D03*
X525431Y254000D02*
D03*
X501300Y372000D02*
D03*
X431378Y342657D02*
D03*
X30500Y170100D02*
D03*
X98086Y171358D02*
D03*
X262500Y76338D02*
D03*
X282246Y114500D02*
D03*
X359416Y132531D02*
D03*
X358501Y107899D02*
D03*
X462500Y129935D02*
D03*
Y156000D02*
D03*
Y140235D02*
D03*
X466793Y323401D02*
D03*
X439100Y289400D02*
D03*
X417900Y262700D02*
D03*
Y282500D02*
D03*
Y240699D02*
D03*
X220000Y232500D02*
D03*
X292500Y63600D02*
D03*
X260113Y58971D02*
D03*
X270000Y55000D02*
D03*
X222500Y300000D02*
D03*
X220000Y127197D02*
D03*
Y150000D02*
D03*
Y182500D02*
D03*
Y173323D02*
D03*
X177500Y222500D02*
D03*
X195626Y239766D02*
D03*
X245000Y300000D02*
D03*
X152959Y127500D02*
D03*
Y96914D02*
D03*
X185000Y200000D02*
D03*
X67500Y105000D02*
D03*
Y58700D02*
D03*
X30700Y105000D02*
D03*
X97500Y192500D02*
D03*
X141000Y122500D02*
D03*
X195626Y280000D02*
D03*
X177500Y182999D02*
D03*
Y257500D02*
D03*
X53900Y255000D02*
D03*
Y212500D02*
D03*
X67500D02*
D03*
X97500D02*
D03*
Y155000D02*
D03*
X153276Y278315D02*
D03*
X13900Y342900D02*
D03*
X17500Y317500D02*
D03*
X21000Y335000D02*
D03*
X67500Y44500D02*
D03*
X30700Y53000D02*
D03*
X340000Y71700D02*
D03*
X466793Y89931D02*
D03*
X512661Y129677D02*
D03*
X542839Y108902D02*
D03*
X369241Y291629D02*
D03*
X372841Y210000D02*
D03*
X220000Y200000D02*
D03*
X270000Y342500D02*
D03*
X187500Y370914D02*
D03*
X151000Y355000D02*
D03*
X141000Y371500D02*
D03*
X70000Y347814D02*
D03*
X187500Y347500D02*
D03*
X282246Y49921D02*
D03*
X287197Y70853D02*
D03*
X236259Y145000D02*
D03*
X341090Y150000D02*
D03*
X352500Y138235D02*
D03*
X341090Y134414D02*
D03*
X324969Y142500D02*
D03*
X352500Y62059D02*
D03*
Y72500D02*
D03*
X260113Y110196D02*
D03*
X246236Y120324D02*
D03*
X161133Y365000D02*
D03*
X161000Y355000D02*
D03*
X145000Y336500D02*
D03*
X162500Y207500D02*
D03*
X290000Y190000D02*
D03*
X359416Y119147D02*
D03*
X357500Y89500D02*
D03*
X227500Y32200D02*
D03*
X235000Y27500D02*
D03*
X378031Y150000D02*
D03*
X377638Y49414D02*
D03*
X262500Y90086D02*
D03*
X270000Y96914D02*
D03*
X245000Y55000D02*
D03*
X288000Y145000D02*
D03*
X305579Y180000D02*
D03*
X352500Y311968D02*
D03*
X322500Y351914D02*
D03*
X257500Y367500D02*
D03*
X245000Y365000D02*
D03*
X245320Y352410D02*
D03*
X357500Y177500D02*
D03*
X325000Y320000D02*
D03*
X342500Y315000D02*
D03*
X172500Y295000D02*
D03*
X456835Y118154D02*
D03*
X432500Y226689D02*
D03*
X49586Y332270D02*
D03*
X270000Y164144D02*
D03*
X345000Y262500D02*
D03*
X513864Y195053D02*
D03*
X451586Y202500D02*
D03*
X347502Y220000D02*
D03*
X31513Y267186D02*
D03*
X162500Y232500D02*
D03*
X327500Y217500D02*
D03*
X462500Y168410D02*
D03*
X472108Y188099D02*
D03*
X354623Y164144D02*
D03*
X498962Y129677D02*
D03*
X508823Y180000D02*
D03*
X425000Y305000D02*
D03*
X460494Y305512D02*
D03*
X466793Y311043D02*
D03*
X171000Y102500D02*
D03*
X557838Y178086D02*
D03*
X522898Y180000D02*
D03*
X235000Y87500D02*
D03*
X227500Y92500D02*
D03*
X277500Y187500D02*
D03*
X370000Y37500D02*
D03*
X97500Y135000D02*
D03*
X392600Y122799D02*
D03*
X220100Y97500D02*
D03*
X201279Y40000D02*
D03*
X220000Y47500D02*
D03*
X324969Y49921D02*
D03*
X141000Y140000D02*
D03*
X362417Y62142D02*
D03*
X450064Y100159D02*
D03*
X554861Y132531D02*
D03*
X260000Y122500D02*
D03*
X382784Y311043D02*
D03*
D39*
X25000Y375000D02*
D03*
X575000D02*
D03*
Y25000D02*
D03*
X25000D02*
D03*
M02*
