G04*
G04 #@! TF.GenerationSoftware,Altium Limited,Altium Designer,22.1.2 (22)*
G04*
G04 Layer_Physical_Order=2*
G04 Layer_Color=16711680*
%FSLAX25Y25*%
%MOIN*%
G70*
G04*
G04 #@! TF.SameCoordinates,7B21E419-2DB3-41AA-89A7-F06F8FB5CF2D*
G04*
G04*
G04 #@! TF.FilePolarity,Positive*
G04*
G01*
G75*
%ADD13C,0.01000*%
%ADD53C,0.03000*%
%ADD54C,0.07000*%
%ADD55R,0.07000X0.07000*%
%ADD56R,0.06500X0.06500*%
%ADD57C,0.06500*%
%ADD58C,0.14500*%
%ADD59C,0.03543*%
%ADD60R,0.10000X0.10000*%
%ADD61C,0.10000*%
%ADD62R,0.06500X0.06500*%
%ADD63C,0.05000*%
%ADD64C,0.18000*%
G36*
X600000Y0D02*
X0D01*
Y400000D01*
X600000D01*
Y0D01*
D02*
G37*
%LPC*%
G36*
X373000Y377721D02*
Y374000D01*
X376721D01*
X376641Y374609D01*
X376212Y375643D01*
X375531Y376531D01*
X374643Y377212D01*
X373609Y377641D01*
X373000Y377721D01*
D02*
G37*
G36*
X372000D02*
X371391Y377641D01*
X370357Y377212D01*
X369469Y376531D01*
X368788Y375643D01*
X368359Y374609D01*
X368279Y374000D01*
X372000D01*
Y377721D01*
D02*
G37*
G36*
X386350Y377350D02*
X378650D01*
Y369650D01*
X386350D01*
Y377350D01*
D02*
G37*
G36*
X362500Y377383D02*
X361495Y377251D01*
X360558Y376863D01*
X359754Y376246D01*
X359137Y375442D01*
X358749Y374505D01*
X358617Y373500D01*
X358749Y372495D01*
X359137Y371558D01*
X359754Y370754D01*
X360558Y370137D01*
X361495Y369749D01*
X362500Y369617D01*
X363505Y369749D01*
X364442Y370137D01*
X365246Y370754D01*
X365863Y371558D01*
X366251Y372495D01*
X366383Y373500D01*
X366251Y374505D01*
X365863Y375442D01*
X365246Y376246D01*
X364442Y376863D01*
X363505Y377251D01*
X362500Y377383D01*
D02*
G37*
G36*
X376721Y373000D02*
X373000D01*
Y369279D01*
X373609Y369359D01*
X374643Y369788D01*
X375531Y370469D01*
X376212Y371357D01*
X376641Y372391D01*
X376721Y373000D01*
D02*
G37*
G36*
X372000D02*
X368279D01*
X368359Y372391D01*
X368788Y371357D01*
X369469Y370469D01*
X370357Y369788D01*
X371391Y369359D01*
X372000Y369279D01*
Y373000D01*
D02*
G37*
G36*
X178500Y382141D02*
X71000D01*
X70181Y381978D01*
X69486Y381514D01*
X60986Y373014D01*
X60522Y372319D01*
X60359Y371500D01*
Y356144D01*
X59856Y355641D01*
X10586D01*
X9766Y355478D01*
X9072Y355014D01*
X5786Y351728D01*
X5322Y351034D01*
X5159Y350214D01*
Y259300D01*
X5322Y258481D01*
X5786Y257786D01*
X46759Y216813D01*
Y124787D01*
X43113Y121141D01*
X29900D01*
X29081Y120978D01*
X28386Y120514D01*
X8186Y100314D01*
X7722Y99619D01*
X7559Y98800D01*
Y58700D01*
X7722Y57881D01*
X8186Y57186D01*
X22386Y42986D01*
X23081Y42522D01*
X23900Y42359D01*
X65236D01*
X65289Y42289D01*
X65937Y41792D01*
X66691Y41480D01*
X67500Y41373D01*
X68309Y41480D01*
X69063Y41792D01*
X69711Y42289D01*
X70208Y42937D01*
X70520Y43691D01*
X70627Y44500D01*
X70520Y45309D01*
X70208Y46063D01*
X69711Y46711D01*
X69063Y47208D01*
X68309Y47520D01*
X67500Y47627D01*
X66691Y47520D01*
X65937Y47208D01*
X65289Y46711D01*
X65236Y46641D01*
X24787D01*
X11841Y59587D01*
Y97913D01*
X30787Y116859D01*
X31513D01*
X31758Y116396D01*
X31752Y116359D01*
X31086Y115914D01*
X14086Y98914D01*
X13622Y98219D01*
X13459Y97400D01*
Y62400D01*
X13622Y61581D01*
X14086Y60886D01*
X23486Y51486D01*
X24181Y51022D01*
X25000Y50859D01*
X28436D01*
X28489Y50789D01*
X29137Y50292D01*
X29891Y49980D01*
X30700Y49873D01*
X31509Y49980D01*
X32263Y50292D01*
X32911Y50789D01*
X33408Y51437D01*
X33720Y52191D01*
X33827Y53000D01*
X33720Y53809D01*
X33408Y54563D01*
X32911Y55211D01*
X32263Y55708D01*
X31509Y56020D01*
X30700Y56127D01*
X29891Y56020D01*
X29137Y55708D01*
X28489Y55211D01*
X28436Y55141D01*
X25887D01*
X17741Y63287D01*
Y96513D01*
X27218Y105990D01*
X27513Y105875D01*
X27670Y105735D01*
X27573Y105000D01*
X27680Y104191D01*
X27704Y104133D01*
X20207Y96636D01*
X19964Y96272D01*
X19878Y95843D01*
X19879Y95843D01*
Y63100D01*
X19878Y63100D01*
X19964Y62671D01*
X20207Y62307D01*
X24907Y57607D01*
X24907Y57607D01*
X25271Y57364D01*
X25700Y57278D01*
X25700Y57278D01*
X64733D01*
X64792Y57137D01*
X65289Y56489D01*
X65937Y55992D01*
X66691Y55680D01*
X67500Y55573D01*
X68309Y55680D01*
X69063Y55992D01*
X69711Y56489D01*
X70208Y57137D01*
X70520Y57891D01*
X70627Y58700D01*
X70520Y59509D01*
X70208Y60263D01*
X69711Y60911D01*
X69063Y61408D01*
X68309Y61720D01*
X67500Y61827D01*
X66691Y61720D01*
X65937Y61408D01*
X65289Y60911D01*
X64792Y60263D01*
X64485Y59522D01*
X26165D01*
X22121Y63565D01*
Y95379D01*
X29079Y102336D01*
X29137Y102292D01*
X29891Y101980D01*
X30700Y101873D01*
X31509Y101980D01*
X32263Y102292D01*
X32911Y102789D01*
X33408Y103437D01*
X33720Y104191D01*
X33827Y105000D01*
X33720Y105809D01*
X33408Y106563D01*
X32911Y107211D01*
X32263Y107708D01*
X31509Y108020D01*
X30700Y108127D01*
X29965Y108030D01*
X29825Y108187D01*
X29710Y108482D01*
X33487Y112259D01*
X47000D01*
X47819Y112422D01*
X48514Y112886D01*
X55614Y119986D01*
X56078Y120681D01*
X56241Y121500D01*
Y210459D01*
X56608Y210937D01*
X56920Y211691D01*
X57027Y212500D01*
X56920Y213309D01*
X56608Y214063D01*
X56111Y214711D01*
X55463Y215208D01*
X54709Y215520D01*
X53900Y215627D01*
X53091Y215520D01*
X52337Y215208D01*
X51689Y214711D01*
X51541Y214518D01*
X51041Y214688D01*
Y217700D01*
X50878Y218519D01*
X50414Y219214D01*
X9441Y260187D01*
Y349327D01*
X11473Y351359D01*
X60743D01*
X61562Y351522D01*
X62257Y351986D01*
X64014Y353743D01*
X64478Y354438D01*
X64641Y355257D01*
Y370613D01*
X71887Y377859D01*
X177613D01*
X184395Y371077D01*
X184373Y370914D01*
X184480Y370105D01*
X184792Y369351D01*
X185289Y368703D01*
X185937Y368206D01*
X186691Y367894D01*
X187500Y367788D01*
X188309Y367894D01*
X189063Y368206D01*
X189711Y368703D01*
X190208Y369351D01*
X190520Y370105D01*
X190627Y370914D01*
X190520Y371724D01*
X190208Y372478D01*
X189711Y373125D01*
X189063Y373622D01*
X188309Y373934D01*
X187500Y374041D01*
X187489Y374040D01*
X180014Y381514D01*
X179319Y381978D01*
X178500Y382141D01*
D02*
G37*
G36*
X399418Y386749D02*
X397439Y386554D01*
X395535Y385977D01*
X393780Y385039D01*
X392242Y383777D01*
X390980Y382239D01*
X390042Y380484D01*
X389465Y378580D01*
X389270Y376600D01*
X389465Y374620D01*
X390042Y372716D01*
X390980Y370962D01*
X392242Y369424D01*
X393780Y368162D01*
X395535Y367224D01*
X397439Y366647D01*
X399418Y366452D01*
X401398Y366647D01*
X403302Y367224D01*
X405057Y368162D01*
X406595Y369424D01*
X407857Y370962D01*
X408795Y372716D01*
X409372Y374620D01*
X409567Y376600D01*
X409372Y378580D01*
X408795Y380484D01*
X407857Y382239D01*
X406595Y383777D01*
X405057Y385039D01*
X403302Y385977D01*
X401398Y386554D01*
X399418Y386749D01*
D02*
G37*
G36*
X294300D02*
X292320Y386554D01*
X290417Y385977D01*
X288662Y385039D01*
X287124Y383777D01*
X285862Y382239D01*
X284924Y380484D01*
X284347Y378580D01*
X284152Y376600D01*
X284347Y374620D01*
X284924Y372716D01*
X285862Y370962D01*
X287124Y369424D01*
X288662Y368162D01*
X290417Y367224D01*
X292320Y366647D01*
X294300Y366452D01*
X296280Y366647D01*
X298184Y367224D01*
X299939Y368162D01*
X301477Y369424D01*
X302739Y370962D01*
X303677Y372716D01*
X304254Y374620D01*
X304449Y376600D01*
X304254Y378580D01*
X303677Y380484D01*
X302739Y382239D01*
X301477Y383777D01*
X299939Y385039D01*
X298184Y385977D01*
X296280Y386554D01*
X294300Y386749D01*
D02*
G37*
G36*
X312500Y377383D02*
X311495Y377251D01*
X310558Y376863D01*
X309754Y376246D01*
X309137Y375442D01*
X308749Y374505D01*
X308617Y373500D01*
X308749Y372495D01*
X309137Y371558D01*
X309754Y370754D01*
X310558Y370137D01*
X311379Y369797D01*
Y363621D01*
X284362D01*
X274690Y373293D01*
X274327Y373536D01*
X273897Y373622D01*
X273897Y373622D01*
X252500D01*
X252071Y373536D01*
X251707Y373293D01*
X251707Y373293D01*
X246251Y367837D01*
X245809Y368020D01*
X245000Y368127D01*
X244191Y368020D01*
X243437Y367708D01*
X242789Y367211D01*
X242292Y366563D01*
X241980Y365809D01*
X241873Y365000D01*
X241980Y364191D01*
X242292Y363437D01*
X242789Y362789D01*
X243437Y362292D01*
X244191Y361980D01*
X245000Y361873D01*
X245809Y361980D01*
X246563Y362292D01*
X247211Y362789D01*
X247708Y363437D01*
X248020Y364191D01*
X248127Y365000D01*
X248020Y365809D01*
X247837Y366251D01*
X252965Y371378D01*
X273433D01*
X283104Y361707D01*
X283104Y361707D01*
X283468Y361464D01*
X283897Y361378D01*
X283897Y361379D01*
X311914D01*
X311914Y361378D01*
X312343Y361464D01*
X312707Y361707D01*
X313293Y362293D01*
X313293Y362293D01*
X313536Y362657D01*
X313621Y363086D01*
Y369797D01*
X314442Y370137D01*
X315246Y370754D01*
X315863Y371558D01*
X316251Y372495D01*
X316383Y373500D01*
X316251Y374505D01*
X315863Y375442D01*
X315246Y376246D01*
X314442Y376863D01*
X313505Y377251D01*
X312500Y377383D01*
D02*
G37*
G36*
X141000Y374627D02*
X140191Y374520D01*
X139437Y374208D01*
X138789Y373711D01*
X138292Y373063D01*
X137980Y372309D01*
X137873Y371500D01*
X137980Y370691D01*
X138292Y369937D01*
X138789Y369289D01*
X139437Y368792D01*
X140191Y368480D01*
X141000Y368373D01*
X141809Y368480D01*
X142563Y368792D01*
X143211Y369289D01*
X143708Y369937D01*
X143891Y370378D01*
X159878D01*
Y367836D01*
X159569Y367708D01*
X158922Y367211D01*
X158425Y366563D01*
X158113Y365809D01*
X158006Y365000D01*
X158113Y364191D01*
X158425Y363437D01*
X158922Y362789D01*
X159569Y362292D01*
X160323Y361980D01*
X161133Y361873D01*
X161942Y361980D01*
X162696Y362292D01*
X163344Y362789D01*
X163840Y363437D01*
X164153Y364191D01*
X164259Y365000D01*
X164153Y365809D01*
X163840Y366563D01*
X163344Y367211D01*
X162696Y367708D01*
X162122Y367946D01*
Y370914D01*
X162036Y371343D01*
X161793Y371707D01*
X161793Y371707D01*
X161207Y372293D01*
X160843Y372536D01*
X160414Y372622D01*
X160414Y372621D01*
X143891D01*
X143708Y373063D01*
X143211Y373711D01*
X142563Y374208D01*
X141809Y374520D01*
X141000Y374627D01*
D02*
G37*
G36*
X575000Y391150D02*
X572474Y390951D01*
X570009Y390359D01*
X567668Y389390D01*
X565507Y388066D01*
X563580Y386420D01*
X561935Y384493D01*
X560610Y382332D01*
X559641Y379991D01*
X559049Y377526D01*
X558850Y375000D01*
X559049Y372474D01*
X559641Y370009D01*
X560610Y367668D01*
X561935Y365507D01*
X563580Y363580D01*
X565507Y361934D01*
X567668Y360610D01*
X570009Y359641D01*
X572474Y359049D01*
X575000Y358850D01*
X577526Y359049D01*
X579991Y359641D01*
X582332Y360610D01*
X584493Y361934D01*
X586420Y363580D01*
X588065Y365507D01*
X589390Y367668D01*
X590359Y370009D01*
X590951Y372474D01*
X591150Y375000D01*
X590951Y377526D01*
X590359Y379991D01*
X589390Y382332D01*
X588065Y384493D01*
X586420Y386420D01*
X584493Y388066D01*
X582332Y389390D01*
X579991Y390359D01*
X577526Y390951D01*
X575000Y391150D01*
D02*
G37*
G36*
X25000D02*
X22474Y390951D01*
X20009Y390359D01*
X17668Y389390D01*
X15507Y388066D01*
X13580Y386420D01*
X11935Y384493D01*
X10610Y382332D01*
X9641Y379991D01*
X9049Y377526D01*
X8850Y375000D01*
X9049Y372474D01*
X9641Y370009D01*
X10610Y367668D01*
X11935Y365507D01*
X13580Y363580D01*
X15507Y361934D01*
X17668Y360610D01*
X20009Y359641D01*
X22474Y359049D01*
X25000Y358850D01*
X27526Y359049D01*
X29991Y359641D01*
X32332Y360610D01*
X34493Y361934D01*
X36420Y363580D01*
X38065Y365507D01*
X39390Y367668D01*
X40359Y370009D01*
X40951Y372474D01*
X41150Y375000D01*
X40951Y377526D01*
X40359Y379991D01*
X39390Y382332D01*
X38065Y384493D01*
X36420Y386420D01*
X34493Y388066D01*
X32332Y389390D01*
X29991Y390359D01*
X27526Y390951D01*
X25000Y391150D01*
D02*
G37*
G36*
X322500Y377383D02*
X321495Y377251D01*
X320558Y376863D01*
X319754Y376246D01*
X319137Y375442D01*
X318749Y374505D01*
X318617Y373500D01*
X318749Y372495D01*
X319137Y371558D01*
X319754Y370754D01*
X320558Y370137D01*
X321378Y369797D01*
Y354805D01*
X320937Y354622D01*
X320289Y354125D01*
X319792Y353478D01*
X319480Y352724D01*
X319373Y351914D01*
X319480Y351105D01*
X319792Y350351D01*
X320289Y349703D01*
X320937Y349206D01*
X321691Y348894D01*
X322500Y348787D01*
X323309Y348894D01*
X324063Y349206D01*
X324711Y349703D01*
X325208Y350351D01*
X325520Y351105D01*
X325627Y351914D01*
X325520Y352724D01*
X325208Y353478D01*
X324711Y354125D01*
X324063Y354622D01*
X323622Y354805D01*
Y369797D01*
X324442Y370137D01*
X325246Y370754D01*
X325863Y371558D01*
X326251Y372495D01*
X326383Y373500D01*
X326251Y374505D01*
X325863Y375442D01*
X325246Y376246D01*
X324442Y376863D01*
X323505Y377251D01*
X322500Y377383D01*
D02*
G37*
G36*
X70000Y350941D02*
X69191Y350834D01*
X68437Y350522D01*
X67789Y350025D01*
X67292Y349378D01*
X67109Y348936D01*
X21586D01*
X21157Y348850D01*
X20793Y348607D01*
X20793Y348607D01*
X20207Y348022D01*
X19964Y347658D01*
X19878Y347228D01*
X19879Y347228D01*
Y337891D01*
X19437Y337708D01*
X18789Y337211D01*
X18292Y336563D01*
X17980Y335809D01*
X17873Y335000D01*
X17980Y334191D01*
X18292Y333437D01*
X18789Y332789D01*
X19437Y332292D01*
X20191Y331980D01*
X21000Y331873D01*
X21809Y331980D01*
X22563Y332292D01*
X23211Y332789D01*
X23708Y333437D01*
X24020Y334191D01*
X24127Y335000D01*
X24020Y335809D01*
X23708Y336563D01*
X23211Y337211D01*
X22563Y337708D01*
X22121Y337891D01*
Y346693D01*
X67109D01*
X67292Y346251D01*
X67789Y345603D01*
X68437Y345106D01*
X69191Y344794D01*
X70000Y344688D01*
X70809Y344794D01*
X71563Y345106D01*
X72211Y345603D01*
X72708Y346251D01*
X73020Y347005D01*
X73127Y347814D01*
X73020Y348623D01*
X72708Y349378D01*
X72211Y350025D01*
X71563Y350522D01*
X70809Y350834D01*
X70000Y350941D01*
D02*
G37*
G36*
X187500Y350627D02*
X186691Y350520D01*
X185937Y350208D01*
X185289Y349711D01*
X184792Y349063D01*
X184480Y348309D01*
X184373Y347500D01*
X184385Y347413D01*
X179486Y342514D01*
X179022Y341819D01*
X178859Y341000D01*
Y323025D01*
X178076Y322424D01*
X177419Y321568D01*
X177006Y320570D01*
X176865Y319500D01*
X177006Y318430D01*
X177419Y317432D01*
X178076Y316576D01*
X178932Y315919D01*
X179930Y315506D01*
X181000Y315365D01*
X182070Y315506D01*
X183068Y315919D01*
X183924Y316576D01*
X184581Y317432D01*
X184994Y318430D01*
X185135Y319500D01*
X184994Y320570D01*
X184581Y321568D01*
X183924Y322424D01*
X183141Y323025D01*
Y340113D01*
X187413Y344385D01*
X187500Y344373D01*
X188309Y344480D01*
X189063Y344792D01*
X189711Y345289D01*
X190208Y345937D01*
X190520Y346691D01*
X190627Y347500D01*
X190520Y348309D01*
X190208Y349063D01*
X189711Y349711D01*
X189063Y350208D01*
X188309Y350520D01*
X187500Y350627D01*
D02*
G37*
G36*
X332500Y377383D02*
X331495Y377251D01*
X330558Y376863D01*
X329754Y376246D01*
X329137Y375442D01*
X328749Y374505D01*
X328617Y373500D01*
X328749Y372495D01*
X329137Y371558D01*
X329754Y370754D01*
X330558Y370137D01*
X331379Y369797D01*
Y343621D01*
X272891D01*
X272708Y344063D01*
X272211Y344711D01*
X271563Y345208D01*
X270809Y345520D01*
X270000Y345627D01*
X269191Y345520D01*
X268437Y345208D01*
X267789Y344711D01*
X267292Y344063D01*
X266980Y343309D01*
X266873Y342500D01*
X266980Y341691D01*
X267292Y340937D01*
X267789Y340289D01*
X268437Y339792D01*
X269191Y339480D01*
X270000Y339373D01*
X270809Y339480D01*
X271563Y339792D01*
X272211Y340289D01*
X272708Y340937D01*
X272891Y341378D01*
X331914D01*
X331914Y341378D01*
X332343Y341464D01*
X332707Y341707D01*
X333293Y342293D01*
X333293Y342293D01*
X333536Y342657D01*
X333622Y343086D01*
Y369797D01*
X334442Y370137D01*
X335246Y370754D01*
X335863Y371558D01*
X336251Y372495D01*
X336383Y373500D01*
X336251Y374505D01*
X335863Y375442D01*
X335246Y376246D01*
X334442Y376863D01*
X333505Y377251D01*
X332500Y377383D01*
D02*
G37*
G36*
X145000Y339627D02*
X144191Y339520D01*
X143437Y339208D01*
X142789Y338711D01*
X142292Y338063D01*
X141980Y337309D01*
X141873Y336500D01*
X141980Y335691D01*
X142163Y335249D01*
X140207Y333293D01*
X139964Y332929D01*
X139878Y332500D01*
X139878Y332500D01*
Y323473D01*
X138932Y323081D01*
X138076Y322424D01*
X137419Y321568D01*
X137005Y320570D01*
X136865Y319500D01*
X137005Y318430D01*
X137419Y317432D01*
X138076Y316576D01*
X138932Y315919D01*
X139930Y315506D01*
X141000Y315365D01*
X142070Y315506D01*
X143068Y315919D01*
X143924Y316576D01*
X144581Y317432D01*
X144994Y318430D01*
X145135Y319500D01*
X144994Y320570D01*
X144581Y321568D01*
X143924Y322424D01*
X143068Y323081D01*
X142122Y323473D01*
Y332035D01*
X143749Y333663D01*
X144191Y333480D01*
X145000Y333373D01*
X145809Y333480D01*
X146563Y333792D01*
X147211Y334289D01*
X147708Y334937D01*
X148020Y335691D01*
X148127Y336500D01*
X148020Y337309D01*
X147708Y338063D01*
X147211Y338711D01*
X146563Y339208D01*
X145809Y339520D01*
X145000Y339627D01*
D02*
G37*
G36*
X250664Y361122D02*
X250664Y361122D01*
X81586D01*
X81157Y361036D01*
X80793Y360793D01*
X80793Y360793D01*
X80207Y360207D01*
X79964Y359843D01*
X79878Y359414D01*
X79878Y359414D01*
Y338965D01*
X74305Y333391D01*
X52477D01*
X52294Y333833D01*
X51797Y334481D01*
X51150Y334977D01*
X50396Y335290D01*
X49586Y335396D01*
X48777Y335290D01*
X48023Y334977D01*
X47375Y334481D01*
X46878Y333833D01*
X46566Y333079D01*
X46460Y332270D01*
X46566Y331460D01*
X46878Y330706D01*
X47375Y330059D01*
X48023Y329562D01*
X48777Y329249D01*
X49586Y329143D01*
X50396Y329249D01*
X51150Y329562D01*
X51797Y330059D01*
X52294Y330706D01*
X52477Y331148D01*
X74770D01*
X74770Y331148D01*
X75199Y331233D01*
X75563Y331476D01*
X81793Y337707D01*
X81793Y337707D01*
X82036Y338071D01*
X82122Y338500D01*
Y358878D01*
X250129D01*
Y332111D01*
X249667Y331920D01*
X246442Y335144D01*
Y349520D01*
X246884Y349703D01*
X247531Y350200D01*
X248028Y350847D01*
X248341Y351601D01*
X248447Y352410D01*
X248341Y353220D01*
X248028Y353974D01*
X247531Y354621D01*
X246884Y355118D01*
X246129Y355431D01*
X245320Y355537D01*
X244511Y355431D01*
X243757Y355118D01*
X243109Y354621D01*
X242612Y353974D01*
X242300Y353220D01*
X242194Y352410D01*
X242300Y351601D01*
X242612Y350847D01*
X243109Y350200D01*
X243757Y349703D01*
X244199Y349520D01*
Y334680D01*
X244199Y334680D01*
X244284Y334251D01*
X244527Y333887D01*
X248529Y329885D01*
Y300779D01*
X248028Y300747D01*
X248020Y300809D01*
X247708Y301563D01*
X247211Y302211D01*
X246563Y302708D01*
X245809Y303020D01*
X245000Y303127D01*
X244191Y303020D01*
X243437Y302708D01*
X242789Y302211D01*
X242292Y301563D01*
X241980Y300809D01*
X241873Y300000D01*
X241980Y299191D01*
X242292Y298437D01*
X242789Y297789D01*
X243437Y297292D01*
X243879Y297109D01*
Y201122D01*
X222891D01*
X222708Y201563D01*
X222211Y202211D01*
X221563Y202708D01*
X220809Y203020D01*
X220000Y203127D01*
X219191Y203020D01*
X218437Y202708D01*
X217789Y202211D01*
X217292Y201563D01*
X216980Y200809D01*
X216873Y200000D01*
X216980Y199191D01*
X217292Y198437D01*
X217789Y197789D01*
X218437Y197292D01*
X219191Y196980D01*
X220000Y196873D01*
X220809Y196980D01*
X221563Y197292D01*
X222211Y197789D01*
X222708Y198437D01*
X222891Y198878D01*
X244414D01*
X244414Y198878D01*
X244843Y198964D01*
X245207Y199207D01*
X245793Y199793D01*
X245793Y199793D01*
X246036Y200157D01*
X246122Y200586D01*
Y297109D01*
X246563Y297292D01*
X247211Y297789D01*
X247708Y298437D01*
X248020Y299191D01*
X248028Y299253D01*
X248529Y299221D01*
Y163622D01*
X205000D01*
X205000Y163622D01*
X204571Y163536D01*
X204207Y163293D01*
X190207Y149293D01*
X189964Y148929D01*
X189878Y148500D01*
X189878Y148500D01*
Y83473D01*
X188932Y83081D01*
X188076Y82424D01*
X187419Y81568D01*
X187005Y80570D01*
X186865Y79500D01*
X187005Y78430D01*
X187419Y77432D01*
X188076Y76576D01*
X188932Y75919D01*
X189930Y75506D01*
X191000Y75365D01*
X192070Y75506D01*
X193068Y75919D01*
X193924Y76576D01*
X194581Y77432D01*
X194994Y78430D01*
X195135Y79500D01*
X194994Y80570D01*
X194581Y81568D01*
X193924Y82424D01*
X193068Y83081D01*
X192122Y83473D01*
Y148035D01*
X205465Y161378D01*
X249064D01*
X249064Y161378D01*
X249493Y161464D01*
X249857Y161707D01*
X250443Y162293D01*
X250443Y162293D01*
X250686Y162657D01*
X250772Y163086D01*
Y314089D01*
X251234Y314280D01*
X259207Y306307D01*
X259207Y306307D01*
X259571Y306064D01*
X260000Y305978D01*
X363871D01*
X363871Y305978D01*
X364301Y306064D01*
X364664Y306307D01*
X375465Y317107D01*
X397912D01*
X398879Y316141D01*
Y288400D01*
X398878Y288400D01*
X398964Y287971D01*
X399207Y287607D01*
X416778Y270036D01*
Y265591D01*
X416337Y265408D01*
X415689Y264911D01*
X415192Y264264D01*
X414880Y263509D01*
X414773Y262700D01*
X414880Y261891D01*
X415192Y261137D01*
X415689Y260489D01*
X416337Y259992D01*
X417091Y259680D01*
X417900Y259573D01*
X418709Y259680D01*
X419463Y259992D01*
X420111Y260489D01*
X420608Y261137D01*
X420920Y261891D01*
X421027Y262700D01*
X420920Y263509D01*
X420608Y264264D01*
X420111Y264911D01*
X419463Y265408D01*
X419022Y265591D01*
Y270500D01*
X418936Y270929D01*
X418693Y271293D01*
X418693Y271293D01*
X401122Y288865D01*
Y316605D01*
X401122Y316605D01*
X401036Y317035D01*
X400793Y317399D01*
X399170Y319022D01*
X398806Y319265D01*
X398377Y319350D01*
X398377Y319350D01*
X375000D01*
X374571Y319265D01*
X374207Y319022D01*
X374207Y319022D01*
X363407Y308222D01*
X260465D01*
X252372Y316315D01*
Y359414D01*
X252286Y359843D01*
X252043Y360207D01*
X252043Y360207D01*
X251457Y360793D01*
X251093Y361036D01*
X250664Y361122D01*
D02*
G37*
G36*
X466793Y326528D02*
X465984Y326421D01*
X465230Y326109D01*
X464582Y325612D01*
X464085Y324964D01*
X463902Y324522D01*
X427501D01*
X427501Y324522D01*
X427072Y324437D01*
X426708Y324194D01*
X426708Y324194D01*
X416707Y314193D01*
X416464Y313829D01*
X416378Y313400D01*
X416378Y313400D01*
Y285225D01*
X416337Y285208D01*
X415689Y284711D01*
X415192Y284063D01*
X414880Y283309D01*
X414773Y282500D01*
X414880Y281691D01*
X415192Y280937D01*
X415689Y280289D01*
X416337Y279792D01*
X417091Y279480D01*
X417900Y279373D01*
X418709Y279480D01*
X419463Y279792D01*
X420111Y280289D01*
X420608Y280937D01*
X420920Y281691D01*
X421027Y282500D01*
X420920Y283309D01*
X420608Y284063D01*
X420111Y284711D01*
X419463Y285208D01*
X418709Y285520D01*
X418622Y285532D01*
Y312935D01*
X427965Y322279D01*
X463902D01*
X464085Y321838D01*
X464582Y321190D01*
X465230Y320693D01*
X465984Y320381D01*
X466793Y320274D01*
X467602Y320381D01*
X468356Y320693D01*
X469004Y321190D01*
X469501Y321838D01*
X469813Y322592D01*
X469920Y323401D01*
X469813Y324210D01*
X469501Y324964D01*
X469004Y325612D01*
X468356Y326109D01*
X467602Y326421D01*
X466793Y326528D01*
D02*
G37*
G36*
X121500Y323973D02*
Y320000D01*
X125473D01*
X125384Y320675D01*
X124931Y321769D01*
X124209Y322709D01*
X123269Y323431D01*
X122175Y323884D01*
X121500Y323973D01*
D02*
G37*
G36*
X120500D02*
X119825Y323884D01*
X118731Y323431D01*
X117791Y322709D01*
X117069Y321769D01*
X116616Y320675D01*
X116527Y320000D01*
X120500D01*
Y323973D01*
D02*
G37*
G36*
X257500Y370627D02*
X256691Y370520D01*
X255937Y370208D01*
X255289Y369711D01*
X254792Y369063D01*
X254480Y368309D01*
X254373Y367500D01*
X254480Y366691D01*
X254792Y365937D01*
X255289Y365289D01*
X255937Y364792D01*
X256379Y364609D01*
Y339257D01*
X256378Y339257D01*
X256464Y338828D01*
X256707Y338464D01*
X275964Y319207D01*
X276328Y318964D01*
X276757Y318878D01*
X276757Y318879D01*
X322109D01*
X322292Y318437D01*
X322789Y317789D01*
X323437Y317292D01*
X324191Y316980D01*
X325000Y316873D01*
X325809Y316980D01*
X326563Y317292D01*
X327211Y317789D01*
X327708Y318437D01*
X328020Y319191D01*
X328127Y320000D01*
X328020Y320809D01*
X327708Y321563D01*
X327211Y322211D01*
X326563Y322708D01*
X325809Y323020D01*
X325000Y323127D01*
X324191Y323020D01*
X323437Y322708D01*
X322789Y322211D01*
X322292Y321563D01*
X322109Y321122D01*
X277222D01*
X258622Y339722D01*
Y364609D01*
X259063Y364792D01*
X259711Y365289D01*
X260208Y365937D01*
X260520Y366691D01*
X260627Y367500D01*
X260520Y368309D01*
X260208Y369063D01*
X259711Y369711D01*
X259063Y370208D01*
X258309Y370520D01*
X257500Y370627D01*
D02*
G37*
G36*
X211000Y323635D02*
X209930Y323495D01*
X208932Y323081D01*
X208076Y322424D01*
X207419Y321568D01*
X207006Y320570D01*
X206865Y319500D01*
X207006Y318430D01*
X207419Y317432D01*
X208076Y316576D01*
X208932Y315919D01*
X209930Y315506D01*
X211000Y315365D01*
X212070Y315506D01*
X213068Y315919D01*
X213924Y316576D01*
X214581Y317432D01*
X214995Y318430D01*
X215135Y319500D01*
X214995Y320570D01*
X214581Y321568D01*
X213924Y322424D01*
X213068Y323081D01*
X212070Y323495D01*
X211000Y323635D01*
D02*
G37*
G36*
X201000D02*
X199930Y323495D01*
X198932Y323081D01*
X198076Y322424D01*
X197419Y321568D01*
X197005Y320570D01*
X196865Y319500D01*
X197005Y318430D01*
X197419Y317432D01*
X198076Y316576D01*
X198932Y315919D01*
X199930Y315506D01*
X201000Y315365D01*
X202070Y315506D01*
X203068Y315919D01*
X203924Y316576D01*
X204581Y317432D01*
X204995Y318430D01*
X205135Y319500D01*
X204995Y320570D01*
X204581Y321568D01*
X203924Y322424D01*
X203068Y323081D01*
X202070Y323495D01*
X201000Y323635D01*
D02*
G37*
G36*
X191000D02*
X189930Y323495D01*
X188932Y323081D01*
X188076Y322424D01*
X187419Y321568D01*
X187005Y320570D01*
X186865Y319500D01*
X187005Y318430D01*
X187419Y317432D01*
X188076Y316576D01*
X188932Y315919D01*
X189930Y315506D01*
X191000Y315365D01*
X192070Y315506D01*
X193068Y315919D01*
X193924Y316576D01*
X194581Y317432D01*
X194994Y318430D01*
X195135Y319500D01*
X194994Y320570D01*
X194581Y321568D01*
X193924Y322424D01*
X193068Y323081D01*
X192070Y323495D01*
X191000Y323635D01*
D02*
G37*
G36*
X161000Y358127D02*
X160191Y358020D01*
X159437Y357708D01*
X158789Y357211D01*
X158292Y356563D01*
X157980Y355809D01*
X157873Y355000D01*
X157980Y354191D01*
X158292Y353437D01*
X158789Y352789D01*
X159437Y352292D01*
X159878Y352109D01*
Y323473D01*
X158932Y323081D01*
X158076Y322424D01*
X157419Y321568D01*
X157006Y320570D01*
X156865Y319500D01*
X157006Y318430D01*
X157419Y317432D01*
X158076Y316576D01*
X158932Y315919D01*
X159930Y315506D01*
X161000Y315365D01*
X162070Y315506D01*
X163068Y315919D01*
X163924Y316576D01*
X164581Y317432D01*
X164995Y318430D01*
X165135Y319500D01*
X164995Y320570D01*
X164581Y321568D01*
X163924Y322424D01*
X163068Y323081D01*
X162122Y323473D01*
Y352109D01*
X162563Y352292D01*
X163211Y352789D01*
X163708Y353437D01*
X164020Y354191D01*
X164127Y355000D01*
X164020Y355809D01*
X163708Y356563D01*
X163211Y357211D01*
X162563Y357708D01*
X161809Y358020D01*
X161000Y358127D01*
D02*
G37*
G36*
X151000D02*
X150191Y358020D01*
X149437Y357708D01*
X148789Y357211D01*
X148292Y356563D01*
X147980Y355809D01*
X147873Y355000D01*
X147980Y354191D01*
X148292Y353437D01*
X148789Y352789D01*
X149437Y352292D01*
X149878Y352109D01*
Y323473D01*
X148932Y323081D01*
X148076Y322424D01*
X147419Y321568D01*
X147005Y320570D01*
X146865Y319500D01*
X147005Y318430D01*
X147419Y317432D01*
X148076Y316576D01*
X148932Y315919D01*
X149930Y315506D01*
X151000Y315365D01*
X152070Y315506D01*
X153068Y315919D01*
X153924Y316576D01*
X154581Y317432D01*
X154994Y318430D01*
X155135Y319500D01*
X154994Y320570D01*
X154581Y321568D01*
X153924Y322424D01*
X153068Y323081D01*
X152122Y323473D01*
Y352109D01*
X152563Y352292D01*
X153211Y352789D01*
X153708Y353437D01*
X154020Y354191D01*
X154127Y355000D01*
X154020Y355809D01*
X153708Y356563D01*
X153211Y357211D01*
X152563Y357708D01*
X151809Y358020D01*
X151000Y358127D01*
D02*
G37*
G36*
X131000Y323635D02*
X129930Y323495D01*
X128932Y323081D01*
X128076Y322424D01*
X127419Y321568D01*
X127006Y320570D01*
X126865Y319500D01*
X127006Y318430D01*
X127419Y317432D01*
X128076Y316576D01*
X128932Y315919D01*
X129930Y315506D01*
X131000Y315365D01*
X132070Y315506D01*
X133068Y315919D01*
X133924Y316576D01*
X134581Y317432D01*
X134994Y318430D01*
X135135Y319500D01*
X134994Y320570D01*
X134581Y321568D01*
X133924Y322424D01*
X133068Y323081D01*
X132070Y323495D01*
X131000Y323635D01*
D02*
G37*
G36*
X111000D02*
X109930Y323495D01*
X108932Y323081D01*
X108076Y322424D01*
X107419Y321568D01*
X107006Y320570D01*
X106865Y319500D01*
X107006Y318430D01*
X107419Y317432D01*
X108076Y316576D01*
X108932Y315919D01*
X109930Y315506D01*
X111000Y315365D01*
X112070Y315506D01*
X113068Y315919D01*
X113924Y316576D01*
X114581Y317432D01*
X114995Y318430D01*
X115135Y319500D01*
X114995Y320570D01*
X114581Y321568D01*
X113924Y322424D01*
X113068Y323081D01*
X112070Y323495D01*
X111000Y323635D01*
D02*
G37*
G36*
X101000D02*
X99930Y323495D01*
X98932Y323081D01*
X98076Y322424D01*
X97419Y321568D01*
X97005Y320570D01*
X96865Y319500D01*
X97005Y318430D01*
X97419Y317432D01*
X98076Y316576D01*
X98932Y315919D01*
X99930Y315506D01*
X101000Y315365D01*
X102070Y315506D01*
X103068Y315919D01*
X103924Y316576D01*
X104581Y317432D01*
X104994Y318430D01*
X105135Y319500D01*
X104994Y320570D01*
X104581Y321568D01*
X103924Y322424D01*
X103068Y323081D01*
X102070Y323495D01*
X101000Y323635D01*
D02*
G37*
G36*
X91000D02*
X89930Y323495D01*
X88932Y323081D01*
X88076Y322424D01*
X87419Y321568D01*
X87006Y320570D01*
X86865Y319500D01*
X87006Y318430D01*
X87419Y317432D01*
X88076Y316576D01*
X88932Y315919D01*
X89930Y315506D01*
X91000Y315365D01*
X92070Y315506D01*
X93068Y315919D01*
X93924Y316576D01*
X94581Y317432D01*
X94994Y318430D01*
X95135Y319500D01*
X94994Y320570D01*
X94581Y321568D01*
X93924Y322424D01*
X93068Y323081D01*
X92070Y323495D01*
X91000Y323635D01*
D02*
G37*
G36*
X81000D02*
X79930Y323495D01*
X78932Y323081D01*
X78076Y322424D01*
X77419Y321568D01*
X77005Y320570D01*
X76865Y319500D01*
X77005Y318430D01*
X77419Y317432D01*
X78076Y316576D01*
X78932Y315919D01*
X79930Y315506D01*
X81000Y315365D01*
X82070Y315506D01*
X83068Y315919D01*
X83924Y316576D01*
X84581Y317432D01*
X84995Y318430D01*
X85135Y319500D01*
X84995Y320570D01*
X84581Y321568D01*
X83924Y322424D01*
X83068Y323081D01*
X82070Y323495D01*
X81000Y323635D01*
D02*
G37*
G36*
X71000D02*
X69930Y323495D01*
X68932Y323081D01*
X68076Y322424D01*
X67419Y321568D01*
X67005Y320570D01*
X66865Y319500D01*
X67005Y318430D01*
X67419Y317432D01*
X68076Y316576D01*
X68932Y315919D01*
X69930Y315506D01*
X71000Y315365D01*
X72070Y315506D01*
X73068Y315919D01*
X73924Y316576D01*
X74581Y317432D01*
X74994Y318430D01*
X75135Y319500D01*
X74994Y320570D01*
X74581Y321568D01*
X73924Y322424D01*
X73068Y323081D01*
X72070Y323495D01*
X71000Y323635D01*
D02*
G37*
G36*
X61000D02*
X59930Y323495D01*
X58932Y323081D01*
X58076Y322424D01*
X57419Y321568D01*
X57006Y320570D01*
X56865Y319500D01*
X57006Y318430D01*
X57419Y317432D01*
X58076Y316576D01*
X58932Y315919D01*
X59930Y315506D01*
X61000Y315365D01*
X62070Y315506D01*
X63068Y315919D01*
X63924Y316576D01*
X64581Y317432D01*
X64995Y318430D01*
X65135Y319500D01*
X64995Y320570D01*
X64581Y321568D01*
X63924Y322424D01*
X63068Y323081D01*
X62070Y323495D01*
X61000Y323635D01*
D02*
G37*
G36*
X51000D02*
X49930Y323495D01*
X48932Y323081D01*
X48076Y322424D01*
X47419Y321568D01*
X47006Y320570D01*
X46865Y319500D01*
X47006Y318430D01*
X47419Y317432D01*
X48076Y316576D01*
X48932Y315919D01*
X49930Y315506D01*
X51000Y315365D01*
X52070Y315506D01*
X53068Y315919D01*
X53924Y316576D01*
X54581Y317432D01*
X54994Y318430D01*
X55135Y319500D01*
X54994Y320570D01*
X54581Y321568D01*
X53924Y322424D01*
X53068Y323081D01*
X52070Y323495D01*
X51000Y323635D01*
D02*
G37*
G36*
X41000D02*
X39930Y323495D01*
X38932Y323081D01*
X38076Y322424D01*
X37419Y321568D01*
X37005Y320570D01*
X36865Y319500D01*
X37005Y318430D01*
X37419Y317432D01*
X38076Y316576D01*
X38932Y315919D01*
X39930Y315506D01*
X41000Y315365D01*
X42070Y315506D01*
X43068Y315919D01*
X43924Y316576D01*
X44581Y317432D01*
X44995Y318430D01*
X45135Y319500D01*
X44995Y320570D01*
X44581Y321568D01*
X43924Y322424D01*
X43068Y323081D01*
X42070Y323495D01*
X41000Y323635D01*
D02*
G37*
G36*
X31000D02*
X29930Y323495D01*
X28932Y323081D01*
X28076Y322424D01*
X27419Y321568D01*
X27005Y320570D01*
X26865Y319500D01*
X27005Y318430D01*
X27419Y317432D01*
X28076Y316576D01*
X28932Y315919D01*
X29930Y315506D01*
X31000Y315365D01*
X32070Y315506D01*
X33068Y315919D01*
X33924Y316576D01*
X34581Y317432D01*
X34995Y318430D01*
X35135Y319500D01*
X34995Y320570D01*
X34581Y321568D01*
X33924Y322424D01*
X33068Y323081D01*
X32070Y323495D01*
X31000Y323635D01*
D02*
G37*
G36*
X125473Y319000D02*
X121500D01*
Y315027D01*
X122175Y315116D01*
X123269Y315569D01*
X124209Y316291D01*
X124931Y317231D01*
X125384Y318325D01*
X125473Y319000D01*
D02*
G37*
G36*
X120500D02*
X116527D01*
X116616Y318325D01*
X117069Y317231D01*
X117791Y316291D01*
X118731Y315569D01*
X119825Y315116D01*
X120500Y315027D01*
Y319000D01*
D02*
G37*
G36*
X577500Y319741D02*
X576575Y319557D01*
X575790Y319033D01*
X575266Y318248D01*
X575082Y317323D01*
X575266Y316397D01*
X575790Y315613D01*
X576575Y315089D01*
X577500Y314905D01*
X578425Y315089D01*
X579210Y315613D01*
X579734Y316397D01*
X579918Y317323D01*
X579734Y318248D01*
X579210Y319033D01*
X578425Y319557D01*
X577500Y319741D01*
D02*
G37*
G36*
X342500Y377383D02*
X341495Y377251D01*
X340558Y376863D01*
X339754Y376246D01*
X339137Y375442D01*
X338749Y374505D01*
X338617Y373500D01*
X338749Y372495D01*
X339137Y371558D01*
X339754Y370754D01*
X340558Y370137D01*
X341378Y369797D01*
Y317891D01*
X340937Y317708D01*
X340289Y317211D01*
X339792Y316563D01*
X339480Y315809D01*
X339373Y315000D01*
X339480Y314191D01*
X339792Y313437D01*
X340289Y312789D01*
X340937Y312292D01*
X341691Y311980D01*
X342500Y311873D01*
X343309Y311980D01*
X344063Y312292D01*
X344711Y312789D01*
X345208Y313437D01*
X345520Y314191D01*
X345627Y315000D01*
X345520Y315809D01*
X345208Y316563D01*
X344711Y317211D01*
X344063Y317708D01*
X343621Y317891D01*
Y369797D01*
X344442Y370137D01*
X345246Y370754D01*
X345863Y371558D01*
X346251Y372495D01*
X346383Y373500D01*
X346251Y374505D01*
X345863Y375442D01*
X345246Y376246D01*
X344442Y376863D01*
X343505Y377251D01*
X342500Y377383D01*
D02*
G37*
G36*
X71500Y313973D02*
Y310000D01*
X75473D01*
X75384Y310675D01*
X74931Y311769D01*
X74209Y312709D01*
X73269Y313431D01*
X72175Y313884D01*
X71500Y313973D01*
D02*
G37*
G36*
X70500D02*
X69825Y313884D01*
X68731Y313431D01*
X67791Y312709D01*
X67069Y311769D01*
X66616Y310675D01*
X66527Y310000D01*
X70500D01*
Y313973D01*
D02*
G37*
G36*
X352500Y377383D02*
X351495Y377251D01*
X350558Y376863D01*
X349754Y376246D01*
X349137Y375442D01*
X348749Y374505D01*
X348617Y373500D01*
X348749Y372495D01*
X349137Y371558D01*
X349754Y370754D01*
X350558Y370137D01*
X351378Y369797D01*
Y314859D01*
X350937Y314676D01*
X350289Y314179D01*
X349792Y313532D01*
X349480Y312778D01*
X349373Y311968D01*
X349480Y311159D01*
X349792Y310405D01*
X350289Y309758D01*
X350937Y309261D01*
X351691Y308948D01*
X352500Y308842D01*
X353309Y308948D01*
X354063Y309261D01*
X354711Y309758D01*
X355208Y310405D01*
X355520Y311159D01*
X355627Y311968D01*
X355520Y312778D01*
X355208Y313532D01*
X354711Y314179D01*
X354063Y314676D01*
X353622Y314859D01*
Y369797D01*
X354442Y370137D01*
X355246Y370754D01*
X355863Y371558D01*
X356251Y372495D01*
X356383Y373500D01*
X356251Y374505D01*
X355863Y375442D01*
X355246Y376246D01*
X354442Y376863D01*
X353505Y377251D01*
X352500Y377383D01*
D02*
G37*
G36*
X459322Y320511D02*
X459322Y320511D01*
X432500D01*
X432071Y320426D01*
X431707Y320183D01*
X431707Y320183D01*
X424207Y312683D01*
X423964Y312319D01*
X423878Y311890D01*
X423878Y311890D01*
Y307891D01*
X423437Y307708D01*
X422789Y307211D01*
X422292Y306563D01*
X421980Y305809D01*
X421873Y305000D01*
X421980Y304191D01*
X422292Y303437D01*
X422789Y302789D01*
X423437Y302292D01*
X424191Y301980D01*
X425000Y301873D01*
X425809Y301980D01*
X426563Y302292D01*
X427211Y302789D01*
X427708Y303437D01*
X428020Y304191D01*
X428127Y305000D01*
X428020Y305809D01*
X427708Y306563D01*
X427211Y307211D01*
X426563Y307708D01*
X426122Y307891D01*
Y311425D01*
X432965Y318268D01*
X458786D01*
Y311629D01*
X458786Y311629D01*
X458872Y311200D01*
X459115Y310836D01*
X459701Y310250D01*
X459701Y310250D01*
X460065Y310007D01*
X460494Y309922D01*
X463902D01*
X464085Y309480D01*
X464582Y308832D01*
X465230Y308335D01*
X465984Y308023D01*
X466793Y307916D01*
X467602Y308023D01*
X468357Y308335D01*
X469004Y308832D01*
X469501Y309480D01*
X469813Y310234D01*
X469920Y311043D01*
X469813Y311853D01*
X469501Y312607D01*
X469004Y313254D01*
X468357Y313751D01*
X467602Y314063D01*
X466793Y314170D01*
X465984Y314063D01*
X465230Y313751D01*
X464582Y313254D01*
X464085Y312607D01*
X463902Y312165D01*
X461030D01*
Y318804D01*
X460944Y319233D01*
X460701Y319597D01*
X460701Y319597D01*
X460115Y320183D01*
X459752Y320426D01*
X459322Y320511D01*
D02*
G37*
G36*
X382784Y314170D02*
X381975Y314063D01*
X381221Y313751D01*
X380573Y313254D01*
X380076Y312607D01*
X379764Y311853D01*
X379657Y311043D01*
X379669Y310956D01*
X368354Y299641D01*
X261757D01*
X260938Y299478D01*
X260243Y299014D01*
X258486Y297257D01*
X258022Y296562D01*
X257859Y295743D01*
Y197500D01*
Y124765D01*
X257789Y124711D01*
X257292Y124063D01*
X256980Y123309D01*
X256873Y122500D01*
X256980Y121691D01*
X257292Y120937D01*
X257789Y120289D01*
X258437Y119792D01*
X259191Y119480D01*
X260000Y119373D01*
X260809Y119480D01*
X261563Y119792D01*
X262211Y120289D01*
X262708Y120937D01*
X263020Y121691D01*
X263127Y122500D01*
X263020Y123309D01*
X262708Y124063D01*
X262211Y124711D01*
X262141Y124765D01*
Y195359D01*
X320380D01*
X351508Y164231D01*
X351497Y164144D01*
X351603Y163334D01*
X351915Y162580D01*
X352412Y161933D01*
X353060Y161436D01*
X353814Y161123D01*
X354623Y161017D01*
X355433Y161123D01*
X356187Y161436D01*
X356834Y161933D01*
X357331Y162580D01*
X357644Y163334D01*
X357750Y164144D01*
X357644Y164953D01*
X357331Y165707D01*
X356834Y166355D01*
X356187Y166851D01*
X355433Y167164D01*
X354623Y167270D01*
X354536Y167259D01*
X322781Y199014D01*
X322086Y199478D01*
X321267Y199641D01*
X262141D01*
Y294856D01*
X262644Y295359D01*
X369241D01*
X370060Y295522D01*
X370755Y295986D01*
X382697Y307928D01*
X382784Y307916D01*
X383593Y308023D01*
X384348Y308335D01*
X384995Y308832D01*
X385492Y309480D01*
X385804Y310234D01*
X385911Y311043D01*
X385804Y311853D01*
X385492Y312607D01*
X384995Y313254D01*
X384348Y313751D01*
X383593Y314063D01*
X382784Y314170D01*
D02*
G37*
G36*
X35100Y313600D02*
X26900D01*
Y305400D01*
X35100D01*
Y313600D01*
D02*
G37*
G36*
X211000Y313635D02*
X209930Y313494D01*
X208932Y313081D01*
X208076Y312424D01*
X207419Y311568D01*
X207006Y310570D01*
X206865Y309500D01*
X207006Y308430D01*
X207419Y307432D01*
X208076Y306576D01*
X208932Y305919D01*
X209930Y305505D01*
X211000Y305365D01*
X212070Y305505D01*
X213068Y305919D01*
X213924Y306576D01*
X214581Y307432D01*
X214995Y308430D01*
X215135Y309500D01*
X214995Y310570D01*
X214581Y311568D01*
X213924Y312424D01*
X213068Y313081D01*
X212070Y313494D01*
X211000Y313635D01*
D02*
G37*
G36*
X201000D02*
X199930Y313494D01*
X198932Y313081D01*
X198076Y312424D01*
X197419Y311568D01*
X197005Y310570D01*
X196865Y309500D01*
X197005Y308430D01*
X197419Y307432D01*
X198076Y306576D01*
X198932Y305919D01*
X199930Y305505D01*
X201000Y305365D01*
X202070Y305505D01*
X203068Y305919D01*
X203924Y306576D01*
X204581Y307432D01*
X204995Y308430D01*
X205135Y309500D01*
X204995Y310570D01*
X204581Y311568D01*
X203924Y312424D01*
X203068Y313081D01*
X202070Y313494D01*
X201000Y313635D01*
D02*
G37*
G36*
X191000D02*
X189930Y313494D01*
X188932Y313081D01*
X188076Y312424D01*
X187419Y311568D01*
X187005Y310570D01*
X186865Y309500D01*
X187005Y308430D01*
X187419Y307432D01*
X188076Y306576D01*
X188932Y305919D01*
X189930Y305505D01*
X191000Y305365D01*
X192070Y305505D01*
X193068Y305919D01*
X193924Y306576D01*
X194581Y307432D01*
X194994Y308430D01*
X195135Y309500D01*
X194994Y310570D01*
X194581Y311568D01*
X193924Y312424D01*
X193068Y313081D01*
X192070Y313494D01*
X191000Y313635D01*
D02*
G37*
G36*
X181000D02*
X179930Y313494D01*
X178932Y313081D01*
X178076Y312424D01*
X177419Y311568D01*
X177006Y310570D01*
X176865Y309500D01*
X177006Y308430D01*
X177419Y307432D01*
X178076Y306576D01*
X178932Y305919D01*
X179930Y305505D01*
X181000Y305365D01*
X182070Y305505D01*
X183068Y305919D01*
X183924Y306576D01*
X184581Y307432D01*
X184994Y308430D01*
X185135Y309500D01*
X184994Y310570D01*
X184581Y311568D01*
X183924Y312424D01*
X183068Y313081D01*
X182070Y313494D01*
X181000Y313635D01*
D02*
G37*
G36*
X171000D02*
X169930Y313494D01*
X168932Y313081D01*
X168076Y312424D01*
X167419Y311568D01*
X167006Y310570D01*
X166865Y309500D01*
X167006Y308430D01*
X167419Y307432D01*
X168076Y306576D01*
X168932Y305919D01*
X169930Y305505D01*
X171000Y305365D01*
X172070Y305505D01*
X173068Y305919D01*
X173924Y306576D01*
X174581Y307432D01*
X174995Y308430D01*
X175135Y309500D01*
X174995Y310570D01*
X174581Y311568D01*
X173924Y312424D01*
X173068Y313081D01*
X172070Y313494D01*
X171000Y313635D01*
D02*
G37*
G36*
X161000D02*
X159930Y313494D01*
X158932Y313081D01*
X158076Y312424D01*
X157419Y311568D01*
X157006Y310570D01*
X156865Y309500D01*
X157006Y308430D01*
X157419Y307432D01*
X158076Y306576D01*
X158932Y305919D01*
X159930Y305505D01*
X161000Y305365D01*
X162070Y305505D01*
X163068Y305919D01*
X163924Y306576D01*
X164581Y307432D01*
X164995Y308430D01*
X165135Y309500D01*
X164995Y310570D01*
X164581Y311568D01*
X163924Y312424D01*
X163068Y313081D01*
X162070Y313494D01*
X161000Y313635D01*
D02*
G37*
G36*
X151000D02*
X149930Y313494D01*
X148932Y313081D01*
X148076Y312424D01*
X147419Y311568D01*
X147005Y310570D01*
X146865Y309500D01*
X147005Y308430D01*
X147419Y307432D01*
X148076Y306576D01*
X148932Y305919D01*
X149930Y305505D01*
X151000Y305365D01*
X152070Y305505D01*
X153068Y305919D01*
X153924Y306576D01*
X154581Y307432D01*
X154994Y308430D01*
X155135Y309500D01*
X154994Y310570D01*
X154581Y311568D01*
X153924Y312424D01*
X153068Y313081D01*
X152070Y313494D01*
X151000Y313635D01*
D02*
G37*
G36*
X121000D02*
X119930Y313494D01*
X118932Y313081D01*
X118076Y312424D01*
X117419Y311568D01*
X117006Y310570D01*
X116865Y309500D01*
X117006Y308430D01*
X117419Y307432D01*
X118076Y306576D01*
X118932Y305919D01*
X119930Y305505D01*
X121000Y305365D01*
X122070Y305505D01*
X123068Y305919D01*
X123924Y306576D01*
X124581Y307432D01*
X124995Y308430D01*
X125135Y309500D01*
X124995Y310570D01*
X124581Y311568D01*
X123924Y312424D01*
X123068Y313081D01*
X122070Y313494D01*
X121000Y313635D01*
D02*
G37*
G36*
X81000D02*
X79930Y313494D01*
X78932Y313081D01*
X78076Y312424D01*
X77419Y311568D01*
X77005Y310570D01*
X76865Y309500D01*
X77005Y308430D01*
X77419Y307432D01*
X78076Y306576D01*
X78932Y305919D01*
X79930Y305505D01*
X81000Y305365D01*
X82070Y305505D01*
X83068Y305919D01*
X83924Y306576D01*
X84581Y307432D01*
X84995Y308430D01*
X85135Y309500D01*
X84995Y310570D01*
X84581Y311568D01*
X83924Y312424D01*
X83068Y313081D01*
X82070Y313494D01*
X81000Y313635D01*
D02*
G37*
G36*
X51000D02*
X49930Y313494D01*
X48932Y313081D01*
X48076Y312424D01*
X47419Y311568D01*
X47006Y310570D01*
X46865Y309500D01*
X47006Y308430D01*
X47419Y307432D01*
X48076Y306576D01*
X48932Y305919D01*
X49930Y305505D01*
X51000Y305365D01*
X52070Y305505D01*
X53068Y305919D01*
X53924Y306576D01*
X54581Y307432D01*
X54994Y308430D01*
X55135Y309500D01*
X54994Y310570D01*
X54581Y311568D01*
X53924Y312424D01*
X53068Y313081D01*
X52070Y313494D01*
X51000Y313635D01*
D02*
G37*
G36*
X41000D02*
X39930Y313494D01*
X38932Y313081D01*
X38076Y312424D01*
X37419Y311568D01*
X37005Y310570D01*
X36865Y309500D01*
X37005Y308430D01*
X37419Y307432D01*
X38076Y306576D01*
X38932Y305919D01*
X39930Y305505D01*
X41000Y305365D01*
X42070Y305505D01*
X43068Y305919D01*
X43924Y306576D01*
X44581Y307432D01*
X44995Y308430D01*
X45135Y309500D01*
X44995Y310570D01*
X44581Y311568D01*
X43924Y312424D01*
X43068Y313081D01*
X42070Y313494D01*
X41000Y313635D01*
D02*
G37*
G36*
X75473Y309000D02*
X71500D01*
Y305027D01*
X72175Y305116D01*
X73269Y305569D01*
X74209Y306291D01*
X74931Y307231D01*
X75384Y308325D01*
X75473Y309000D01*
D02*
G37*
G36*
X70500D02*
X66527D01*
X66616Y308325D01*
X67069Y307231D01*
X67791Y306291D01*
X68731Y305569D01*
X69825Y305116D01*
X70500Y305027D01*
Y309000D01*
D02*
G37*
G36*
X222500Y303127D02*
X221691Y303020D01*
X220937Y302708D01*
X220289Y302211D01*
X219792Y301563D01*
X219609Y301121D01*
X182500D01*
X182500Y301122D01*
X182071Y301036D01*
X181707Y300793D01*
X181707Y300793D01*
X177035Y296122D01*
X175391D01*
X175208Y296563D01*
X174711Y297211D01*
X174063Y297708D01*
X173309Y298020D01*
X172500Y298127D01*
X171691Y298020D01*
X170937Y297708D01*
X170289Y297211D01*
X169792Y296563D01*
X169480Y295809D01*
X169373Y295000D01*
X169480Y294191D01*
X169792Y293437D01*
X170289Y292789D01*
X170937Y292292D01*
X171691Y291980D01*
X172500Y291873D01*
X173309Y291980D01*
X174063Y292292D01*
X174711Y292789D01*
X175208Y293437D01*
X175391Y293879D01*
X177500D01*
X177500Y293878D01*
X177929Y293964D01*
X178293Y294207D01*
X182965Y298879D01*
X219609D01*
X219792Y298437D01*
X220289Y297789D01*
X220937Y297292D01*
X221691Y296980D01*
X222500Y296873D01*
X223309Y296980D01*
X224063Y297292D01*
X224711Y297789D01*
X225208Y298437D01*
X225520Y299191D01*
X225627Y300000D01*
X225520Y300809D01*
X225208Y301563D01*
X224711Y302211D01*
X224063Y302708D01*
X223309Y303020D01*
X222500Y303127D01*
D02*
G37*
G36*
X577500Y302418D02*
X576575Y302234D01*
X575790Y301710D01*
X575266Y300925D01*
X575082Y300000D01*
X575266Y299075D01*
X575790Y298290D01*
X576575Y297766D01*
X577500Y297582D01*
X578425Y297766D01*
X579210Y298290D01*
X579734Y299075D01*
X579918Y300000D01*
X579734Y300925D01*
X579210Y301710D01*
X578425Y302234D01*
X577500Y302418D01*
D02*
G37*
G36*
X460494Y308639D02*
X459685Y308532D01*
X458930Y308220D01*
X458283Y307723D01*
X457786Y307075D01*
X457474Y306321D01*
X457367Y305512D01*
X457474Y304702D01*
X457786Y303948D01*
X458283Y303301D01*
X458930Y302804D01*
X459372Y302621D01*
Y296122D01*
X428086D01*
X427657Y296036D01*
X427293Y295793D01*
X427293Y295793D01*
X426707Y295207D01*
X426464Y294843D01*
X426378Y294414D01*
X426378Y294414D01*
Y242765D01*
X425434Y241821D01*
X420791D01*
X420608Y242262D01*
X420111Y242910D01*
X419463Y243407D01*
X418709Y243719D01*
X417900Y243826D01*
X417091Y243719D01*
X416337Y243407D01*
X415689Y242910D01*
X415192Y242262D01*
X414880Y241508D01*
X414773Y240699D01*
X414880Y239890D01*
X415192Y239136D01*
X415689Y238488D01*
X416337Y237991D01*
X417091Y237679D01*
X417900Y237572D01*
X418709Y237679D01*
X419463Y237991D01*
X420111Y238488D01*
X420608Y239136D01*
X420791Y239578D01*
X425899D01*
X425899Y239578D01*
X426328Y239663D01*
X426692Y239906D01*
X428293Y241507D01*
X428293Y241507D01*
X428536Y241871D01*
X428622Y242300D01*
X428622Y242300D01*
Y293879D01*
X459908D01*
X459908Y293878D01*
X460337Y293964D01*
X460701Y294207D01*
X461287Y294793D01*
X461287Y294793D01*
X461530Y295157D01*
X461615Y295586D01*
Y302621D01*
X462057Y302804D01*
X462705Y303301D01*
X463202Y303948D01*
X463514Y304702D01*
X463621Y305512D01*
X463514Y306321D01*
X463202Y307075D01*
X462705Y307723D01*
X462057Y308220D01*
X461303Y308532D01*
X460494Y308639D01*
D02*
G37*
G36*
X236914Y353622D02*
X236914Y353622D01*
X171586D01*
X171157Y353536D01*
X170793Y353293D01*
X170793Y353293D01*
X170207Y352707D01*
X169964Y352343D01*
X169878Y351914D01*
X169878Y351914D01*
Y323473D01*
X168932Y323081D01*
X168076Y322424D01*
X167419Y321568D01*
X167006Y320570D01*
X166865Y319500D01*
X167006Y318430D01*
X167419Y317432D01*
X168076Y316576D01*
X168932Y315919D01*
X169930Y315506D01*
X171000Y315365D01*
X172070Y315506D01*
X173068Y315919D01*
X173924Y316576D01*
X174581Y317432D01*
X174995Y318430D01*
X175135Y319500D01*
X174995Y320570D01*
X174581Y321568D01*
X173924Y322424D01*
X173068Y323081D01*
X172122Y323473D01*
Y351378D01*
X236379D01*
Y293621D01*
X180000D01*
X179571Y293536D01*
X179207Y293293D01*
X179207Y293293D01*
X171707Y285793D01*
X171464Y285429D01*
X171378Y285000D01*
X171378Y285000D01*
Y262500D01*
X171378Y262500D01*
X171464Y262071D01*
X171707Y261707D01*
X174663Y258751D01*
X174480Y258309D01*
X174373Y257500D01*
X174480Y256691D01*
X174792Y255937D01*
X175289Y255289D01*
X175937Y254792D01*
X176691Y254480D01*
X177500Y254373D01*
X178309Y254480D01*
X179063Y254792D01*
X179711Y255289D01*
X180208Y255937D01*
X180520Y256691D01*
X180627Y257500D01*
X180520Y258309D01*
X180208Y259063D01*
X179711Y259711D01*
X179063Y260208D01*
X178309Y260520D01*
X177500Y260627D01*
X176691Y260520D01*
X176249Y260337D01*
X173622Y262965D01*
Y284535D01*
X180465Y291378D01*
X236914D01*
X236914Y291378D01*
X237343Y291464D01*
X237707Y291707D01*
X238293Y292293D01*
X238293Y292293D01*
X238536Y292657D01*
X238621Y293086D01*
Y351914D01*
X238536Y352343D01*
X238293Y352707D01*
X238293Y352707D01*
X237707Y353293D01*
X237343Y353536D01*
X236914Y353622D01*
D02*
G37*
G36*
X439100Y292527D02*
X438291Y292420D01*
X437537Y292108D01*
X436889Y291611D01*
X436392Y290963D01*
X436080Y290209D01*
X435973Y289400D01*
X436080Y288591D01*
X436392Y287837D01*
X436889Y287189D01*
X437537Y286692D01*
X438291Y286380D01*
X439100Y286273D01*
X439909Y286380D01*
X440663Y286692D01*
X441311Y287189D01*
X441808Y287837D01*
X442120Y288591D01*
X442227Y289400D01*
X442120Y290209D01*
X441808Y290963D01*
X441311Y291611D01*
X440663Y292108D01*
X439909Y292420D01*
X439100Y292527D01*
D02*
G37*
G36*
X13900Y346027D02*
X13091Y345920D01*
X12337Y345608D01*
X11689Y345111D01*
X11192Y344463D01*
X10880Y343709D01*
X10773Y342900D01*
X10880Y342091D01*
X11192Y341337D01*
X11689Y340689D01*
X12078Y340390D01*
Y304865D01*
X11307Y304093D01*
X11064Y303729D01*
X10978Y303300D01*
X10978Y303300D01*
Y262700D01*
X10978Y262700D01*
X11064Y262271D01*
X11307Y261907D01*
X47520Y225694D01*
X47520Y225694D01*
X47883Y225451D01*
X48313Y225366D01*
X83878D01*
Y147500D01*
X83878Y147500D01*
X83964Y147071D01*
X84207Y146707D01*
X94663Y136251D01*
X94480Y135809D01*
X94373Y135000D01*
X94480Y134191D01*
X94792Y133437D01*
X95289Y132789D01*
X95937Y132292D01*
X96691Y131980D01*
X97500Y131873D01*
X98309Y131980D01*
X99063Y132292D01*
X99711Y132789D01*
X100208Y133437D01*
X100520Y134191D01*
X100627Y135000D01*
X100520Y135809D01*
X100208Y136563D01*
X99711Y137211D01*
X99063Y137708D01*
X98309Y138020D01*
X97500Y138127D01*
X96691Y138020D01*
X96249Y137837D01*
X86122Y147965D01*
Y225902D01*
X86036Y226331D01*
X85793Y226695D01*
X85793Y226695D01*
X85207Y227280D01*
X84843Y227523D01*
X84414Y227609D01*
X84414Y227609D01*
X48777D01*
X13221Y263165D01*
Y302835D01*
X13993Y303607D01*
X13993Y303607D01*
X14236Y303971D01*
X14322Y304400D01*
Y315583D01*
X14766Y315899D01*
X14821Y315898D01*
X15289Y315289D01*
X15937Y314792D01*
X16691Y314480D01*
X16964Y314444D01*
Y271914D01*
X16964Y271914D01*
X17050Y271485D01*
X17293Y271121D01*
X22021Y266393D01*
X22021Y266393D01*
X22385Y266150D01*
X22814Y266065D01*
X22814Y266065D01*
X28622D01*
X28805Y265623D01*
X29302Y264975D01*
X29949Y264478D01*
X30703Y264166D01*
X31513Y264060D01*
X32322Y264166D01*
X33076Y264478D01*
X33724Y264975D01*
X34221Y265623D01*
X34533Y266377D01*
X34639Y267186D01*
X34533Y267996D01*
X34221Y268750D01*
X33724Y269397D01*
X33076Y269894D01*
X32322Y270206D01*
X31513Y270313D01*
X30703Y270206D01*
X29949Y269894D01*
X29302Y269397D01*
X28805Y268750D01*
X28622Y268308D01*
X23278D01*
X19207Y272379D01*
Y314903D01*
X19711Y315289D01*
X20208Y315937D01*
X20520Y316691D01*
X20627Y317500D01*
X20520Y318309D01*
X20208Y319063D01*
X19711Y319711D01*
X19063Y320208D01*
X18309Y320520D01*
X17500Y320627D01*
X16691Y320520D01*
X15937Y320208D01*
X15289Y319711D01*
X14821Y319102D01*
X14766Y319101D01*
X14322Y319417D01*
Y339829D01*
X14709Y339880D01*
X15463Y340192D01*
X16111Y340689D01*
X16608Y341337D01*
X16920Y342091D01*
X17027Y342900D01*
X16920Y343709D01*
X16608Y344463D01*
X16111Y345111D01*
X15463Y345608D01*
X14709Y345920D01*
X13900Y346027D01*
D02*
G37*
G36*
X61000Y313635D02*
X59930Y313494D01*
X58932Y313081D01*
X58076Y312424D01*
X57419Y311568D01*
X57006Y310570D01*
X56865Y309500D01*
X57006Y308430D01*
X57419Y307432D01*
X58076Y306576D01*
X58859Y305975D01*
Y288387D01*
X52386Y281914D01*
X51922Y281219D01*
X51759Y280400D01*
Y257264D01*
X51689Y257211D01*
X51192Y256563D01*
X50880Y255809D01*
X50773Y255000D01*
X50880Y254191D01*
X51192Y253437D01*
X51689Y252789D01*
X52337Y252292D01*
X53091Y251980D01*
X53900Y251873D01*
X54709Y251980D01*
X55463Y252292D01*
X56111Y252789D01*
X56608Y253437D01*
X56920Y254191D01*
X57027Y255000D01*
X56920Y255809D01*
X56608Y256563D01*
X56111Y257211D01*
X56041Y257264D01*
Y279513D01*
X62514Y285986D01*
X62978Y286681D01*
X63141Y287500D01*
Y305975D01*
X63924Y306576D01*
X64581Y307432D01*
X64995Y308430D01*
X65135Y309500D01*
X64995Y310570D01*
X64581Y311568D01*
X63924Y312424D01*
X63068Y313081D01*
X62070Y313494D01*
X61000Y313635D01*
D02*
G37*
G36*
X399418Y260765D02*
X397439Y260570D01*
X395535Y259992D01*
X393780Y259055D01*
X392242Y257792D01*
X390980Y256255D01*
X390042Y254500D01*
X389465Y252596D01*
X389270Y250616D01*
X389465Y248636D01*
X390042Y246732D01*
X390980Y244978D01*
X392242Y243440D01*
X393780Y242178D01*
X395535Y241240D01*
X397439Y240662D01*
X399418Y240467D01*
X401398Y240662D01*
X403302Y241240D01*
X405057Y242178D01*
X406595Y243440D01*
X407857Y244978D01*
X408795Y246732D01*
X409372Y248636D01*
X409567Y250616D01*
X409372Y252596D01*
X408795Y254500D01*
X407857Y256255D01*
X406595Y257792D01*
X405057Y259055D01*
X403302Y259992D01*
X401398Y260570D01*
X399418Y260765D01*
D02*
G37*
G36*
X294300D02*
X292320Y260570D01*
X290417Y259992D01*
X288662Y259055D01*
X287124Y257792D01*
X285862Y256255D01*
X284924Y254500D01*
X284347Y252596D01*
X284152Y250616D01*
X284347Y248636D01*
X284924Y246732D01*
X285862Y244978D01*
X287124Y243440D01*
X288662Y242178D01*
X290417Y241240D01*
X292320Y240662D01*
X294300Y240467D01*
X296280Y240662D01*
X298184Y241240D01*
X299939Y242178D01*
X301477Y243440D01*
X302739Y244978D01*
X303677Y246732D01*
X304254Y248636D01*
X304449Y250616D01*
X304254Y252596D01*
X303677Y254500D01*
X302739Y256255D01*
X301477Y257792D01*
X299939Y259055D01*
X298184Y259992D01*
X296280Y260570D01*
X294300Y260765D01*
D02*
G37*
G36*
X195626Y283127D02*
X194817Y283020D01*
X194063Y282708D01*
X193416Y282211D01*
X192919Y281563D01*
X192606Y280809D01*
X192500Y280000D01*
X192606Y279191D01*
X192919Y278437D01*
X193416Y277789D01*
X194063Y277292D01*
X194505Y277109D01*
Y242656D01*
X194063Y242473D01*
X193416Y241976D01*
X192919Y241329D01*
X192606Y240575D01*
X192500Y239766D01*
X192606Y238956D01*
X192919Y238202D01*
X193416Y237555D01*
X194063Y237058D01*
X194817Y236745D01*
X195626Y236639D01*
X196436Y236745D01*
X197190Y237058D01*
X197837Y237555D01*
X198334Y238202D01*
X198647Y238956D01*
X198753Y239766D01*
X198647Y240575D01*
X198334Y241329D01*
X197837Y241976D01*
X197190Y242473D01*
X196748Y242656D01*
Y277109D01*
X197190Y277292D01*
X197837Y277789D01*
X198334Y278437D01*
X198647Y279191D01*
X198753Y280000D01*
X198647Y280809D01*
X198334Y281563D01*
X197837Y282211D01*
X197190Y282708D01*
X196436Y283020D01*
X195626Y283127D01*
D02*
G37*
G36*
X220000Y235627D02*
X219191Y235520D01*
X218437Y235208D01*
X217789Y234711D01*
X217292Y234063D01*
X217109Y233622D01*
X165391D01*
X165208Y234063D01*
X164711Y234711D01*
X164063Y235208D01*
X163309Y235520D01*
X162500Y235627D01*
X161691Y235520D01*
X160937Y235208D01*
X160289Y234711D01*
X159792Y234063D01*
X159480Y233309D01*
X159373Y232500D01*
X159480Y231691D01*
X159792Y230937D01*
X160289Y230289D01*
X160937Y229792D01*
X161691Y229480D01*
X162500Y229373D01*
X163309Y229480D01*
X164063Y229792D01*
X164711Y230289D01*
X165208Y230937D01*
X165391Y231379D01*
X217109D01*
X217292Y230937D01*
X217789Y230289D01*
X218437Y229792D01*
X219191Y229480D01*
X220000Y229373D01*
X220809Y229480D01*
X221563Y229792D01*
X222211Y230289D01*
X222708Y230937D01*
X223020Y231691D01*
X223127Y232500D01*
X223020Y233309D01*
X222708Y234063D01*
X222211Y234711D01*
X221563Y235208D01*
X220809Y235520D01*
X220000Y235627D01*
D02*
G37*
G36*
X345000Y265627D02*
X344191Y265520D01*
X343437Y265208D01*
X342789Y264711D01*
X342292Y264063D01*
X341980Y263309D01*
X341873Y262500D01*
X341980Y261691D01*
X342292Y260937D01*
X342789Y260289D01*
X343437Y259792D01*
X343879Y259609D01*
Y223155D01*
X343878Y223155D01*
X343964Y222726D01*
X344207Y222362D01*
X344886Y221683D01*
X344794Y221563D01*
X344482Y220809D01*
X344375Y220000D01*
X344482Y219191D01*
X344794Y218437D01*
X345291Y217789D01*
X345938Y217292D01*
X346693Y216980D01*
X347502Y216873D01*
X348311Y216980D01*
X349065Y217292D01*
X349713Y217789D01*
X350210Y218437D01*
X350522Y219191D01*
X350629Y220000D01*
X350522Y220809D01*
X350210Y221563D01*
X349713Y222211D01*
X349065Y222708D01*
X348311Y223020D01*
X347502Y223127D01*
X346718Y223024D01*
X346122Y223620D01*
Y259609D01*
X346563Y259792D01*
X347211Y260289D01*
X347708Y260937D01*
X348020Y261691D01*
X348127Y262500D01*
X348020Y263309D01*
X347708Y264063D01*
X347211Y264711D01*
X346563Y265208D01*
X345809Y265520D01*
X345000Y265627D01*
D02*
G37*
G36*
X101000Y313635D02*
X99930Y313494D01*
X98932Y313081D01*
X98076Y312424D01*
X97419Y311568D01*
X97005Y310570D01*
X96865Y309500D01*
X97005Y308430D01*
X97419Y307432D01*
X98076Y306576D01*
X98932Y305919D01*
X99878Y305527D01*
Y225879D01*
X96707Y222707D01*
X96464Y222343D01*
X96378Y221914D01*
X96378Y221914D01*
Y215391D01*
X95937Y215208D01*
X95289Y214711D01*
X94792Y214063D01*
X94480Y213309D01*
X94373Y212500D01*
X94480Y211691D01*
X94792Y210937D01*
X95289Y210289D01*
X95937Y209792D01*
X96691Y209480D01*
X97500Y209373D01*
X98309Y209480D01*
X99063Y209792D01*
X99711Y210289D01*
X100208Y210937D01*
X100520Y211691D01*
X100627Y212500D01*
X100520Y213309D01*
X100208Y214063D01*
X99711Y214711D01*
X99063Y215208D01*
X98622Y215391D01*
Y221450D01*
X101793Y224621D01*
X101793Y224621D01*
X102036Y224985D01*
X102122Y225414D01*
X102122Y225414D01*
Y305527D01*
X103068Y305919D01*
X103924Y306576D01*
X104581Y307432D01*
X104994Y308430D01*
X105135Y309500D01*
X104994Y310570D01*
X104581Y311568D01*
X103924Y312424D01*
X103068Y313081D01*
X102070Y313494D01*
X101000Y313635D01*
D02*
G37*
G36*
X153276Y281441D02*
X152467Y281335D01*
X151713Y281023D01*
X151065Y280526D01*
X150568Y279878D01*
X150256Y279124D01*
X150150Y278315D01*
X150256Y277505D01*
X150568Y276751D01*
X151065Y276104D01*
X151713Y275607D01*
X152155Y275424D01*
Y216724D01*
X152155Y216724D01*
X152240Y216294D01*
X152483Y215931D01*
X159663Y208751D01*
X159480Y208309D01*
X159373Y207500D01*
X159480Y206691D01*
X159792Y205937D01*
X160289Y205289D01*
X160937Y204792D01*
X161691Y204480D01*
X162500Y204373D01*
X163309Y204480D01*
X164063Y204792D01*
X164711Y205289D01*
X165208Y205937D01*
X165520Y206691D01*
X165627Y207500D01*
X165520Y208309D01*
X165208Y209063D01*
X164711Y209711D01*
X164063Y210208D01*
X163309Y210520D01*
X162500Y210627D01*
X161691Y210520D01*
X161249Y210337D01*
X154398Y217188D01*
Y275424D01*
X154840Y275607D01*
X155487Y276104D01*
X155984Y276751D01*
X156297Y277505D01*
X156403Y278315D01*
X156297Y279124D01*
X155984Y279878D01*
X155487Y280526D01*
X154840Y281023D01*
X154086Y281335D01*
X153276Y281441D01*
D02*
G37*
G36*
X111000Y313635D02*
X109930Y313494D01*
X108932Y313081D01*
X108076Y312424D01*
X107419Y311568D01*
X107006Y310570D01*
X106865Y309500D01*
X107006Y308430D01*
X107419Y307432D01*
X108076Y306576D01*
X108878Y305960D01*
Y206965D01*
X108135Y206222D01*
X98086D01*
X97657Y206136D01*
X97293Y205893D01*
X97293Y205893D01*
X96707Y205307D01*
X96464Y204943D01*
X96378Y204514D01*
X96378Y204514D01*
Y195391D01*
X95937Y195208D01*
X95289Y194711D01*
X94792Y194063D01*
X94480Y193309D01*
X94373Y192500D01*
X94480Y191691D01*
X94792Y190937D01*
X95289Y190289D01*
X95937Y189792D01*
X96691Y189480D01*
X97500Y189373D01*
X98309Y189480D01*
X99063Y189792D01*
X99711Y190289D01*
X100208Y190937D01*
X100520Y191691D01*
X100627Y192500D01*
X100520Y193309D01*
X100208Y194063D01*
X99711Y194711D01*
X99063Y195208D01*
X98622Y195391D01*
Y203978D01*
X108600D01*
X108600Y203978D01*
X109029Y204064D01*
X109393Y204307D01*
X110793Y205707D01*
X110793Y205707D01*
X111036Y206071D01*
X111122Y206500D01*
X111122Y206500D01*
Y305381D01*
X112070Y305505D01*
X113068Y305919D01*
X113924Y306576D01*
X114581Y307432D01*
X114995Y308430D01*
X115135Y309500D01*
X114995Y310570D01*
X114581Y311568D01*
X113924Y312424D01*
X113068Y313081D01*
X112070Y313494D01*
X111000Y313635D01*
D02*
G37*
G36*
X451586Y205627D02*
X450776Y205520D01*
X450022Y205208D01*
X449375Y204711D01*
X448878Y204063D01*
X448566Y203309D01*
X448459Y202500D01*
X448566Y201691D01*
X448878Y200937D01*
X449375Y200289D01*
X450022Y199792D01*
X450464Y199609D01*
Y195639D01*
X450464Y195639D01*
X450550Y195210D01*
X450793Y194846D01*
X451378Y194260D01*
X451378Y194260D01*
X451742Y194017D01*
X452172Y193931D01*
X510974D01*
X511157Y193490D01*
X511653Y192842D01*
X512301Y192345D01*
X513055Y192033D01*
X513864Y191926D01*
X514674Y192033D01*
X515428Y192345D01*
X516075Y192842D01*
X516572Y193490D01*
X516885Y194244D01*
X516991Y195053D01*
X516885Y195862D01*
X516572Y196616D01*
X516075Y197264D01*
X515428Y197761D01*
X514674Y198073D01*
X513864Y198180D01*
X513055Y198073D01*
X512301Y197761D01*
X511653Y197264D01*
X511157Y196616D01*
X510974Y196175D01*
X452707D01*
Y199609D01*
X453149Y199792D01*
X453797Y200289D01*
X454294Y200937D01*
X454606Y201691D01*
X454712Y202500D01*
X454606Y203309D01*
X454294Y204063D01*
X453797Y204711D01*
X453149Y205208D01*
X452395Y205520D01*
X451586Y205627D01*
D02*
G37*
G36*
X177500Y225627D02*
X176691Y225520D01*
X175937Y225208D01*
X175289Y224711D01*
X174792Y224063D01*
X174480Y223309D01*
X174373Y222500D01*
X174480Y221691D01*
X174792Y220937D01*
X175289Y220289D01*
X175937Y219792D01*
X176378Y219609D01*
Y185889D01*
X175937Y185706D01*
X175289Y185210D01*
X174792Y184562D01*
X174480Y183808D01*
X174373Y182999D01*
X174480Y182189D01*
X174792Y181435D01*
X175289Y180788D01*
X175937Y180291D01*
X176691Y179978D01*
X177500Y179872D01*
X178309Y179978D01*
X179063Y180291D01*
X179711Y180788D01*
X180208Y181435D01*
X180520Y182189D01*
X180627Y182999D01*
X180520Y183808D01*
X180208Y184562D01*
X179711Y185210D01*
X179063Y185706D01*
X178622Y185889D01*
Y219609D01*
X179063Y219792D01*
X179711Y220289D01*
X180208Y220937D01*
X180520Y221691D01*
X180627Y222500D01*
X180520Y223309D01*
X180208Y224063D01*
X179711Y224711D01*
X179063Y225208D01*
X178309Y225520D01*
X177500Y225627D01*
D02*
G37*
G36*
X185000Y203127D02*
X184191Y203020D01*
X183437Y202708D01*
X182789Y202211D01*
X182292Y201563D01*
X181980Y200809D01*
X181873Y200000D01*
X181980Y199191D01*
X182292Y198437D01*
X182789Y197789D01*
X183437Y197292D01*
X183878Y197109D01*
Y183086D01*
X183878Y183086D01*
X183964Y182657D01*
X184207Y182293D01*
X184793Y181707D01*
X184793Y181707D01*
X185157Y181464D01*
X185586Y181378D01*
X217109D01*
X217292Y180937D01*
X217789Y180289D01*
X218437Y179792D01*
X219191Y179480D01*
X220000Y179373D01*
X220809Y179480D01*
X221563Y179792D01*
X222211Y180289D01*
X222708Y180937D01*
X223020Y181691D01*
X223127Y182500D01*
X223020Y183309D01*
X222708Y184063D01*
X222211Y184711D01*
X221563Y185208D01*
X220809Y185520D01*
X220000Y185627D01*
X219191Y185520D01*
X218437Y185208D01*
X217789Y184711D01*
X217292Y184063D01*
X217109Y183622D01*
X186122D01*
Y197109D01*
X186563Y197292D01*
X187211Y197789D01*
X187708Y198437D01*
X188020Y199191D01*
X188127Y200000D01*
X188020Y200809D01*
X187708Y201563D01*
X187211Y202211D01*
X186563Y202708D01*
X185809Y203020D01*
X185000Y203127D01*
D02*
G37*
G36*
X472108Y191226D02*
X471299Y191119D01*
X470545Y190807D01*
X469897Y190310D01*
X469400Y189662D01*
X469088Y188908D01*
X468981Y188099D01*
X469088Y187290D01*
X469400Y186536D01*
X469897Y185888D01*
X469967Y185835D01*
Y174210D01*
X466308Y170551D01*
X464764D01*
X464711Y170620D01*
X464063Y171117D01*
X463309Y171430D01*
X462500Y171536D01*
X461691Y171430D01*
X460937Y171117D01*
X460289Y170620D01*
X459792Y169973D01*
X459480Y169219D01*
X459373Y168410D01*
X459480Y167600D01*
X459792Y166846D01*
X460289Y166199D01*
X460937Y165702D01*
X461691Y165389D01*
X462500Y165283D01*
X463309Y165389D01*
X464063Y165702D01*
X464711Y166199D01*
X464764Y166268D01*
X492057D01*
Y145000D01*
X492220Y144181D01*
X492684Y143486D01*
X496821Y139348D01*
Y131942D01*
X496752Y131888D01*
X496255Y131240D01*
X495942Y130486D01*
X495836Y129677D01*
X495942Y128868D01*
X496255Y128114D01*
X496752Y127466D01*
X497399Y126969D01*
X498153Y126657D01*
X498962Y126550D01*
X499772Y126657D01*
X500526Y126969D01*
X501173Y127466D01*
X501227Y127536D01*
X510397D01*
X510451Y127466D01*
X511098Y126969D01*
X511852Y126657D01*
X512661Y126550D01*
X513471Y126657D01*
X514225Y126969D01*
X514872Y127466D01*
X515369Y128114D01*
X515682Y128868D01*
X515788Y129677D01*
X515682Y130486D01*
X515369Y131240D01*
X514872Y131888D01*
X514225Y132385D01*
X513471Y132697D01*
X512661Y132804D01*
X511852Y132697D01*
X511098Y132385D01*
X510451Y131888D01*
X510397Y131818D01*
X501227D01*
X501173Y131888D01*
X501104Y131942D01*
Y140235D01*
X500941Y141055D01*
X500477Y141749D01*
X496339Y145887D01*
Y168000D01*
X496298Y168205D01*
X496339Y168410D01*
Y177258D01*
X507342D01*
X508014Y176980D01*
X508823Y176873D01*
X509632Y176980D01*
X510386Y177292D01*
X511034Y177789D01*
X511531Y178437D01*
X511843Y179191D01*
X511950Y180000D01*
X511843Y180809D01*
X511531Y181563D01*
X511034Y182211D01*
X510386Y182708D01*
X509632Y183020D01*
X508823Y183127D01*
X508014Y183020D01*
X507260Y182708D01*
X506612Y182211D01*
X506115Y181563D01*
X506105Y181540D01*
X494198D01*
X493378Y181377D01*
X492684Y180913D01*
X492220Y180218D01*
X492057Y179399D01*
Y170551D01*
X473017D01*
X472826Y171012D01*
X473622Y171809D01*
X474086Y172503D01*
X474249Y173323D01*
Y185835D01*
X474319Y185888D01*
X474816Y186536D01*
X475128Y187290D01*
X475235Y188099D01*
X475128Y188908D01*
X474816Y189662D01*
X474319Y190310D01*
X473672Y190807D01*
X472918Y191119D01*
X472108Y191226D01*
D02*
G37*
G36*
X522898Y183127D02*
X522088Y183020D01*
X521334Y182708D01*
X520687Y182211D01*
X520190Y181563D01*
X519877Y180809D01*
X519771Y180000D01*
X519877Y179191D01*
X520190Y178437D01*
X520687Y177789D01*
X521334Y177292D01*
X522088Y176980D01*
X522898Y176873D01*
X523707Y176980D01*
X524461Y177292D01*
X525109Y177789D01*
X525605Y178437D01*
X525788Y178878D01*
X554377D01*
X554765Y178491D01*
X554711Y178086D01*
X554818Y177277D01*
X555130Y176522D01*
X555627Y175875D01*
X556275Y175378D01*
X557029Y175066D01*
X557838Y174959D01*
X558647Y175066D01*
X559402Y175378D01*
X560049Y175875D01*
X560546Y176522D01*
X560858Y177277D01*
X560965Y178086D01*
X560858Y178895D01*
X560546Y179649D01*
X560049Y180297D01*
X559402Y180794D01*
X558647Y181106D01*
X557838Y181212D01*
X557029Y181106D01*
X556275Y180794D01*
X555912Y180515D01*
X555635Y180793D01*
X555271Y181036D01*
X554842Y181122D01*
X554842Y181122D01*
X525788D01*
X525605Y181563D01*
X525109Y182211D01*
X524461Y182708D01*
X523707Y183020D01*
X522898Y183127D01*
D02*
G37*
G36*
X220000Y176450D02*
X219191Y176343D01*
X218437Y176031D01*
X217789Y175534D01*
X217292Y174886D01*
X217109Y174444D01*
X172500D01*
X172500Y174444D01*
X172071Y174359D01*
X171707Y174116D01*
X170207Y172616D01*
X169964Y172252D01*
X169878Y171823D01*
X169878Y171823D01*
Y105391D01*
X169437Y105208D01*
X168789Y104711D01*
X168292Y104063D01*
X167980Y103309D01*
X167873Y102500D01*
X167980Y101691D01*
X168292Y100937D01*
X168789Y100289D01*
X169437Y99792D01*
X170191Y99480D01*
X171000Y99373D01*
X171809Y99480D01*
X172563Y99792D01*
X173211Y100289D01*
X173708Y100937D01*
X174020Y101691D01*
X174127Y102500D01*
X174020Y103309D01*
X173708Y104063D01*
X173211Y104711D01*
X172563Y105208D01*
X172122Y105391D01*
Y171358D01*
X172965Y172201D01*
X217109D01*
X217292Y171759D01*
X217789Y171112D01*
X218437Y170615D01*
X219191Y170303D01*
X220000Y170196D01*
X220809Y170303D01*
X221563Y170615D01*
X222211Y171112D01*
X222708Y171759D01*
X223020Y172514D01*
X223127Y173323D01*
X223020Y174132D01*
X222708Y174886D01*
X222211Y175534D01*
X221563Y176031D01*
X220809Y176343D01*
X220000Y176450D01*
D02*
G37*
G36*
X327500Y220627D02*
X326691Y220520D01*
X325937Y220208D01*
X325289Y219711D01*
X324792Y219063D01*
X324480Y218309D01*
X324373Y217500D01*
X324480Y216691D01*
X324792Y215937D01*
X325289Y215289D01*
X325937Y214792D01*
X326691Y214480D01*
X327500Y214373D01*
X328281Y214476D01*
X328878Y213879D01*
Y197500D01*
X328878Y197500D01*
X328964Y197071D01*
X329207Y196707D01*
X349207Y176707D01*
X349207Y176707D01*
X349571Y176464D01*
X350000Y176378D01*
X350000Y176378D01*
X354609D01*
X354792Y175937D01*
X355289Y175289D01*
X355937Y174792D01*
X356691Y174480D01*
X357500Y174373D01*
X358309Y174480D01*
X359063Y174792D01*
X359711Y175289D01*
X360208Y175937D01*
X360520Y176691D01*
X360627Y177500D01*
X360520Y178309D01*
X360208Y179063D01*
X359711Y179711D01*
X359063Y180208D01*
X358309Y180520D01*
X357500Y180627D01*
X356691Y180520D01*
X355937Y180208D01*
X355289Y179711D01*
X354792Y179063D01*
X354609Y178622D01*
X350465D01*
X331121Y197965D01*
Y214343D01*
X331036Y214772D01*
X330793Y215136D01*
X330793Y215136D01*
X330114Y215815D01*
X330208Y215937D01*
X330520Y216691D01*
X330627Y217500D01*
X330520Y218309D01*
X330208Y219063D01*
X329711Y219711D01*
X329063Y220208D01*
X328309Y220520D01*
X327500Y220627D01*
D02*
G37*
G36*
X574500Y171883D02*
X573495Y171751D01*
X572558Y171363D01*
X571754Y170746D01*
X571137Y169942D01*
X570749Y169005D01*
X570617Y168000D01*
X570749Y166995D01*
X571137Y166058D01*
X571754Y165254D01*
X572558Y164637D01*
X573495Y164249D01*
X574500Y164117D01*
X575505Y164249D01*
X576442Y164637D01*
X577246Y165254D01*
X577863Y166058D01*
X578251Y166995D01*
X578383Y168000D01*
X578251Y169005D01*
X577863Y169942D01*
X577246Y170746D01*
X576442Y171363D01*
X575505Y171751D01*
X574500Y171883D01*
D02*
G37*
G36*
Y161883D02*
X573495Y161751D01*
X572558Y161363D01*
X571754Y160746D01*
X571137Y159942D01*
X570749Y159005D01*
X570617Y158000D01*
X570749Y156995D01*
X571137Y156058D01*
X571754Y155254D01*
X572558Y154637D01*
X573495Y154249D01*
X574500Y154117D01*
X575505Y154249D01*
X576442Y154637D01*
X577246Y155254D01*
X577863Y156058D01*
X578251Y156995D01*
X578383Y158000D01*
X578251Y159005D01*
X577863Y159942D01*
X577246Y160746D01*
X576442Y161363D01*
X575505Y161751D01*
X574500Y161883D01*
D02*
G37*
G36*
X91000Y313635D02*
X89930Y313494D01*
X88932Y313081D01*
X88076Y312424D01*
X87419Y311568D01*
X87006Y310570D01*
X86865Y309500D01*
X87006Y308430D01*
X87419Y307432D01*
X88076Y306576D01*
X88932Y305919D01*
X89878Y305527D01*
Y161500D01*
X89878Y161500D01*
X89964Y161071D01*
X90207Y160707D01*
X94663Y156251D01*
X94480Y155809D01*
X94373Y155000D01*
X94480Y154191D01*
X94792Y153437D01*
X95289Y152789D01*
X95937Y152292D01*
X96691Y151980D01*
X97500Y151873D01*
X98309Y151980D01*
X99063Y152292D01*
X99711Y152789D01*
X100208Y153437D01*
X100520Y154191D01*
X100627Y155000D01*
X100520Y155809D01*
X100208Y156563D01*
X99711Y157211D01*
X99063Y157708D01*
X98309Y158020D01*
X97500Y158127D01*
X96691Y158020D01*
X96249Y157837D01*
X92122Y161965D01*
Y305527D01*
X93068Y305919D01*
X93924Y306576D01*
X94581Y307432D01*
X94994Y308430D01*
X95135Y309500D01*
X94994Y310570D01*
X94581Y311568D01*
X93924Y312424D01*
X93068Y313081D01*
X92070Y313494D01*
X91000Y313635D01*
D02*
G37*
G36*
X305579Y183127D02*
X304769Y183020D01*
X304015Y182708D01*
X303368Y182211D01*
X302871Y181563D01*
X302558Y180809D01*
X302452Y180000D01*
X302558Y179191D01*
X302871Y178437D01*
X303368Y177789D01*
X304015Y177292D01*
X304457Y177109D01*
Y163043D01*
X289251Y147837D01*
X288809Y148020D01*
X288000Y148127D01*
X287191Y148020D01*
X286437Y147708D01*
X285789Y147211D01*
X285292Y146563D01*
X284980Y145809D01*
X284873Y145000D01*
X284980Y144191D01*
X285292Y143437D01*
X285789Y142789D01*
X286437Y142292D01*
X287191Y141980D01*
X288000Y141873D01*
X288809Y141980D01*
X289563Y142292D01*
X290211Y142789D01*
X290708Y143437D01*
X291020Y144191D01*
X291127Y145000D01*
X291020Y145809D01*
X290837Y146251D01*
X306372Y161786D01*
X306372Y161786D01*
X306615Y162150D01*
X306700Y162579D01*
X306700Y162579D01*
Y177109D01*
X307142Y177292D01*
X307790Y177789D01*
X308287Y178437D01*
X308599Y179191D01*
X308705Y180000D01*
X308599Y180809D01*
X308287Y181563D01*
X307790Y182211D01*
X307142Y182708D01*
X306388Y183020D01*
X305579Y183127D01*
D02*
G37*
G36*
X574500Y151883D02*
X573495Y151751D01*
X572558Y151363D01*
X571754Y150746D01*
X571137Y149942D01*
X570749Y149005D01*
X570617Y148000D01*
X570749Y146995D01*
X571137Y146058D01*
X571754Y145254D01*
X572558Y144637D01*
X573495Y144249D01*
X574500Y144117D01*
X575505Y144249D01*
X576442Y144637D01*
X577246Y145254D01*
X577863Y146058D01*
X578251Y146995D01*
X578383Y148000D01*
X578251Y149005D01*
X577863Y149942D01*
X577246Y150746D01*
X576442Y151363D01*
X575505Y151751D01*
X574500Y151883D01*
D02*
G37*
G36*
X290000Y193127D02*
X289191Y193020D01*
X288437Y192708D01*
X287789Y192211D01*
X287292Y191563D01*
X286980Y190809D01*
X286873Y190000D01*
X286980Y189191D01*
X287292Y188437D01*
X287789Y187789D01*
X288437Y187292D01*
X289191Y186980D01*
X290000Y186873D01*
X290809Y186980D01*
X291251Y187163D01*
X291707Y186707D01*
X291707Y186707D01*
X292071Y186464D01*
X292500Y186378D01*
X322736D01*
X323879Y185236D01*
Y145404D01*
X323405Y145208D01*
X322758Y144711D01*
X322261Y144063D01*
X321948Y143309D01*
X321842Y142500D01*
X321948Y141691D01*
X322261Y140937D01*
X322758Y140289D01*
X323405Y139792D01*
X324159Y139480D01*
X324969Y139373D01*
X325778Y139480D01*
X326532Y139792D01*
X327180Y140289D01*
X327676Y140937D01*
X327989Y141691D01*
X328095Y142500D01*
X327989Y143309D01*
X327676Y144063D01*
X327180Y144711D01*
X326532Y145208D01*
X326121Y145378D01*
Y185701D01*
X326036Y186130D01*
X325793Y186494D01*
X325793Y186494D01*
X323994Y188293D01*
X323630Y188536D01*
X323201Y188622D01*
X323201Y188622D01*
X293326D01*
X292992Y189122D01*
X293020Y189191D01*
X293127Y190000D01*
X293020Y190809D01*
X292708Y191563D01*
X292211Y192211D01*
X291563Y192708D01*
X290809Y193020D01*
X290000Y193127D01*
D02*
G37*
G36*
X462500Y159127D02*
X461691Y159020D01*
X460937Y158708D01*
X460289Y158211D01*
X459792Y157563D01*
X459480Y156809D01*
X459373Y156000D01*
X459480Y155191D01*
X459792Y154437D01*
X460289Y153789D01*
X460937Y153292D01*
X461378Y153109D01*
Y143126D01*
X460937Y142943D01*
X460289Y142446D01*
X459792Y141799D01*
X459480Y141045D01*
X459373Y140235D01*
X459480Y139426D01*
X459792Y138672D01*
X460289Y138024D01*
X460937Y137528D01*
X461691Y137215D01*
X462500Y137109D01*
X463309Y137215D01*
X464063Y137528D01*
X464711Y138024D01*
X465208Y138672D01*
X465520Y139426D01*
X465627Y140235D01*
X465520Y141045D01*
X465208Y141799D01*
X464711Y142446D01*
X464063Y142943D01*
X463622Y143126D01*
Y153109D01*
X464063Y153292D01*
X464711Y153789D01*
X465208Y154437D01*
X465520Y155191D01*
X465627Y156000D01*
X465520Y156809D01*
X465208Y157563D01*
X464711Y158211D01*
X464063Y158708D01*
X463309Y159020D01*
X462500Y159127D01*
D02*
G37*
G36*
X141000Y313635D02*
X139930Y313494D01*
X138932Y313081D01*
X138076Y312424D01*
X137419Y311568D01*
X137005Y310570D01*
X136865Y309500D01*
X137005Y308430D01*
X137419Y307432D01*
X138076Y306576D01*
X138932Y305919D01*
X139878Y305527D01*
Y142891D01*
X139437Y142708D01*
X138789Y142211D01*
X138292Y141563D01*
X137980Y140809D01*
X137873Y140000D01*
X137980Y139191D01*
X138292Y138437D01*
X138789Y137789D01*
X139437Y137292D01*
X140191Y136980D01*
X141000Y136873D01*
X141809Y136980D01*
X142563Y137292D01*
X143211Y137789D01*
X143708Y138437D01*
X144020Y139191D01*
X144127Y140000D01*
X144020Y140809D01*
X143708Y141563D01*
X143211Y142211D01*
X142563Y142708D01*
X142122Y142891D01*
Y305527D01*
X143068Y305919D01*
X143924Y306576D01*
X144581Y307432D01*
X144994Y308430D01*
X145135Y309500D01*
X144994Y310570D01*
X144581Y311568D01*
X143924Y312424D01*
X143068Y313081D01*
X142070Y313494D01*
X141000Y313635D01*
D02*
G37*
G36*
X578350Y141850D02*
X570650D01*
Y134150D01*
X578350D01*
Y141850D01*
D02*
G37*
G36*
X341090Y153127D02*
X340281Y153020D01*
X339527Y152708D01*
X338879Y152211D01*
X338382Y151563D01*
X338070Y150809D01*
X337963Y150000D01*
X338070Y149191D01*
X338382Y148437D01*
X338879Y147789D01*
X338949Y147736D01*
Y136679D01*
X338879Y136625D01*
X338382Y135978D01*
X338070Y135223D01*
X337963Y134414D01*
X338070Y133605D01*
X338382Y132851D01*
X338879Y132203D01*
X339527Y131706D01*
X340281Y131394D01*
X341090Y131288D01*
X341899Y131394D01*
X342653Y131706D01*
X343301Y132203D01*
X343798Y132851D01*
X344110Y133605D01*
X344217Y134414D01*
X344110Y135223D01*
X343798Y135978D01*
X343301Y136625D01*
X343231Y136679D01*
Y147736D01*
X343301Y147789D01*
X343798Y148437D01*
X344110Y149191D01*
X344217Y150000D01*
X344110Y150809D01*
X343798Y151563D01*
X343301Y152211D01*
X342653Y152708D01*
X341899Y153020D01*
X341090Y153127D01*
D02*
G37*
G36*
X220000D02*
X219191Y153020D01*
X218437Y152708D01*
X217789Y152211D01*
X217292Y151563D01*
X216980Y150809D01*
X216873Y150000D01*
X216980Y149191D01*
X217292Y148437D01*
X217789Y147789D01*
X217859Y147736D01*
Y129461D01*
X217789Y129408D01*
X217292Y128760D01*
X216980Y128006D01*
X216873Y127197D01*
X216980Y126388D01*
X217292Y125634D01*
X217789Y124986D01*
X218437Y124489D01*
X219191Y124177D01*
X220000Y124070D01*
X220809Y124177D01*
X221563Y124489D01*
X222211Y124986D01*
X222708Y125634D01*
X223020Y126388D01*
X223127Y127197D01*
X223020Y128006D01*
X222708Y128760D01*
X222211Y129408D01*
X222141Y129461D01*
Y147736D01*
X222211Y147789D01*
X222708Y148437D01*
X223020Y149191D01*
X223127Y150000D01*
X223020Y150809D01*
X222708Y151563D01*
X222211Y152211D01*
X221563Y152708D01*
X220809Y153020D01*
X220000Y153127D01*
D02*
G37*
G36*
X131000Y313635D02*
X129930Y313494D01*
X128932Y313081D01*
X128076Y312424D01*
X127419Y311568D01*
X127006Y310570D01*
X126865Y309500D01*
X127006Y308430D01*
X127419Y307432D01*
X128076Y306576D01*
X128932Y305919D01*
X129878Y305527D01*
Y124000D01*
X129878Y124000D01*
X129964Y123571D01*
X130207Y123207D01*
X131707Y121707D01*
X132071Y121464D01*
X132500Y121378D01*
X132500Y121378D01*
X138109D01*
X138292Y120937D01*
X138789Y120289D01*
X139437Y119792D01*
X140191Y119480D01*
X141000Y119373D01*
X141809Y119480D01*
X142563Y119792D01*
X143211Y120289D01*
X143708Y120937D01*
X144020Y121691D01*
X144127Y122500D01*
X144020Y123309D01*
X143708Y124063D01*
X143211Y124711D01*
X142563Y125208D01*
X141809Y125520D01*
X141000Y125627D01*
X140191Y125520D01*
X139437Y125208D01*
X138789Y124711D01*
X138292Y124063D01*
X138109Y123622D01*
X132965D01*
X132122Y124465D01*
Y305527D01*
X133068Y305919D01*
X133924Y306576D01*
X134581Y307432D01*
X134994Y308430D01*
X135135Y309500D01*
X134994Y310570D01*
X134581Y311568D01*
X133924Y312424D01*
X133068Y313081D01*
X132070Y313494D01*
X131000Y313635D01*
D02*
G37*
G36*
X432500Y229816D02*
X431691Y229710D01*
X430937Y229397D01*
X430289Y228900D01*
X429792Y228253D01*
X429480Y227499D01*
X429373Y226689D01*
X429480Y225880D01*
X429792Y225126D01*
X430289Y224479D01*
X430937Y223982D01*
X431378Y223799D01*
Y135031D01*
X431378Y135031D01*
X431464Y134602D01*
X431707Y134238D01*
X434207Y131738D01*
X434207Y131738D01*
X434571Y131495D01*
X435000Y131410D01*
X454598D01*
X455713Y130295D01*
Y121045D01*
X455271Y120862D01*
X454624Y120365D01*
X454127Y119717D01*
X453815Y118963D01*
X453708Y118154D01*
X453815Y117345D01*
X454127Y116590D01*
X454624Y115943D01*
X455271Y115446D01*
X456026Y115134D01*
X456835Y115027D01*
X457644Y115134D01*
X458398Y115446D01*
X459046Y115943D01*
X459543Y116590D01*
X459855Y117345D01*
X459962Y118154D01*
X459855Y118963D01*
X459543Y119717D01*
X459046Y120365D01*
X458398Y120862D01*
X457956Y121045D01*
Y130760D01*
X457956Y130760D01*
X457871Y131189D01*
X457628Y131553D01*
X457628Y131553D01*
X455856Y133325D01*
X455492Y133568D01*
X455063Y133653D01*
X455063Y133653D01*
X435465D01*
X433622Y135496D01*
Y223799D01*
X434063Y223982D01*
X434711Y224479D01*
X435208Y225126D01*
X435520Y225880D01*
X435627Y226689D01*
X435520Y227499D01*
X435208Y228253D01*
X434711Y228900D01*
X434063Y229397D01*
X433309Y229710D01*
X432500Y229816D01*
D02*
G37*
G36*
X554861Y135658D02*
X554052Y135552D01*
X553298Y135239D01*
X552650Y134742D01*
X552153Y134095D01*
X551841Y133341D01*
X551734Y132531D01*
X551841Y131722D01*
X552153Y130968D01*
X552650Y130321D01*
X553298Y129824D01*
X553740Y129641D01*
Y110023D01*
X545729D01*
X545546Y110465D01*
X545049Y111112D01*
X544402Y111609D01*
X543648Y111922D01*
X542839Y112028D01*
X542029Y111922D01*
X541275Y111609D01*
X540628Y111112D01*
X540131Y110465D01*
X539818Y109711D01*
X539712Y108902D01*
X539818Y108092D01*
X540131Y107338D01*
X540628Y106691D01*
X541275Y106194D01*
X542029Y105881D01*
X542839Y105775D01*
X543648Y105881D01*
X544402Y106194D01*
X545049Y106691D01*
X545546Y107338D01*
X545729Y107780D01*
X554275D01*
X554276Y107780D01*
X554705Y107865D01*
X555068Y108108D01*
X555654Y108694D01*
X555654Y108694D01*
X555898Y109058D01*
X555983Y109487D01*
Y129641D01*
X556425Y129824D01*
X557072Y130321D01*
X557569Y130968D01*
X557881Y131722D01*
X557988Y132531D01*
X557881Y133341D01*
X557569Y134095D01*
X557072Y134742D01*
X556425Y135239D01*
X555670Y135552D01*
X554861Y135658D01*
D02*
G37*
G36*
X246236Y123451D02*
X245427Y123344D01*
X244673Y123032D01*
X244025Y122535D01*
X243528Y121887D01*
X243216Y121133D01*
X243109Y120324D01*
X243216Y119515D01*
X243528Y118761D01*
X244025Y118113D01*
X244673Y117616D01*
X245427Y117304D01*
X246236Y117197D01*
X247045Y117304D01*
X247487Y117487D01*
X251267Y113707D01*
X251267Y113707D01*
X251631Y113464D01*
X252060Y113378D01*
X252060Y113378D01*
X258244D01*
X258519Y112932D01*
X258516Y112878D01*
X257902Y112407D01*
X257405Y111759D01*
X257092Y111005D01*
X256986Y110196D01*
X257092Y109387D01*
X257405Y108632D01*
X257902Y107985D01*
X258549Y107488D01*
X259303Y107176D01*
X260113Y107069D01*
X260922Y107176D01*
X261676Y107488D01*
X262324Y107985D01*
X262821Y108632D01*
X263133Y109387D01*
X263239Y110196D01*
X263133Y111005D01*
X262821Y111759D01*
X262324Y112407D01*
X261676Y112904D01*
X261234Y113087D01*
Y113914D01*
X261149Y114343D01*
X260906Y114707D01*
X260906Y114707D01*
X260320Y115293D01*
X259956Y115536D01*
X259527Y115622D01*
X259527Y115622D01*
X252525D01*
X249073Y119073D01*
X249256Y119515D01*
X249363Y120324D01*
X249256Y121133D01*
X248944Y121887D01*
X248447Y122535D01*
X247800Y123032D01*
X247045Y123344D01*
X246236Y123451D01*
D02*
G37*
G36*
X352500Y141362D02*
X351691Y141256D01*
X350937Y140943D01*
X350289Y140446D01*
X349792Y139799D01*
X349480Y139045D01*
X349373Y138235D01*
X349480Y137426D01*
X349702Y136890D01*
Y73846D01*
X349480Y73309D01*
X349373Y72500D01*
X349480Y71691D01*
X349792Y70937D01*
X350289Y70289D01*
X350937Y69792D01*
X351691Y69480D01*
X352500Y69373D01*
X353309Y69480D01*
X354063Y69792D01*
X354711Y70289D01*
X355208Y70937D01*
X355520Y71691D01*
X355627Y72500D01*
X355520Y73309D01*
X355208Y74063D01*
X354711Y74711D01*
X354063Y75208D01*
X353984Y75241D01*
Y88625D01*
X354480Y88691D01*
X354792Y87937D01*
X355289Y87289D01*
X355937Y86792D01*
X356379Y86609D01*
Y67523D01*
X353751Y64896D01*
X353309Y65079D01*
X352500Y65185D01*
X351691Y65079D01*
X350937Y64767D01*
X350289Y64270D01*
X349792Y63622D01*
X349480Y62868D01*
X349373Y62059D01*
X349480Y61250D01*
X349792Y60495D01*
X350289Y59848D01*
X350937Y59351D01*
X351503Y59116D01*
X351404Y58616D01*
X309495D01*
X309065Y58531D01*
X308701Y58288D01*
X308701Y58288D01*
X306207Y55793D01*
X305964Y55429D01*
X305878Y55000D01*
X305878Y55000D01*
Y23703D01*
X305058Y23363D01*
X304254Y22746D01*
X303637Y21942D01*
X303249Y21005D01*
X303117Y20000D01*
X303249Y18995D01*
X303637Y18058D01*
X304254Y17254D01*
X305058Y16637D01*
X305995Y16249D01*
X307000Y16117D01*
X308005Y16249D01*
X308942Y16637D01*
X309746Y17254D01*
X310363Y18058D01*
X310751Y18995D01*
X310883Y20000D01*
X310751Y21005D01*
X310363Y21942D01*
X309746Y22746D01*
X308942Y23363D01*
X308121Y23703D01*
Y54535D01*
X309959Y56373D01*
X362500D01*
X362929Y56458D01*
X363293Y56701D01*
X363536Y57065D01*
X363621Y57495D01*
Y59286D01*
X363980Y59434D01*
X364628Y59931D01*
X365125Y60579D01*
X365437Y61333D01*
X365544Y62142D01*
X365437Y62951D01*
X365125Y63705D01*
X364628Y64353D01*
X363980Y64850D01*
X363226Y65162D01*
X362417Y65269D01*
X361608Y65162D01*
X360853Y64850D01*
X360206Y64353D01*
X359709Y63705D01*
X359397Y62951D01*
X359290Y62142D01*
X359397Y61333D01*
X359709Y60579D01*
X360206Y59931D01*
X360853Y59434D01*
X361379Y59217D01*
Y58616D01*
X353596D01*
X353497Y59116D01*
X354063Y59351D01*
X354711Y59848D01*
X355208Y60495D01*
X355520Y61250D01*
X355627Y62059D01*
X355520Y62868D01*
X355337Y63310D01*
X358293Y66266D01*
X358293Y66266D01*
X358536Y66629D01*
X358622Y67059D01*
X358622Y67059D01*
Y86609D01*
X359063Y86792D01*
X359711Y87289D01*
X360208Y87937D01*
X360520Y88691D01*
X360627Y89500D01*
X360520Y90309D01*
X360208Y91063D01*
X359711Y91711D01*
X359063Y92208D01*
X358309Y92520D01*
X357500Y92627D01*
X356691Y92520D01*
X355937Y92208D01*
X355289Y91711D01*
X354792Y91063D01*
X354480Y90309D01*
X353984Y90375D01*
Y114678D01*
X354446Y114869D01*
X357381Y111934D01*
Y110790D01*
X356938Y110607D01*
X356290Y110110D01*
X355794Y109462D01*
X355481Y108708D01*
X355375Y107899D01*
X355481Y107090D01*
X355794Y106336D01*
X356290Y105688D01*
X356938Y105191D01*
X357692Y104879D01*
X358501Y104772D01*
X359311Y104879D01*
X360065Y105191D01*
X360712Y105688D01*
X361209Y106336D01*
X361522Y107090D01*
X361628Y107899D01*
X361522Y108708D01*
X361209Y109462D01*
X360712Y110110D01*
X360065Y110607D01*
X359624Y110790D01*
Y112399D01*
X359624Y112399D01*
X359539Y112828D01*
X359295Y113192D01*
X355745Y116743D01*
Y123504D01*
X360209Y127968D01*
X360452Y128332D01*
X360537Y128761D01*
X360537Y128761D01*
Y129641D01*
X360979Y129824D01*
X361627Y130321D01*
X362124Y130968D01*
X362436Y131722D01*
X362543Y132531D01*
X362436Y133341D01*
X362124Y134095D01*
X361627Y134742D01*
X360979Y135239D01*
X360225Y135552D01*
X359416Y135658D01*
X358607Y135552D01*
X357852Y135239D01*
X357205Y134742D01*
X356708Y134095D01*
X356396Y133341D01*
X356289Y132531D01*
X356396Y131722D01*
X356708Y130968D01*
X357205Y130321D01*
X357852Y129824D01*
X358192Y129683D01*
X358247Y129179D01*
X354446Y125377D01*
X353984Y125569D01*
Y135495D01*
X354063Y135528D01*
X354711Y136024D01*
X355208Y136672D01*
X355520Y137426D01*
X355627Y138235D01*
X355520Y139045D01*
X355208Y139799D01*
X354711Y140446D01*
X354063Y140943D01*
X353309Y141256D01*
X352500Y141362D01*
D02*
G37*
G36*
X67500Y215627D02*
X66691Y215520D01*
X65937Y215208D01*
X65289Y214711D01*
X64792Y214063D01*
X64480Y213309D01*
X64373Y212500D01*
X64480Y211691D01*
X64792Y210937D01*
X65289Y210289D01*
X65937Y209792D01*
X66378Y209609D01*
Y107891D01*
X65937Y107708D01*
X65289Y107211D01*
X64792Y106563D01*
X64480Y105809D01*
X64373Y105000D01*
X64480Y104191D01*
X64792Y103437D01*
X65289Y102789D01*
X65937Y102292D01*
X66691Y101980D01*
X67500Y101873D01*
X68309Y101980D01*
X69063Y102292D01*
X69711Y102789D01*
X70208Y103437D01*
X70520Y104191D01*
X70627Y105000D01*
X70520Y105809D01*
X70208Y106563D01*
X69711Y107211D01*
X69063Y107708D01*
X68622Y107891D01*
Y209609D01*
X69063Y209792D01*
X69711Y210289D01*
X70208Y210937D01*
X70520Y211691D01*
X70627Y212500D01*
X70520Y213309D01*
X70208Y214063D01*
X69711Y214711D01*
X69063Y215208D01*
X68309Y215520D01*
X67500Y215627D01*
D02*
G37*
G36*
X392600Y125926D02*
X391791Y125819D01*
X391037Y125507D01*
X390389Y125010D01*
X389892Y124363D01*
X389580Y123608D01*
X389473Y122799D01*
X389580Y121990D01*
X389892Y121236D01*
X390389Y120588D01*
X391037Y120091D01*
X391791Y119779D01*
X392600Y119672D01*
X393409Y119779D01*
X394163Y120091D01*
X394811Y120588D01*
X394865Y120658D01*
X447860D01*
Y102375D01*
X447853Y102370D01*
X447356Y101722D01*
X447044Y100968D01*
X446937Y100159D01*
X447044Y99350D01*
X447356Y98596D01*
X447853Y97948D01*
X448501Y97451D01*
X449255Y97139D01*
X450064Y97032D01*
X450873Y97139D01*
X451627Y97451D01*
X452275Y97948D01*
X452772Y98596D01*
X453084Y99350D01*
X453191Y100159D01*
X453084Y100968D01*
X452772Y101722D01*
X452275Y102370D01*
X452142Y102472D01*
Y122213D01*
X451979Y123033D01*
X451515Y123727D01*
X451164Y123962D01*
X450929Y124313D01*
X450235Y124777D01*
X449415Y124940D01*
X394865D01*
X394811Y125010D01*
X394163Y125507D01*
X393409Y125819D01*
X392600Y125926D01*
D02*
G37*
G36*
X270000Y167270D02*
X269191Y167164D01*
X268437Y166851D01*
X267789Y166355D01*
X267292Y165707D01*
X266980Y164953D01*
X266873Y164144D01*
X266980Y163334D01*
X267292Y162580D01*
X267789Y161933D01*
X268437Y161436D01*
X268879Y161253D01*
Y99805D01*
X268437Y99622D01*
X267789Y99125D01*
X267292Y98478D01*
X266980Y97724D01*
X266873Y96914D01*
X266980Y96105D01*
X267292Y95351D01*
X267789Y94703D01*
X268437Y94206D01*
X269191Y93894D01*
X270000Y93787D01*
X270809Y93894D01*
X271563Y94206D01*
X272211Y94703D01*
X272708Y95351D01*
X273020Y96105D01*
X273127Y96914D01*
X273020Y97724D01*
X272708Y98478D01*
X272211Y99125D01*
X271563Y99622D01*
X271122Y99805D01*
Y161253D01*
X271563Y161436D01*
X272211Y161933D01*
X272708Y162580D01*
X273020Y163334D01*
X273127Y164144D01*
X273020Y164953D01*
X272708Y165707D01*
X272211Y166355D01*
X271563Y166851D01*
X270809Y167164D01*
X270000Y167270D01*
D02*
G37*
G36*
X152959Y130627D02*
X152149Y130520D01*
X151395Y130208D01*
X150748Y129711D01*
X150251Y129063D01*
X149939Y128309D01*
X149832Y127500D01*
X149939Y126691D01*
X150251Y125937D01*
X150748Y125289D01*
X150818Y125235D01*
Y99179D01*
X150748Y99125D01*
X150251Y98478D01*
X149939Y97724D01*
X149832Y96914D01*
X149939Y96105D01*
X150251Y95351D01*
X150748Y94703D01*
X151395Y94206D01*
X152149Y93894D01*
X152959Y93787D01*
X153768Y93894D01*
X154522Y94206D01*
X155170Y94703D01*
X155667Y95351D01*
X155979Y96105D01*
X156086Y96914D01*
X155979Y97724D01*
X155667Y98478D01*
X155170Y99125D01*
X155100Y99179D01*
Y125235D01*
X155170Y125289D01*
X155667Y125937D01*
X155979Y126691D01*
X156086Y127500D01*
X155979Y128309D01*
X155667Y129063D01*
X155170Y129711D01*
X154522Y130208D01*
X153768Y130520D01*
X152959Y130627D01*
D02*
G37*
G36*
X462500Y133062D02*
X461691Y132955D01*
X460937Y132643D01*
X460289Y132146D01*
X459792Y131498D01*
X459480Y130744D01*
X459373Y129935D01*
X459480Y129126D01*
X459792Y128372D01*
X460289Y127724D01*
X460359Y127670D01*
Y122125D01*
X460522Y121306D01*
X460986Y120611D01*
X464652Y116946D01*
Y92196D01*
X464582Y92142D01*
X464085Y91495D01*
X463773Y90741D01*
X463666Y89931D01*
X463773Y89122D01*
X464085Y88368D01*
X464582Y87721D01*
X465230Y87224D01*
X465984Y86911D01*
X466793Y86805D01*
X467602Y86911D01*
X468356Y87224D01*
X469004Y87721D01*
X469501Y88368D01*
X469813Y89122D01*
X469920Y89931D01*
X469813Y90741D01*
X469501Y91495D01*
X469004Y92142D01*
X468934Y92196D01*
Y117832D01*
X468771Y118652D01*
X468307Y119346D01*
X464641Y123012D01*
Y127670D01*
X464711Y127724D01*
X465208Y128372D01*
X465520Y129126D01*
X465627Y129935D01*
X465520Y130744D01*
X465208Y131498D01*
X464711Y132146D01*
X464063Y132643D01*
X463309Y132955D01*
X462500Y133062D01*
D02*
G37*
G36*
X131500Y83973D02*
Y80000D01*
X135473D01*
X135384Y80675D01*
X134931Y81769D01*
X134209Y82709D01*
X133269Y83431D01*
X132175Y83884D01*
X131500Y83973D01*
D02*
G37*
G36*
X130500D02*
X129825Y83884D01*
X128731Y83431D01*
X127791Y82709D01*
X127069Y81769D01*
X126616Y80675D01*
X126527Y80000D01*
X130500D01*
Y83973D01*
D02*
G37*
G36*
X121500D02*
Y80000D01*
X125473D01*
X125384Y80675D01*
X124931Y81769D01*
X124209Y82709D01*
X123269Y83431D01*
X122175Y83884D01*
X121500Y83973D01*
D02*
G37*
G36*
X120500D02*
X119825Y83884D01*
X118731Y83431D01*
X117791Y82709D01*
X117069Y81769D01*
X116616Y80675D01*
X116527Y80000D01*
X120500D01*
Y83973D01*
D02*
G37*
G36*
X61500D02*
Y80000D01*
X65473D01*
X65384Y80675D01*
X64931Y81769D01*
X64209Y82709D01*
X63269Y83431D01*
X62175Y83884D01*
X61500Y83973D01*
D02*
G37*
G36*
X60500D02*
X59825Y83884D01*
X58731Y83431D01*
X57791Y82709D01*
X57069Y81769D01*
X56616Y80675D01*
X56527Y80000D01*
X60500D01*
Y83973D01*
D02*
G37*
G36*
X262500Y79465D02*
X261691Y79358D01*
X260937Y79046D01*
X260289Y78549D01*
X259792Y77901D01*
X259609Y77460D01*
X245851D01*
X245851Y77460D01*
X245422Y77374D01*
X245058Y77131D01*
X245058Y77131D01*
X244207Y76280D01*
X243964Y75916D01*
X243878Y75487D01*
X243879Y75487D01*
Y57891D01*
X243437Y57708D01*
X242789Y57211D01*
X242292Y56563D01*
X241980Y55809D01*
X241873Y55000D01*
X241980Y54191D01*
X242292Y53437D01*
X242789Y52789D01*
X243437Y52292D01*
X244191Y51980D01*
X245000Y51873D01*
X245809Y51980D01*
X246563Y52292D01*
X247211Y52789D01*
X247708Y53437D01*
X248020Y54191D01*
X248127Y55000D01*
X248020Y55809D01*
X247708Y56563D01*
X247211Y57211D01*
X246563Y57708D01*
X246122Y57891D01*
Y75023D01*
X246315Y75216D01*
X259609D01*
X259792Y74774D01*
X260289Y74127D01*
X260937Y73630D01*
X261691Y73318D01*
X262500Y73211D01*
X263309Y73318D01*
X264063Y73630D01*
X264711Y74127D01*
X265208Y74774D01*
X265520Y75529D01*
X265627Y76338D01*
X265520Y77147D01*
X265208Y77901D01*
X264711Y78549D01*
X264063Y79046D01*
X263309Y79358D01*
X262500Y79465D01*
D02*
G37*
G36*
X211000Y83635D02*
X209930Y83495D01*
X208932Y83081D01*
X208076Y82424D01*
X207419Y81568D01*
X207006Y80570D01*
X206865Y79500D01*
X207006Y78430D01*
X207419Y77432D01*
X208076Y76576D01*
X208932Y75919D01*
X209930Y75506D01*
X211000Y75365D01*
X212070Y75506D01*
X213068Y75919D01*
X213924Y76576D01*
X214581Y77432D01*
X214995Y78430D01*
X215135Y79500D01*
X214995Y80570D01*
X214581Y81568D01*
X213924Y82424D01*
X213068Y83081D01*
X212070Y83495D01*
X211000Y83635D01*
D02*
G37*
G36*
X201000D02*
X199930Y83495D01*
X198932Y83081D01*
X198076Y82424D01*
X197419Y81568D01*
X197005Y80570D01*
X196865Y79500D01*
X197005Y78430D01*
X197419Y77432D01*
X198076Y76576D01*
X198932Y75919D01*
X199930Y75506D01*
X201000Y75365D01*
X202070Y75506D01*
X203068Y75919D01*
X203924Y76576D01*
X204581Y77432D01*
X204995Y78430D01*
X205135Y79500D01*
X204995Y80570D01*
X204581Y81568D01*
X203924Y82424D01*
X203068Y83081D01*
X202070Y83495D01*
X201000Y83635D01*
D02*
G37*
G36*
X181000D02*
X179930Y83495D01*
X178932Y83081D01*
X178076Y82424D01*
X177419Y81568D01*
X177006Y80570D01*
X176865Y79500D01*
X177006Y78430D01*
X177419Y77432D01*
X178076Y76576D01*
X178932Y75919D01*
X179930Y75506D01*
X181000Y75365D01*
X182070Y75506D01*
X183068Y75919D01*
X183924Y76576D01*
X184581Y77432D01*
X184994Y78430D01*
X185135Y79500D01*
X184994Y80570D01*
X184581Y81568D01*
X183924Y82424D01*
X183068Y83081D01*
X182070Y83495D01*
X181000Y83635D01*
D02*
G37*
G36*
X171000D02*
X169930Y83495D01*
X168932Y83081D01*
X168076Y82424D01*
X167419Y81568D01*
X167006Y80570D01*
X166865Y79500D01*
X167006Y78430D01*
X167419Y77432D01*
X168076Y76576D01*
X168932Y75919D01*
X169930Y75506D01*
X171000Y75365D01*
X172070Y75506D01*
X173068Y75919D01*
X173924Y76576D01*
X174581Y77432D01*
X174995Y78430D01*
X175135Y79500D01*
X174995Y80570D01*
X174581Y81568D01*
X173924Y82424D01*
X173068Y83081D01*
X172070Y83495D01*
X171000Y83635D01*
D02*
G37*
G36*
X161000D02*
X159930Y83495D01*
X158932Y83081D01*
X158076Y82424D01*
X157419Y81568D01*
X157006Y80570D01*
X156865Y79500D01*
X157006Y78430D01*
X157419Y77432D01*
X158076Y76576D01*
X158932Y75919D01*
X159930Y75506D01*
X161000Y75365D01*
X162070Y75506D01*
X163068Y75919D01*
X163924Y76576D01*
X164581Y77432D01*
X164995Y78430D01*
X165135Y79500D01*
X164995Y80570D01*
X164581Y81568D01*
X163924Y82424D01*
X163068Y83081D01*
X162070Y83495D01*
X161000Y83635D01*
D02*
G37*
G36*
X151000D02*
X149930Y83495D01*
X148932Y83081D01*
X148076Y82424D01*
X147419Y81568D01*
X147005Y80570D01*
X146865Y79500D01*
X147005Y78430D01*
X147419Y77432D01*
X148076Y76576D01*
X148932Y75919D01*
X149930Y75506D01*
X151000Y75365D01*
X152070Y75506D01*
X153068Y75919D01*
X153924Y76576D01*
X154581Y77432D01*
X154994Y78430D01*
X155135Y79500D01*
X154994Y80570D01*
X154581Y81568D01*
X153924Y82424D01*
X153068Y83081D01*
X152070Y83495D01*
X151000Y83635D01*
D02*
G37*
G36*
X141000D02*
X139930Y83495D01*
X138932Y83081D01*
X138076Y82424D01*
X137419Y81568D01*
X137005Y80570D01*
X136865Y79500D01*
X137005Y78430D01*
X137419Y77432D01*
X138076Y76576D01*
X138932Y75919D01*
X139930Y75506D01*
X141000Y75365D01*
X142070Y75506D01*
X143068Y75919D01*
X143924Y76576D01*
X144581Y77432D01*
X144994Y78430D01*
X145135Y79500D01*
X144994Y80570D01*
X144581Y81568D01*
X143924Y82424D01*
X143068Y83081D01*
X142070Y83495D01*
X141000Y83635D01*
D02*
G37*
G36*
X111000D02*
X109930Y83495D01*
X108932Y83081D01*
X108076Y82424D01*
X107419Y81568D01*
X107006Y80570D01*
X106865Y79500D01*
X107006Y78430D01*
X107419Y77432D01*
X108076Y76576D01*
X108932Y75919D01*
X109930Y75506D01*
X111000Y75365D01*
X112070Y75506D01*
X113068Y75919D01*
X113924Y76576D01*
X114581Y77432D01*
X114995Y78430D01*
X115135Y79500D01*
X114995Y80570D01*
X114581Y81568D01*
X113924Y82424D01*
X113068Y83081D01*
X112070Y83495D01*
X111000Y83635D01*
D02*
G37*
G36*
X101000D02*
X99930Y83495D01*
X98932Y83081D01*
X98076Y82424D01*
X97419Y81568D01*
X97005Y80570D01*
X96865Y79500D01*
X97005Y78430D01*
X97419Y77432D01*
X98076Y76576D01*
X98932Y75919D01*
X99930Y75506D01*
X101000Y75365D01*
X102070Y75506D01*
X103068Y75919D01*
X103924Y76576D01*
X104581Y77432D01*
X104994Y78430D01*
X105135Y79500D01*
X104994Y80570D01*
X104581Y81568D01*
X103924Y82424D01*
X103068Y83081D01*
X102070Y83495D01*
X101000Y83635D01*
D02*
G37*
G36*
X91000D02*
X89930Y83495D01*
X88932Y83081D01*
X88076Y82424D01*
X87419Y81568D01*
X87006Y80570D01*
X86865Y79500D01*
X87006Y78430D01*
X87419Y77432D01*
X88076Y76576D01*
X88932Y75919D01*
X89930Y75506D01*
X91000Y75365D01*
X92070Y75506D01*
X93068Y75919D01*
X93924Y76576D01*
X94581Y77432D01*
X94994Y78430D01*
X95135Y79500D01*
X94994Y80570D01*
X94581Y81568D01*
X93924Y82424D01*
X93068Y83081D01*
X92070Y83495D01*
X91000Y83635D01*
D02*
G37*
G36*
X81000D02*
X79930Y83495D01*
X78932Y83081D01*
X78076Y82424D01*
X77419Y81568D01*
X77005Y80570D01*
X76865Y79500D01*
X77005Y78430D01*
X77419Y77432D01*
X78076Y76576D01*
X78932Y75919D01*
X79930Y75506D01*
X81000Y75365D01*
X82070Y75506D01*
X83068Y75919D01*
X83924Y76576D01*
X84581Y77432D01*
X84995Y78430D01*
X85135Y79500D01*
X84995Y80570D01*
X84581Y81568D01*
X83924Y82424D01*
X83068Y83081D01*
X82070Y83495D01*
X81000Y83635D01*
D02*
G37*
G36*
X71000D02*
X69930Y83495D01*
X68932Y83081D01*
X68076Y82424D01*
X67419Y81568D01*
X67005Y80570D01*
X66865Y79500D01*
X67005Y78430D01*
X67419Y77432D01*
X68076Y76576D01*
X68932Y75919D01*
X69930Y75506D01*
X71000Y75365D01*
X72070Y75506D01*
X73068Y75919D01*
X73924Y76576D01*
X74581Y77432D01*
X74994Y78430D01*
X75135Y79500D01*
X74994Y80570D01*
X74581Y81568D01*
X73924Y82424D01*
X73068Y83081D01*
X72070Y83495D01*
X71000Y83635D01*
D02*
G37*
G36*
X51000D02*
X49930Y83495D01*
X48932Y83081D01*
X48076Y82424D01*
X47419Y81568D01*
X47006Y80570D01*
X46865Y79500D01*
X47006Y78430D01*
X47419Y77432D01*
X48076Y76576D01*
X48932Y75919D01*
X49930Y75506D01*
X51000Y75365D01*
X52070Y75506D01*
X53068Y75919D01*
X53924Y76576D01*
X54581Y77432D01*
X54994Y78430D01*
X55135Y79500D01*
X54994Y80570D01*
X54581Y81568D01*
X53924Y82424D01*
X53068Y83081D01*
X52070Y83495D01*
X51000Y83635D01*
D02*
G37*
G36*
X41000D02*
X39930Y83495D01*
X38932Y83081D01*
X38076Y82424D01*
X37419Y81568D01*
X37005Y80570D01*
X36865Y79500D01*
X37005Y78430D01*
X37419Y77432D01*
X38076Y76576D01*
X38932Y75919D01*
X39930Y75506D01*
X41000Y75365D01*
X42070Y75506D01*
X43068Y75919D01*
X43924Y76576D01*
X44581Y77432D01*
X44995Y78430D01*
X45135Y79500D01*
X44995Y80570D01*
X44581Y81568D01*
X43924Y82424D01*
X43068Y83081D01*
X42070Y83495D01*
X41000Y83635D01*
D02*
G37*
G36*
X31000D02*
X29930Y83495D01*
X28932Y83081D01*
X28076Y82424D01*
X27419Y81568D01*
X27005Y80570D01*
X26865Y79500D01*
X27005Y78430D01*
X27419Y77432D01*
X28076Y76576D01*
X28932Y75919D01*
X29930Y75506D01*
X31000Y75365D01*
X32070Y75506D01*
X33068Y75919D01*
X33924Y76576D01*
X34581Y77432D01*
X34995Y78430D01*
X35135Y79500D01*
X34995Y80570D01*
X34581Y81568D01*
X33924Y82424D01*
X33068Y83081D01*
X32070Y83495D01*
X31000Y83635D01*
D02*
G37*
G36*
X135473Y79000D02*
X131500D01*
Y75027D01*
X132175Y75116D01*
X133269Y75569D01*
X134209Y76291D01*
X134931Y77231D01*
X135384Y78325D01*
X135473Y79000D01*
D02*
G37*
G36*
X130500D02*
X126527D01*
X126616Y78325D01*
X127069Y77231D01*
X127791Y76291D01*
X128731Y75569D01*
X129825Y75116D01*
X130500Y75027D01*
Y79000D01*
D02*
G37*
G36*
X125473D02*
X121500D01*
Y75027D01*
X122175Y75116D01*
X123269Y75569D01*
X124209Y76291D01*
X124931Y77231D01*
X125384Y78325D01*
X125473Y79000D01*
D02*
G37*
G36*
X120500D02*
X116527D01*
X116616Y78325D01*
X117069Y77231D01*
X117791Y76291D01*
X118731Y75569D01*
X119825Y75116D01*
X120500Y75027D01*
Y79000D01*
D02*
G37*
G36*
X65473D02*
X61500D01*
Y75027D01*
X62175Y75116D01*
X63269Y75569D01*
X64209Y76291D01*
X64931Y77231D01*
X65384Y78325D01*
X65473Y79000D01*
D02*
G37*
G36*
X60500D02*
X56527D01*
X56616Y78325D01*
X57069Y77231D01*
X57791Y76291D01*
X58731Y75569D01*
X59825Y75116D01*
X60500Y75027D01*
Y79000D01*
D02*
G37*
G36*
X121500Y73973D02*
Y70000D01*
X125473D01*
X125384Y70675D01*
X124931Y71769D01*
X124209Y72709D01*
X123269Y73431D01*
X122175Y73884D01*
X121500Y73973D01*
D02*
G37*
G36*
X120500D02*
X119825Y73884D01*
X118731Y73431D01*
X117791Y72709D01*
X117069Y71769D01*
X116616Y70675D01*
X116527Y70000D01*
X120500D01*
Y73973D01*
D02*
G37*
G36*
X35100Y73600D02*
X26900D01*
Y65400D01*
X35100D01*
Y73600D01*
D02*
G37*
G36*
X191000Y73635D02*
X189930Y73494D01*
X188932Y73081D01*
X188076Y72424D01*
X187419Y71568D01*
X187005Y70570D01*
X186865Y69500D01*
X187005Y68430D01*
X187419Y67432D01*
X188076Y66576D01*
X188932Y65919D01*
X189930Y65505D01*
X191000Y65365D01*
X192070Y65505D01*
X193068Y65919D01*
X193924Y66576D01*
X194581Y67432D01*
X194994Y68430D01*
X195135Y69500D01*
X194994Y70570D01*
X194581Y71568D01*
X193924Y72424D01*
X193068Y73081D01*
X192070Y73494D01*
X191000Y73635D01*
D02*
G37*
G36*
X181000D02*
X179930Y73494D01*
X178932Y73081D01*
X178076Y72424D01*
X177419Y71568D01*
X177006Y70570D01*
X176865Y69500D01*
X177006Y68430D01*
X177419Y67432D01*
X178076Y66576D01*
X178932Y65919D01*
X179930Y65505D01*
X181000Y65365D01*
X182070Y65505D01*
X183068Y65919D01*
X183924Y66576D01*
X184581Y67432D01*
X184994Y68430D01*
X185135Y69500D01*
X184994Y70570D01*
X184581Y71568D01*
X183924Y72424D01*
X183068Y73081D01*
X182070Y73494D01*
X181000Y73635D01*
D02*
G37*
G36*
X171000D02*
X169930Y73494D01*
X168932Y73081D01*
X168076Y72424D01*
X167419Y71568D01*
X167006Y70570D01*
X166865Y69500D01*
X167006Y68430D01*
X167419Y67432D01*
X168076Y66576D01*
X168932Y65919D01*
X169930Y65505D01*
X171000Y65365D01*
X172070Y65505D01*
X173068Y65919D01*
X173924Y66576D01*
X174581Y67432D01*
X174995Y68430D01*
X175135Y69500D01*
X174995Y70570D01*
X174581Y71568D01*
X173924Y72424D01*
X173068Y73081D01*
X172070Y73494D01*
X171000Y73635D01*
D02*
G37*
G36*
X161000D02*
X159930Y73494D01*
X158932Y73081D01*
X158076Y72424D01*
X157419Y71568D01*
X157006Y70570D01*
X156865Y69500D01*
X157006Y68430D01*
X157419Y67432D01*
X158076Y66576D01*
X158932Y65919D01*
X159930Y65505D01*
X161000Y65365D01*
X162070Y65505D01*
X163068Y65919D01*
X163924Y66576D01*
X164581Y67432D01*
X164995Y68430D01*
X165135Y69500D01*
X164995Y70570D01*
X164581Y71568D01*
X163924Y72424D01*
X163068Y73081D01*
X162070Y73494D01*
X161000Y73635D01*
D02*
G37*
G36*
X151000D02*
X149930Y73494D01*
X148932Y73081D01*
X148076Y72424D01*
X147419Y71568D01*
X147005Y70570D01*
X146865Y69500D01*
X147005Y68430D01*
X147419Y67432D01*
X148076Y66576D01*
X148932Y65919D01*
X149930Y65505D01*
X151000Y65365D01*
X152070Y65505D01*
X153068Y65919D01*
X153924Y66576D01*
X154581Y67432D01*
X154994Y68430D01*
X155135Y69500D01*
X154994Y70570D01*
X154581Y71568D01*
X153924Y72424D01*
X153068Y73081D01*
X152070Y73494D01*
X151000Y73635D01*
D02*
G37*
G36*
X141000D02*
X139930Y73494D01*
X138932Y73081D01*
X138076Y72424D01*
X137419Y71568D01*
X137005Y70570D01*
X136865Y69500D01*
X137005Y68430D01*
X137419Y67432D01*
X138076Y66576D01*
X138932Y65919D01*
X139930Y65505D01*
X141000Y65365D01*
X142070Y65505D01*
X143068Y65919D01*
X143924Y66576D01*
X144581Y67432D01*
X144994Y68430D01*
X145135Y69500D01*
X144994Y70570D01*
X144581Y71568D01*
X143924Y72424D01*
X143068Y73081D01*
X142070Y73494D01*
X141000Y73635D01*
D02*
G37*
G36*
X131000D02*
X129930Y73494D01*
X128932Y73081D01*
X128076Y72424D01*
X127419Y71568D01*
X127006Y70570D01*
X126865Y69500D01*
X127006Y68430D01*
X127419Y67432D01*
X128076Y66576D01*
X128932Y65919D01*
X129930Y65505D01*
X131000Y65365D01*
X132070Y65505D01*
X133068Y65919D01*
X133924Y66576D01*
X134581Y67432D01*
X134994Y68430D01*
X135135Y69500D01*
X134994Y70570D01*
X134581Y71568D01*
X133924Y72424D01*
X133068Y73081D01*
X132070Y73494D01*
X131000Y73635D01*
D02*
G37*
G36*
X111000D02*
X109930Y73494D01*
X108932Y73081D01*
X108076Y72424D01*
X107419Y71568D01*
X107006Y70570D01*
X106865Y69500D01*
X107006Y68430D01*
X107419Y67432D01*
X108076Y66576D01*
X108932Y65919D01*
X109930Y65505D01*
X111000Y65365D01*
X112070Y65505D01*
X113068Y65919D01*
X113924Y66576D01*
X114581Y67432D01*
X114995Y68430D01*
X115135Y69500D01*
X114995Y70570D01*
X114581Y71568D01*
X113924Y72424D01*
X113068Y73081D01*
X112070Y73494D01*
X111000Y73635D01*
D02*
G37*
G36*
X101000D02*
X99930Y73494D01*
X98932Y73081D01*
X98076Y72424D01*
X97419Y71568D01*
X97005Y70570D01*
X96865Y69500D01*
X97005Y68430D01*
X97419Y67432D01*
X98076Y66576D01*
X98932Y65919D01*
X99930Y65505D01*
X101000Y65365D01*
X102070Y65505D01*
X103068Y65919D01*
X103924Y66576D01*
X104581Y67432D01*
X104994Y68430D01*
X105135Y69500D01*
X104994Y70570D01*
X104581Y71568D01*
X103924Y72424D01*
X103068Y73081D01*
X102070Y73494D01*
X101000Y73635D01*
D02*
G37*
G36*
X91000D02*
X89930Y73494D01*
X88932Y73081D01*
X88076Y72424D01*
X87419Y71568D01*
X87006Y70570D01*
X86865Y69500D01*
X87006Y68430D01*
X87419Y67432D01*
X88076Y66576D01*
X88932Y65919D01*
X89930Y65505D01*
X91000Y65365D01*
X92070Y65505D01*
X93068Y65919D01*
X93924Y66576D01*
X94581Y67432D01*
X94994Y68430D01*
X95135Y69500D01*
X94994Y70570D01*
X94581Y71568D01*
X93924Y72424D01*
X93068Y73081D01*
X92070Y73494D01*
X91000Y73635D01*
D02*
G37*
G36*
X81000D02*
X79930Y73494D01*
X78932Y73081D01*
X78076Y72424D01*
X77419Y71568D01*
X77005Y70570D01*
X76865Y69500D01*
X77005Y68430D01*
X77419Y67432D01*
X78076Y66576D01*
X78932Y65919D01*
X79930Y65505D01*
X81000Y65365D01*
X82070Y65505D01*
X83068Y65919D01*
X83924Y66576D01*
X84581Y67432D01*
X84995Y68430D01*
X85135Y69500D01*
X84995Y70570D01*
X84581Y71568D01*
X83924Y72424D01*
X83068Y73081D01*
X82070Y73494D01*
X81000Y73635D01*
D02*
G37*
G36*
X71000D02*
X69930Y73494D01*
X68932Y73081D01*
X68076Y72424D01*
X67419Y71568D01*
X67005Y70570D01*
X66865Y69500D01*
X67005Y68430D01*
X67419Y67432D01*
X68076Y66576D01*
X68932Y65919D01*
X69930Y65505D01*
X71000Y65365D01*
X72070Y65505D01*
X73068Y65919D01*
X73924Y66576D01*
X74581Y67432D01*
X74994Y68430D01*
X75135Y69500D01*
X74994Y70570D01*
X74581Y71568D01*
X73924Y72424D01*
X73068Y73081D01*
X72070Y73494D01*
X71000Y73635D01*
D02*
G37*
G36*
X61000D02*
X59930Y73494D01*
X58932Y73081D01*
X58076Y72424D01*
X57419Y71568D01*
X57006Y70570D01*
X56865Y69500D01*
X57006Y68430D01*
X57419Y67432D01*
X58076Y66576D01*
X58932Y65919D01*
X59930Y65505D01*
X61000Y65365D01*
X62070Y65505D01*
X63068Y65919D01*
X63924Y66576D01*
X64581Y67432D01*
X64995Y68430D01*
X65135Y69500D01*
X64995Y70570D01*
X64581Y71568D01*
X63924Y72424D01*
X63068Y73081D01*
X62070Y73494D01*
X61000Y73635D01*
D02*
G37*
G36*
X51000D02*
X49930Y73494D01*
X48932Y73081D01*
X48076Y72424D01*
X47419Y71568D01*
X47006Y70570D01*
X46865Y69500D01*
X47006Y68430D01*
X47419Y67432D01*
X48076Y66576D01*
X48932Y65919D01*
X49930Y65505D01*
X51000Y65365D01*
X52070Y65505D01*
X53068Y65919D01*
X53924Y66576D01*
X54581Y67432D01*
X54994Y68430D01*
X55135Y69500D01*
X54994Y70570D01*
X54581Y71568D01*
X53924Y72424D01*
X53068Y73081D01*
X52070Y73494D01*
X51000Y73635D01*
D02*
G37*
G36*
X41000D02*
X39930Y73494D01*
X38932Y73081D01*
X38076Y72424D01*
X37419Y71568D01*
X37005Y70570D01*
X36865Y69500D01*
X37005Y68430D01*
X37419Y67432D01*
X38076Y66576D01*
X38932Y65919D01*
X39930Y65505D01*
X41000Y65365D01*
X42070Y65505D01*
X43068Y65919D01*
X43924Y66576D01*
X44581Y67432D01*
X44995Y68430D01*
X45135Y69500D01*
X44995Y70570D01*
X44581Y71568D01*
X43924Y72424D01*
X43068Y73081D01*
X42070Y73494D01*
X41000Y73635D01*
D02*
G37*
G36*
X125473Y69000D02*
X121500D01*
Y65027D01*
X122175Y65116D01*
X123269Y65569D01*
X124209Y66291D01*
X124931Y67231D01*
X125384Y68325D01*
X125473Y69000D01*
D02*
G37*
G36*
X120500D02*
X116527D01*
X116616Y68325D01*
X117069Y67231D01*
X117791Y66291D01*
X118731Y65569D01*
X119825Y65116D01*
X120500Y65027D01*
Y69000D01*
D02*
G37*
G36*
X340000Y74827D02*
X339191Y74720D01*
X338437Y74408D01*
X337789Y73911D01*
X337292Y73263D01*
X336980Y72509D01*
X336873Y71700D01*
X336980Y70891D01*
X337292Y70137D01*
X337789Y69489D01*
X338437Y68992D01*
X338878Y68809D01*
Y65349D01*
X338251Y64722D01*
X295391D01*
X295208Y65163D01*
X294711Y65811D01*
X294063Y66308D01*
X293309Y66620D01*
X292500Y66727D01*
X291691Y66620D01*
X290937Y66308D01*
X290289Y65811D01*
X289792Y65163D01*
X289480Y64409D01*
X289373Y63600D01*
X289480Y62791D01*
X289792Y62037D01*
X290289Y61389D01*
X290937Y60892D01*
X291691Y60580D01*
X292500Y60473D01*
X293309Y60580D01*
X294063Y60892D01*
X294711Y61389D01*
X295208Y62037D01*
X295391Y62478D01*
X338716D01*
X338716Y62478D01*
X339145Y62564D01*
X339509Y62807D01*
X340793Y64091D01*
X341036Y64455D01*
X341122Y64884D01*
X341122Y64884D01*
Y68809D01*
X341563Y68992D01*
X342211Y69489D01*
X342708Y70137D01*
X343020Y70891D01*
X343127Y71700D01*
X343020Y72509D01*
X342708Y73263D01*
X342211Y73911D01*
X341563Y74408D01*
X340809Y74720D01*
X340000Y74827D01*
D02*
G37*
G36*
X378031Y153127D02*
X377222Y153020D01*
X376468Y152708D01*
X375820Y152211D01*
X375324Y151563D01*
X375011Y150809D01*
X374905Y150000D01*
X375011Y149191D01*
X375324Y148437D01*
X375820Y147789D01*
X376468Y147292D01*
X376910Y147109D01*
Y118154D01*
X376910Y118154D01*
X376995Y117725D01*
X377238Y117361D01*
X393579Y101021D01*
Y62165D01*
X392535Y61122D01*
X385000D01*
X385000Y61122D01*
X384571Y61036D01*
X384207Y60793D01*
X384207Y60793D01*
X383538Y60124D01*
X383295Y59760D01*
X383209Y59331D01*
X383209Y59331D01*
Y50536D01*
X380529D01*
X380346Y50978D01*
X379849Y51625D01*
X379201Y52122D01*
X378447Y52434D01*
X377638Y52541D01*
X376829Y52434D01*
X376074Y52122D01*
X375427Y51625D01*
X374930Y50978D01*
X374618Y50223D01*
X374511Y49414D01*
X374618Y48605D01*
X374930Y47851D01*
X375427Y47203D01*
X376074Y46706D01*
X376829Y46394D01*
X377638Y46288D01*
X378447Y46394D01*
X379201Y46706D01*
X379849Y47203D01*
X380346Y47851D01*
X380529Y48293D01*
X383745D01*
X383745Y48293D01*
X384174Y48378D01*
X384538Y48621D01*
X385124Y49207D01*
X385124Y49207D01*
X385367Y49571D01*
X385452Y50000D01*
Y58866D01*
X385465Y58878D01*
X392999D01*
X392999Y58878D01*
X393429Y58964D01*
X393792Y59207D01*
X395493Y60908D01*
X395736Y61272D01*
X395822Y61701D01*
X395822Y61701D01*
Y101485D01*
X395822Y101485D01*
X395736Y101914D01*
X395493Y102278D01*
X379153Y118618D01*
Y147109D01*
X379595Y147292D01*
X380242Y147789D01*
X380739Y148437D01*
X381052Y149191D01*
X381158Y150000D01*
X381052Y150809D01*
X380739Y151563D01*
X380242Y152211D01*
X379595Y152708D01*
X378841Y153020D01*
X378031Y153127D01*
D02*
G37*
G36*
X260113Y62098D02*
X259303Y61991D01*
X258549Y61679D01*
X257902Y61182D01*
X257405Y60534D01*
X257092Y59780D01*
X256986Y58971D01*
X257092Y58162D01*
X257316Y57622D01*
X256207Y56513D01*
X255964Y56149D01*
X255878Y55720D01*
X255878Y55720D01*
Y23850D01*
X253150D01*
Y16150D01*
X260850D01*
Y23850D01*
X258121D01*
Y55255D01*
X258960Y56093D01*
X259303Y55951D01*
X260113Y55844D01*
X260922Y55951D01*
X261676Y56263D01*
X262324Y56760D01*
X262821Y57408D01*
X263133Y58162D01*
X263239Y58971D01*
X263133Y59780D01*
X262821Y60534D01*
X262324Y61182D01*
X261676Y61679D01*
X260922Y61991D01*
X260113Y62098D01*
D02*
G37*
G36*
X262500Y93212D02*
X261691Y93106D01*
X260937Y92794D01*
X260289Y92297D01*
X259792Y91649D01*
X259480Y90895D01*
X259373Y90086D01*
X259480Y89276D01*
X259792Y88522D01*
X260289Y87875D01*
X260937Y87378D01*
X261691Y87066D01*
X262500Y86959D01*
X263309Y87066D01*
X263751Y87249D01*
X271378Y79621D01*
Y71318D01*
X269207Y69146D01*
X268964Y68783D01*
X268878Y68353D01*
X268879Y68353D01*
Y57891D01*
X268437Y57708D01*
X267789Y57211D01*
X267292Y56563D01*
X266980Y55809D01*
X266873Y55000D01*
X266980Y54191D01*
X267292Y53437D01*
X267789Y52789D01*
X268437Y52292D01*
X269191Y51980D01*
X270000Y51873D01*
X270809Y51980D01*
X271563Y52292D01*
X272211Y52789D01*
X272708Y53437D01*
X273020Y54191D01*
X273127Y55000D01*
X273020Y55809D01*
X272708Y56563D01*
X272211Y57211D01*
X271563Y57708D01*
X271122Y57891D01*
Y67889D01*
X273293Y70060D01*
X273293Y70060D01*
X273536Y70424D01*
X273622Y70853D01*
Y80086D01*
X273622Y80086D01*
X273536Y80515D01*
X273293Y80879D01*
X273293Y80879D01*
X265337Y88835D01*
X265520Y89276D01*
X265627Y90086D01*
X265520Y90895D01*
X265208Y91649D01*
X264711Y92297D01*
X264063Y92794D01*
X263309Y93106D01*
X262500Y93212D01*
D02*
G37*
G36*
X282246Y117627D02*
X281437Y117520D01*
X280683Y117208D01*
X280035Y116711D01*
X279539Y116063D01*
X279226Y115309D01*
X279120Y114500D01*
X279226Y113691D01*
X279539Y112937D01*
X280035Y112289D01*
X280683Y111792D01*
X281125Y111609D01*
Y52812D01*
X280683Y52629D01*
X280035Y52132D01*
X279539Y51485D01*
X279226Y50730D01*
X279120Y49921D01*
X279226Y49112D01*
X279539Y48358D01*
X280035Y47710D01*
X280683Y47213D01*
X281437Y46901D01*
X282246Y46794D01*
X283056Y46901D01*
X283810Y47213D01*
X284457Y47710D01*
X284954Y48358D01*
X285267Y49112D01*
X285373Y49921D01*
X285267Y50730D01*
X284954Y51485D01*
X284457Y52132D01*
X283810Y52629D01*
X283368Y52812D01*
Y111609D01*
X283810Y111792D01*
X284457Y112289D01*
X284954Y112937D01*
X285267Y113691D01*
X285373Y114500D01*
X285267Y115309D01*
X284954Y116063D01*
X284457Y116711D01*
X283810Y117208D01*
X283056Y117520D01*
X282246Y117627D01*
D02*
G37*
G36*
X220100Y100627D02*
X219291Y100520D01*
X218537Y100208D01*
X217889Y99711D01*
X217392Y99063D01*
X217080Y98309D01*
X216973Y97500D01*
X217080Y96691D01*
X217392Y95937D01*
X217889Y95289D01*
X218537Y94792D01*
X218929Y94630D01*
Y50412D01*
X218437Y50208D01*
X217789Y49711D01*
X217292Y49063D01*
X216980Y48309D01*
X216873Y47500D01*
X216980Y46691D01*
X217292Y45937D01*
X217789Y45289D01*
X218437Y44792D01*
X219191Y44480D01*
X220000Y44373D01*
X220809Y44480D01*
X221563Y44792D01*
X222211Y45289D01*
X222708Y45937D01*
X223020Y46691D01*
X223127Y47500D01*
X223020Y48309D01*
X222708Y49063D01*
X222211Y49711D01*
X221563Y50208D01*
X221171Y50370D01*
Y94588D01*
X221663Y94792D01*
X222311Y95289D01*
X222808Y95937D01*
X223120Y96691D01*
X223227Y97500D01*
X223120Y98309D01*
X222808Y99063D01*
X222311Y99711D01*
X221663Y100208D01*
X220909Y100520D01*
X220100Y100627D01*
D02*
G37*
G36*
X369241Y294756D02*
X368432Y294649D01*
X367677Y294337D01*
X367030Y293840D01*
X366533Y293192D01*
X366221Y292438D01*
X366114Y291629D01*
X366221Y290820D01*
X366533Y290066D01*
X367030Y289418D01*
X367677Y288921D01*
X368119Y288738D01*
Y129436D01*
X360667Y121984D01*
X360225Y122167D01*
X359416Y122273D01*
X358607Y122167D01*
X357852Y121854D01*
X357205Y121358D01*
X356708Y120710D01*
X356396Y119956D01*
X356289Y119147D01*
X356396Y118337D01*
X356708Y117583D01*
X357205Y116936D01*
X357852Y116439D01*
X358607Y116126D01*
X359416Y116020D01*
X360225Y116126D01*
X360979Y116439D01*
X361627Y116936D01*
X362124Y117583D01*
X362436Y118337D01*
X362543Y119147D01*
X362436Y119956D01*
X362253Y120398D01*
X370034Y128179D01*
X370034Y128179D01*
X370277Y128543D01*
X370362Y128972D01*
Y207364D01*
X370863Y207611D01*
X371277Y207292D01*
X371719Y207109D01*
Y41888D01*
X370405Y40573D01*
X370000Y40627D01*
X369191Y40520D01*
X368437Y40208D01*
X367789Y39711D01*
X367292Y39063D01*
X366980Y38309D01*
X366873Y37500D01*
X366980Y36691D01*
X367292Y35937D01*
X367789Y35289D01*
X368437Y34792D01*
X369191Y34480D01*
X370000Y34373D01*
X370809Y34480D01*
X371563Y34792D01*
X372211Y35289D01*
X372708Y35937D01*
X373020Y36691D01*
X373127Y37500D01*
X373020Y38309D01*
X372708Y39063D01*
X372430Y39426D01*
X373634Y40630D01*
X373634Y40630D01*
X373877Y40994D01*
X373962Y41423D01*
X373962Y41423D01*
Y207109D01*
X374404Y207292D01*
X375052Y207789D01*
X375549Y208437D01*
X375861Y209191D01*
X375968Y210000D01*
X375861Y210809D01*
X375549Y211563D01*
X375052Y212211D01*
X374404Y212708D01*
X373650Y213020D01*
X372841Y213127D01*
X372032Y213020D01*
X371277Y212708D01*
X370863Y212389D01*
X370362Y212636D01*
Y288738D01*
X370804Y288921D01*
X371452Y289418D01*
X371949Y290066D01*
X372261Y290820D01*
X372368Y291629D01*
X372261Y292438D01*
X371949Y293192D01*
X371452Y293840D01*
X370804Y294337D01*
X370050Y294649D01*
X369241Y294756D01*
D02*
G37*
G36*
X201000Y73635D02*
X199930Y73494D01*
X198932Y73081D01*
X198076Y72424D01*
X197419Y71568D01*
X197005Y70570D01*
X196865Y69500D01*
X197005Y68430D01*
X197419Y67432D01*
X198076Y66576D01*
X198932Y65919D01*
X199930Y65505D01*
X200018Y65494D01*
Y42833D01*
X199716Y42708D01*
X199068Y42211D01*
X198572Y41563D01*
X198259Y40809D01*
X198153Y40000D01*
X198259Y39191D01*
X198572Y38437D01*
X199068Y37789D01*
X199716Y37292D01*
X200470Y36980D01*
X201279Y36873D01*
X202089Y36980D01*
X202843Y37292D01*
X203490Y37789D01*
X203987Y38437D01*
X204300Y39191D01*
X204406Y40000D01*
X204300Y40809D01*
X203987Y41563D01*
X203490Y42211D01*
X202843Y42708D01*
X202261Y42949D01*
Y65585D01*
X203068Y65919D01*
X203924Y66576D01*
X204581Y67432D01*
X204995Y68430D01*
X205135Y69500D01*
X204995Y70570D01*
X204581Y71568D01*
X203924Y72424D01*
X203068Y73081D01*
X202070Y73494D01*
X201000Y73635D01*
D02*
G37*
G36*
X236259Y148127D02*
X235450Y148020D01*
X234696Y147708D01*
X234049Y147211D01*
X233552Y146563D01*
X233239Y145809D01*
X233133Y145000D01*
X233239Y144191D01*
X233552Y143437D01*
X234049Y142789D01*
X234696Y142292D01*
X235138Y142109D01*
Y101241D01*
X235138Y101241D01*
X235223Y100811D01*
X235466Y100447D01*
X241378Y94535D01*
Y78214D01*
X238107Y74943D01*
X237864Y74579D01*
X237778Y74150D01*
X237778Y74150D01*
Y29793D01*
X237279Y29623D01*
X237211Y29711D01*
X236563Y30208D01*
X236122Y30391D01*
Y84609D01*
X236563Y84792D01*
X237211Y85289D01*
X237708Y85937D01*
X238020Y86691D01*
X238127Y87500D01*
X238020Y88309D01*
X237708Y89063D01*
X237211Y89711D01*
X236563Y90208D01*
X235809Y90520D01*
X235000Y90627D01*
X234191Y90520D01*
X233437Y90208D01*
X232789Y89711D01*
X232292Y89063D01*
X231980Y88309D01*
X231873Y87500D01*
X231980Y86691D01*
X232292Y85937D01*
X232789Y85289D01*
X233437Y84792D01*
X233878Y84609D01*
Y30391D01*
X233437Y30208D01*
X232789Y29711D01*
X232292Y29063D01*
X231980Y28309D01*
X231873Y27500D01*
X231980Y26691D01*
X232292Y25937D01*
X232789Y25289D01*
X233437Y24792D01*
X234191Y24480D01*
X235000Y24373D01*
X235809Y24480D01*
X236563Y24792D01*
X237211Y25289D01*
X237279Y25377D01*
X237778Y25207D01*
Y19136D01*
X212765D01*
X212122Y19779D01*
Y65527D01*
X213068Y65919D01*
X213924Y66576D01*
X214581Y67432D01*
X214995Y68430D01*
X215135Y69500D01*
X214995Y70570D01*
X214581Y71568D01*
X213924Y72424D01*
X213068Y73081D01*
X212070Y73494D01*
X211000Y73635D01*
X209930Y73494D01*
X208932Y73081D01*
X208076Y72424D01*
X207419Y71568D01*
X207006Y70570D01*
X206865Y69500D01*
X207006Y68430D01*
X207419Y67432D01*
X208076Y66576D01*
X208932Y65919D01*
X209878Y65527D01*
Y19314D01*
X209878Y19314D01*
X209964Y18885D01*
X210207Y18521D01*
X211507Y17221D01*
X211871Y16978D01*
X212300Y16893D01*
X212300Y16893D01*
X238314D01*
X238314Y16893D01*
X238743Y16978D01*
X239107Y17221D01*
X239693Y17807D01*
X239693Y17807D01*
X239936Y18171D01*
X240021Y18600D01*
Y73685D01*
X243293Y76957D01*
X243293Y76957D01*
X243536Y77321D01*
X243622Y77750D01*
X243621Y77750D01*
Y95000D01*
X243536Y95429D01*
X243293Y95793D01*
X243293Y95793D01*
X237381Y101705D01*
Y142109D01*
X237823Y142292D01*
X238470Y142789D01*
X238967Y143437D01*
X239280Y144191D01*
X239386Y145000D01*
X239280Y145809D01*
X238967Y146563D01*
X238470Y147211D01*
X237823Y147708D01*
X237069Y148020D01*
X236259Y148127D01*
D02*
G37*
G36*
X227500Y95627D02*
X226691Y95520D01*
X225937Y95208D01*
X225289Y94711D01*
X224792Y94063D01*
X224480Y93309D01*
X224373Y92500D01*
X224480Y91691D01*
X224792Y90937D01*
X225289Y90289D01*
X225937Y89792D01*
X226378Y89609D01*
Y35091D01*
X225937Y34908D01*
X225289Y34411D01*
X224792Y33764D01*
X224480Y33010D01*
X224373Y32200D01*
X224480Y31391D01*
X224792Y30637D01*
X225289Y29989D01*
X225937Y29493D01*
X226691Y29180D01*
X227500Y29074D01*
X228309Y29180D01*
X229063Y29493D01*
X229711Y29989D01*
X230208Y30637D01*
X230520Y31391D01*
X230627Y32200D01*
X230520Y33010D01*
X230208Y33764D01*
X229711Y34411D01*
X229063Y34908D01*
X228622Y35091D01*
Y89609D01*
X229063Y89792D01*
X229711Y90289D01*
X230208Y90937D01*
X230520Y91691D01*
X230627Y92500D01*
X230520Y93309D01*
X230208Y94063D01*
X229711Y94711D01*
X229063Y95208D01*
X228309Y95520D01*
X227500Y95627D01*
D02*
G37*
G36*
X512500Y26000D02*
X507000D01*
Y20500D01*
X512500D01*
Y26000D01*
D02*
G37*
G36*
X506000D02*
X500500D01*
Y20500D01*
X506000D01*
Y26000D01*
D02*
G37*
G36*
X436000D02*
X430500D01*
Y20500D01*
X436000D01*
Y26000D01*
D02*
G37*
G36*
X429500D02*
X424000D01*
Y20500D01*
X429500D01*
Y26000D01*
D02*
G37*
G36*
X380500Y24221D02*
Y20500D01*
X384221D01*
X384141Y21110D01*
X383712Y22143D01*
X383031Y23031D01*
X382143Y23712D01*
X381109Y24141D01*
X380500Y24221D01*
D02*
G37*
G36*
X379500D02*
X378890Y24141D01*
X377857Y23712D01*
X376969Y23031D01*
X376288Y22143D01*
X375859Y21110D01*
X375779Y20500D01*
X379500D01*
Y24221D01*
D02*
G37*
G36*
X297500D02*
Y20500D01*
X301221D01*
X301141Y21110D01*
X300712Y22143D01*
X300031Y23031D01*
X299143Y23712D01*
X298110Y24141D01*
X297500Y24221D01*
D02*
G37*
G36*
X296500D02*
X295890Y24141D01*
X294857Y23712D01*
X293969Y23031D01*
X293288Y22143D01*
X292859Y21110D01*
X292779Y20500D01*
X296500D01*
Y24221D01*
D02*
G37*
G36*
X324969Y53048D02*
X324159Y52941D01*
X323405Y52629D01*
X322758Y52132D01*
X322261Y51485D01*
X321948Y50730D01*
X321842Y49921D01*
X321948Y49112D01*
X322261Y48358D01*
X322758Y47710D01*
X323405Y47213D01*
X323847Y47030D01*
Y20318D01*
X323847Y20318D01*
X323932Y19888D01*
X324176Y19524D01*
X324793Y18907D01*
X324793Y18907D01*
X325157Y18664D01*
X325586Y18579D01*
X325586Y18579D01*
X336150D01*
Y16150D01*
X343850D01*
Y23850D01*
X336150D01*
Y20822D01*
X326090D01*
Y47030D01*
X326532Y47213D01*
X327180Y47710D01*
X327676Y48358D01*
X327989Y49112D01*
X328095Y49921D01*
X327989Y50730D01*
X327676Y51485D01*
X327180Y52132D01*
X326532Y52629D01*
X325778Y52941D01*
X324969Y53048D01*
D02*
G37*
G36*
X390000Y23883D02*
X388995Y23751D01*
X388058Y23363D01*
X387254Y22746D01*
X386637Y21942D01*
X386249Y21005D01*
X386117Y20000D01*
X386249Y18995D01*
X386637Y18058D01*
X387254Y17254D01*
X388058Y16637D01*
X388995Y16249D01*
X390000Y16117D01*
X391005Y16249D01*
X391942Y16637D01*
X392746Y17254D01*
X393363Y18058D01*
X393751Y18995D01*
X393883Y20000D01*
X393751Y21005D01*
X393363Y21942D01*
X392746Y22746D01*
X391942Y23363D01*
X391005Y23751D01*
X390000Y23883D01*
D02*
G37*
G36*
X370000D02*
X368995Y23751D01*
X368058Y23363D01*
X367254Y22746D01*
X366637Y21942D01*
X366249Y21005D01*
X366117Y20000D01*
X366249Y18995D01*
X366637Y18058D01*
X367254Y17254D01*
X368058Y16637D01*
X368995Y16249D01*
X370000Y16117D01*
X371005Y16249D01*
X371942Y16637D01*
X372746Y17254D01*
X373363Y18058D01*
X373751Y18995D01*
X373883Y20000D01*
X373751Y21005D01*
X373363Y21942D01*
X372746Y22746D01*
X371942Y23363D01*
X371005Y23751D01*
X370000Y23883D01*
D02*
G37*
G36*
X360000D02*
X358995Y23751D01*
X358058Y23363D01*
X357254Y22746D01*
X356637Y21942D01*
X356249Y21005D01*
X356117Y20000D01*
X356249Y18995D01*
X356637Y18058D01*
X357254Y17254D01*
X358058Y16637D01*
X358995Y16249D01*
X360000Y16117D01*
X361005Y16249D01*
X361942Y16637D01*
X362746Y17254D01*
X363363Y18058D01*
X363751Y18995D01*
X363883Y20000D01*
X363751Y21005D01*
X363363Y21942D01*
X362746Y22746D01*
X361942Y23363D01*
X361005Y23751D01*
X360000Y23883D01*
D02*
G37*
G36*
X350000D02*
X348995Y23751D01*
X348058Y23363D01*
X347254Y22746D01*
X346637Y21942D01*
X346249Y21005D01*
X346117Y20000D01*
X346249Y18995D01*
X346637Y18058D01*
X347254Y17254D01*
X348058Y16637D01*
X348995Y16249D01*
X350000Y16117D01*
X351005Y16249D01*
X351942Y16637D01*
X352746Y17254D01*
X353363Y18058D01*
X353751Y18995D01*
X353883Y20000D01*
X353751Y21005D01*
X353363Y21942D01*
X352746Y22746D01*
X351942Y23363D01*
X351005Y23751D01*
X350000Y23883D01*
D02*
G37*
G36*
X287197Y73980D02*
X286387Y73874D01*
X285633Y73561D01*
X284986Y73064D01*
X284489Y72417D01*
X284176Y71663D01*
X284070Y70853D01*
X284176Y70044D01*
X284489Y69290D01*
X284986Y68642D01*
X285633Y68146D01*
X285878Y68044D01*
Y23703D01*
X285058Y23363D01*
X284254Y22746D01*
X283637Y21942D01*
X283249Y21005D01*
X283117Y20000D01*
X283249Y18995D01*
X283637Y18058D01*
X284254Y17254D01*
X285058Y16637D01*
X285995Y16249D01*
X287000Y16117D01*
X288005Y16249D01*
X288942Y16637D01*
X289746Y17254D01*
X290363Y18058D01*
X290751Y18995D01*
X290883Y20000D01*
X290751Y21005D01*
X290363Y21942D01*
X289746Y22746D01*
X288942Y23363D01*
X288122Y23703D01*
Y67881D01*
X288760Y68146D01*
X289407Y68642D01*
X289904Y69290D01*
X290217Y70044D01*
X290323Y70853D01*
X290217Y71663D01*
X289904Y72417D01*
X289407Y73064D01*
X288760Y73561D01*
X288006Y73874D01*
X287197Y73980D01*
D02*
G37*
G36*
X277500Y190627D02*
X276691Y190520D01*
X275937Y190208D01*
X275289Y189711D01*
X274792Y189063D01*
X274480Y188309D01*
X274373Y187500D01*
X274480Y186691D01*
X274792Y185937D01*
X275289Y185289D01*
X275937Y184792D01*
X276378Y184609D01*
Y23801D01*
X275995Y23751D01*
X275058Y23363D01*
X274254Y22746D01*
X273637Y21942D01*
X273249Y21005D01*
X273117Y20000D01*
X273249Y18995D01*
X273637Y18058D01*
X274254Y17254D01*
X275058Y16637D01*
X275995Y16249D01*
X277000Y16117D01*
X278005Y16249D01*
X278942Y16637D01*
X279746Y17254D01*
X280363Y18058D01*
X280751Y18995D01*
X280883Y20000D01*
X280751Y21005D01*
X280363Y21942D01*
X279746Y22746D01*
X278942Y23363D01*
X278622Y23495D01*
Y184609D01*
X279063Y184792D01*
X279711Y185289D01*
X280208Y185937D01*
X280520Y186691D01*
X280627Y187500D01*
X280520Y188309D01*
X280208Y189063D01*
X279711Y189711D01*
X279063Y190208D01*
X278309Y190520D01*
X277500Y190627D01*
D02*
G37*
G36*
X267000Y23883D02*
X265995Y23751D01*
X265058Y23363D01*
X264254Y22746D01*
X263637Y21942D01*
X263249Y21005D01*
X263117Y20000D01*
X263249Y18995D01*
X263637Y18058D01*
X264254Y17254D01*
X265058Y16637D01*
X265995Y16249D01*
X267000Y16117D01*
X268005Y16249D01*
X268942Y16637D01*
X269746Y17254D01*
X270363Y18058D01*
X270751Y18995D01*
X270883Y20000D01*
X270751Y21005D01*
X270363Y21942D01*
X269746Y22746D01*
X268942Y23363D01*
X268005Y23751D01*
X267000Y23883D01*
D02*
G37*
G36*
X384221Y19500D02*
X380500D01*
Y15779D01*
X381109Y15859D01*
X382143Y16288D01*
X383031Y16969D01*
X383712Y17857D01*
X384141Y18891D01*
X384221Y19500D01*
D02*
G37*
G36*
X379500D02*
X375779D01*
X375859Y18891D01*
X376288Y17857D01*
X376969Y16969D01*
X377857Y16288D01*
X378890Y15859D01*
X379500Y15779D01*
Y19500D01*
D02*
G37*
G36*
X301221D02*
X297500D01*
Y15779D01*
X298110Y15859D01*
X299143Y16288D01*
X300031Y16969D01*
X300712Y17857D01*
X301141Y18891D01*
X301221Y19500D01*
D02*
G37*
G36*
X296500D02*
X292779D01*
X292859Y18891D01*
X293288Y17857D01*
X293969Y16969D01*
X294857Y16288D01*
X295890Y15859D01*
X296500Y15779D01*
Y19500D01*
D02*
G37*
G36*
X526500Y25648D02*
X525038Y25456D01*
X523676Y24892D01*
X522506Y23994D01*
X521608Y22824D01*
X521044Y21462D01*
X520852Y20000D01*
X521044Y18538D01*
X521608Y17176D01*
X522506Y16006D01*
X523676Y15108D01*
X525038Y14544D01*
X526500Y14352D01*
X527962Y14544D01*
X529324Y15108D01*
X530494Y16006D01*
X531392Y17176D01*
X531956Y18538D01*
X532148Y20000D01*
X531956Y21462D01*
X531392Y22824D01*
X530494Y23994D01*
X529324Y24892D01*
X527962Y25456D01*
X526500Y25648D01*
D02*
G37*
G36*
X450000D02*
X448538Y25456D01*
X447176Y24892D01*
X446006Y23994D01*
X445108Y22824D01*
X444544Y21462D01*
X444352Y20000D01*
X444544Y18538D01*
X445108Y17176D01*
X446006Y16006D01*
X447176Y15108D01*
X448538Y14544D01*
X450000Y14352D01*
X451462Y14544D01*
X452824Y15108D01*
X453994Y16006D01*
X454892Y17176D01*
X455456Y18538D01*
X455648Y20000D01*
X455456Y21462D01*
X454892Y22824D01*
X453994Y23994D01*
X452824Y24892D01*
X451462Y25456D01*
X450000Y25648D01*
D02*
G37*
G36*
X512500Y19500D02*
X507000D01*
Y14000D01*
X512500D01*
Y19500D01*
D02*
G37*
G36*
X506000D02*
X500500D01*
Y14000D01*
X506000D01*
Y19500D01*
D02*
G37*
G36*
X436000D02*
X430500D01*
Y14000D01*
X436000D01*
Y19500D01*
D02*
G37*
G36*
X429500D02*
X424000D01*
Y14000D01*
X429500D01*
Y19500D01*
D02*
G37*
G36*
X178850Y18350D02*
X171150D01*
Y10650D01*
X178850D01*
Y18350D01*
D02*
G37*
G36*
X165000Y18383D02*
X163995Y18251D01*
X163058Y17863D01*
X162254Y17246D01*
X161637Y16442D01*
X161249Y15505D01*
X161117Y14500D01*
X161249Y13495D01*
X161637Y12558D01*
X162254Y11754D01*
X163058Y11137D01*
X163995Y10749D01*
X165000Y10617D01*
X166005Y10749D01*
X166942Y11137D01*
X167746Y11754D01*
X168363Y12558D01*
X168751Y13495D01*
X168883Y14500D01*
X168751Y15505D01*
X168363Y16442D01*
X167746Y17246D01*
X166942Y17863D01*
X166005Y18251D01*
X165000Y18383D01*
D02*
G37*
G36*
X155000D02*
X153995Y18251D01*
X153058Y17863D01*
X152254Y17246D01*
X151637Y16442D01*
X151249Y15505D01*
X151117Y14500D01*
X151249Y13495D01*
X151637Y12558D01*
X152254Y11754D01*
X153058Y11137D01*
X153995Y10749D01*
X155000Y10617D01*
X156005Y10749D01*
X156942Y11137D01*
X157746Y11754D01*
X158363Y12558D01*
X158751Y13495D01*
X158883Y14500D01*
X158751Y15505D01*
X158363Y16442D01*
X157746Y17246D01*
X156942Y17863D01*
X156005Y18251D01*
X155000Y18383D01*
D02*
G37*
G36*
X145000D02*
X143995Y18251D01*
X143058Y17863D01*
X142254Y17246D01*
X141637Y16442D01*
X141249Y15505D01*
X141117Y14500D01*
X141249Y13495D01*
X141637Y12558D01*
X142254Y11754D01*
X143058Y11137D01*
X143995Y10749D01*
X145000Y10617D01*
X146005Y10749D01*
X146942Y11137D01*
X147746Y11754D01*
X148363Y12558D01*
X148751Y13495D01*
X148883Y14500D01*
X148751Y15505D01*
X148363Y16442D01*
X147746Y17246D01*
X146942Y17863D01*
X146005Y18251D01*
X145000Y18383D01*
D02*
G37*
G36*
X135000D02*
X133995Y18251D01*
X133058Y17863D01*
X132254Y17246D01*
X131637Y16442D01*
X131249Y15505D01*
X131117Y14500D01*
X131249Y13495D01*
X131637Y12558D01*
X132254Y11754D01*
X133058Y11137D01*
X133995Y10749D01*
X135000Y10617D01*
X136005Y10749D01*
X136942Y11137D01*
X137746Y11754D01*
X138363Y12558D01*
X138751Y13495D01*
X138883Y14500D01*
X138751Y15505D01*
X138363Y16442D01*
X137746Y17246D01*
X136942Y17863D01*
X136005Y18251D01*
X135000Y18383D01*
D02*
G37*
G36*
X125000D02*
X123995Y18251D01*
X123058Y17863D01*
X122254Y17246D01*
X121637Y16442D01*
X121249Y15505D01*
X121117Y14500D01*
X121249Y13495D01*
X121637Y12558D01*
X122254Y11754D01*
X123058Y11137D01*
X123995Y10749D01*
X125000Y10617D01*
X126005Y10749D01*
X126942Y11137D01*
X127746Y11754D01*
X128363Y12558D01*
X128751Y13495D01*
X128883Y14500D01*
X128751Y15505D01*
X128363Y16442D01*
X127746Y17246D01*
X126942Y17863D01*
X126005Y18251D01*
X125000Y18383D01*
D02*
G37*
G36*
X575000Y41150D02*
X572474Y40951D01*
X570009Y40359D01*
X567668Y39390D01*
X565507Y38065D01*
X563580Y36420D01*
X561935Y34493D01*
X560610Y32332D01*
X559641Y29991D01*
X559049Y27526D01*
X558850Y25000D01*
X559049Y22474D01*
X559641Y20009D01*
X560610Y17668D01*
X561935Y15507D01*
X563580Y13580D01*
X565507Y11935D01*
X567668Y10610D01*
X570009Y9641D01*
X572474Y9049D01*
X575000Y8850D01*
X577526Y9049D01*
X579991Y9641D01*
X582332Y10610D01*
X584493Y11935D01*
X586420Y13580D01*
X588065Y15507D01*
X589390Y17668D01*
X590359Y20009D01*
X590951Y22474D01*
X591150Y25000D01*
X590951Y27526D01*
X590359Y29991D01*
X589390Y32332D01*
X588065Y34493D01*
X586420Y36420D01*
X584493Y38065D01*
X582332Y39390D01*
X579991Y40359D01*
X577526Y40951D01*
X575000Y41150D01*
D02*
G37*
G36*
X25000D02*
X22474Y40951D01*
X20009Y40359D01*
X17668Y39390D01*
X15507Y38065D01*
X13580Y36420D01*
X11935Y34493D01*
X10610Y32332D01*
X9641Y29991D01*
X9049Y27526D01*
X8850Y25000D01*
X9049Y22474D01*
X9641Y20009D01*
X10610Y17668D01*
X11935Y15507D01*
X13580Y13580D01*
X15507Y11935D01*
X17668Y10610D01*
X20009Y9641D01*
X22474Y9049D01*
X25000Y8850D01*
X27526Y9049D01*
X29991Y9641D01*
X32332Y10610D01*
X34493Y11935D01*
X36420Y13580D01*
X38065Y15507D01*
X39390Y17668D01*
X40359Y20009D01*
X40951Y22474D01*
X41150Y25000D01*
X40951Y27526D01*
X40359Y29991D01*
X39390Y32332D01*
X38065Y34493D01*
X36420Y36420D01*
X34493Y38065D01*
X32332Y39390D01*
X29991Y40359D01*
X27526Y40951D01*
X25000Y41150D01*
D02*
G37*
%LPD*%
G36*
X51689Y210289D02*
X51959Y210082D01*
Y122387D01*
X46113Y116541D01*
X45087D01*
X44842Y117004D01*
X44848Y117041D01*
X45514Y117486D01*
X50414Y122386D01*
X50878Y123081D01*
X51041Y123900D01*
Y210312D01*
X51541Y210482D01*
X51689Y210289D01*
D02*
G37*
G36*
X577173Y388722D02*
X579293Y388213D01*
X581307Y387379D01*
X583166Y386240D01*
X584824Y384824D01*
X586239Y383166D01*
X587379Y381307D01*
X588213Y379293D01*
X588722Y377173D01*
X588893Y375000D01*
X588722Y372827D01*
X588213Y370707D01*
X587379Y368693D01*
X586239Y366834D01*
X584824Y365176D01*
X583166Y363760D01*
X581307Y362621D01*
X579293Y361787D01*
X577173Y361278D01*
X575000Y361107D01*
X572827Y361278D01*
X570707Y361787D01*
X568693Y362621D01*
X566834Y363760D01*
X565176Y365176D01*
X563761Y366834D01*
X562621Y368693D01*
X561787Y370707D01*
X561278Y372827D01*
X561107Y375000D01*
X561278Y377173D01*
X561787Y379293D01*
X562621Y381307D01*
X563761Y383166D01*
X565176Y384824D01*
X566834Y386240D01*
X568693Y387379D01*
X570707Y388213D01*
X572827Y388722D01*
X575000Y388893D01*
X577173Y388722D01*
D02*
G37*
%LPC*%
G36*
X575000Y384647D02*
X573118Y384461D01*
X571309Y383912D01*
X569641Y383021D01*
X568179Y381821D01*
X566979Y380359D01*
X566088Y378692D01*
X565539Y376882D01*
X565353Y375000D01*
X565539Y373118D01*
X566088Y371308D01*
X566979Y369641D01*
X568179Y368179D01*
X569641Y366979D01*
X571309Y366088D01*
X573118Y365539D01*
X575000Y365353D01*
X576882Y365539D01*
X578691Y366088D01*
X580359Y366979D01*
X581821Y368179D01*
X583021Y369641D01*
X583912Y371308D01*
X584461Y373118D01*
X584647Y375000D01*
X584461Y376882D01*
X583912Y378692D01*
X583021Y380359D01*
X581821Y381821D01*
X580359Y383021D01*
X578691Y383912D01*
X576882Y384461D01*
X575000Y384647D01*
D02*
G37*
%LPD*%
G36*
X27173Y388722D02*
X29293Y388213D01*
X31307Y387379D01*
X33166Y386240D01*
X34824Y384824D01*
X36239Y383166D01*
X37379Y381307D01*
X38213Y379293D01*
X38722Y377173D01*
X38893Y375000D01*
X38722Y372827D01*
X38213Y370707D01*
X37379Y368693D01*
X36239Y366834D01*
X34824Y365176D01*
X33166Y363760D01*
X31307Y362621D01*
X29293Y361787D01*
X27173Y361278D01*
X25000Y361107D01*
X22827Y361278D01*
X20707Y361787D01*
X18693Y362621D01*
X16834Y363760D01*
X15176Y365176D01*
X13760Y366834D01*
X12621Y368693D01*
X11787Y370707D01*
X11278Y372827D01*
X11107Y375000D01*
X11278Y377173D01*
X11787Y379293D01*
X12621Y381307D01*
X13760Y383166D01*
X15176Y384824D01*
X16834Y386240D01*
X18693Y387379D01*
X20707Y388213D01*
X22827Y388722D01*
X25000Y388893D01*
X27173Y388722D01*
D02*
G37*
%LPC*%
G36*
X25000Y384647D02*
X23118Y384461D01*
X21308Y383912D01*
X19641Y383021D01*
X18179Y381821D01*
X16979Y380359D01*
X16088Y378692D01*
X15539Y376882D01*
X15354Y375000D01*
X15539Y373118D01*
X16088Y371308D01*
X16979Y369641D01*
X18179Y368179D01*
X19641Y366979D01*
X21308Y366088D01*
X23118Y365539D01*
X25000Y365353D01*
X26882Y365539D01*
X28692Y366088D01*
X30359Y366979D01*
X31821Y368179D01*
X33021Y369641D01*
X33912Y371308D01*
X34461Y373118D01*
X34646Y375000D01*
X34461Y376882D01*
X33912Y378692D01*
X33021Y380359D01*
X31821Y381821D01*
X30359Y383021D01*
X28692Y383912D01*
X26882Y384461D01*
X25000Y384647D01*
D02*
G37*
%LPD*%
G36*
X577173Y38722D02*
X579293Y38213D01*
X581307Y37379D01*
X583166Y36239D01*
X584824Y34824D01*
X586239Y33166D01*
X587379Y31307D01*
X588213Y29293D01*
X588722Y27173D01*
X588893Y25000D01*
X588722Y22827D01*
X588213Y20707D01*
X587379Y18693D01*
X586239Y16834D01*
X584824Y15176D01*
X583166Y13760D01*
X581307Y12621D01*
X579293Y11787D01*
X577173Y11278D01*
X575000Y11107D01*
X572827Y11278D01*
X570707Y11787D01*
X568693Y12621D01*
X566834Y13760D01*
X565176Y15176D01*
X563761Y16834D01*
X562621Y18693D01*
X561787Y20707D01*
X561278Y22827D01*
X561107Y25000D01*
X561278Y27173D01*
X561787Y29293D01*
X562621Y31307D01*
X563761Y33166D01*
X565176Y34824D01*
X566834Y36239D01*
X568693Y37379D01*
X570707Y38213D01*
X572827Y38722D01*
X575000Y38893D01*
X577173Y38722D01*
D02*
G37*
%LPC*%
G36*
X575000Y34646D02*
X573118Y34461D01*
X571309Y33912D01*
X569641Y33021D01*
X568179Y31821D01*
X566979Y30359D01*
X566088Y28692D01*
X565539Y26882D01*
X565353Y25000D01*
X565539Y23118D01*
X566088Y21308D01*
X566979Y19641D01*
X568179Y18179D01*
X569641Y16979D01*
X571309Y16088D01*
X573118Y15539D01*
X575000Y15354D01*
X576882Y15539D01*
X578691Y16088D01*
X580359Y16979D01*
X581821Y18179D01*
X583021Y19641D01*
X583912Y21308D01*
X584461Y23118D01*
X584647Y25000D01*
X584461Y26882D01*
X583912Y28692D01*
X583021Y30359D01*
X581821Y31821D01*
X580359Y33021D01*
X578691Y33912D01*
X576882Y34461D01*
X575000Y34646D01*
D02*
G37*
%LPD*%
G36*
X27173Y38722D02*
X29293Y38213D01*
X31307Y37379D01*
X33166Y36239D01*
X34824Y34824D01*
X36239Y33166D01*
X37379Y31307D01*
X38213Y29293D01*
X38722Y27173D01*
X38893Y25000D01*
X38722Y22827D01*
X38213Y20707D01*
X37379Y18693D01*
X36239Y16834D01*
X34824Y15176D01*
X33166Y13760D01*
X31307Y12621D01*
X29293Y11787D01*
X27173Y11278D01*
X25000Y11107D01*
X22827Y11278D01*
X20707Y11787D01*
X18693Y12621D01*
X16834Y13760D01*
X15176Y15176D01*
X13760Y16834D01*
X12621Y18693D01*
X11787Y20707D01*
X11278Y22827D01*
X11107Y25000D01*
X11278Y27173D01*
X11787Y29293D01*
X12621Y31307D01*
X13760Y33166D01*
X15176Y34824D01*
X16834Y36239D01*
X18693Y37379D01*
X20707Y38213D01*
X22827Y38722D01*
X25000Y38893D01*
X27173Y38722D01*
D02*
G37*
%LPC*%
G36*
X25000Y34646D02*
X23118Y34461D01*
X21308Y33912D01*
X19641Y33021D01*
X18179Y31821D01*
X16979Y30359D01*
X16088Y28692D01*
X15539Y26882D01*
X15354Y25000D01*
X15539Y23118D01*
X16088Y21308D01*
X16979Y19641D01*
X18179Y18179D01*
X19641Y16979D01*
X21308Y16088D01*
X23118Y15539D01*
X25000Y15354D01*
X26882Y15539D01*
X28692Y16088D01*
X30359Y16979D01*
X31821Y18179D01*
X33021Y19641D01*
X33912Y21308D01*
X34461Y23118D01*
X34646Y25000D01*
X34461Y26882D01*
X33912Y28692D01*
X33021Y30359D01*
X31821Y31821D01*
X30359Y33021D01*
X28692Y33912D01*
X26882Y34461D01*
X25000Y34646D01*
D02*
G37*
%LPD*%
D13*
X245000Y75487D02*
X245851Y76338D01*
X262500D01*
X282246Y49921D02*
Y114500D01*
X354623Y116278D02*
Y123968D01*
X359416Y128761D02*
Y132531D01*
X354623Y123968D02*
X359416Y128761D01*
X354623Y116278D02*
X358502Y112399D01*
X358501Y107899D02*
X358502Y107900D01*
Y112399D01*
X462500Y140311D02*
Y156000D01*
X462462Y140273D02*
X462500Y140311D01*
X417500Y313400D02*
X427501Y323401D01*
X466793D01*
X400000Y288400D02*
Y316605D01*
X398377Y318229D02*
X400000Y316605D01*
X375000Y318229D02*
X398377D01*
X417900Y262700D02*
Y270500D01*
X400000Y288400D02*
X417900Y270500D01*
X417500Y282900D02*
X417900Y282500D01*
X417500Y282900D02*
Y313400D01*
X425899Y240699D02*
X427500Y242300D01*
X417900Y240699D02*
X425899D01*
X427500Y242300D02*
Y294414D01*
X428086Y295000D02*
X459908D01*
X427500Y294414D02*
X428086Y295000D01*
X162500Y232500D02*
X220000D01*
X101000Y225414D02*
Y309500D01*
X97500Y212500D02*
Y221914D01*
X101000Y225414D01*
X98086Y205100D02*
X108600D01*
X110000Y206500D02*
Y308500D01*
X108600Y205100D02*
X110000Y206500D01*
X97500Y204514D02*
X98086Y205100D01*
X97500Y192500D02*
Y204514D01*
X292500Y63600D02*
X338716D01*
X287000Y20000D02*
Y70657D01*
X287197Y70853D01*
X260113Y58832D02*
Y58971D01*
X338716Y63600D02*
X340000Y64884D01*
X257000Y55720D02*
X260113Y58832D01*
X257000Y20000D02*
Y55720D01*
X270000Y55000D02*
Y68353D01*
X272500Y70853D01*
X182500Y300000D02*
X222500D01*
X185586Y182500D02*
X220000D01*
X185000Y183086D02*
X185586Y182500D01*
X172500Y173323D02*
X220000D01*
X185000Y183086D02*
Y200000D01*
X177500Y182999D02*
Y222500D01*
X195626Y239766D02*
Y280000D01*
X245000Y200586D02*
Y300000D01*
X244414Y200000D02*
X245000Y200586D01*
X67500Y105000D02*
Y212500D01*
X25700Y58400D02*
X67200D01*
X67500Y58700D01*
X30157Y105000D02*
X30700D01*
X21000Y95843D02*
X30157Y105000D01*
X21000Y63100D02*
Y95843D01*
X110000Y308500D02*
X111000Y309500D01*
X132500Y122500D02*
X141000D01*
X131000Y124000D02*
X132500Y122500D01*
X131000Y124000D02*
Y309500D01*
X172500Y262500D02*
Y285000D01*
Y262500D02*
X177500Y257500D01*
X91000Y161500D02*
X97500Y155000D01*
X91000Y161500D02*
Y309500D01*
X153276Y216724D02*
Y278315D01*
X12100Y303300D02*
X13200Y304400D01*
Y342200D02*
X13900Y342900D01*
X13200Y304400D02*
Y342200D01*
X12100Y262700D02*
Y303300D01*
Y262700D02*
X48313Y226487D01*
X21586Y347814D02*
X69972D01*
X18086Y271914D02*
X22814Y267186D01*
X21000Y63100D02*
X25700Y58400D01*
X17500Y317500D02*
X18086Y316914D01*
X21000Y335000D02*
Y347228D01*
X18086Y271914D02*
Y316914D01*
X21000Y347228D02*
X21586Y347814D01*
X85000Y147500D02*
Y225902D01*
X84414Y226487D02*
X85000Y225902D01*
X48313Y226487D02*
X84414D01*
X340000Y64884D02*
Y71700D01*
X394700Y61701D02*
Y101485D01*
X385000Y60000D02*
X392999D01*
X394700Y61701D01*
X378031Y118154D02*
X394700Y101485D01*
X542839Y108902D02*
X554276D01*
X554861Y109487D02*
Y132531D01*
X554276Y108902D02*
X554861Y109487D01*
X370000Y38582D02*
X372841Y41423D01*
Y210000D01*
X370000Y37500D02*
Y38582D01*
X359416Y119147D02*
X369241Y128972D01*
Y291629D01*
X220000Y200000D02*
X244414D01*
X249650Y163086D02*
Y330350D01*
X249064Y162500D02*
X249650Y163086D01*
X205000Y162500D02*
X249064D01*
X331914Y342500D02*
X332500Y343086D01*
Y373500D01*
X270000Y342500D02*
X331914D01*
X151000Y319500D02*
Y355000D01*
X141000Y371500D02*
X160414D01*
X161000Y370914D01*
Y365133D02*
Y370914D01*
X236259Y101241D02*
Y145000D01*
X351843Y137578D02*
X352500Y138235D01*
X325000Y142532D02*
Y185701D01*
X324969Y142500D02*
X325000Y142532D01*
X323201Y187500D02*
X325000Y185701D01*
X191000Y148500D02*
X205000Y162500D01*
X260113Y110196D02*
Y113914D01*
X259527Y114500D02*
X260113Y113914D01*
X252060Y114500D02*
X259527D01*
X246236Y120324D02*
X252060Y114500D01*
X352500Y62059D02*
X357500Y67059D01*
Y89500D01*
X351843Y73157D02*
X352500Y72500D01*
X277000Y20000D02*
X277500Y20500D01*
Y187500D01*
X270000Y96914D02*
Y164144D01*
X161000Y365133D02*
X161133Y365000D01*
X161000Y319500D02*
Y355000D01*
X250664Y360000D02*
X251250Y359414D01*
Y315850D02*
Y359414D01*
X81586Y360000D02*
X250664D01*
X81000Y338500D02*
Y359414D01*
X81586Y360000D01*
X141000Y332500D02*
X145000Y336500D01*
X74770Y332270D02*
X81000Y338500D01*
X153276Y216724D02*
X162500Y207500D01*
X290000Y190000D02*
X292500Y187500D01*
X323201D01*
X211000Y19314D02*
Y69500D01*
X212300Y18014D02*
X238314D01*
X211000Y19314D02*
X212300Y18014D01*
X227500Y32200D02*
Y92500D01*
X235000Y27500D02*
Y87500D01*
X378031Y118154D02*
Y150000D01*
X377638Y49414D02*
X378403Y50180D01*
X377638Y49414D02*
X383745D01*
X384331Y50000D01*
Y59331D02*
X385000Y60000D01*
X384331Y50000D02*
Y59331D01*
X262500Y90086D02*
X272500Y80086D01*
Y70853D02*
Y80086D01*
X245000Y55000D02*
Y75487D01*
X238900Y74150D02*
X242500Y77750D01*
Y95000D01*
X238314Y18014D02*
X238900Y18600D01*
Y74150D01*
X236259Y101241D02*
X242500Y95000D01*
X305579Y162579D02*
Y180000D01*
X288000Y145000D02*
X305579Y162579D01*
X245320Y334680D02*
X249650Y330350D01*
X191000Y79500D02*
Y148500D01*
X352500Y311968D02*
Y373500D01*
X322500Y351914D02*
Y373500D01*
X141000Y319500D02*
Y332500D01*
X312500Y363086D02*
Y373500D01*
X273897Y372500D02*
X283897Y362500D01*
X311914D02*
X312500Y363086D01*
X283897Y362500D02*
X311914D01*
X252500Y372500D02*
X273897D01*
X245000Y365000D02*
X252500Y372500D01*
X257500Y339257D02*
Y367500D01*
X245320Y334680D02*
Y352410D01*
X251250Y315850D02*
X260000Y307100D01*
X171000Y171823D02*
X172500Y173323D01*
X171000Y102500D02*
Y171823D01*
X276757Y320000D02*
X325000D01*
X257500Y339257D02*
X276757Y320000D01*
X350000Y177500D02*
X357500D01*
X330000Y197500D02*
X350000Y177500D01*
X260000Y307100D02*
X363871D01*
X375000Y318229D01*
X237500Y293086D02*
Y351914D01*
X171586Y352500D02*
X236914D01*
X171000Y351914D02*
X171586Y352500D01*
X171000Y319500D02*
Y351914D01*
X236914Y352500D02*
X237500Y351914D01*
X342500Y315000D02*
Y373500D01*
X177500Y295000D02*
X182500Y300000D01*
X236914Y292500D02*
X237500Y293086D01*
X180000Y292500D02*
X236914D01*
X172500Y295000D02*
X177500D01*
X456835Y118154D02*
Y130760D01*
X435000Y132531D02*
X455063D01*
X456835Y130760D01*
X432500Y135031D02*
X435000Y132531D01*
X432500Y135031D02*
Y226689D01*
Y319390D02*
X459322D01*
X425000Y311890D02*
X432500Y319390D01*
X425000Y305000D02*
Y311890D01*
X459322Y319390D02*
X459908Y318804D01*
Y311629D02*
Y318804D01*
X49586Y332270D02*
X74770D01*
X172500Y285000D02*
X180000Y292500D01*
X347502Y220000D02*
Y220653D01*
X345000Y223155D02*
Y262500D01*
Y223155D02*
X347502Y220653D01*
X452172Y195053D02*
X513864D01*
X451586Y195639D02*
Y202500D01*
Y195639D02*
X452172Y195053D01*
X22814Y267186D02*
X31513D01*
X330000Y197500D02*
Y214343D01*
X327500Y216843D02*
Y217500D01*
Y216843D02*
X330000Y214343D01*
X493993Y168205D02*
X494198Y168000D01*
X493993Y168205D02*
X494198Y168410D01*
X508222Y179399D02*
X508823Y180000D01*
X459908Y295000D02*
X460494Y295586D01*
Y311043D02*
X466793D01*
X459908Y311629D02*
X460494Y311043D01*
Y295586D02*
Y305512D01*
X85000Y147500D02*
X97500Y135000D01*
X522898Y180000D02*
X554842D01*
X556756Y178086D01*
X557838D01*
X307000Y20000D02*
Y55000D01*
X309495Y57495D01*
X362500D01*
Y62059D01*
X449415Y122799D02*
X450001Y122213D01*
X220000Y47500D02*
X220050Y47550D01*
Y97450D01*
X220100Y97500D01*
X201140Y40140D02*
Y69360D01*
X201000Y69500D02*
X201140Y69360D01*
Y40140D02*
X201279Y40000D01*
X324969Y20318D02*
Y49921D01*
Y20318D02*
X325586Y19700D01*
X339700D01*
X340000Y20000D01*
X141000Y140000D02*
Y309500D01*
X362417Y62142D02*
X362500Y62059D01*
X450001Y100222D02*
X450064Y100159D01*
D53*
X462500Y122125D02*
X466793Y117832D01*
Y89931D02*
Y117832D01*
X462500Y122125D02*
Y129935D01*
X220000Y127197D02*
Y150000D01*
X152959Y96914D02*
Y127500D01*
X53900Y255000D02*
Y280400D01*
X61000Y287500D01*
X53900Y212500D02*
X54100Y212300D01*
Y121500D02*
Y212300D01*
X7300Y259300D02*
Y350214D01*
Y259300D02*
X48900Y217700D01*
X7300Y350214D02*
X10586Y353500D01*
X44000Y119000D02*
X48900Y123900D01*
Y217700D01*
X32600Y114400D02*
X47000D01*
X54100Y121500D01*
X29900Y119000D02*
X44000D01*
X62500Y371500D02*
X71000Y380000D01*
X62500Y355257D02*
Y371500D01*
X178500Y380000D02*
X187500Y371000D01*
X10586Y353500D02*
X60743D01*
X62500Y355257D01*
X9700Y58700D02*
Y98800D01*
Y58700D02*
X23900Y44500D01*
X71000Y380000D02*
X178500D01*
X23900Y44500D02*
X67500D01*
X9700Y98800D02*
X29900Y119000D01*
X187500Y370914D02*
Y371000D01*
X15600Y97400D02*
X32600Y114400D01*
X15600Y62400D02*
Y97400D01*
Y62400D02*
X25000Y53000D01*
X30700D01*
X498962Y129677D02*
X512661D01*
X181000Y341000D02*
X187500Y347500D01*
X181000Y319500D02*
Y341000D01*
X341090Y134414D02*
Y150000D01*
X351843Y73157D02*
Y137578D01*
X260000Y122500D02*
Y197500D01*
X321267D01*
X260000D02*
Y295743D01*
X321267Y197500D02*
X354623Y164144D01*
X260000Y295743D02*
X261757Y297500D01*
X369241D02*
X382784Y311043D01*
X261757Y297500D02*
X369241D01*
X462500Y168410D02*
X467195D01*
X494198D01*
X467195D02*
X472108Y173323D01*
Y188099D01*
X494198Y168410D02*
Y179399D01*
Y145000D02*
Y168000D01*
Y179399D02*
X508222D01*
X494198Y145000D02*
X498962Y140235D01*
Y129677D02*
Y140235D01*
X450001Y100222D02*
Y122213D01*
X392600Y122799D02*
X449415D01*
X61000Y287500D02*
Y309500D01*
X211000Y79500D02*
X211765Y78735D01*
D54*
X211000Y79500D02*
D03*
Y69500D02*
D03*
X201000Y79500D02*
D03*
Y69500D02*
D03*
X191000Y79500D02*
D03*
Y69500D02*
D03*
X181000Y79500D02*
D03*
Y69500D02*
D03*
X171000Y79500D02*
D03*
Y69500D02*
D03*
X161000Y79500D02*
D03*
Y69500D02*
D03*
X151000Y79500D02*
D03*
Y69500D02*
D03*
X141000Y79500D02*
D03*
Y69500D02*
D03*
X131000Y79500D02*
D03*
Y69500D02*
D03*
X121000Y79500D02*
D03*
Y69500D02*
D03*
X111000Y79500D02*
D03*
Y69500D02*
D03*
X101000Y79500D02*
D03*
Y69500D02*
D03*
X91000Y79500D02*
D03*
Y69500D02*
D03*
X81000Y79500D02*
D03*
Y69500D02*
D03*
X71000Y79500D02*
D03*
Y69500D02*
D03*
X61000Y79500D02*
D03*
Y69500D02*
D03*
X51000Y79500D02*
D03*
Y69500D02*
D03*
X41000Y79500D02*
D03*
Y69500D02*
D03*
X31000Y79500D02*
D03*
Y319500D02*
D03*
X41000Y309500D02*
D03*
Y319500D02*
D03*
X51000Y309500D02*
D03*
Y319500D02*
D03*
X61000Y309500D02*
D03*
Y319500D02*
D03*
X71000Y309500D02*
D03*
Y319500D02*
D03*
X81000Y309500D02*
D03*
Y319500D02*
D03*
X91000Y309500D02*
D03*
Y319500D02*
D03*
X101000Y309500D02*
D03*
Y319500D02*
D03*
X111000Y309500D02*
D03*
Y319500D02*
D03*
X121000Y309500D02*
D03*
Y319500D02*
D03*
X131000Y309500D02*
D03*
Y319500D02*
D03*
X141000Y309500D02*
D03*
Y319500D02*
D03*
X151000Y309500D02*
D03*
Y319500D02*
D03*
X161000Y309500D02*
D03*
Y319500D02*
D03*
X171000Y309500D02*
D03*
Y319500D02*
D03*
X181000Y309500D02*
D03*
Y319500D02*
D03*
X191000Y309500D02*
D03*
Y319500D02*
D03*
X201000Y309500D02*
D03*
Y319500D02*
D03*
X211000Y309500D02*
D03*
Y319500D02*
D03*
D55*
X31000Y69500D02*
D03*
Y309500D02*
D03*
D56*
X175000Y14500D02*
D03*
X382500Y373500D02*
D03*
X340000Y20000D02*
D03*
X257000D02*
D03*
D57*
X165000Y14500D02*
D03*
X155000D02*
D03*
X145000D02*
D03*
X135000D02*
D03*
X125000D02*
D03*
X372500Y373500D02*
D03*
X362500D02*
D03*
X352500D02*
D03*
X342500D02*
D03*
X332500D02*
D03*
X322500D02*
D03*
X312500D02*
D03*
X574500Y148000D02*
D03*
Y158000D02*
D03*
Y168000D02*
D03*
X390000Y20000D02*
D03*
X380000D02*
D03*
X370000D02*
D03*
X360000D02*
D03*
X350000D02*
D03*
X307000D02*
D03*
X297000D02*
D03*
X287000D02*
D03*
X277000D02*
D03*
X267000D02*
D03*
D58*
X294300Y250616D02*
D03*
X399418D02*
D03*
Y376600D02*
D03*
X294300D02*
D03*
D59*
X577500Y300000D02*
D03*
Y317323D02*
D03*
D60*
X506500Y20000D02*
D03*
X430000D02*
D03*
D61*
X526500D02*
D03*
X450000D02*
D03*
D62*
X574500Y138000D02*
D03*
D63*
X276249Y240575D02*
D03*
X215135Y385400D02*
D03*
X444501Y146945D02*
D03*
X574800Y94653D02*
D03*
X338100Y276000D02*
D03*
X122965Y241329D02*
D03*
X351428Y194846D02*
D03*
X416753Y57495D02*
D03*
X30500Y206071D02*
D03*
X67005Y16088D02*
D03*
X153110Y171759D02*
D03*
X220809Y254609D02*
D03*
X409667Y201691D02*
D03*
X466911Y52434D02*
D03*
X542839Y66327D02*
D03*
X525431Y254000D02*
D03*
X501300Y372000D02*
D03*
X431378Y342657D02*
D03*
X30500Y170100D02*
D03*
X98086Y171358D02*
D03*
X262500Y76338D02*
D03*
X282246Y114500D02*
D03*
X359416Y132531D02*
D03*
X358501Y107899D02*
D03*
X462500Y129935D02*
D03*
Y156000D02*
D03*
Y140235D02*
D03*
X466793Y323401D02*
D03*
X439100Y289400D02*
D03*
X417900Y262700D02*
D03*
Y282500D02*
D03*
Y240699D02*
D03*
X220000Y232500D02*
D03*
X292500Y63600D02*
D03*
X260113Y58971D02*
D03*
X270000Y55000D02*
D03*
X222500Y300000D02*
D03*
X220000Y127197D02*
D03*
Y150000D02*
D03*
Y182500D02*
D03*
Y173323D02*
D03*
X177500Y222500D02*
D03*
X195626Y239766D02*
D03*
X245000Y300000D02*
D03*
X152959Y127500D02*
D03*
Y96914D02*
D03*
X185000Y200000D02*
D03*
X67500Y105000D02*
D03*
Y58700D02*
D03*
X30700Y105000D02*
D03*
X97500Y192500D02*
D03*
X141000Y122500D02*
D03*
X195626Y280000D02*
D03*
X177500Y182999D02*
D03*
Y257500D02*
D03*
X53900Y255000D02*
D03*
Y212500D02*
D03*
X67500D02*
D03*
X97500D02*
D03*
Y155000D02*
D03*
X153276Y278315D02*
D03*
X13900Y342900D02*
D03*
X17500Y317500D02*
D03*
X21000Y335000D02*
D03*
X67500Y44500D02*
D03*
X30700Y53000D02*
D03*
X340000Y71700D02*
D03*
X466793Y89931D02*
D03*
X512661Y129677D02*
D03*
X542839Y108902D02*
D03*
X369241Y291629D02*
D03*
X372841Y210000D02*
D03*
X220000Y200000D02*
D03*
X270000Y342500D02*
D03*
X187500Y370914D02*
D03*
X151000Y355000D02*
D03*
X141000Y371500D02*
D03*
X70000Y347814D02*
D03*
X187500Y347500D02*
D03*
X282246Y49921D02*
D03*
X287197Y70853D02*
D03*
X236259Y145000D02*
D03*
X341090Y150000D02*
D03*
X352500Y138235D02*
D03*
X341090Y134414D02*
D03*
X324969Y142500D02*
D03*
X352500Y62059D02*
D03*
Y72500D02*
D03*
X260113Y110196D02*
D03*
X246236Y120324D02*
D03*
X161133Y365000D02*
D03*
X161000Y355000D02*
D03*
X145000Y336500D02*
D03*
X162500Y207500D02*
D03*
X290000Y190000D02*
D03*
X359416Y119147D02*
D03*
X357500Y89500D02*
D03*
X227500Y32200D02*
D03*
X235000Y27500D02*
D03*
X378031Y150000D02*
D03*
X377638Y49414D02*
D03*
X262500Y90086D02*
D03*
X270000Y96914D02*
D03*
X245000Y55000D02*
D03*
X288000Y145000D02*
D03*
X305579Y180000D02*
D03*
X352500Y311968D02*
D03*
X322500Y351914D02*
D03*
X257500Y367500D02*
D03*
X245000Y365000D02*
D03*
X245320Y352410D02*
D03*
X357500Y177500D02*
D03*
X325000Y320000D02*
D03*
X342500Y315000D02*
D03*
X172500Y295000D02*
D03*
X456835Y118154D02*
D03*
X432500Y226689D02*
D03*
X49586Y332270D02*
D03*
X270000Y164144D02*
D03*
X345000Y262500D02*
D03*
X513864Y195053D02*
D03*
X451586Y202500D02*
D03*
X347502Y220000D02*
D03*
X31513Y267186D02*
D03*
X162500Y232500D02*
D03*
X327500Y217500D02*
D03*
X462500Y168410D02*
D03*
X472108Y188099D02*
D03*
X354623Y164144D02*
D03*
X498962Y129677D02*
D03*
X508823Y180000D02*
D03*
X425000Y305000D02*
D03*
X460494Y305512D02*
D03*
X466793Y311043D02*
D03*
X171000Y102500D02*
D03*
X557838Y178086D02*
D03*
X522898Y180000D02*
D03*
X235000Y87500D02*
D03*
X227500Y92500D02*
D03*
X277500Y187500D02*
D03*
X370000Y37500D02*
D03*
X97500Y135000D02*
D03*
X392600Y122799D02*
D03*
X220100Y97500D02*
D03*
X201279Y40000D02*
D03*
X220000Y47500D02*
D03*
X324969Y49921D02*
D03*
X141000Y140000D02*
D03*
X362417Y62142D02*
D03*
X450064Y100159D02*
D03*
X554861Y132531D02*
D03*
X260000Y122500D02*
D03*
X382784Y311043D02*
D03*
D64*
X25000Y375000D02*
D03*
X575000D02*
D03*
Y25000D02*
D03*
X25000D02*
D03*
M02*
