G04*
G04 #@! TF.GenerationSoftware,Altium Limited,Altium Designer,22.1.2 (22)*
G04*
G04 Layer_Color=2752767*
%FSLAX25Y25*%
%MOIN*%
G70*
G04*
G04 #@! TF.SameCoordinates,7B21E419-2DB3-41AA-89A7-F06F8FB5CF2D*
G04*
G04*
G04 #@! TF.FilePolarity,Positive*
G04*
G01*
G75*
%ADD13C,0.01000*%
%ADD67C,0.00200*%
%ADD68C,0.01500*%
%ADD69C,0.00100*%
%ADD70C,0.01600*%
%ADD71C,0.00600*%
D13*
X682674Y43433D02*
G03*
X682674Y43433I-3333J0D01*
G01*
X679341Y100100D02*
X682674Y106767D01*
X676007D02*
X682674D01*
X676007D02*
X679341Y100100D01*
X676007Y85100D02*
X682674D01*
Y91767D01*
X676007D02*
X682674D01*
X676007Y85100D02*
Y91767D01*
X677674Y71767D02*
X679341Y70100D01*
X676007Y71767D02*
X677674D01*
X676007D02*
X677674Y73433D01*
X676007Y75100D02*
X677674Y73433D01*
X676007Y75100D02*
X677674D01*
X679341Y76767D01*
X681007Y75100D01*
X682674D01*
X681007Y73433D02*
X682674Y75100D01*
X681007Y73433D02*
X682674Y71767D01*
X681007D02*
X682674D01*
X679341Y70100D02*
X681007Y71767D01*
X676007Y55100D02*
Y56767D01*
X677674Y58433D01*
X676007Y60100D02*
X677674Y58433D01*
X676007Y60100D02*
Y61767D01*
X677674D01*
X679341Y60100D01*
X681007Y61767D01*
X682674D01*
Y60100D02*
Y61767D01*
X681007Y58433D02*
X682674Y60100D01*
X681007Y58433D02*
X682674Y56767D01*
Y55100D02*
Y56767D01*
X681007Y55100D02*
X682674D01*
X679341Y56767D02*
X681007Y55100D01*
X677674D02*
X679341Y56767D01*
X676007Y55100D02*
X677674D01*
X676007Y26767D02*
X677674D01*
X676007D02*
Y30100D01*
X677674D01*
Y31767D01*
X681007D01*
Y30100D02*
Y31767D01*
Y30100D02*
X682674D01*
Y26767D02*
Y30100D01*
X681007Y26767D02*
X682674D01*
X681007Y25100D02*
Y26767D01*
X677674Y25100D02*
X681007D01*
X677674D02*
Y26767D01*
X-43800Y400000D02*
X-41800Y394000D01*
X-45800D02*
X-43800Y400000D01*
X-45800Y6000D02*
X-43800Y0D01*
X-41800Y6000D01*
X-43800Y219494D02*
Y400000D01*
Y0D02*
Y177306D01*
X-44800Y400000D02*
X-1600D01*
X-44800Y0D02*
X-1600D01*
X594000Y430800D02*
X600000Y432800D01*
X594000Y434800D02*
X600000Y432800D01*
X0D02*
X6000Y434800D01*
X0Y432800D02*
X6000Y430800D01*
X319494Y432800D02*
X600000D01*
X0D02*
X277306D01*
X600000Y401400D02*
Y433800D01*
X0Y401400D02*
Y433800D01*
X1316053Y104099D02*
X1313054D01*
X1312054Y103099D01*
Y101100D01*
X1313054Y100100D01*
X1316053D01*
X1318052Y101100D02*
X1319052Y100100D01*
X1321051D01*
X1322051Y101100D01*
Y105098D01*
X1321051Y106098D01*
X1319052D01*
X1318052Y105098D01*
Y104099D01*
X1319052Y103099D01*
X1322051D01*
X1324050Y105098D02*
X1325050Y106098D01*
X1327049D01*
X1328049Y105098D01*
Y101100D01*
X1327049Y100100D01*
X1325050D01*
X1324050Y101100D01*
Y105098D01*
X1330048Y106098D02*
Y100100D01*
Y103099D01*
X1331048Y104099D01*
X1333047D01*
X1334047Y103099D01*
Y100100D01*
X1336046D02*
Y104099D01*
X1339045D01*
X1340045Y103099D01*
Y100100D01*
X1342044Y101100D02*
X1343044Y100100D01*
X1345043D01*
X1346043Y101100D01*
Y105098D01*
X1345043Y106098D01*
X1343044D01*
X1342044Y105098D01*
Y104099D01*
X1343044Y103099D01*
X1346043D01*
X1348042Y105098D02*
X1349042Y106098D01*
X1351041D01*
X1352041Y105098D01*
Y101100D01*
X1351041Y100100D01*
X1349042D01*
X1348042Y101100D01*
Y105098D01*
X1314053Y85100D02*
X1312054Y87099D01*
Y89099D01*
X1314053Y91098D01*
X1317052Y85100D02*
Y91098D01*
X1319052Y89099D01*
X1321051Y91098D01*
Y85100D01*
X1323050D02*
X1325050D01*
X1324050D01*
Y89099D01*
X1323050D01*
X1328049D02*
X1332047Y85100D01*
X1330048Y87099D01*
X1332047Y89099D01*
X1328049Y85100D01*
X1337046D02*
X1335046D01*
X1334047Y86100D01*
Y88099D01*
X1335046Y89099D01*
X1337046D01*
X1338045Y88099D01*
Y87099D01*
X1334047D01*
X1344044Y91098D02*
Y85100D01*
X1341045D01*
X1340045Y86100D01*
Y88099D01*
X1341045Y89099D01*
X1344044D01*
X1346043Y85100D02*
X1348042Y87099D01*
Y89099D01*
X1346043Y91098D01*
X1316053Y74099D02*
X1313054D01*
X1312054Y73099D01*
Y71100D01*
X1313054Y70100D01*
X1316053D01*
X1318052Y75098D02*
X1319052Y76098D01*
X1321051D01*
X1322051Y75098D01*
Y74099D01*
X1321051Y73099D01*
X1320051D01*
X1321051D01*
X1322051Y72099D01*
Y71100D01*
X1321051Y70100D01*
X1319052D01*
X1318052Y71100D01*
X1328049Y76098D02*
X1326049Y75098D01*
X1324050Y73099D01*
Y71100D01*
X1325050Y70100D01*
X1327049D01*
X1328049Y71100D01*
Y72099D01*
X1327049Y73099D01*
X1324050D01*
X1330048Y75098D02*
X1331048Y76098D01*
X1333047D01*
X1334047Y75098D01*
Y74099D01*
X1333047Y73099D01*
X1334047Y72099D01*
Y71100D01*
X1333047Y70100D01*
X1331048D01*
X1330048Y71100D01*
Y72099D01*
X1331048Y73099D01*
X1330048Y74099D01*
Y75098D01*
X1331048Y73099D02*
X1333047D01*
X1336046Y76098D02*
Y70100D01*
Y73099D01*
X1337046Y74099D01*
X1339045D01*
X1340045Y73099D01*
Y70100D01*
X1346043D02*
X1342044D01*
X1346043Y74099D01*
Y75098D01*
X1345043Y76098D01*
X1343044D01*
X1342044Y75098D01*
X1348042Y71100D02*
X1349042Y70100D01*
X1351041D01*
X1352041Y71100D01*
Y75098D01*
X1351041Y76098D01*
X1349042D01*
X1348042Y75098D01*
Y74099D01*
X1349042Y73099D01*
X1352041D01*
X1358039Y70100D02*
X1354040D01*
X1358039Y74099D01*
Y75098D01*
X1357039Y76098D01*
X1355040D01*
X1354040Y75098D01*
X1312054Y59099D02*
X1314053Y55100D01*
X1316053Y59099D01*
X1321051Y55100D02*
Y61098D01*
X1318052Y58099D01*
X1322051D01*
X1328049Y61098D02*
X1324050D01*
Y58099D01*
X1326049Y59099D01*
X1327049D01*
X1328049Y58099D01*
Y56100D01*
X1327049Y55100D01*
X1325050D01*
X1324050Y56100D01*
X1330048Y61098D02*
X1334047D01*
Y60098D01*
X1330048Y56100D01*
Y55100D01*
X1336046Y61098D02*
Y55100D01*
Y58099D01*
X1337046Y59099D01*
X1339045D01*
X1340045Y58099D01*
Y55100D01*
X1342044Y60098D02*
X1343044Y61098D01*
X1345043D01*
X1346043Y60098D01*
Y59099D01*
X1345043Y58099D01*
X1344044D01*
X1345043D01*
X1346043Y57099D01*
Y56100D01*
X1345043Y55100D01*
X1343044D01*
X1342044Y56100D01*
X1351041Y55100D02*
Y61098D01*
X1348042Y58099D01*
X1352041D01*
X1358039Y61098D02*
X1354040D01*
Y58099D01*
X1356040Y59099D01*
X1357039D01*
X1358039Y58099D01*
Y56100D01*
X1357039Y55100D01*
X1355040D01*
X1354040Y56100D01*
X1314053Y40100D02*
X1312054Y42099D01*
Y44099D01*
X1314053Y46098D01*
X1317052Y40100D02*
Y46098D01*
X1319052Y44099D01*
X1321051Y46098D01*
Y40100D01*
X1323050D02*
X1325050D01*
X1324050D01*
Y44099D01*
X1323050D01*
X1328049D02*
X1332047Y40100D01*
X1330048Y42099D01*
X1332047Y44099D01*
X1328049Y40100D01*
X1337046D02*
X1335046D01*
X1334047Y41100D01*
Y43099D01*
X1335046Y44099D01*
X1337046D01*
X1338045Y43099D01*
Y42099D01*
X1334047D01*
X1344044Y46098D02*
Y40100D01*
X1341045D01*
X1340045Y41100D01*
Y43099D01*
X1341045Y44099D01*
X1344044D01*
X1346043Y40100D02*
X1348042Y42099D01*
Y44099D01*
X1346043Y46098D01*
X1312054Y29099D02*
X1314053Y25100D01*
X1316053Y29099D01*
X1318052Y25100D02*
X1320051D01*
X1319052D01*
Y31098D01*
X1318052Y30098D01*
X1327049Y25100D02*
X1323050D01*
X1327049Y29099D01*
Y30098D01*
X1326049Y31098D01*
X1324050D01*
X1323050Y30098D01*
X1329048Y31098D02*
X1333047D01*
Y30098D01*
X1329048Y26100D01*
Y25100D01*
X1335046Y31098D02*
Y25100D01*
Y28099D01*
X1336046Y29099D01*
X1338045D01*
X1339045Y28099D01*
Y25100D01*
X1341045Y31098D02*
X1345043D01*
Y30098D01*
X1341045Y26100D01*
Y25100D01*
X1347042D02*
X1349042D01*
X1348042D01*
Y31098D01*
X1347042Y30098D01*
X1237474Y100100D02*
Y106098D01*
X1240473D01*
X1241473Y105098D01*
Y103099D01*
X1240473Y102099D01*
X1237474D01*
X1239473D02*
X1241473Y100100D01*
X1244472D02*
X1246471D01*
X1247471Y101100D01*
Y103099D01*
X1246471Y104099D01*
X1244472D01*
X1243472Y103099D01*
Y101100D01*
X1244472Y100100D01*
X1249470Y104099D02*
Y101100D01*
X1250470Y100100D01*
X1253469D01*
Y104099D01*
X1255468Y100100D02*
Y104099D01*
X1258467D01*
X1259467Y103099D01*
Y100100D01*
X1265465Y106098D02*
Y100100D01*
X1262466D01*
X1261466Y101100D01*
Y103099D01*
X1262466Y104099D01*
X1265465D01*
X1270463Y100100D02*
X1268464D01*
X1267464Y101100D01*
Y103099D01*
X1268464Y104099D01*
X1270463D01*
X1271463Y103099D01*
Y102099D01*
X1267464D01*
X1277461Y106098D02*
Y100100D01*
X1274462D01*
X1273462Y101100D01*
Y103099D01*
X1274462Y104099D01*
X1277461D01*
X1239473Y85100D02*
X1237474Y87099D01*
Y89099D01*
X1239473Y91098D01*
X1242472Y85100D02*
Y91098D01*
X1244472Y89099D01*
X1246471Y91098D01*
Y85100D01*
X1248470D02*
X1250470D01*
X1249470D01*
Y89099D01*
X1248470D01*
X1253469D02*
X1257468Y85100D01*
X1255468Y87099D01*
X1257468Y89099D01*
X1253469Y85100D01*
X1262466D02*
X1260467D01*
X1259467Y86100D01*
Y88099D01*
X1260467Y89099D01*
X1262466D01*
X1263466Y88099D01*
Y87099D01*
X1259467D01*
X1269464Y91098D02*
Y85100D01*
X1266465D01*
X1265465Y86100D01*
Y88099D01*
X1266465Y89099D01*
X1269464D01*
X1271463Y85100D02*
X1273462Y87099D01*
Y89099D01*
X1271463Y91098D01*
X1237474Y70100D02*
Y76098D01*
X1240473D01*
X1241473Y75098D01*
Y73099D01*
X1240473Y72099D01*
X1237474D01*
X1239473D02*
X1241473Y70100D01*
X1244472D02*
X1246471D01*
X1247471Y71100D01*
Y73099D01*
X1246471Y74099D01*
X1244472D01*
X1243472Y73099D01*
Y71100D01*
X1244472Y70100D01*
X1249470Y74099D02*
Y71100D01*
X1250470Y70100D01*
X1253469D01*
Y74099D01*
X1255468Y70100D02*
Y74099D01*
X1258467D01*
X1259467Y73099D01*
Y70100D01*
X1265465Y76098D02*
Y70100D01*
X1262466D01*
X1261466Y71100D01*
Y73099D01*
X1262466Y74099D01*
X1265465D01*
X1270463Y70100D02*
X1268464D01*
X1267464Y71100D01*
Y73099D01*
X1268464Y74099D01*
X1270463D01*
X1271463Y73099D01*
Y72099D01*
X1267464D01*
X1277461Y76098D02*
Y70100D01*
X1274462D01*
X1273462Y71100D01*
Y73099D01*
X1274462Y74099D01*
X1277461D01*
X1237474Y55100D02*
Y61098D01*
X1240473D01*
X1241473Y60098D01*
Y58099D01*
X1240473Y57099D01*
X1237474D01*
X1239473D02*
X1241473Y55100D01*
X1244472D02*
X1246471D01*
X1247471Y56100D01*
Y58099D01*
X1246471Y59099D01*
X1244472D01*
X1243472Y58099D01*
Y56100D01*
X1244472Y55100D01*
X1249470Y59099D02*
Y56100D01*
X1250470Y55100D01*
X1253469D01*
Y59099D01*
X1255468Y55100D02*
Y59099D01*
X1258467D01*
X1259467Y58099D01*
Y55100D01*
X1265465Y61098D02*
Y55100D01*
X1262466D01*
X1261466Y56100D01*
Y58099D01*
X1262466Y59099D01*
X1265465D01*
X1270463Y55100D02*
X1268464D01*
X1267464Y56100D01*
Y58099D01*
X1268464Y59099D01*
X1270463D01*
X1271463Y58099D01*
Y57099D01*
X1267464D01*
X1277461Y61098D02*
Y55100D01*
X1274462D01*
X1273462Y56100D01*
Y58099D01*
X1274462Y59099D01*
X1277461D01*
X1239473Y40100D02*
X1237474Y42099D01*
Y44099D01*
X1239473Y46098D01*
X1242472Y40100D02*
Y46098D01*
X1244472Y44099D01*
X1246471Y46098D01*
Y40100D01*
X1248470D02*
X1250470D01*
X1249470D01*
Y44099D01*
X1248470D01*
X1253469D02*
X1257468Y40100D01*
X1255468Y42099D01*
X1257468Y44099D01*
X1253469Y40100D01*
X1262466D02*
X1260467D01*
X1259467Y41100D01*
Y43099D01*
X1260467Y44099D01*
X1262466D01*
X1263466Y43099D01*
Y42099D01*
X1259467D01*
X1269464Y46098D02*
Y40100D01*
X1266465D01*
X1265465Y41100D01*
Y43099D01*
X1266465Y44099D01*
X1269464D01*
X1271463Y40100D02*
X1273462Y42099D01*
Y44099D01*
X1271463Y46098D01*
X1237474Y25100D02*
Y31098D01*
X1240473D01*
X1241473Y30098D01*
Y28099D01*
X1240473Y27099D01*
X1237474D01*
X1239473D02*
X1241473Y25100D01*
X1244472D02*
X1246471D01*
X1247471Y26100D01*
Y28099D01*
X1246471Y29099D01*
X1244472D01*
X1243472Y28099D01*
Y26100D01*
X1244472Y25100D01*
X1249470Y29099D02*
Y26100D01*
X1250470Y25100D01*
X1253469D01*
Y29099D01*
X1255468Y25100D02*
Y29099D01*
X1258467D01*
X1259467Y28099D01*
Y25100D01*
X1265465Y31098D02*
Y25100D01*
X1262466D01*
X1261466Y26100D01*
Y28099D01*
X1262466Y29099D01*
X1265465D01*
X1270463Y25100D02*
X1268464D01*
X1267464Y26100D01*
Y28099D01*
X1268464Y29099D01*
X1270463D01*
X1271463Y28099D01*
Y27099D01*
X1267464D01*
X1277461Y31098D02*
Y25100D01*
X1274462D01*
X1273462Y26100D01*
Y28099D01*
X1274462Y29099D01*
X1277461D01*
X1178489Y100100D02*
Y106098D01*
X1181488D01*
X1182488Y105098D01*
Y103099D01*
X1181488Y102099D01*
X1178489D01*
X1185487Y104099D02*
X1187486D01*
X1188486Y103099D01*
Y100100D01*
X1185487D01*
X1184487Y101100D01*
X1185487Y102099D01*
X1188486D01*
X1194484Y106098D02*
Y100100D01*
X1191485D01*
X1190485Y101100D01*
Y103099D01*
X1191485Y104099D01*
X1194484D01*
X1178489Y85100D02*
Y91098D01*
X1181488D01*
X1182488Y90098D01*
Y88099D01*
X1181488Y87099D01*
X1178489D01*
X1185487Y89099D02*
X1187486D01*
X1188486Y88099D01*
Y85100D01*
X1185487D01*
X1184487Y86100D01*
X1185487Y87099D01*
X1188486D01*
X1194484Y91098D02*
Y85100D01*
X1191485D01*
X1190485Y86100D01*
Y88099D01*
X1191485Y89099D01*
X1194484D01*
X1178489Y70100D02*
Y76098D01*
X1181488D01*
X1182488Y75098D01*
Y73099D01*
X1181488Y72099D01*
X1178489D01*
X1185487Y74099D02*
X1187486D01*
X1188486Y73099D01*
Y70100D01*
X1185487D01*
X1184487Y71100D01*
X1185487Y72099D01*
X1188486D01*
X1194484Y76098D02*
Y70100D01*
X1191485D01*
X1190485Y71100D01*
Y73099D01*
X1191485Y74099D01*
X1194484D01*
X1178489Y61098D02*
Y57099D01*
X1180488Y55100D01*
X1182488Y57099D01*
Y61098D01*
X1184487Y55100D02*
X1186487D01*
X1185487D01*
Y59099D01*
X1184487D01*
X1190485D02*
X1192485D01*
X1193484Y58099D01*
Y55100D01*
X1190485D01*
X1189486Y56100D01*
X1190485Y57099D01*
X1193484D01*
X1178489Y40100D02*
Y46098D01*
X1181488D01*
X1182488Y45098D01*
Y43099D01*
X1181488Y42099D01*
X1178489D01*
X1185487Y44099D02*
X1187486D01*
X1188486Y43099D01*
Y40100D01*
X1185487D01*
X1184487Y41100D01*
X1185487Y42099D01*
X1188486D01*
X1194484Y46098D02*
Y40100D01*
X1191485D01*
X1190485Y41100D01*
Y43099D01*
X1191485Y44099D01*
X1194484D01*
X1178489Y31098D02*
Y27099D01*
X1180488Y25100D01*
X1182488Y27099D01*
Y31098D01*
X1184487Y25100D02*
X1186487D01*
X1185487D01*
Y29099D01*
X1184487D01*
X1190485D02*
X1192485D01*
X1193484Y28099D01*
Y25100D01*
X1190485D01*
X1189486Y26100D01*
X1190485Y27099D01*
X1193484D01*
X1028534Y106098D02*
X1032533D01*
X1030534D01*
Y100100D01*
X1035532D02*
X1037531D01*
X1038531Y101100D01*
Y103099D01*
X1037531Y104099D01*
X1035532D01*
X1034532Y103099D01*
Y101100D01*
X1035532Y100100D01*
X1040530Y98101D02*
Y104099D01*
X1043529D01*
X1044529Y103099D01*
Y101100D01*
X1043529Y100100D01*
X1040530D01*
X1052526Y106098D02*
Y100100D01*
X1056525D01*
X1059524Y104099D02*
X1061524D01*
X1062523Y103099D01*
Y100100D01*
X1059524D01*
X1058524Y101100D01*
X1059524Y102099D01*
X1062523D01*
X1064522Y104099D02*
Y101100D01*
X1065522Y100100D01*
X1068521D01*
Y99100D01*
X1067521Y98101D01*
X1066522D01*
X1068521Y100100D02*
Y104099D01*
X1073520Y100100D02*
X1071520D01*
X1070521Y101100D01*
Y103099D01*
X1071520Y104099D01*
X1073520D01*
X1074519Y103099D01*
Y102099D01*
X1070521D01*
X1076519Y104099D02*
Y100100D01*
Y102099D01*
X1077518Y103099D01*
X1078518Y104099D01*
X1079518D01*
X1088515Y103099D02*
X1092513D01*
X1100511Y106098D02*
Y100100D01*
X1103510D01*
X1104510Y101100D01*
Y102099D01*
X1103510Y103099D01*
X1100511D01*
X1103510D01*
X1104510Y104099D01*
Y105098D01*
X1103510Y106098D01*
X1100511D01*
X1107509Y100100D02*
X1109508D01*
X1110508Y101100D01*
Y103099D01*
X1109508Y104099D01*
X1107509D01*
X1106509Y103099D01*
Y101100D01*
X1107509Y100100D01*
X1113507Y105098D02*
Y104099D01*
X1112507D01*
X1114506D01*
X1113507D01*
Y101100D01*
X1114506Y100100D01*
X1118505Y105098D02*
Y104099D01*
X1117505D01*
X1119505D01*
X1118505D01*
Y101100D01*
X1119505Y100100D01*
X1123503D02*
X1125503D01*
X1126502Y101100D01*
Y103099D01*
X1125503Y104099D01*
X1123503D01*
X1122504Y103099D01*
Y101100D01*
X1123503Y100100D01*
X1128502D02*
Y104099D01*
X1129502D01*
X1130501Y103099D01*
Y100100D01*
Y103099D01*
X1131501Y104099D01*
X1132500Y103099D01*
Y100100D01*
X1140498Y106098D02*
Y100100D01*
X1144497D01*
X1147496Y104099D02*
X1149495D01*
X1150495Y103099D01*
Y100100D01*
X1147496D01*
X1146496Y101100D01*
X1147496Y102099D01*
X1150495D01*
X1152494Y104099D02*
Y101100D01*
X1153494Y100100D01*
X1156493D01*
Y99100D01*
X1155493Y98101D01*
X1154493D01*
X1156493Y100100D02*
Y104099D01*
X1161491Y100100D02*
X1159492D01*
X1158492Y101100D01*
Y103099D01*
X1159492Y104099D01*
X1161491D01*
X1162491Y103099D01*
Y102099D01*
X1158492D01*
X1164490Y104099D02*
Y100100D01*
Y102099D01*
X1165490Y103099D01*
X1166490Y104099D01*
X1167489D01*
X1028534Y91098D02*
X1032533D01*
X1030534D01*
Y85100D01*
X1035532D02*
X1037531D01*
X1038531Y86100D01*
Y88099D01*
X1037531Y89099D01*
X1035532D01*
X1034532Y88099D01*
Y86100D01*
X1035532Y85100D01*
X1040530Y83101D02*
Y89099D01*
X1043529D01*
X1044529Y88099D01*
Y86100D01*
X1043529Y85100D01*
X1040530D01*
X1052526Y91098D02*
Y85100D01*
X1056525D01*
X1059524Y89099D02*
X1061524D01*
X1062523Y88099D01*
Y85100D01*
X1059524D01*
X1058524Y86100D01*
X1059524Y87099D01*
X1062523D01*
X1064522Y89099D02*
Y86100D01*
X1065522Y85100D01*
X1068521D01*
Y84100D01*
X1067521Y83101D01*
X1066522D01*
X1068521Y85100D02*
Y89099D01*
X1073520Y85100D02*
X1071520D01*
X1070521Y86100D01*
Y88099D01*
X1071520Y89099D01*
X1073520D01*
X1074519Y88099D01*
Y87099D01*
X1070521D01*
X1076519Y89099D02*
Y85100D01*
Y87099D01*
X1077518Y88099D01*
X1078518Y89099D01*
X1079518D01*
X1088515Y88099D02*
X1092513D01*
X1100511Y91098D02*
Y85100D01*
X1103510D01*
X1104510Y86100D01*
Y87099D01*
X1103510Y88099D01*
X1100511D01*
X1103510D01*
X1104510Y89099D01*
Y90098D01*
X1103510Y91098D01*
X1100511D01*
X1107509Y85100D02*
X1109508D01*
X1110508Y86100D01*
Y88099D01*
X1109508Y89099D01*
X1107509D01*
X1106509Y88099D01*
Y86100D01*
X1107509Y85100D01*
X1113507Y90098D02*
Y89099D01*
X1112507D01*
X1114506D01*
X1113507D01*
Y86100D01*
X1114506Y85100D01*
X1118505Y90098D02*
Y89099D01*
X1117505D01*
X1119505D01*
X1118505D01*
Y86100D01*
X1119505Y85100D01*
X1123503D02*
X1125503D01*
X1126502Y86100D01*
Y88099D01*
X1125503Y89099D01*
X1123503D01*
X1122504Y88099D01*
Y86100D01*
X1123503Y85100D01*
X1128502D02*
Y89099D01*
X1129502D01*
X1130501Y88099D01*
Y85100D01*
Y88099D01*
X1131501Y89099D01*
X1132500Y88099D01*
Y85100D01*
X1140498Y91098D02*
Y85100D01*
X1144497D01*
X1147496Y89099D02*
X1149495D01*
X1150495Y88099D01*
Y85100D01*
X1147496D01*
X1146496Y86100D01*
X1147496Y87099D01*
X1150495D01*
X1152494Y89099D02*
Y86100D01*
X1153494Y85100D01*
X1156493D01*
Y84100D01*
X1155493Y83101D01*
X1154493D01*
X1156493Y85100D02*
Y89099D01*
X1161491Y85100D02*
X1159492D01*
X1158492Y86100D01*
Y88099D01*
X1159492Y89099D01*
X1161491D01*
X1162491Y88099D01*
Y87099D01*
X1158492D01*
X1164490Y89099D02*
Y85100D01*
Y87099D01*
X1165490Y88099D01*
X1166490Y89099D01*
X1167489D01*
X1028534Y76098D02*
X1032533D01*
X1030534D01*
Y70100D01*
X1035532D02*
X1037531D01*
X1038531Y71100D01*
Y73099D01*
X1037531Y74099D01*
X1035532D01*
X1034532Y73099D01*
Y71100D01*
X1035532Y70100D01*
X1040530Y68101D02*
Y74099D01*
X1043529D01*
X1044529Y73099D01*
Y71100D01*
X1043529Y70100D01*
X1040530D01*
X1052526Y76098D02*
Y70100D01*
X1056525D01*
X1059524Y74099D02*
X1061524D01*
X1062523Y73099D01*
Y70100D01*
X1059524D01*
X1058524Y71100D01*
X1059524Y72099D01*
X1062523D01*
X1064522Y74099D02*
Y71100D01*
X1065522Y70100D01*
X1068521D01*
Y69100D01*
X1067521Y68101D01*
X1066522D01*
X1068521Y70100D02*
Y74099D01*
X1073520Y70100D02*
X1071520D01*
X1070521Y71100D01*
Y73099D01*
X1071520Y74099D01*
X1073520D01*
X1074519Y73099D01*
Y72099D01*
X1070521D01*
X1076519Y74099D02*
Y70100D01*
Y72099D01*
X1077518Y73099D01*
X1078518Y74099D01*
X1079518D01*
X1088515Y73099D02*
X1092513D01*
X1100511Y76098D02*
Y70100D01*
X1103510D01*
X1104510Y71100D01*
Y72099D01*
X1103510Y73099D01*
X1100511D01*
X1103510D01*
X1104510Y74099D01*
Y75098D01*
X1103510Y76098D01*
X1100511D01*
X1107509Y70100D02*
X1109508D01*
X1110508Y71100D01*
Y73099D01*
X1109508Y74099D01*
X1107509D01*
X1106509Y73099D01*
Y71100D01*
X1107509Y70100D01*
X1113507Y75098D02*
Y74099D01*
X1112507D01*
X1114506D01*
X1113507D01*
Y71100D01*
X1114506Y70100D01*
X1118505Y75098D02*
Y74099D01*
X1117505D01*
X1119505D01*
X1118505D01*
Y71100D01*
X1119505Y70100D01*
X1123503D02*
X1125503D01*
X1126502Y71100D01*
Y73099D01*
X1125503Y74099D01*
X1123503D01*
X1122504Y73099D01*
Y71100D01*
X1123503Y70100D01*
X1128502D02*
Y74099D01*
X1129502D01*
X1130501Y73099D01*
Y70100D01*
Y73099D01*
X1131501Y74099D01*
X1132500Y73099D01*
Y70100D01*
X1140498Y76098D02*
Y70100D01*
X1144497D01*
X1147496Y74099D02*
X1149495D01*
X1150495Y73099D01*
Y70100D01*
X1147496D01*
X1146496Y71100D01*
X1147496Y72099D01*
X1150495D01*
X1152494Y74099D02*
Y71100D01*
X1153494Y70100D01*
X1156493D01*
Y69100D01*
X1155493Y68101D01*
X1154493D01*
X1156493Y70100D02*
Y74099D01*
X1161491Y70100D02*
X1159492D01*
X1158492Y71100D01*
Y73099D01*
X1159492Y74099D01*
X1161491D01*
X1162491Y73099D01*
Y72099D01*
X1158492D01*
X1164490Y74099D02*
Y70100D01*
Y72099D01*
X1165490Y73099D01*
X1166490Y74099D01*
X1167489D01*
X1028534Y61098D02*
X1032533D01*
X1030534D01*
Y55100D01*
X1035532D02*
X1037531D01*
X1038531Y56100D01*
Y58099D01*
X1037531Y59099D01*
X1035532D01*
X1034532Y58099D01*
Y56100D01*
X1035532Y55100D01*
X1040530Y53101D02*
Y59099D01*
X1043529D01*
X1044529Y58099D01*
Y56100D01*
X1043529Y55100D01*
X1040530D01*
X1052526Y61098D02*
Y55100D01*
X1056525D01*
X1059524Y59099D02*
X1061524D01*
X1062523Y58099D01*
Y55100D01*
X1059524D01*
X1058524Y56100D01*
X1059524Y57099D01*
X1062523D01*
X1064522Y59099D02*
Y56100D01*
X1065522Y55100D01*
X1068521D01*
Y54100D01*
X1067521Y53101D01*
X1066522D01*
X1068521Y55100D02*
Y59099D01*
X1073520Y55100D02*
X1071520D01*
X1070521Y56100D01*
Y58099D01*
X1071520Y59099D01*
X1073520D01*
X1074519Y58099D01*
Y57099D01*
X1070521D01*
X1076519Y59099D02*
Y55100D01*
Y57099D01*
X1077518Y58099D01*
X1078518Y59099D01*
X1079518D01*
X1088515Y58099D02*
X1092513D01*
X1100511Y61098D02*
Y55100D01*
X1103510D01*
X1104510Y56100D01*
Y57099D01*
X1103510Y58099D01*
X1100511D01*
X1103510D01*
X1104510Y59099D01*
Y60098D01*
X1103510Y61098D01*
X1100511D01*
X1107509Y55100D02*
X1109508D01*
X1110508Y56100D01*
Y58099D01*
X1109508Y59099D01*
X1107509D01*
X1106509Y58099D01*
Y56100D01*
X1107509Y55100D01*
X1113507Y60098D02*
Y59099D01*
X1112507D01*
X1114506D01*
X1113507D01*
Y56100D01*
X1114506Y55100D01*
X1118505Y60098D02*
Y59099D01*
X1117505D01*
X1119505D01*
X1118505D01*
Y56100D01*
X1119505Y55100D01*
X1123503D02*
X1125503D01*
X1126502Y56100D01*
Y58099D01*
X1125503Y59099D01*
X1123503D01*
X1122504Y58099D01*
Y56100D01*
X1123503Y55100D01*
X1128502D02*
Y59099D01*
X1129502D01*
X1130501Y58099D01*
Y55100D01*
Y58099D01*
X1131501Y59099D01*
X1132500Y58099D01*
Y55100D01*
X1140498Y61098D02*
Y55100D01*
X1144497D01*
X1147496Y59099D02*
X1149495D01*
X1150495Y58099D01*
Y55100D01*
X1147496D01*
X1146496Y56100D01*
X1147496Y57099D01*
X1150495D01*
X1152494Y59099D02*
Y56100D01*
X1153494Y55100D01*
X1156493D01*
Y54100D01*
X1155493Y53101D01*
X1154493D01*
X1156493Y55100D02*
Y59099D01*
X1161491Y55100D02*
X1159492D01*
X1158492Y56100D01*
Y58099D01*
X1159492Y59099D01*
X1161491D01*
X1162491Y58099D01*
Y57099D01*
X1158492D01*
X1164490Y59099D02*
Y55100D01*
Y57099D01*
X1165490Y58099D01*
X1166490Y59099D01*
X1167489D01*
X1028534Y46098D02*
X1032533D01*
X1030534D01*
Y40100D01*
X1035532D02*
X1037531D01*
X1038531Y41100D01*
Y43099D01*
X1037531Y44099D01*
X1035532D01*
X1034532Y43099D01*
Y41100D01*
X1035532Y40100D01*
X1040530Y38101D02*
Y44099D01*
X1043529D01*
X1044529Y43099D01*
Y41100D01*
X1043529Y40100D01*
X1040530D01*
X1052526Y46098D02*
Y40100D01*
X1056525D01*
X1059524Y44099D02*
X1061524D01*
X1062523Y43099D01*
Y40100D01*
X1059524D01*
X1058524Y41100D01*
X1059524Y42099D01*
X1062523D01*
X1064522Y44099D02*
Y41100D01*
X1065522Y40100D01*
X1068521D01*
Y39100D01*
X1067521Y38101D01*
X1066522D01*
X1068521Y40100D02*
Y44099D01*
X1073520Y40100D02*
X1071520D01*
X1070521Y41100D01*
Y43099D01*
X1071520Y44099D01*
X1073520D01*
X1074519Y43099D01*
Y42099D01*
X1070521D01*
X1076519Y44099D02*
Y40100D01*
Y42099D01*
X1077518Y43099D01*
X1078518Y44099D01*
X1079518D01*
X1088515Y43099D02*
X1092513D01*
X1100511Y46098D02*
Y40100D01*
X1103510D01*
X1104510Y41100D01*
Y42099D01*
X1103510Y43099D01*
X1100511D01*
X1103510D01*
X1104510Y44099D01*
Y45098D01*
X1103510Y46098D01*
X1100511D01*
X1107509Y40100D02*
X1109508D01*
X1110508Y41100D01*
Y43099D01*
X1109508Y44099D01*
X1107509D01*
X1106509Y43099D01*
Y41100D01*
X1107509Y40100D01*
X1113507Y45098D02*
Y44099D01*
X1112507D01*
X1114506D01*
X1113507D01*
Y41100D01*
X1114506Y40100D01*
X1118505Y45098D02*
Y44099D01*
X1117505D01*
X1119505D01*
X1118505D01*
Y41100D01*
X1119505Y40100D01*
X1123503D02*
X1125503D01*
X1126502Y41100D01*
Y43099D01*
X1125503Y44099D01*
X1123503D01*
X1122504Y43099D01*
Y41100D01*
X1123503Y40100D01*
X1128502D02*
Y44099D01*
X1129502D01*
X1130501Y43099D01*
Y40100D01*
Y43099D01*
X1131501Y44099D01*
X1132500Y43099D01*
Y40100D01*
X1140498Y46098D02*
Y40100D01*
X1144497D01*
X1147496Y44099D02*
X1149495D01*
X1150495Y43099D01*
Y40100D01*
X1147496D01*
X1146496Y41100D01*
X1147496Y42099D01*
X1150495D01*
X1152494Y44099D02*
Y41100D01*
X1153494Y40100D01*
X1156493D01*
Y39100D01*
X1155493Y38101D01*
X1154493D01*
X1156493Y40100D02*
Y44099D01*
X1161491Y40100D02*
X1159492D01*
X1158492Y41100D01*
Y43099D01*
X1159492Y44099D01*
X1161491D01*
X1162491Y43099D01*
Y42099D01*
X1158492D01*
X1164490Y44099D02*
Y40100D01*
Y42099D01*
X1165490Y43099D01*
X1166490Y44099D01*
X1167489D01*
X1028534Y31098D02*
X1032533D01*
X1030534D01*
Y25100D01*
X1035532D02*
X1037531D01*
X1038531Y26100D01*
Y28099D01*
X1037531Y29099D01*
X1035532D01*
X1034532Y28099D01*
Y26100D01*
X1035532Y25100D01*
X1040530Y23101D02*
Y29099D01*
X1043529D01*
X1044529Y28099D01*
Y26100D01*
X1043529Y25100D01*
X1040530D01*
X1052526Y31098D02*
Y25100D01*
X1056525D01*
X1059524Y29099D02*
X1061524D01*
X1062523Y28099D01*
Y25100D01*
X1059524D01*
X1058524Y26100D01*
X1059524Y27099D01*
X1062523D01*
X1064522Y29099D02*
Y26100D01*
X1065522Y25100D01*
X1068521D01*
Y24100D01*
X1067521Y23101D01*
X1066522D01*
X1068521Y25100D02*
Y29099D01*
X1073520Y25100D02*
X1071520D01*
X1070521Y26100D01*
Y28099D01*
X1071520Y29099D01*
X1073520D01*
X1074519Y28099D01*
Y27099D01*
X1070521D01*
X1076519Y29099D02*
Y25100D01*
Y27099D01*
X1077518Y28099D01*
X1078518Y29099D01*
X1079518D01*
X1088515Y28099D02*
X1092513D01*
X1100511Y31098D02*
Y25100D01*
X1103510D01*
X1104510Y26100D01*
Y27099D01*
X1103510Y28099D01*
X1100511D01*
X1103510D01*
X1104510Y29099D01*
Y30098D01*
X1103510Y31098D01*
X1100511D01*
X1107509Y25100D02*
X1109508D01*
X1110508Y26100D01*
Y28099D01*
X1109508Y29099D01*
X1107509D01*
X1106509Y28099D01*
Y26100D01*
X1107509Y25100D01*
X1113507Y30098D02*
Y29099D01*
X1112507D01*
X1114506D01*
X1113507D01*
Y26100D01*
X1114506Y25100D01*
X1118505Y30098D02*
Y29099D01*
X1117505D01*
X1119505D01*
X1118505D01*
Y26100D01*
X1119505Y25100D01*
X1123503D02*
X1125503D01*
X1126502Y26100D01*
Y28099D01*
X1125503Y29099D01*
X1123503D01*
X1122504Y28099D01*
Y26100D01*
X1123503Y25100D01*
X1128502D02*
Y29099D01*
X1129502D01*
X1130501Y28099D01*
Y25100D01*
Y28099D01*
X1131501Y29099D01*
X1132500Y28099D01*
Y25100D01*
X1140498Y31098D02*
Y25100D01*
X1144497D01*
X1147496Y29099D02*
X1149495D01*
X1150495Y28099D01*
Y25100D01*
X1147496D01*
X1146496Y26100D01*
X1147496Y27099D01*
X1150495D01*
X1152494Y29099D02*
Y26100D01*
X1153494Y25100D01*
X1156493D01*
Y24100D01*
X1155493Y23101D01*
X1154493D01*
X1156493Y25100D02*
Y29099D01*
X1161491Y25100D02*
X1159492D01*
X1158492Y26100D01*
Y28099D01*
X1159492Y29099D01*
X1161491D01*
X1162491Y28099D01*
Y27099D01*
X1158492D01*
X1164490Y29099D02*
Y25100D01*
Y27099D01*
X1165490Y28099D01*
X1166490Y29099D01*
X1167489D01*
X955154Y100100D02*
Y106098D01*
X958153D01*
X959153Y105098D01*
Y103099D01*
X958153Y102099D01*
X955154D01*
X957153D02*
X959153Y100100D01*
X962152D02*
X964151D01*
X965151Y101100D01*
Y103099D01*
X964151Y104099D01*
X962152D01*
X961152Y103099D01*
Y101100D01*
X962152Y100100D01*
X967150Y104099D02*
Y101100D01*
X968150Y100100D01*
X971149D01*
Y104099D01*
X973148Y100100D02*
Y104099D01*
X976147D01*
X977147Y103099D01*
Y100100D01*
X983145Y106098D02*
Y100100D01*
X980146D01*
X979146Y101100D01*
Y103099D01*
X980146Y104099D01*
X983145D01*
X955154Y85100D02*
Y91098D01*
X958153D01*
X959153Y90098D01*
Y88099D01*
X958153Y87099D01*
X955154D01*
X957153D02*
X959153Y85100D01*
X962152D02*
X964151D01*
X965151Y86100D01*
Y88099D01*
X964151Y89099D01*
X962152D01*
X961152Y88099D01*
Y86100D01*
X962152Y85100D01*
X967150Y89099D02*
Y86100D01*
X968150Y85100D01*
X971149D01*
Y89099D01*
X973148Y85100D02*
Y89099D01*
X976147D01*
X977147Y88099D01*
Y85100D01*
X983145Y91098D02*
Y85100D01*
X980146D01*
X979146Y86100D01*
Y88099D01*
X980146Y89099D01*
X983145D01*
X955154Y70100D02*
Y76098D01*
X958153D01*
X959153Y75098D01*
Y73099D01*
X958153Y72099D01*
X955154D01*
X957153D02*
X959153Y70100D01*
X962152D02*
X964151D01*
X965151Y71100D01*
Y73099D01*
X964151Y74099D01*
X962152D01*
X961152Y73099D01*
Y71100D01*
X962152Y70100D01*
X967150Y74099D02*
Y71100D01*
X968150Y70100D01*
X971149D01*
Y74099D01*
X973148Y70100D02*
Y74099D01*
X976147D01*
X977147Y73099D01*
Y70100D01*
X983145Y76098D02*
Y70100D01*
X980146D01*
X979146Y71100D01*
Y73099D01*
X980146Y74099D01*
X983145D01*
X955154Y55100D02*
Y61098D01*
X958153D01*
X959153Y60098D01*
Y58099D01*
X958153Y57099D01*
X955154D01*
X957153D02*
X959153Y55100D01*
X962152D02*
X964151D01*
X965151Y56100D01*
Y58099D01*
X964151Y59099D01*
X962152D01*
X961152Y58099D01*
Y56100D01*
X962152Y55100D01*
X967150Y59099D02*
Y56100D01*
X968150Y55100D01*
X971149D01*
Y59099D01*
X973148Y55100D02*
Y59099D01*
X976147D01*
X977147Y58099D01*
Y55100D01*
X983145Y61098D02*
Y55100D01*
X980146D01*
X979146Y56100D01*
Y58099D01*
X980146Y59099D01*
X983145D01*
X955154Y40100D02*
Y46098D01*
X958153D01*
X959153Y45098D01*
Y43099D01*
X958153Y42099D01*
X955154D01*
X957153D02*
X959153Y40100D01*
X962152D02*
X964151D01*
X965151Y41100D01*
Y43099D01*
X964151Y44099D01*
X962152D01*
X961152Y43099D01*
Y41100D01*
X962152Y40100D01*
X967150Y44099D02*
Y41100D01*
X968150Y40100D01*
X971149D01*
Y44099D01*
X973148Y40100D02*
Y44099D01*
X976147D01*
X977147Y43099D01*
Y40100D01*
X983145Y46098D02*
Y40100D01*
X980146D01*
X979146Y41100D01*
Y43099D01*
X980146Y44099D01*
X983145D01*
X955154Y25100D02*
Y31098D01*
X958153D01*
X959153Y30098D01*
Y28099D01*
X958153Y27099D01*
X955154D01*
X957153D02*
X959153Y25100D01*
X962152D02*
X964151D01*
X965151Y26100D01*
Y28099D01*
X964151Y29099D01*
X962152D01*
X961152Y28099D01*
Y26100D01*
X962152Y25100D01*
X967150Y29099D02*
Y26100D01*
X968150Y25100D01*
X971149D01*
Y29099D01*
X973148Y25100D02*
Y29099D01*
X976147D01*
X977147Y28099D01*
Y25100D01*
X983145Y31098D02*
Y25100D01*
X980146D01*
X979146Y26100D01*
Y28099D01*
X980146Y29099D01*
X983145D01*
X904566Y100100D02*
Y106098D01*
X908565Y100100D01*
Y106098D01*
X910564Y100100D02*
Y106098D01*
X913563D01*
X914563Y105098D01*
Y103099D01*
X913563Y102099D01*
X910564D01*
X916562Y106098D02*
X920561D01*
X918562D01*
Y100100D01*
X922561Y106098D02*
Y100100D01*
Y103099D01*
X926559D01*
Y106098D01*
Y100100D01*
X904566Y85100D02*
Y91098D01*
X907565D01*
X908565Y90098D01*
Y88099D01*
X907565Y87099D01*
X904566D01*
X910564Y91098D02*
X914563D01*
X912564D01*
Y85100D01*
X916562Y91098D02*
Y85100D01*
Y88099D01*
X920561D01*
Y91098D01*
Y85100D01*
X904566Y70100D02*
Y76098D01*
X907565D01*
X908565Y75098D01*
Y73099D01*
X907565Y72099D01*
X904566D01*
X910564Y76098D02*
X914563D01*
X912564D01*
Y70100D01*
X916562Y76098D02*
Y70100D01*
Y73099D01*
X920561D01*
Y76098D01*
Y70100D01*
X904566Y55100D02*
Y61098D01*
X907565D01*
X908565Y60098D01*
Y58099D01*
X907565Y57099D01*
X904566D01*
X910564Y61098D02*
X914563D01*
X912564D01*
Y55100D01*
X916562Y61098D02*
Y55100D01*
Y58099D01*
X920561D01*
Y61098D01*
Y55100D01*
X904566Y40100D02*
Y46098D01*
X907565D01*
X908565Y45098D01*
Y43099D01*
X907565Y42099D01*
X904566D01*
X910564Y46098D02*
X914563D01*
X912564D01*
Y40100D01*
X916562Y46098D02*
Y40100D01*
Y43099D01*
X920561D01*
Y46098D01*
Y40100D01*
X904566Y25100D02*
Y31098D01*
X907565D01*
X908565Y30098D01*
Y28099D01*
X907565Y27099D01*
X904566D01*
X910564Y31098D02*
X914563D01*
X912564D01*
Y25100D01*
X916562Y31098D02*
Y25100D01*
Y28099D01*
X920561D01*
Y31098D01*
Y25100D01*
X789600Y105098D02*
X790600Y106098D01*
X792599D01*
X793599Y105098D01*
Y104099D01*
X792599Y103099D01*
X791599D01*
X792599D01*
X793599Y102099D01*
Y101100D01*
X792599Y100100D01*
X790600D01*
X789600Y101100D01*
X799597Y106098D02*
X795598D01*
Y103099D01*
X797597Y104099D01*
X798597D01*
X799597Y103099D01*
Y101100D01*
X798597Y100100D01*
X796598D01*
X795598Y101100D01*
X801596Y100100D02*
Y101100D01*
X802596D01*
Y100100D01*
X801596D01*
X809593D02*
Y106098D01*
X806594Y103099D01*
X810593D01*
X812593Y105098D02*
X813592Y106098D01*
X815592D01*
X816591Y105098D01*
Y104099D01*
X815592Y103099D01*
X814592D01*
X815592D01*
X816591Y102099D01*
Y101100D01*
X815592Y100100D01*
X813592D01*
X812593Y101100D01*
X818591Y100100D02*
Y104099D01*
X819590D01*
X820590Y103099D01*
Y100100D01*
Y103099D01*
X821590Y104099D01*
X822589Y103099D01*
Y100100D01*
X824589D02*
X826588D01*
X825588D01*
Y104099D01*
X824589D01*
X829587Y100100D02*
X831586D01*
X830587D01*
Y106098D01*
X829587D01*
X842583Y100100D02*
X840584Y102099D01*
Y104099D01*
X842583Y106098D01*
X845582Y105098D02*
X846582Y106098D01*
X848581D01*
X849581Y105098D01*
Y101100D01*
X848581Y100100D01*
X846582D01*
X845582Y101100D01*
Y105098D01*
X851580Y100100D02*
Y101100D01*
X852580D01*
Y100100D01*
X851580D01*
X856578Y101100D02*
X857578Y100100D01*
X859577D01*
X860577Y101100D01*
Y105098D01*
X859577Y106098D01*
X857578D01*
X856578Y105098D01*
Y104099D01*
X857578Y103099D01*
X860577D01*
X862576Y105098D02*
X863576Y106098D01*
X865575D01*
X866575Y105098D01*
Y101100D01*
X865575Y100100D01*
X863576D01*
X862576Y101100D01*
Y105098D01*
X868574D02*
X869574Y106098D01*
X871574D01*
X872573Y105098D01*
Y101100D01*
X871574Y100100D01*
X869574D01*
X868574Y101100D01*
Y105098D01*
X874572Y100100D02*
Y104099D01*
X875572D01*
X876572Y103099D01*
Y100100D01*
Y103099D01*
X877571Y104099D01*
X878571Y103099D01*
Y100100D01*
X880571D02*
Y104099D01*
X881570D01*
X882570Y103099D01*
Y100100D01*
Y103099D01*
X883570Y104099D01*
X884569Y103099D01*
Y100100D01*
X886569D02*
X888568Y102099D01*
Y104099D01*
X886569Y106098D01*
X793599Y91098D02*
X789600D01*
Y88099D01*
X791599Y89099D01*
X792599D01*
X793599Y88099D01*
Y86100D01*
X792599Y85100D01*
X790600D01*
X789600Y86100D01*
X799597Y91098D02*
X795598D01*
Y88099D01*
X797597Y89099D01*
X798597D01*
X799597Y88099D01*
Y86100D01*
X798597Y85100D01*
X796598D01*
X795598Y86100D01*
X801596Y85100D02*
Y86100D01*
X802596D01*
Y85100D01*
X801596D01*
X806594Y90098D02*
X807594Y91098D01*
X809593D01*
X810593Y90098D01*
Y86100D01*
X809593Y85100D01*
X807594D01*
X806594Y86100D01*
Y90098D01*
X812593D02*
X813592Y91098D01*
X815592D01*
X816591Y90098D01*
Y86100D01*
X815592Y85100D01*
X813592D01*
X812593Y86100D01*
Y90098D01*
X818591Y85100D02*
Y89099D01*
X819590D01*
X820590Y88099D01*
Y85100D01*
Y88099D01*
X821590Y89099D01*
X822589Y88099D01*
Y85100D01*
X824589D02*
X826588D01*
X825588D01*
Y89099D01*
X824589D01*
X829587Y85100D02*
X831586D01*
X830587D01*
Y91098D01*
X829587D01*
X842583Y85100D02*
X840584Y87099D01*
Y89099D01*
X842583Y91098D01*
X845582Y85100D02*
X847581D01*
X846582D01*
Y91098D01*
X845582Y90098D01*
X850580Y85100D02*
Y86100D01*
X851580D01*
Y85100D01*
X850580D01*
X855579Y90098D02*
X856578Y91098D01*
X858578D01*
X859577Y90098D01*
Y89099D01*
X858578Y88099D01*
X857578D01*
X858578D01*
X859577Y87099D01*
Y86100D01*
X858578Y85100D01*
X856578D01*
X855579Y86100D01*
X861577D02*
X862576Y85100D01*
X864576D01*
X865575Y86100D01*
Y90098D01*
X864576Y91098D01*
X862576D01*
X861577Y90098D01*
Y89099D01*
X862576Y88099D01*
X865575D01*
X867575Y91098D02*
X871574D01*
Y90098D01*
X867575Y86100D01*
Y85100D01*
X873573D02*
Y89099D01*
X874572D01*
X875572Y88099D01*
Y85100D01*
Y88099D01*
X876572Y89099D01*
X877571Y88099D01*
Y85100D01*
X879571D02*
Y89099D01*
X880571D01*
X881570Y88099D01*
Y85100D01*
Y88099D01*
X882570Y89099D01*
X883570Y88099D01*
Y85100D01*
X885569D02*
X887568Y87099D01*
Y89099D01*
X885569Y91098D01*
X789600Y70100D02*
X791599D01*
X790600D01*
Y76098D01*
X789600Y75098D01*
X794598Y70100D02*
X796598D01*
X795598D01*
Y76098D01*
X794598Y75098D01*
X803596Y76098D02*
X799597D01*
Y73099D01*
X801596Y74099D01*
X802596D01*
X803596Y73099D01*
Y71100D01*
X802596Y70100D01*
X800596D01*
X799597Y71100D01*
X805595Y70100D02*
Y71100D01*
X806594D01*
Y70100D01*
X805595D01*
X810593Y75098D02*
X811593Y76098D01*
X813592D01*
X814592Y75098D01*
Y71100D01*
X813592Y70100D01*
X811593D01*
X810593Y71100D01*
Y75098D01*
X816591D02*
X817591Y76098D01*
X819590D01*
X820590Y75098D01*
Y71100D01*
X819590Y70100D01*
X817591D01*
X816591Y71100D01*
Y75098D01*
X822589Y70100D02*
Y74099D01*
X823589D01*
X824589Y73099D01*
Y70100D01*
Y73099D01*
X825588Y74099D01*
X826588Y73099D01*
Y70100D01*
X828587D02*
X830587D01*
X829587D01*
Y74099D01*
X828587D01*
X833586Y70100D02*
X835585D01*
X834585D01*
Y76098D01*
X833586D01*
X846582Y70100D02*
X844582Y72099D01*
Y74099D01*
X846582Y76098D01*
X853579Y70100D02*
X849581D01*
X853579Y74099D01*
Y75098D01*
X852580Y76098D01*
X850580D01*
X849581Y75098D01*
X855579Y70100D02*
Y71100D01*
X856578D01*
Y70100D01*
X855579D01*
X860577Y71100D02*
X861577Y70100D01*
X863576D01*
X864576Y71100D01*
Y75098D01*
X863576Y76098D01*
X861577D01*
X860577Y75098D01*
Y74099D01*
X861577Y73099D01*
X864576D01*
X870574Y70100D02*
X866575D01*
X870574Y74099D01*
Y75098D01*
X869574Y76098D01*
X867575D01*
X866575Y75098D01*
X872573Y70100D02*
X874572D01*
X873573D01*
Y76098D01*
X872573Y75098D01*
X877571Y70100D02*
Y74099D01*
X878571D01*
X879571Y73099D01*
Y70100D01*
Y73099D01*
X880571Y74099D01*
X881570Y73099D01*
Y70100D01*
X883570D02*
Y74099D01*
X884569D01*
X885569Y73099D01*
Y70100D01*
Y73099D01*
X886569Y74099D01*
X887568Y73099D01*
Y70100D01*
X889568D02*
X891567Y72099D01*
Y74099D01*
X889568Y76098D01*
X789600Y55100D02*
X791599D01*
X790600D01*
Y61098D01*
X789600Y60098D01*
X794598D02*
X795598Y61098D01*
X797597D01*
X798597Y60098D01*
Y59099D01*
X797597Y58099D01*
X796598D01*
X797597D01*
X798597Y57099D01*
Y56100D01*
X797597Y55100D01*
X795598D01*
X794598Y56100D01*
X804595Y61098D02*
X802596Y60098D01*
X800596Y58099D01*
Y56100D01*
X801596Y55100D01*
X803596D01*
X804595Y56100D01*
Y57099D01*
X803596Y58099D01*
X800596D01*
X806594Y55100D02*
Y56100D01*
X807594D01*
Y55100D01*
X806594D01*
X811593Y60098D02*
X812593Y61098D01*
X814592D01*
X815592Y60098D01*
Y56100D01*
X814592Y55100D01*
X812593D01*
X811593Y56100D01*
Y60098D01*
X817591D02*
X818591Y61098D01*
X820590D01*
X821590Y60098D01*
Y56100D01*
X820590Y55100D01*
X818591D01*
X817591Y56100D01*
Y60098D01*
X823589Y55100D02*
Y59099D01*
X824589D01*
X825588Y58099D01*
Y55100D01*
Y58099D01*
X826588Y59099D01*
X827588Y58099D01*
Y55100D01*
X829587D02*
X831586D01*
X830587D01*
Y59099D01*
X829587D01*
X834585Y55100D02*
X836585D01*
X835585D01*
Y61098D01*
X834585D01*
X847581Y55100D02*
X845582Y57099D01*
Y59099D01*
X847581Y61098D01*
X850580Y60098D02*
X851580Y61098D01*
X853579D01*
X854579Y60098D01*
Y59099D01*
X853579Y58099D01*
X852580D01*
X853579D01*
X854579Y57099D01*
Y56100D01*
X853579Y55100D01*
X851580D01*
X850580Y56100D01*
X856578Y55100D02*
Y56100D01*
X857578D01*
Y55100D01*
X856578D01*
X864576D02*
Y61098D01*
X861577Y58099D01*
X865575D01*
X871574Y61098D02*
X867575D01*
Y58099D01*
X869574Y59099D01*
X870574D01*
X871574Y58099D01*
Y56100D01*
X870574Y55100D01*
X868574D01*
X867575Y56100D01*
X876572Y55100D02*
Y61098D01*
X873573Y58099D01*
X877571D01*
X879571Y55100D02*
Y59099D01*
X880571D01*
X881570Y58099D01*
Y55100D01*
Y58099D01*
X882570Y59099D01*
X883570Y58099D01*
Y55100D01*
X885569D02*
Y59099D01*
X886569D01*
X887568Y58099D01*
Y55100D01*
Y58099D01*
X888568Y59099D01*
X889568Y58099D01*
Y55100D01*
X891567D02*
X893566Y57099D01*
Y59099D01*
X891567Y61098D01*
X792599Y40100D02*
Y46098D01*
X789600Y43099D01*
X793599D01*
X795598Y45098D02*
X796598Y46098D01*
X798597D01*
X799597Y45098D01*
Y41100D01*
X798597Y40100D01*
X796598D01*
X795598Y41100D01*
Y45098D01*
X801596Y40100D02*
Y41100D01*
X802596D01*
Y40100D01*
X801596D01*
X806594Y45098D02*
X807594Y46098D01*
X809593D01*
X810593Y45098D01*
Y41100D01*
X809593Y40100D01*
X807594D01*
X806594Y41100D01*
Y45098D01*
X812593D02*
X813592Y46098D01*
X815592D01*
X816591Y45098D01*
Y41100D01*
X815592Y40100D01*
X813592D01*
X812593Y41100D01*
Y45098D01*
X818591Y40100D02*
Y44099D01*
X819590D01*
X820590Y43099D01*
Y40100D01*
Y43099D01*
X821590Y44099D01*
X822589Y43099D01*
Y40100D01*
X824589D02*
X826588D01*
X825588D01*
Y44099D01*
X824589D01*
X829587Y40100D02*
X831586D01*
X830587D01*
Y46098D01*
X829587D01*
X842583Y40100D02*
X840584Y42099D01*
Y44099D01*
X842583Y46098D01*
X845582Y40100D02*
X847581D01*
X846582D01*
Y46098D01*
X845582Y45098D01*
X850580Y40100D02*
Y41100D01*
X851580D01*
Y40100D01*
X850580D01*
X855579Y45098D02*
X856578Y46098D01*
X858578D01*
X859577Y45098D01*
Y41100D01*
X858578Y40100D01*
X856578D01*
X855579Y41100D01*
Y45098D01*
X861577Y40100D02*
X863576D01*
X862576D01*
Y46098D01*
X861577Y45098D01*
X870574Y46098D02*
X868574Y45098D01*
X866575Y43099D01*
Y41100D01*
X867575Y40100D01*
X869574D01*
X870574Y41100D01*
Y42099D01*
X869574Y43099D01*
X866575D01*
X872573Y40100D02*
Y44099D01*
X873573D01*
X874572Y43099D01*
Y40100D01*
Y43099D01*
X875572Y44099D01*
X876572Y43099D01*
Y40100D01*
X878571D02*
Y44099D01*
X879571D01*
X880571Y43099D01*
Y40100D01*
Y43099D01*
X881570Y44099D01*
X882570Y43099D01*
Y40100D01*
X884569D02*
X886569Y42099D01*
Y44099D01*
X884569Y46098D01*
X793599Y25100D02*
X789600D01*
X793599Y29099D01*
Y30098D01*
X792599Y31098D01*
X790600D01*
X789600Y30098D01*
X795598D02*
X796598Y31098D01*
X798597D01*
X799597Y30098D01*
Y29099D01*
X798597Y28099D01*
X799597Y27099D01*
Y26100D01*
X798597Y25100D01*
X796598D01*
X795598Y26100D01*
Y27099D01*
X796598Y28099D01*
X795598Y29099D01*
Y30098D01*
X796598Y28099D02*
X798597D01*
X801596Y25100D02*
Y26100D01*
X802596D01*
Y25100D01*
X801596D01*
X806594Y30098D02*
X807594Y31098D01*
X809593D01*
X810593Y30098D01*
Y26100D01*
X809593Y25100D01*
X807594D01*
X806594Y26100D01*
Y30098D01*
X812593D02*
X813592Y31098D01*
X815592D01*
X816591Y30098D01*
Y26100D01*
X815592Y25100D01*
X813592D01*
X812593Y26100D01*
Y30098D01*
X818591Y25100D02*
Y29099D01*
X819590D01*
X820590Y28099D01*
Y25100D01*
Y28099D01*
X821590Y29099D01*
X822589Y28099D01*
Y25100D01*
X824589D02*
X826588D01*
X825588D01*
Y29099D01*
X824589D01*
X829587Y25100D02*
X831586D01*
X830587D01*
Y31098D01*
X829587D01*
X842583Y25100D02*
X840584Y27099D01*
Y29099D01*
X842583Y31098D01*
X845582Y30098D02*
X846582Y31098D01*
X848581D01*
X849581Y30098D01*
Y26100D01*
X848581Y25100D01*
X846582D01*
X845582Y26100D01*
Y30098D01*
X851580Y25100D02*
Y26100D01*
X852580D01*
Y25100D01*
X851580D01*
X856578Y31098D02*
X860577D01*
Y30098D01*
X856578Y26100D01*
Y25100D01*
X862576D02*
X864576D01*
X863576D01*
Y31098D01*
X862576Y30098D01*
X867575Y25100D02*
X869574D01*
X868574D01*
Y31098D01*
X867575Y30098D01*
X872573Y25100D02*
Y29099D01*
X873573D01*
X874572Y28099D01*
Y25100D01*
Y28099D01*
X875572Y29099D01*
X876572Y28099D01*
Y25100D01*
X878571D02*
Y29099D01*
X879571D01*
X880571Y28099D01*
Y25100D01*
Y28099D01*
X881570Y29099D01*
X882570Y28099D01*
Y25100D01*
X884569D02*
X886569Y27099D01*
Y29099D01*
X884569Y31098D01*
X733615Y10100D02*
X729616D01*
X733615Y14099D01*
Y15098D01*
X732615Y16098D01*
X730616D01*
X729616Y15098D01*
X735614Y16098D02*
X739613D01*
Y15098D01*
X735614Y11100D01*
Y10100D01*
X741612Y15098D02*
X742612Y16098D01*
X744611D01*
X745611Y15098D01*
Y14099D01*
X744611Y13099D01*
X743611D01*
X744611D01*
X745611Y12099D01*
Y11100D01*
X744611Y10100D01*
X742612D01*
X741612Y11100D01*
X753608Y16098D02*
X757607D01*
X755607D01*
Y10100D01*
X760606D02*
X762605D01*
X763605Y11100D01*
Y13099D01*
X762605Y14099D01*
X760606D01*
X759606Y13099D01*
Y11100D01*
X760606Y10100D01*
X766604Y15098D02*
Y14099D01*
X765604D01*
X767604D01*
X766604D01*
Y11100D01*
X767604Y10100D01*
X771602Y14099D02*
X773602D01*
X774601Y13099D01*
Y10100D01*
X771602D01*
X770603Y11100D01*
X771602Y12099D01*
X774601D01*
X776601Y10100D02*
X778600D01*
X777600D01*
Y16098D01*
X776601D01*
X733615Y100100D02*
X729616D01*
X733615Y104099D01*
Y105098D01*
X732615Y106098D01*
X730616D01*
X729616Y105098D01*
X732615Y85100D02*
Y91098D01*
X729616Y88099D01*
X733615D01*
X732615Y70100D02*
Y76098D01*
X729616Y73099D01*
X733615D01*
X732615Y55100D02*
Y61098D01*
X729616Y58099D01*
X733615D01*
X729616Y40100D02*
X731615D01*
X730616D01*
Y46098D01*
X729616Y45098D01*
X734614D02*
X735614Y46098D01*
X737613D01*
X738613Y45098D01*
Y41100D01*
X737613Y40100D01*
X735614D01*
X734614Y41100D01*
Y45098D01*
X744611Y46098D02*
X742612Y45098D01*
X740612Y43099D01*
Y41100D01*
X741612Y40100D01*
X743611D01*
X744611Y41100D01*
Y42099D01*
X743611Y43099D01*
X740612D01*
X729616Y25100D02*
X731615D01*
X730616D01*
Y31098D01*
X729616Y30098D01*
X738613Y31098D02*
X734614D01*
Y28099D01*
X736614Y29099D01*
X737613D01*
X738613Y28099D01*
Y26100D01*
X737613Y25100D01*
X735614D01*
X734614Y26100D01*
X740612Y30098D02*
X741612Y31098D01*
X743611D01*
X744611Y30098D01*
Y29099D01*
X743611Y28099D01*
X742612D01*
X743611D01*
X744611Y27099D01*
Y26100D01*
X743611Y25100D01*
X741612D01*
X740612Y26100D01*
X677479Y543144D02*
Y537146D01*
X681477D01*
X684476Y541145D02*
X686476D01*
X687475Y540145D01*
Y537146D01*
X684476D01*
X683477Y538146D01*
X684476Y539145D01*
X687475D01*
X689475Y541145D02*
Y538146D01*
X690474Y537146D01*
X693473D01*
Y536146D01*
X692474Y535147D01*
X691474D01*
X693473Y537146D02*
Y541145D01*
X698472Y537146D02*
X696473D01*
X695473Y538146D01*
Y540145D01*
X696473Y541145D01*
X698472D01*
X699472Y540145D01*
Y539145D01*
X695473D01*
X701471Y541145D02*
Y537146D01*
Y539145D01*
X702471Y540145D01*
X703470Y541145D01*
X704470D01*
X681477Y477146D02*
X677479D01*
X681477Y481145D01*
Y482144D01*
X680478Y483144D01*
X678478D01*
X677479Y482144D01*
Y501146D02*
X679478D01*
X678478D01*
Y507144D01*
X677479Y506144D01*
X718470Y537146D02*
Y543144D01*
X722469Y537146D01*
Y543144D01*
X725468Y541145D02*
X727467D01*
X728467Y540145D01*
Y537146D01*
X725468D01*
X724468Y538146D01*
X725468Y539145D01*
X728467D01*
X730466Y537146D02*
Y541145D01*
X731466D01*
X732465Y540145D01*
Y537146D01*
Y540145D01*
X733465Y541145D01*
X734465Y540145D01*
Y537146D01*
X739463D02*
X737464D01*
X736464Y538146D01*
Y540145D01*
X737464Y541145D01*
X739463D01*
X740463Y540145D01*
Y539145D01*
X736464D01*
X718470Y459144D02*
Y453146D01*
X721469D01*
X722469Y454146D01*
Y455145D01*
X721469Y456145D01*
X718470D01*
X721469D01*
X722469Y457145D01*
Y458144D01*
X721469Y459144D01*
X718470D01*
X725468Y453146D02*
X727467D01*
X728467Y454146D01*
Y456145D01*
X727467Y457145D01*
X725468D01*
X724468Y456145D01*
Y454146D01*
X725468Y453146D01*
X731466Y458144D02*
Y457145D01*
X730466D01*
X732465D01*
X731466D01*
Y454146D01*
X732465Y453146D01*
X736464Y458144D02*
Y457145D01*
X735464D01*
X737464D01*
X736464D01*
Y454146D01*
X737464Y453146D01*
X741463D02*
X743462D01*
X744461Y454146D01*
Y456145D01*
X743462Y457145D01*
X741463D01*
X740463Y456145D01*
Y454146D01*
X741463Y453146D01*
X746461D02*
Y457145D01*
X747461D01*
X748460Y456145D01*
Y453146D01*
Y456145D01*
X749460Y457145D01*
X750460Y456145D01*
Y453146D01*
X761456Y459144D02*
X759457D01*
X758457Y458144D01*
Y454146D01*
X759457Y453146D01*
X761456D01*
X762456Y454146D01*
Y458144D01*
X761456Y459144D01*
X764455Y457145D02*
X766454Y453146D01*
X768454Y457145D01*
X773452Y453146D02*
X771453D01*
X770453Y454146D01*
Y456145D01*
X771453Y457145D01*
X773452D01*
X774452Y456145D01*
Y455145D01*
X770453D01*
X776451Y457145D02*
Y453146D01*
Y455145D01*
X777451Y456145D01*
X778450Y457145D01*
X779450D01*
X782449Y453146D02*
X784449D01*
X783449D01*
Y459144D01*
X782449D01*
X788447Y457145D02*
X790447D01*
X791446Y456145D01*
Y453146D01*
X788447D01*
X787448Y454146D01*
X788447Y455145D01*
X791446D01*
X793446Y457145D02*
Y454146D01*
X794445Y453146D01*
X797444D01*
Y452146D01*
X796445Y451147D01*
X795445D01*
X797444Y453146D02*
Y457145D01*
X718470Y471144D02*
Y465146D01*
X721469D01*
X722469Y466146D01*
Y467145D01*
X721469Y468145D01*
X718470D01*
X721469D01*
X722469Y469145D01*
Y470144D01*
X721469Y471144D01*
X718470D01*
X725468Y465146D02*
X727467D01*
X728467Y466146D01*
Y468145D01*
X727467Y469145D01*
X725468D01*
X724468Y468145D01*
Y466146D01*
X725468Y465146D01*
X731466Y470144D02*
Y469145D01*
X730466D01*
X732465D01*
X731466D01*
Y466146D01*
X732465Y465146D01*
X736464Y470144D02*
Y469145D01*
X735464D01*
X737464D01*
X736464D01*
Y466146D01*
X737464Y465146D01*
X741463D02*
X743462D01*
X744461Y466146D01*
Y468145D01*
X743462Y469145D01*
X741463D01*
X740463Y468145D01*
Y466146D01*
X741463Y465146D01*
X746461D02*
Y469145D01*
X747461D01*
X748460Y468145D01*
Y465146D01*
Y468145D01*
X749460Y469145D01*
X750460Y468145D01*
Y465146D01*
X762456Y470144D02*
X761456Y471144D01*
X759457D01*
X758457Y470144D01*
Y469145D01*
X759457Y468145D01*
X761456D01*
X762456Y467145D01*
Y466146D01*
X761456Y465146D01*
X759457D01*
X758457Y466146D01*
X765455Y465146D02*
X767454D01*
X768454Y466146D01*
Y468145D01*
X767454Y469145D01*
X765455D01*
X764455Y468145D01*
Y466146D01*
X765455Y465146D01*
X770453D02*
X772452D01*
X771453D01*
Y471144D01*
X770453D01*
X779450D02*
Y465146D01*
X776451D01*
X775452Y466146D01*
Y468145D01*
X776451Y469145D01*
X779450D01*
X784449Y465146D02*
X782449D01*
X781450Y466146D01*
Y468145D01*
X782449Y469145D01*
X784449D01*
X785448Y468145D01*
Y467145D01*
X781450D01*
X787448Y469145D02*
Y465146D01*
Y467145D01*
X788447Y468145D01*
X789447Y469145D01*
X790447D01*
X718470Y483144D02*
Y477146D01*
X721469D01*
X722469Y478146D01*
Y479145D01*
X721469Y480145D01*
X718470D01*
X721469D01*
X722469Y481145D01*
Y482144D01*
X721469Y483144D01*
X718470D01*
X725468Y477146D02*
X727467D01*
X728467Y478146D01*
Y480145D01*
X727467Y481145D01*
X725468D01*
X724468Y480145D01*
Y478146D01*
X725468Y477146D01*
X731466Y482144D02*
Y481145D01*
X730466D01*
X732465D01*
X731466D01*
Y478146D01*
X732465Y477146D01*
X736464Y482144D02*
Y481145D01*
X735464D01*
X737464D01*
X736464D01*
Y478146D01*
X737464Y477146D01*
X741463D02*
X743462D01*
X744461Y478146D01*
Y480145D01*
X743462Y481145D01*
X741463D01*
X740463Y480145D01*
Y478146D01*
X741463Y477146D01*
X746461D02*
Y481145D01*
X747461D01*
X748460Y480145D01*
Y477146D01*
Y480145D01*
X749460Y481145D01*
X750460Y480145D01*
Y477146D01*
X758457Y483144D02*
Y477146D01*
X762456D01*
X765455Y481145D02*
X767454D01*
X768454Y480145D01*
Y477146D01*
X765455D01*
X764455Y478146D01*
X765455Y479145D01*
X768454D01*
X770453Y481145D02*
Y478146D01*
X771453Y477146D01*
X774452D01*
Y476146D01*
X773452Y475146D01*
X772452D01*
X774452Y477146D02*
Y481145D01*
X779450Y477146D02*
X777451D01*
X776451Y478146D01*
Y480145D01*
X777451Y481145D01*
X779450D01*
X780450Y480145D01*
Y479145D01*
X776451D01*
X782449Y481145D02*
Y477146D01*
Y479145D01*
X783449Y480145D01*
X784449Y481145D01*
X785448D01*
X718470Y495144D02*
Y489146D01*
X721469D01*
X722469Y490146D01*
Y494144D01*
X721469Y495144D01*
X718470D01*
X724468Y489146D02*
X726467D01*
X725468D01*
Y493145D01*
X724468D01*
X732465Y489146D02*
X730466D01*
X729466Y490146D01*
Y492145D01*
X730466Y493145D01*
X732465D01*
X733465Y492145D01*
Y491145D01*
X729466D01*
X735464Y489146D02*
X737464D01*
X736464D01*
Y495144D01*
X735464D01*
X743462Y489146D02*
X741463D01*
X740463Y490146D01*
Y492145D01*
X741463Y493145D01*
X743462D01*
X744461Y492145D01*
Y491145D01*
X740463D01*
X750460Y493145D02*
X747461D01*
X746461Y492145D01*
Y490146D01*
X747461Y489146D01*
X750460D01*
X753459Y494144D02*
Y493145D01*
X752459D01*
X754458D01*
X753459D01*
Y490146D01*
X754458Y489146D01*
X757457Y493145D02*
Y489146D01*
Y491145D01*
X758457Y492145D01*
X759457Y493145D01*
X760456D01*
X763455Y489146D02*
X765455D01*
X764455D01*
Y493145D01*
X763455D01*
X772452D02*
X769453D01*
X768454Y492145D01*
Y490146D01*
X769453Y489146D01*
X772452D01*
X780450D02*
X782449D01*
X781450D01*
Y495144D01*
X780450Y494144D01*
X718470Y507144D02*
X722469D01*
X720469D01*
Y501146D01*
X725468D02*
X727467D01*
X728467Y502146D01*
Y504145D01*
X727467Y505145D01*
X725468D01*
X724468Y504145D01*
Y502146D01*
X725468Y501146D01*
X730466Y499147D02*
Y505145D01*
X733465D01*
X734465Y504145D01*
Y502146D01*
X733465Y501146D01*
X730466D01*
X742462Y507144D02*
Y501146D01*
X746461D01*
X749460Y505145D02*
X751459D01*
X752459Y504145D01*
Y501146D01*
X749460D01*
X748460Y502146D01*
X749460Y503145D01*
X752459D01*
X754458Y505145D02*
Y502146D01*
X755458Y501146D01*
X758457D01*
Y500146D01*
X757457Y499147D01*
X756458D01*
X758457Y501146D02*
Y505145D01*
X763455Y501146D02*
X761456D01*
X760456Y502146D01*
Y504145D01*
X761456Y505145D01*
X763455D01*
X764455Y504145D01*
Y503145D01*
X760456D01*
X766454Y505145D02*
Y501146D01*
Y503145D01*
X767454Y504145D01*
X768454Y505145D01*
X769453D01*
X718470Y519144D02*
X722469D01*
X720469D01*
Y513146D01*
X725468D02*
X727467D01*
X728467Y514146D01*
Y516145D01*
X727467Y517145D01*
X725468D01*
X724468Y516145D01*
Y514146D01*
X725468Y513146D01*
X730466Y511146D02*
Y517145D01*
X733465D01*
X734465Y516145D01*
Y514146D01*
X733465Y513146D01*
X730466D01*
X746461Y518144D02*
X745461Y519144D01*
X743462D01*
X742462Y518144D01*
Y517145D01*
X743462Y516145D01*
X745461D01*
X746461Y515145D01*
Y514146D01*
X745461Y513146D01*
X743462D01*
X742462Y514146D01*
X749460Y513146D02*
X751459D01*
X752459Y514146D01*
Y516145D01*
X751459Y517145D01*
X749460D01*
X748460Y516145D01*
Y514146D01*
X749460Y513146D01*
X754458D02*
X756458D01*
X755458D01*
Y519144D01*
X754458D01*
X763455D02*
Y513146D01*
X760456D01*
X759457Y514146D01*
Y516145D01*
X760456Y517145D01*
X763455D01*
X768454Y513146D02*
X766454D01*
X765455Y514146D01*
Y516145D01*
X766454Y517145D01*
X768454D01*
X769453Y516145D01*
Y515145D01*
X765455D01*
X771453Y517145D02*
Y513146D01*
Y515145D01*
X772452Y516145D01*
X773452Y517145D01*
X774452D01*
X718470Y531144D02*
X722469D01*
X720469D01*
Y525146D01*
X725468D02*
X727467D01*
X728467Y526146D01*
Y528145D01*
X727467Y529145D01*
X725468D01*
X724468Y528145D01*
Y526146D01*
X725468Y525146D01*
X730466Y523146D02*
Y529145D01*
X733465D01*
X734465Y528145D01*
Y526146D01*
X733465Y525146D01*
X730466D01*
X745461Y531144D02*
X743462D01*
X742462Y530144D01*
Y526146D01*
X743462Y525146D01*
X745461D01*
X746461Y526146D01*
Y530144D01*
X745461Y531144D01*
X748460Y529145D02*
X750460Y525146D01*
X752459Y529145D01*
X757457Y525146D02*
X755458D01*
X754458Y526146D01*
Y528145D01*
X755458Y529145D01*
X757457D01*
X758457Y528145D01*
Y527145D01*
X754458D01*
X760456Y529145D02*
Y525146D01*
Y527145D01*
X761456Y528145D01*
X762456Y529145D01*
X763455D01*
X766454Y525146D02*
X768454D01*
X767454D01*
Y531144D01*
X766454D01*
X772452Y529145D02*
X774452D01*
X775452Y528145D01*
Y525146D01*
X772452D01*
X771453Y526146D01*
X772452Y527145D01*
X775452D01*
X777451Y529145D02*
Y526146D01*
X778450Y525146D01*
X781450D01*
Y524146D01*
X780450Y523146D01*
X779450D01*
X781450Y525146D02*
Y529145D01*
X811444Y537146D02*
Y543144D01*
X813444Y541145D01*
X815443Y543144D01*
Y537146D01*
X818442Y541145D02*
X820442D01*
X821441Y540145D01*
Y537146D01*
X818442D01*
X817442Y538146D01*
X818442Y539145D01*
X821441D01*
X824440Y542144D02*
Y541145D01*
X823440D01*
X825440D01*
X824440D01*
Y538146D01*
X825440Y537146D01*
X831438D02*
X829439D01*
X828439Y538146D01*
Y540145D01*
X829439Y541145D01*
X831438D01*
X832438Y540145D01*
Y539145D01*
X828439D01*
X834437Y541145D02*
Y537146D01*
Y539145D01*
X835437Y540145D01*
X836436Y541145D01*
X837436D01*
X840435Y537146D02*
X842434D01*
X841435D01*
Y541145D01*
X840435D01*
X846433D02*
X848432D01*
X849432Y540145D01*
Y537146D01*
X846433D01*
X845433Y538146D01*
X846433Y539145D01*
X849432D01*
X851431Y537146D02*
X853431D01*
X852431D01*
Y543144D01*
X851431D01*
X815443Y470144D02*
X814443Y471144D01*
X812444D01*
X811444Y470144D01*
Y469145D01*
X812444Y468145D01*
X814443D01*
X815443Y467145D01*
Y466146D01*
X814443Y465146D01*
X812444D01*
X811444Y466146D01*
X818442Y465146D02*
X820442D01*
X821441Y466146D01*
Y468145D01*
X820442Y469145D01*
X818442D01*
X817442Y468145D01*
Y466146D01*
X818442Y465146D01*
X823440D02*
X825440D01*
X824440D01*
Y471144D01*
X823440D01*
X832438D02*
Y465146D01*
X829439D01*
X828439Y466146D01*
Y468145D01*
X829439Y469145D01*
X832438D01*
X837436Y465146D02*
X835437D01*
X834437Y466146D01*
Y468145D01*
X835437Y469145D01*
X837436D01*
X838436Y468145D01*
Y467145D01*
X834437D01*
X840435Y469145D02*
Y465146D01*
Y467145D01*
X841435Y468145D01*
X842434Y469145D01*
X843434D01*
X852431Y465146D02*
Y471144D01*
X855430D01*
X856430Y470144D01*
Y468145D01*
X855430Y467145D01*
X852431D01*
X854430D02*
X856430Y465146D01*
X861428D02*
X859429D01*
X858429Y466146D01*
Y468145D01*
X859429Y469145D01*
X861428D01*
X862428Y468145D01*
Y467145D01*
X858429D01*
X864427Y465146D02*
X867426D01*
X868426Y466146D01*
X867426Y467145D01*
X865427D01*
X864427Y468145D01*
X865427Y469145D01*
X868426D01*
X870425Y465146D02*
X872425D01*
X871425D01*
Y469145D01*
X870425D01*
X875424Y465146D02*
X878423D01*
X879422Y466146D01*
X878423Y467145D01*
X876423D01*
X875424Y468145D01*
X876423Y469145D01*
X879422D01*
X882421Y470144D02*
Y469145D01*
X881422D01*
X883421D01*
X882421D01*
Y466146D01*
X883421Y465146D01*
X815443Y495144D02*
X811444D01*
Y492145D01*
X813444D01*
X811444D01*
Y489146D01*
X817442D02*
Y495144D01*
X820442D01*
X821441Y494144D01*
Y492145D01*
X820442Y491145D01*
X817442D01*
X819442D02*
X821441Y489146D01*
X823440Y492145D02*
X827439D01*
X832438Y489146D02*
Y495144D01*
X829439Y492145D01*
X833437D01*
X815443Y518144D02*
X814443Y519144D01*
X812444D01*
X811444Y518144D01*
Y517145D01*
X812444Y516145D01*
X814443D01*
X815443Y515145D01*
Y514146D01*
X814443Y513146D01*
X812444D01*
X811444Y514146D01*
X818442Y513146D02*
X820442D01*
X821441Y514146D01*
Y516145D01*
X820442Y517145D01*
X818442D01*
X817442Y516145D01*
Y514146D01*
X818442Y513146D01*
X823440D02*
X825440D01*
X824440D01*
Y519144D01*
X823440D01*
X832438D02*
Y513146D01*
X829439D01*
X828439Y514146D01*
Y516145D01*
X829439Y517145D01*
X832438D01*
X837436Y513146D02*
X835437D01*
X834437Y514146D01*
Y516145D01*
X835437Y517145D01*
X837436D01*
X838436Y516145D01*
Y515145D01*
X834437D01*
X840435Y517145D02*
Y513146D01*
Y515145D01*
X841435Y516145D01*
X842434Y517145D01*
X843434D01*
X852431Y513146D02*
Y519144D01*
X855430D01*
X856430Y518144D01*
Y516145D01*
X855430Y515145D01*
X852431D01*
X854430D02*
X856430Y513146D01*
X861428D02*
X859429D01*
X858429Y514146D01*
Y516145D01*
X859429Y517145D01*
X861428D01*
X862428Y516145D01*
Y515145D01*
X858429D01*
X864427Y513146D02*
X867426D01*
X868426Y514146D01*
X867426Y515145D01*
X865427D01*
X864427Y516145D01*
X865427Y517145D01*
X868426D01*
X870425Y513146D02*
X872425D01*
X871425D01*
Y517145D01*
X870425D01*
X875424Y513146D02*
X878423D01*
X879422Y514146D01*
X878423Y515145D01*
X876423D01*
X875424Y516145D01*
X876423Y517145D01*
X879422D01*
X882421Y518144D02*
Y517145D01*
X881422D01*
X883421D01*
X882421D01*
Y514146D01*
X883421Y513146D01*
X897421Y543144D02*
X901420D01*
X899420D01*
Y537146D01*
X903419Y543144D02*
Y537146D01*
Y540145D01*
X904419Y541145D01*
X906418D01*
X907418Y540145D01*
Y537146D01*
X909417D02*
X911417D01*
X910417D01*
Y541145D01*
X909417D01*
X918414D02*
X915415D01*
X914416Y540145D01*
Y538146D01*
X915415Y537146D01*
X918414D01*
X920414D02*
Y543144D01*
Y539145D02*
X923413Y541145D01*
X920414Y539145D02*
X923413Y537146D01*
X926412D02*
Y541145D01*
X929411D01*
X930410Y540145D01*
Y537146D01*
X935409D02*
X933409D01*
X932410Y538146D01*
Y540145D01*
X933409Y541145D01*
X935409D01*
X936409Y540145D01*
Y539145D01*
X932410D01*
X938408Y537146D02*
X941407D01*
X942406Y538146D01*
X941407Y539145D01*
X939408D01*
X938408Y540145D01*
X939408Y541145D01*
X942406D01*
X944406Y537146D02*
X947405D01*
X948405Y538146D01*
X947405Y539145D01*
X945406D01*
X944406Y540145D01*
X945406Y541145D01*
X948405D01*
X897421Y470144D02*
X898421Y471144D01*
X900420D01*
X901420Y470144D01*
Y466146D01*
X900420Y465146D01*
X898421D01*
X897421Y466146D01*
Y470144D01*
X903419Y465146D02*
Y466146D01*
X904419D01*
Y465146D01*
X903419D01*
X911417D02*
Y471144D01*
X908418Y468145D01*
X912416D01*
X914416Y470144D02*
X915415Y471144D01*
X917415D01*
X918414Y470144D01*
Y466146D01*
X917415Y465146D01*
X915415D01*
X914416Y466146D01*
Y470144D01*
X920414Y465146D02*
Y469145D01*
X921413D01*
X922413Y468145D01*
Y465146D01*
Y468145D01*
X923413Y469145D01*
X924412Y468145D01*
Y465146D01*
X926412D02*
X928411D01*
X927411D01*
Y469145D01*
X926412D01*
X931410Y465146D02*
X933409D01*
X932410D01*
Y471144D01*
X931410D01*
X897421Y477146D02*
X899420D01*
X898421D01*
Y483144D01*
X897421Y482144D01*
X902419Y477146D02*
Y478146D01*
X903419D01*
Y477146D01*
X902419D01*
X910417D02*
Y483144D01*
X907418Y480145D01*
X911417D01*
X913416Y482144D02*
X914416Y483144D01*
X916415D01*
X917415Y482144D01*
Y478146D01*
X916415Y477146D01*
X914416D01*
X913416Y478146D01*
Y482144D01*
X919414Y477146D02*
Y481145D01*
X920414D01*
X921413Y480145D01*
Y477146D01*
Y480145D01*
X922413Y481145D01*
X923413Y480145D01*
Y477146D01*
X925412D02*
X927411D01*
X926412D01*
Y481145D01*
X925412D01*
X930410Y477146D02*
X932410D01*
X931410D01*
Y483144D01*
X930410D01*
X901420Y495144D02*
X897421D01*
Y492145D01*
X899420Y493145D01*
X900420D01*
X901420Y492145D01*
Y490146D01*
X900420Y489146D01*
X898421D01*
X897421Y490146D01*
X903419Y494144D02*
X904419Y495144D01*
X906418D01*
X907418Y494144D01*
Y493145D01*
X906418Y492145D01*
X907418Y491145D01*
Y490146D01*
X906418Y489146D01*
X904419D01*
X903419Y490146D01*
Y491145D01*
X904419Y492145D01*
X903419Y493145D01*
Y494144D01*
X904419Y492145D02*
X906418D01*
X909417Y489146D02*
Y490146D01*
X910417D01*
Y489146D01*
X909417D01*
X917415D02*
Y495144D01*
X914416Y492145D01*
X918414D01*
X920414Y494144D02*
X921413Y495144D01*
X923413D01*
X924412Y494144D01*
Y490146D01*
X923413Y489146D01*
X921413D01*
X920414Y490146D01*
Y494144D01*
X926412Y489146D02*
Y493145D01*
X927411D01*
X928411Y492145D01*
Y489146D01*
Y492145D01*
X929411Y493145D01*
X930410Y492145D01*
Y489146D01*
X932410D02*
X934409D01*
X933409D01*
Y493145D01*
X932410D01*
X937408Y489146D02*
X939408D01*
X938408D01*
Y495144D01*
X937408D01*
X897421Y501146D02*
X899420D01*
X898421D01*
Y507144D01*
X897421Y506144D01*
X902419Y501146D02*
Y502146D01*
X903419D01*
Y501146D01*
X902419D01*
X910417D02*
Y507144D01*
X907418Y504145D01*
X911417D01*
X913416Y506144D02*
X914416Y507144D01*
X916415D01*
X917415Y506144D01*
Y502146D01*
X916415Y501146D01*
X914416D01*
X913416Y502146D01*
Y506144D01*
X919414Y501146D02*
Y505145D01*
X920414D01*
X921413Y504145D01*
Y501146D01*
Y504145D01*
X922413Y505145D01*
X923413Y504145D01*
Y501146D01*
X925412D02*
X927411D01*
X926412D01*
Y505145D01*
X925412D01*
X930410Y501146D02*
X932410D01*
X931410D01*
Y507144D01*
X930410D01*
X897421Y518144D02*
X898421Y519144D01*
X900420D01*
X901420Y518144D01*
Y514146D01*
X900420Y513146D01*
X898421D01*
X897421Y514146D01*
Y518144D01*
X903419Y513146D02*
Y514146D01*
X904419D01*
Y513146D01*
X903419D01*
X911417D02*
Y519144D01*
X908418Y516145D01*
X912416D01*
X914416Y518144D02*
X915415Y519144D01*
X917415D01*
X918414Y518144D01*
Y514146D01*
X917415Y513146D01*
X915415D01*
X914416Y514146D01*
Y518144D01*
X920414Y513146D02*
Y517145D01*
X921413D01*
X922413Y516145D01*
Y513146D01*
Y516145D01*
X923413Y517145D01*
X924412Y516145D01*
Y513146D01*
X926412D02*
X928411D01*
X927411D01*
Y517145D01*
X926412D01*
X931410Y513146D02*
X933409D01*
X932410D01*
Y519144D01*
X931410D01*
X966403Y542144D02*
X965404Y543144D01*
X963404D01*
X962405Y542144D01*
Y538146D01*
X963404Y537146D01*
X965404D01*
X966403Y538146D01*
X969402Y537146D02*
X971402D01*
X972401Y538146D01*
Y540145D01*
X971402Y541145D01*
X969402D01*
X968403Y540145D01*
Y538146D01*
X969402Y537146D01*
X974401D02*
Y541145D01*
X977400D01*
X978399Y540145D01*
Y537146D01*
X980399D02*
X983398D01*
X984398Y538146D01*
X983398Y539145D01*
X981398D01*
X980399Y540145D01*
X981398Y541145D01*
X984398D01*
X987397Y542144D02*
Y541145D01*
X986397D01*
X988396D01*
X987397D01*
Y538146D01*
X988396Y537146D01*
X992395Y541145D02*
X994394D01*
X995394Y540145D01*
Y537146D01*
X992395D01*
X991395Y538146D01*
X992395Y539145D01*
X995394D01*
X997393Y537146D02*
Y541145D01*
X1000392D01*
X1001392Y540145D01*
Y537146D01*
X1004391Y542144D02*
Y541145D01*
X1003391D01*
X1005391D01*
X1004391D01*
Y538146D01*
X1005391Y537146D01*
X962405Y470144D02*
X963404Y471144D01*
X965404D01*
X966403Y470144D01*
Y469145D01*
X965404Y468145D01*
X964404D01*
X965404D01*
X966403Y467145D01*
Y466146D01*
X965404Y465146D01*
X963404D01*
X962405Y466146D01*
X968403Y465146D02*
Y466146D01*
X969402D01*
Y465146D01*
X968403D01*
X977400Y471144D02*
X973401D01*
Y468145D01*
X975400Y469145D01*
X976400D01*
X977400Y468145D01*
Y466146D01*
X976400Y465146D01*
X974401D01*
X973401Y466146D01*
X965404Y489146D02*
Y495144D01*
X962405Y492145D01*
X966403D01*
X968403Y489146D02*
Y490146D01*
X969402D01*
Y489146D01*
X968403D01*
X973401Y494144D02*
X974401Y495144D01*
X976400D01*
X977400Y494144D01*
Y493145D01*
X976400Y492145D01*
X977400Y491145D01*
Y490146D01*
X976400Y489146D01*
X974401D01*
X973401Y490146D01*
Y491145D01*
X974401Y492145D01*
X973401Y493145D01*
Y494144D01*
X974401Y492145D02*
X976400D01*
X962405Y518144D02*
X963404Y519144D01*
X965404D01*
X966403Y518144D01*
Y517145D01*
X965404Y516145D01*
X964404D01*
X965404D01*
X966403Y515145D01*
Y514146D01*
X965404Y513146D01*
X963404D01*
X962405Y514146D01*
X968403Y513146D02*
Y514146D01*
X969402D01*
Y513146D01*
X968403D01*
X977400Y519144D02*
X973401D01*
Y516145D01*
X975400Y517145D01*
X976400D01*
X977400Y516145D01*
Y514146D01*
X976400Y513146D01*
X974401D01*
X973401Y514146D01*
X1019391Y543144D02*
Y537146D01*
X1022390D01*
X1023389Y538146D01*
Y539145D01*
X1022390Y540145D01*
X1019391D01*
X1022390D01*
X1023389Y541145D01*
Y542144D01*
X1022390Y543144D01*
X1019391D01*
X1026388Y537146D02*
X1028388D01*
X1029387Y538146D01*
Y540145D01*
X1028388Y541145D01*
X1026388D01*
X1025389Y540145D01*
Y538146D01*
X1026388Y537146D01*
X1032386Y541145D02*
X1034386D01*
X1035386Y540145D01*
Y537146D01*
X1032386D01*
X1031387Y538146D01*
X1032386Y539145D01*
X1035386D01*
X1037385Y541145D02*
Y537146D01*
Y539145D01*
X1038385Y540145D01*
X1039384Y541145D01*
X1040384D01*
X1047382Y543144D02*
Y537146D01*
X1044383D01*
X1043383Y538146D01*
Y540145D01*
X1044383Y541145D01*
X1047382D01*
X1055379Y543144D02*
Y537146D01*
X1059378D01*
X1062377Y541145D02*
X1064376D01*
X1065376Y540145D01*
Y537146D01*
X1062377D01*
X1061377Y538146D01*
X1062377Y539145D01*
X1065376D01*
X1067375Y541145D02*
Y538146D01*
X1068375Y537146D01*
X1071374D01*
Y536146D01*
X1070374Y535147D01*
X1069374D01*
X1071374Y537146D02*
Y541145D01*
X1076372Y537146D02*
X1074373D01*
X1073373Y538146D01*
Y540145D01*
X1074373Y541145D01*
X1076372D01*
X1077372Y540145D01*
Y539145D01*
X1073373D01*
X1079371Y541145D02*
Y537146D01*
Y539145D01*
X1080371Y540145D01*
X1081371Y541145D01*
X1082370D01*
X1095366Y542144D02*
X1094366Y543144D01*
X1092367D01*
X1091367Y542144D01*
Y541145D01*
X1092367Y540145D01*
X1094366D01*
X1095366Y539145D01*
Y538146D01*
X1094366Y537146D01*
X1092367D01*
X1091367Y538146D01*
X1098365Y542144D02*
Y541145D01*
X1097365D01*
X1099365D01*
X1098365D01*
Y538146D01*
X1099365Y537146D01*
X1103364Y541145D02*
X1105363D01*
X1106363Y540145D01*
Y537146D01*
X1103364D01*
X1102364Y538146D01*
X1103364Y539145D01*
X1106363D01*
X1112361Y541145D02*
X1109362D01*
X1108362Y540145D01*
Y538146D01*
X1109362Y537146D01*
X1112361D01*
X1114360D02*
Y543144D01*
Y539145D02*
X1117359Y541145D01*
X1114360Y539145D02*
X1117359Y537146D01*
D67*
X258000Y20000D02*
G03*
X258000Y20000I-1000J0D01*
G01*
X268000D02*
G03*
X268000Y20000I-1000J0D01*
G01*
X278000D02*
G03*
X278000Y20000I-1000J0D01*
G01*
X288000D02*
G03*
X288000Y20000I-1000J0D01*
G01*
X298000D02*
G03*
X298000Y20000I-1000J0D01*
G01*
X308000D02*
G03*
X308000Y20000I-1000J0D01*
G01*
X341000D02*
G03*
X341000Y20000I-1000J0D01*
G01*
X351000D02*
G03*
X351000Y20000I-1000J0D01*
G01*
X361000D02*
G03*
X361000Y20000I-1000J0D01*
G01*
X371000D02*
G03*
X371000Y20000I-1000J0D01*
G01*
X381000D02*
G03*
X381000Y20000I-1000J0D01*
G01*
X391000D02*
G03*
X391000Y20000I-1000J0D01*
G01*
X575500Y168000D02*
G03*
X575500Y168000I-1000J0D01*
G01*
Y158000D02*
G03*
X575500Y158000I-1000J0D01*
G01*
Y148000D02*
G03*
X575500Y148000I-1000J0D01*
G01*
Y138000D02*
G03*
X575500Y138000I-1000J0D01*
G01*
X212000Y319500D02*
G03*
X212000Y319500I-1000J0D01*
G01*
Y309500D02*
G03*
X212000Y309500I-1000J0D01*
G01*
X202000Y319500D02*
G03*
X202000Y319500I-1000J0D01*
G01*
Y309500D02*
G03*
X202000Y309500I-1000J0D01*
G01*
X192000Y319500D02*
G03*
X192000Y319500I-1000J0D01*
G01*
Y309500D02*
G03*
X192000Y309500I-1000J0D01*
G01*
X182000Y319500D02*
G03*
X182000Y319500I-1000J0D01*
G01*
Y309500D02*
G03*
X182000Y309500I-1000J0D01*
G01*
X172000Y319500D02*
G03*
X172000Y319500I-1000J0D01*
G01*
Y309500D02*
G03*
X172000Y309500I-1000J0D01*
G01*
X162000Y319500D02*
G03*
X162000Y319500I-1000J0D01*
G01*
Y309500D02*
G03*
X162000Y309500I-1000J0D01*
G01*
X152000Y319500D02*
G03*
X152000Y319500I-1000J0D01*
G01*
Y309500D02*
G03*
X152000Y309500I-1000J0D01*
G01*
X142000Y319500D02*
G03*
X142000Y319500I-1000J0D01*
G01*
Y309500D02*
G03*
X142000Y309500I-1000J0D01*
G01*
X132000Y319500D02*
G03*
X132000Y319500I-1000J0D01*
G01*
Y309500D02*
G03*
X132000Y309500I-1000J0D01*
G01*
X122000Y319500D02*
G03*
X122000Y319500I-1000J0D01*
G01*
Y309500D02*
G03*
X122000Y309500I-1000J0D01*
G01*
X112000Y319500D02*
G03*
X112000Y319500I-1000J0D01*
G01*
Y309500D02*
G03*
X112000Y309500I-1000J0D01*
G01*
X102000Y319500D02*
G03*
X102000Y319500I-1000J0D01*
G01*
Y309500D02*
G03*
X102000Y309500I-1000J0D01*
G01*
X92000Y319500D02*
G03*
X92000Y319500I-1000J0D01*
G01*
Y309500D02*
G03*
X92000Y309500I-1000J0D01*
G01*
X82000Y319500D02*
G03*
X82000Y319500I-1000J0D01*
G01*
Y309500D02*
G03*
X82000Y309500I-1000J0D01*
G01*
X72000Y319500D02*
G03*
X72000Y319500I-1000J0D01*
G01*
Y309500D02*
G03*
X72000Y309500I-1000J0D01*
G01*
X62000Y319500D02*
G03*
X62000Y319500I-1000J0D01*
G01*
Y309500D02*
G03*
X62000Y309500I-1000J0D01*
G01*
X52000Y319500D02*
G03*
X52000Y319500I-1000J0D01*
G01*
Y309500D02*
G03*
X52000Y309500I-1000J0D01*
G01*
X42000Y319500D02*
G03*
X42000Y319500I-1000J0D01*
G01*
Y309500D02*
G03*
X42000Y309500I-1000J0D01*
G01*
X32000Y319500D02*
G03*
X32000Y319500I-1000J0D01*
G01*
Y309500D02*
G03*
X32000Y309500I-1000J0D01*
G01*
X313500Y373500D02*
G03*
X313500Y373500I-1000J0D01*
G01*
X323500D02*
G03*
X323500Y373500I-1000J0D01*
G01*
X333500D02*
G03*
X333500Y373500I-1000J0D01*
G01*
X343500D02*
G03*
X343500Y373500I-1000J0D01*
G01*
X353500D02*
G03*
X353500Y373500I-1000J0D01*
G01*
X363500D02*
G03*
X363500Y373500I-1000J0D01*
G01*
X373500D02*
G03*
X373500Y373500I-1000J0D01*
G01*
X383500D02*
G03*
X383500Y373500I-1000J0D01*
G01*
X126000Y14500D02*
G03*
X126000Y14500I-1000J0D01*
G01*
X136000D02*
G03*
X136000Y14500I-1000J0D01*
G01*
X146000D02*
G03*
X146000Y14500I-1000J0D01*
G01*
X156000D02*
G03*
X156000Y14500I-1000J0D01*
G01*
X166000D02*
G03*
X166000Y14500I-1000J0D01*
G01*
X176000D02*
G03*
X176000Y14500I-1000J0D01*
G01*
X32000Y69500D02*
G03*
X32000Y69500I-1000J0D01*
G01*
Y79500D02*
G03*
X32000Y79500I-1000J0D01*
G01*
X42000Y69500D02*
G03*
X42000Y69500I-1000J0D01*
G01*
Y79500D02*
G03*
X42000Y79500I-1000J0D01*
G01*
X52000Y69500D02*
G03*
X52000Y69500I-1000J0D01*
G01*
Y79500D02*
G03*
X52000Y79500I-1000J0D01*
G01*
X62000Y69500D02*
G03*
X62000Y69500I-1000J0D01*
G01*
Y79500D02*
G03*
X62000Y79500I-1000J0D01*
G01*
X72000Y69500D02*
G03*
X72000Y69500I-1000J0D01*
G01*
Y79500D02*
G03*
X72000Y79500I-1000J0D01*
G01*
X82000Y69500D02*
G03*
X82000Y69500I-1000J0D01*
G01*
Y79500D02*
G03*
X82000Y79500I-1000J0D01*
G01*
X92000Y69500D02*
G03*
X92000Y69500I-1000J0D01*
G01*
Y79500D02*
G03*
X92000Y79500I-1000J0D01*
G01*
X102000Y69500D02*
G03*
X102000Y69500I-1000J0D01*
G01*
Y79500D02*
G03*
X102000Y79500I-1000J0D01*
G01*
X112000Y69500D02*
G03*
X112000Y69500I-1000J0D01*
G01*
Y79500D02*
G03*
X112000Y79500I-1000J0D01*
G01*
X122000Y69500D02*
G03*
X122000Y69500I-1000J0D01*
G01*
Y79500D02*
G03*
X122000Y79500I-1000J0D01*
G01*
X132000Y69500D02*
G03*
X132000Y69500I-1000J0D01*
G01*
Y79500D02*
G03*
X132000Y79500I-1000J0D01*
G01*
X142000Y69500D02*
G03*
X142000Y69500I-1000J0D01*
G01*
Y79500D02*
G03*
X142000Y79500I-1000J0D01*
G01*
X152000Y69500D02*
G03*
X152000Y69500I-1000J0D01*
G01*
Y79500D02*
G03*
X152000Y79500I-1000J0D01*
G01*
X162000Y69500D02*
G03*
X162000Y69500I-1000J0D01*
G01*
Y79500D02*
G03*
X162000Y79500I-1000J0D01*
G01*
X172000Y69500D02*
G03*
X172000Y69500I-1000J0D01*
G01*
Y79500D02*
G03*
X172000Y79500I-1000J0D01*
G01*
X182000Y69500D02*
G03*
X182000Y69500I-1000J0D01*
G01*
Y79500D02*
G03*
X182000Y79500I-1000J0D01*
G01*
X192000Y69500D02*
G03*
X192000Y69500I-1000J0D01*
G01*
Y79500D02*
G03*
X192000Y79500I-1000J0D01*
G01*
X202000Y69500D02*
G03*
X202000Y69500I-1000J0D01*
G01*
Y79500D02*
G03*
X202000Y79500I-1000J0D01*
G01*
X212000Y69500D02*
G03*
X212000Y69500I-1000J0D01*
G01*
Y79500D02*
G03*
X212000Y79500I-1000J0D01*
G01*
X24000Y24000D02*
Y24500D01*
X24500Y25000D01*
X24000Y25500D02*
X24500Y25000D01*
X24000Y25500D02*
Y26000D01*
X24500D01*
X25000Y25500D01*
X25500Y26000D01*
X26000D01*
Y25500D02*
Y26000D01*
X25500Y25000D02*
X26000Y25500D01*
X25500Y25000D02*
X26000Y24500D01*
Y24000D02*
Y24500D01*
X25500Y24000D02*
X26000D01*
X25000Y24500D02*
X25500Y24000D01*
X24500D02*
X25000Y24500D01*
X24000Y24000D02*
X24500D01*
X574000D02*
Y24500D01*
X574500Y25000D01*
X574000Y25500D02*
X574500Y25000D01*
X574000Y25500D02*
Y26000D01*
X574500D01*
X575000Y25500D01*
X575500Y26000D01*
X576000D01*
Y25500D02*
Y26000D01*
X575500Y25000D02*
X576000Y25500D01*
X575500Y25000D02*
X576000Y24500D01*
Y24000D02*
Y24500D01*
X575500Y24000D02*
X576000D01*
X575000Y24500D02*
X575500Y24000D01*
X574500D02*
X575000Y24500D01*
X574000Y24000D02*
X574500D01*
X574000Y374000D02*
Y374500D01*
X574500Y375000D01*
X574000Y375500D02*
X574500Y375000D01*
X574000Y375500D02*
Y376000D01*
X574500D01*
X575000Y375500D01*
X575500Y376000D01*
X576000D01*
Y375500D02*
Y376000D01*
X575500Y375000D02*
X576000Y375500D01*
X575500Y375000D02*
X576000Y374500D01*
Y374000D02*
Y374500D01*
X575500Y374000D02*
X576000D01*
X575000Y374500D02*
X575500Y374000D01*
X574500D02*
X575000Y374500D01*
X574000Y374000D02*
X574500D01*
X24000D02*
Y374500D01*
X24500Y375000D01*
X24000Y375500D02*
X24500Y375000D01*
X24000Y375500D02*
Y376000D01*
X24500D01*
X25000Y375500D01*
X25500Y376000D01*
X26000D01*
Y375500D02*
Y376000D01*
X25500Y375000D02*
X26000Y375500D01*
X25500Y375000D02*
X26000Y374500D01*
Y374000D02*
Y374500D01*
X25500Y374000D02*
X26000D01*
X25000Y374500D02*
X25500Y374000D01*
X24500D02*
X25000Y374500D01*
X24000Y374000D02*
X24500D01*
X381784Y310543D02*
X382284D01*
X381784D02*
Y311543D01*
X382284D01*
Y312043D01*
X383284D01*
Y311543D02*
Y312043D01*
Y311543D02*
X383784D01*
Y310543D02*
Y311543D01*
X383284Y310543D02*
X383784D01*
X383284Y310043D02*
Y310543D01*
X382284Y310043D02*
X383284D01*
X382284D02*
Y310543D01*
X259000Y122000D02*
X259500D01*
X259000D02*
Y123000D01*
X259500D01*
Y123500D01*
X260500D01*
Y123000D02*
Y123500D01*
Y123000D02*
X261000D01*
Y122000D02*
Y123000D01*
X260500Y122000D02*
X261000D01*
X260500Y121500D02*
Y122000D01*
X259500Y121500D02*
X260500D01*
X259500D02*
Y122000D01*
X553861Y132032D02*
X554361D01*
X553861D02*
Y133031D01*
X554361D01*
Y133531D01*
X555361D01*
Y133031D02*
Y133531D01*
Y133031D02*
X555861D01*
Y132032D02*
Y133031D01*
X555361Y132032D02*
X555861D01*
X555361Y131532D02*
Y132032D01*
X554361Y131532D02*
X555361D01*
X554361D02*
Y132032D01*
X449064Y99659D02*
X449564D01*
X449064D02*
Y100659D01*
X449564D01*
Y101159D01*
X450564D01*
Y100659D02*
Y101159D01*
Y100659D02*
X451064D01*
Y99659D02*
Y100659D01*
X450564Y99659D02*
X451064D01*
X450564Y99159D02*
Y99659D01*
X449564Y99159D02*
X450564D01*
X449564D02*
Y99659D01*
X361417Y61642D02*
X361917D01*
X361417D02*
Y62642D01*
X361917D01*
Y63142D01*
X362917D01*
Y62642D02*
Y63142D01*
Y62642D02*
X363417D01*
Y61642D02*
Y62642D01*
X362917Y61642D02*
X363417D01*
X362917Y61142D02*
Y61642D01*
X361917Y61142D02*
X362917D01*
X361917D02*
Y61642D01*
X140000Y139500D02*
X140500D01*
X140000D02*
Y140500D01*
X140500D01*
Y141000D01*
X141500D01*
Y140500D02*
Y141000D01*
Y140500D02*
X142000D01*
Y139500D02*
Y140500D01*
X141500Y139500D02*
X142000D01*
X141500Y139000D02*
Y139500D01*
X140500Y139000D02*
X141500D01*
X140500D02*
Y139500D01*
X323969Y49421D02*
X324468D01*
X323969D02*
Y50421D01*
X324468D01*
Y50921D01*
X325468D01*
Y50421D02*
Y50921D01*
Y50421D02*
X325969D01*
Y49421D02*
Y50421D01*
X325468Y49421D02*
X325969D01*
X325468Y48921D02*
Y49421D01*
X324468Y48921D02*
X325468D01*
X324468D02*
Y49421D01*
X219000Y47000D02*
X219500D01*
X219000D02*
Y48000D01*
X219500D01*
Y48500D01*
X220500D01*
Y48000D02*
Y48500D01*
Y48000D02*
X221000D01*
Y47000D02*
Y48000D01*
X220500Y47000D02*
X221000D01*
X220500Y46500D02*
Y47000D01*
X219500Y46500D02*
X220500D01*
X219500D02*
Y47000D01*
X200279Y39500D02*
X200779D01*
X200279D02*
Y40500D01*
X200779D01*
Y41000D01*
X201779D01*
Y40500D02*
Y41000D01*
Y40500D02*
X202279D01*
Y39500D02*
Y40500D01*
X201779Y39500D02*
X202279D01*
X201779Y39000D02*
Y39500D01*
X200779Y39000D02*
X201779D01*
X200779D02*
Y39500D01*
X219100Y97000D02*
X219600D01*
X219100D02*
Y98000D01*
X219600D01*
Y98500D01*
X220600D01*
Y98000D02*
Y98500D01*
Y98000D02*
X221100D01*
Y97000D02*
Y98000D01*
X220600Y97000D02*
X221100D01*
X220600Y96500D02*
Y97000D01*
X219600Y96500D02*
X220600D01*
X219600D02*
Y97000D01*
X391600Y122299D02*
X392100D01*
X391600D02*
Y123299D01*
X392100D01*
Y123799D01*
X393100D01*
Y123299D02*
Y123799D01*
Y123299D02*
X393600D01*
Y122299D02*
Y123299D01*
X393100Y122299D02*
X393600D01*
X393100Y121799D02*
Y122299D01*
X392100Y121799D02*
X393100D01*
X392100D02*
Y122299D01*
X96500Y134500D02*
X97000D01*
X96500D02*
Y135500D01*
X97000D01*
Y136000D01*
X98000D01*
Y135500D02*
Y136000D01*
Y135500D02*
X98500D01*
Y134500D02*
Y135500D01*
X98000Y134500D02*
X98500D01*
X98000Y134000D02*
Y134500D01*
X97000Y134000D02*
X98000D01*
X97000D02*
Y134500D01*
X369000Y37000D02*
X369500D01*
X369000D02*
Y38000D01*
X369500D01*
Y38500D01*
X370500D01*
Y38000D02*
Y38500D01*
Y38000D02*
X371000D01*
Y37000D02*
Y38000D01*
X370500Y37000D02*
X371000D01*
X370500Y36500D02*
Y37000D01*
X369500Y36500D02*
X370500D01*
X369500D02*
Y37000D01*
X276500Y187000D02*
X277000D01*
X276500D02*
Y188000D01*
X277000D01*
Y188500D01*
X278000D01*
Y188000D02*
Y188500D01*
Y188000D02*
X278500D01*
Y187000D02*
Y188000D01*
X278000Y187000D02*
X278500D01*
X278000Y186500D02*
Y187000D01*
X277000Y186500D02*
X278000D01*
X277000D02*
Y187000D01*
X226500Y92000D02*
X227000D01*
X226500D02*
Y93000D01*
X227000D01*
Y93500D01*
X228000D01*
Y93000D02*
Y93500D01*
Y93000D02*
X228500D01*
Y92000D02*
Y93000D01*
X228000Y92000D02*
X228500D01*
X228000Y91500D02*
Y92000D01*
X227000Y91500D02*
X228000D01*
X227000D02*
Y92000D01*
X234000Y87000D02*
X234500D01*
X234000D02*
Y88000D01*
X234500D01*
Y88500D01*
X235500D01*
Y88000D02*
Y88500D01*
Y88000D02*
X236000D01*
Y87000D02*
Y88000D01*
X235500Y87000D02*
X236000D01*
X235500Y86500D02*
Y87000D01*
X234500Y86500D02*
X235500D01*
X234500D02*
Y87000D01*
X521898Y179500D02*
X522398D01*
X521898D02*
Y180500D01*
X522398D01*
Y181000D01*
X523398D01*
Y180500D02*
Y181000D01*
Y180500D02*
X523898D01*
Y179500D02*
Y180500D01*
X523398Y179500D02*
X523898D01*
X523398Y179000D02*
Y179500D01*
X522398Y179000D02*
X523398D01*
X522398D02*
Y179500D01*
X556838Y177586D02*
X557338D01*
X556838D02*
Y178586D01*
X557338D01*
Y179086D01*
X558338D01*
Y178586D02*
Y179086D01*
Y178586D02*
X558838D01*
Y177586D02*
Y178586D01*
X558338Y177586D02*
X558838D01*
X558338Y177086D02*
Y177586D01*
X557338Y177086D02*
X558338D01*
X557338D02*
Y177586D01*
X170000Y102000D02*
X170500D01*
X170000D02*
Y103000D01*
X170500D01*
Y103500D01*
X171500D01*
Y103000D02*
Y103500D01*
Y103000D02*
X172000D01*
Y102000D02*
Y103000D01*
X171500Y102000D02*
X172000D01*
X171500Y101500D02*
Y102000D01*
X170500Y101500D02*
X171500D01*
X170500D02*
Y102000D01*
X465793Y310543D02*
X466293D01*
X465793D02*
Y311543D01*
X466293D01*
Y312043D01*
X467293D01*
Y311543D02*
Y312043D01*
Y311543D02*
X467793D01*
Y310543D02*
Y311543D01*
X467293Y310543D02*
X467793D01*
X467293Y310043D02*
Y310543D01*
X466293Y310043D02*
X467293D01*
X466293D02*
Y310543D01*
X459494Y305012D02*
X459994D01*
X459494D02*
Y306012D01*
X459994D01*
Y306512D01*
X460994D01*
Y306012D02*
Y306512D01*
Y306012D02*
X461494D01*
Y305012D02*
Y306012D01*
X460994Y305012D02*
X461494D01*
X460994Y304512D02*
Y305012D01*
X459994Y304512D02*
X460994D01*
X459994D02*
Y305012D01*
X424000Y304500D02*
X424500D01*
X424000D02*
Y305500D01*
X424500D01*
Y306000D01*
X425500D01*
Y305500D02*
Y306000D01*
Y305500D02*
X426000D01*
Y304500D02*
Y305500D01*
X425500Y304500D02*
X426000D01*
X425500Y304000D02*
Y304500D01*
X424500Y304000D02*
X425500D01*
X424500D02*
Y304500D01*
X507823Y179500D02*
X508323D01*
X507823D02*
Y180500D01*
X508323D01*
Y181000D01*
X509323D01*
Y180500D02*
Y181000D01*
Y180500D02*
X509823D01*
Y179500D02*
Y180500D01*
X509323Y179500D02*
X509823D01*
X509323Y179000D02*
Y179500D01*
X508323Y179000D02*
X509323D01*
X508323D02*
Y179500D01*
X497963Y129177D02*
X498462D01*
X497963D02*
Y130177D01*
X498462D01*
Y130677D01*
X499463D01*
Y130177D02*
Y130677D01*
Y130177D02*
X499963D01*
Y129177D02*
Y130177D01*
X499463Y129177D02*
X499963D01*
X499463Y128677D02*
Y129177D01*
X498462Y128677D02*
X499463D01*
X498462D02*
Y129177D01*
X353623Y163644D02*
X354123D01*
X353623D02*
Y164644D01*
X354123D01*
Y165144D01*
X355123D01*
Y164644D02*
Y165144D01*
Y164644D02*
X355623D01*
Y163644D02*
Y164644D01*
X355123Y163644D02*
X355623D01*
X355123Y163144D02*
Y163644D01*
X354123Y163144D02*
X355123D01*
X354123D02*
Y163644D01*
X471108Y187599D02*
X471608D01*
X471108D02*
Y188599D01*
X471608D01*
Y189099D01*
X472608D01*
Y188599D02*
Y189099D01*
Y188599D02*
X473108D01*
Y187599D02*
Y188599D01*
X472608Y187599D02*
X473108D01*
X472608Y187099D02*
Y187599D01*
X471608Y187099D02*
X472608D01*
X471608D02*
Y187599D01*
X461500Y167910D02*
X462000D01*
X461500D02*
Y168910D01*
X462000D01*
Y169410D01*
X463000D01*
Y168910D02*
Y169410D01*
Y168910D02*
X463500D01*
Y167910D02*
Y168910D01*
X463000Y167910D02*
X463500D01*
X463000Y167410D02*
Y167910D01*
X462000Y167410D02*
X463000D01*
X462000D02*
Y167910D01*
X326500Y217000D02*
X327000D01*
X326500D02*
Y218000D01*
X327000D01*
Y218500D01*
X328000D01*
Y218000D02*
Y218500D01*
Y218000D02*
X328500D01*
Y217000D02*
Y218000D01*
X328000Y217000D02*
X328500D01*
X328000Y216500D02*
Y217000D01*
X327000Y216500D02*
X328000D01*
X327000D02*
Y217000D01*
X161500Y232000D02*
X162000D01*
X161500D02*
Y233000D01*
X162000D01*
Y233500D01*
X163000D01*
Y233000D02*
Y233500D01*
Y233000D02*
X163500D01*
Y232000D02*
Y233000D01*
X163000Y232000D02*
X163500D01*
X163000Y231500D02*
Y232000D01*
X162000Y231500D02*
X163000D01*
X162000D02*
Y232000D01*
X30513Y266686D02*
X31013D01*
X30513D02*
Y267686D01*
X31013D01*
Y268186D01*
X32013D01*
Y267686D02*
Y268186D01*
Y267686D02*
X32513D01*
Y266686D02*
Y267686D01*
X32013Y266686D02*
X32513D01*
X32013Y266186D02*
Y266686D01*
X31013Y266186D02*
X32013D01*
X31013D02*
Y266686D01*
X346502Y219500D02*
X347002D01*
X346502D02*
Y220500D01*
X347002D01*
Y221000D01*
X348002D01*
Y220500D02*
Y221000D01*
Y220500D02*
X348502D01*
Y219500D02*
Y220500D01*
X348002Y219500D02*
X348502D01*
X348002Y219000D02*
Y219500D01*
X347002Y219000D02*
X348002D01*
X347002D02*
Y219500D01*
X450586Y202000D02*
X451086D01*
X450586D02*
Y203000D01*
X451086D01*
Y203500D01*
X452086D01*
Y203000D02*
Y203500D01*
Y203000D02*
X452586D01*
Y202000D02*
Y203000D01*
X452086Y202000D02*
X452586D01*
X452086Y201500D02*
Y202000D01*
X451086Y201500D02*
X452086D01*
X451086D02*
Y202000D01*
X512864Y194553D02*
X513364D01*
X512864D02*
Y195553D01*
X513364D01*
Y196053D01*
X514364D01*
Y195553D02*
Y196053D01*
Y195553D02*
X514864D01*
Y194553D02*
Y195553D01*
X514364Y194553D02*
X514864D01*
X514364Y194053D02*
Y194553D01*
X513364Y194053D02*
X514364D01*
X513364D02*
Y194553D01*
X344000Y262000D02*
X344500D01*
X344000D02*
Y263000D01*
X344500D01*
Y263500D01*
X345500D01*
Y263000D02*
Y263500D01*
Y263000D02*
X346000D01*
Y262000D02*
Y263000D01*
X345500Y262000D02*
X346000D01*
X345500Y261500D02*
Y262000D01*
X344500Y261500D02*
X345500D01*
X344500D02*
Y262000D01*
X269000Y163644D02*
X269500D01*
X269000D02*
Y164644D01*
X269500D01*
Y165144D01*
X270500D01*
Y164644D02*
Y165144D01*
Y164644D02*
X271000D01*
Y163644D02*
Y164644D01*
X270500Y163644D02*
X271000D01*
X270500Y163144D02*
Y163644D01*
X269500Y163144D02*
X270500D01*
X269500D02*
Y163644D01*
X48586Y331770D02*
X49086D01*
X48586D02*
Y332770D01*
X49086D01*
Y333270D01*
X50086D01*
Y332770D02*
Y333270D01*
Y332770D02*
X50586D01*
Y331770D02*
Y332770D01*
X50086Y331770D02*
X50586D01*
X50086Y331270D02*
Y331770D01*
X49086Y331270D02*
X50086D01*
X49086D02*
Y331770D01*
X431500Y226189D02*
X432000D01*
X431500D02*
Y227189D01*
X432000D01*
Y227689D01*
X433000D01*
Y227189D02*
Y227689D01*
Y227189D02*
X433500D01*
Y226189D02*
Y227189D01*
X433000Y226189D02*
X433500D01*
X433000Y225689D02*
Y226189D01*
X432000Y225689D02*
X433000D01*
X432000D02*
Y226189D01*
X455835Y117654D02*
X456335D01*
X455835D02*
Y118654D01*
X456335D01*
Y119154D01*
X457335D01*
Y118654D02*
Y119154D01*
Y118654D02*
X457835D01*
Y117654D02*
Y118654D01*
X457335Y117654D02*
X457835D01*
X457335Y117154D02*
Y117654D01*
X456335Y117154D02*
X457335D01*
X456335D02*
Y117654D01*
X171500Y294500D02*
X172000D01*
X171500D02*
Y295500D01*
X172000D01*
Y296000D01*
X173000D01*
Y295500D02*
Y296000D01*
Y295500D02*
X173500D01*
Y294500D02*
Y295500D01*
X173000Y294500D02*
X173500D01*
X173000Y294000D02*
Y294500D01*
X172000Y294000D02*
X173000D01*
X172000D02*
Y294500D01*
X341500Y314500D02*
X342000D01*
X341500D02*
Y315500D01*
X342000D01*
Y316000D01*
X343000D01*
Y315500D02*
Y316000D01*
Y315500D02*
X343500D01*
Y314500D02*
Y315500D01*
X343000Y314500D02*
X343500D01*
X343000Y314000D02*
Y314500D01*
X342000Y314000D02*
X343000D01*
X342000D02*
Y314500D01*
X324000Y319500D02*
X324500D01*
X324000D02*
Y320500D01*
X324500D01*
Y321000D01*
X325500D01*
Y320500D02*
Y321000D01*
Y320500D02*
X326000D01*
Y319500D02*
Y320500D01*
X325500Y319500D02*
X326000D01*
X325500Y319000D02*
Y319500D01*
X324500Y319000D02*
X325500D01*
X324500D02*
Y319500D01*
X356500Y177000D02*
X357000D01*
X356500D02*
Y178000D01*
X357000D01*
Y178500D01*
X358000D01*
Y178000D02*
Y178500D01*
Y178000D02*
X358500D01*
Y177000D02*
Y178000D01*
X358000Y177000D02*
X358500D01*
X358000Y176500D02*
Y177000D01*
X357000Y176500D02*
X358000D01*
X357000D02*
Y177000D01*
X244320Y351910D02*
X244820D01*
X244320D02*
Y352910D01*
X244820D01*
Y353410D01*
X245820D01*
Y352910D02*
Y353410D01*
Y352910D02*
X246320D01*
Y351910D02*
Y352910D01*
X245820Y351910D02*
X246320D01*
X245820Y351410D02*
Y351910D01*
X244820Y351410D02*
X245820D01*
X244820D02*
Y351910D01*
X244000Y364500D02*
X244500D01*
X244000D02*
Y365500D01*
X244500D01*
Y366000D01*
X245500D01*
Y365500D02*
Y366000D01*
Y365500D02*
X246000D01*
Y364500D02*
Y365500D01*
X245500Y364500D02*
X246000D01*
X245500Y364000D02*
Y364500D01*
X244500Y364000D02*
X245500D01*
X244500D02*
Y364500D01*
X256500Y367000D02*
X257000D01*
X256500D02*
Y368000D01*
X257000D01*
Y368500D01*
X258000D01*
Y368000D02*
Y368500D01*
Y368000D02*
X258500D01*
Y367000D02*
Y368000D01*
X258000Y367000D02*
X258500D01*
X258000Y366500D02*
Y367000D01*
X257000Y366500D02*
X258000D01*
X257000D02*
Y367000D01*
X321500Y351414D02*
X322000D01*
X321500D02*
Y352414D01*
X322000D01*
Y352914D01*
X323000D01*
Y352414D02*
Y352914D01*
Y352414D02*
X323500D01*
Y351414D02*
Y352414D01*
X323000Y351414D02*
X323500D01*
X323000Y350914D02*
Y351414D01*
X322000Y350914D02*
X323000D01*
X322000D02*
Y351414D01*
X351500Y311469D02*
X352000D01*
X351500D02*
Y312469D01*
X352000D01*
Y312968D01*
X353000D01*
Y312469D02*
Y312968D01*
Y312469D02*
X353500D01*
Y311469D02*
Y312469D01*
X353000Y311469D02*
X353500D01*
X353000Y310968D02*
Y311469D01*
X352000Y310968D02*
X353000D01*
X352000D02*
Y311469D01*
X304579Y179500D02*
X305079D01*
X304579D02*
Y180500D01*
X305079D01*
Y181000D01*
X306079D01*
Y180500D02*
Y181000D01*
Y180500D02*
X306579D01*
Y179500D02*
Y180500D01*
X306079Y179500D02*
X306579D01*
X306079Y179000D02*
Y179500D01*
X305079Y179000D02*
X306079D01*
X305079D02*
Y179500D01*
X287000Y144500D02*
X287500D01*
X287000D02*
Y145500D01*
X287500D01*
Y146000D01*
X288500D01*
Y145500D02*
Y146000D01*
Y145500D02*
X289000D01*
Y144500D02*
Y145500D01*
X288500Y144500D02*
X289000D01*
X288500Y144000D02*
Y144500D01*
X287500Y144000D02*
X288500D01*
X287500D02*
Y144500D01*
X244000Y54500D02*
X244500D01*
X244000D02*
Y55500D01*
X244500D01*
Y56000D01*
X245500D01*
Y55500D02*
Y56000D01*
Y55500D02*
X246000D01*
Y54500D02*
Y55500D01*
X245500Y54500D02*
X246000D01*
X245500Y54000D02*
Y54500D01*
X244500Y54000D02*
X245500D01*
X244500D02*
Y54500D01*
X269000Y96414D02*
X269500D01*
X269000D02*
Y97414D01*
X269500D01*
Y97914D01*
X270500D01*
Y97414D02*
Y97914D01*
Y97414D02*
X271000D01*
Y96414D02*
Y97414D01*
X270500Y96414D02*
X271000D01*
X270500Y95914D02*
Y96414D01*
X269500Y95914D02*
X270500D01*
X269500D02*
Y96414D01*
X261500Y89586D02*
X262000D01*
X261500D02*
Y90586D01*
X262000D01*
Y91086D01*
X263000D01*
Y90586D02*
Y91086D01*
Y90586D02*
X263500D01*
Y89586D02*
Y90586D01*
X263000Y89586D02*
X263500D01*
X263000Y89086D02*
Y89586D01*
X262000Y89086D02*
X263000D01*
X262000D02*
Y89586D01*
X376638Y48914D02*
X377138D01*
X376638D02*
Y49914D01*
X377138D01*
Y50414D01*
X378138D01*
Y49914D02*
Y50414D01*
Y49914D02*
X378638D01*
Y48914D02*
Y49914D01*
X378138Y48914D02*
X378638D01*
X378138Y48414D02*
Y48914D01*
X377138Y48414D02*
X378138D01*
X377138D02*
Y48914D01*
X377031Y149500D02*
X377532D01*
X377031D02*
Y150500D01*
X377532D01*
Y151000D01*
X378532D01*
Y150500D02*
Y151000D01*
Y150500D02*
X379031D01*
Y149500D02*
Y150500D01*
X378532Y149500D02*
X379031D01*
X378532Y149000D02*
Y149500D01*
X377532Y149000D02*
X378532D01*
X377532D02*
Y149500D01*
X234000Y27000D02*
X234500D01*
X234000D02*
Y28000D01*
X234500D01*
Y28500D01*
X235500D01*
Y28000D02*
Y28500D01*
Y28000D02*
X236000D01*
Y27000D02*
Y28000D01*
X235500Y27000D02*
X236000D01*
X235500Y26500D02*
Y27000D01*
X234500Y26500D02*
X235500D01*
X234500D02*
Y27000D01*
X226500Y31700D02*
X227000D01*
X226500D02*
Y32700D01*
X227000D01*
Y33200D01*
X228000D01*
Y32700D02*
Y33200D01*
Y32700D02*
X228500D01*
Y31700D02*
Y32700D01*
X228000Y31700D02*
X228500D01*
X228000Y31200D02*
Y31700D01*
X227000Y31200D02*
X228000D01*
X227000D02*
Y31700D01*
X356500Y89000D02*
X357000D01*
X356500D02*
Y90000D01*
X357000D01*
Y90500D01*
X358000D01*
Y90000D02*
Y90500D01*
Y90000D02*
X358500D01*
Y89000D02*
Y90000D01*
X358000Y89000D02*
X358500D01*
X358000Y88500D02*
Y89000D01*
X357000Y88500D02*
X358000D01*
X357000D02*
Y89000D01*
X358416Y118647D02*
X358916D01*
X358416D02*
Y119647D01*
X358916D01*
Y120147D01*
X359916D01*
Y119647D02*
Y120147D01*
Y119647D02*
X360416D01*
Y118647D02*
Y119647D01*
X359916Y118647D02*
X360416D01*
X359916Y118147D02*
Y118647D01*
X358916Y118147D02*
X359916D01*
X358916D02*
Y118647D01*
X289000Y189500D02*
X289500D01*
X289000D02*
Y190500D01*
X289500D01*
Y191000D01*
X290500D01*
Y190500D02*
Y191000D01*
Y190500D02*
X291000D01*
Y189500D02*
Y190500D01*
X290500Y189500D02*
X291000D01*
X290500Y189000D02*
Y189500D01*
X289500Y189000D02*
X290500D01*
X289500D02*
Y189500D01*
X161500Y207000D02*
X162000D01*
X161500D02*
Y208000D01*
X162000D01*
Y208500D01*
X163000D01*
Y208000D02*
Y208500D01*
Y208000D02*
X163500D01*
Y207000D02*
Y208000D01*
X163000Y207000D02*
X163500D01*
X163000Y206500D02*
Y207000D01*
X162000Y206500D02*
X163000D01*
X162000D02*
Y207000D01*
X144000Y336000D02*
X144500D01*
X144000D02*
Y337000D01*
X144500D01*
Y337500D01*
X145500D01*
Y337000D02*
Y337500D01*
Y337000D02*
X146000D01*
Y336000D02*
Y337000D01*
X145500Y336000D02*
X146000D01*
X145500Y335500D02*
Y336000D01*
X144500Y335500D02*
X145500D01*
X144500D02*
Y336000D01*
X160000Y354500D02*
X160500D01*
X160000D02*
Y355500D01*
X160500D01*
Y356000D01*
X161500D01*
Y355500D02*
Y356000D01*
Y355500D02*
X162000D01*
Y354500D02*
Y355500D01*
X161500Y354500D02*
X162000D01*
X161500Y354000D02*
Y354500D01*
X160500Y354000D02*
X161500D01*
X160500D02*
Y354500D01*
X160133Y364500D02*
X160633D01*
X160133D02*
Y365500D01*
X160633D01*
Y366000D01*
X161633D01*
Y365500D02*
Y366000D01*
Y365500D02*
X162133D01*
Y364500D02*
Y365500D01*
X161633Y364500D02*
X162133D01*
X161633Y364000D02*
Y364500D01*
X160633Y364000D02*
X161633D01*
X160633D02*
Y364500D01*
X245236Y119824D02*
X245736D01*
X245236D02*
Y120824D01*
X245736D01*
Y121324D01*
X246736D01*
Y120824D02*
Y121324D01*
Y120824D02*
X247236D01*
Y119824D02*
Y120824D01*
X246736Y119824D02*
X247236D01*
X246736Y119324D02*
Y119824D01*
X245736Y119324D02*
X246736D01*
X245736D02*
Y119824D01*
X259113Y109696D02*
X259613D01*
X259113D02*
Y110696D01*
X259613D01*
Y111196D01*
X260613D01*
Y110696D02*
Y111196D01*
Y110696D02*
X261113D01*
Y109696D02*
Y110696D01*
X260613Y109696D02*
X261113D01*
X260613Y109196D02*
Y109696D01*
X259613Y109196D02*
X260613D01*
X259613D02*
Y109696D01*
X351500Y72000D02*
X352000D01*
X351500D02*
Y73000D01*
X352000D01*
Y73500D01*
X353000D01*
Y73000D02*
Y73500D01*
Y73000D02*
X353500D01*
Y72000D02*
Y73000D01*
X353000Y72000D02*
X353500D01*
X353000Y71500D02*
Y72000D01*
X352000Y71500D02*
X353000D01*
X352000D02*
Y72000D01*
X351500Y61559D02*
X352000D01*
X351500D02*
Y62559D01*
X352000D01*
Y63059D01*
X353000D01*
Y62559D02*
Y63059D01*
Y62559D02*
X353500D01*
Y61559D02*
Y62559D01*
X353000Y61559D02*
X353500D01*
X353000Y61059D02*
Y61559D01*
X352000Y61059D02*
X353000D01*
X352000D02*
Y61559D01*
X323969Y142000D02*
X324468D01*
X323969D02*
Y143000D01*
X324468D01*
Y143500D01*
X325468D01*
Y143000D02*
Y143500D01*
Y143000D02*
X325969D01*
Y142000D02*
Y143000D01*
X325468Y142000D02*
X325969D01*
X325468Y141500D02*
Y142000D01*
X324468Y141500D02*
X325468D01*
X324468D02*
Y142000D01*
X340090Y133914D02*
X340590D01*
X340090D02*
Y134914D01*
X340590D01*
Y135414D01*
X341590D01*
Y134914D02*
Y135414D01*
Y134914D02*
X342090D01*
Y133914D02*
Y134914D01*
X341590Y133914D02*
X342090D01*
X341590Y133414D02*
Y133914D01*
X340590Y133414D02*
X341590D01*
X340590D02*
Y133914D01*
X351500Y137735D02*
X352000D01*
X351500D02*
Y138735D01*
X352000D01*
Y139235D01*
X353000D01*
Y138735D02*
Y139235D01*
Y138735D02*
X353500D01*
Y137735D02*
Y138735D01*
X353000Y137735D02*
X353500D01*
X353000Y137235D02*
Y137735D01*
X352000Y137235D02*
X353000D01*
X352000D02*
Y137735D01*
X340090Y149500D02*
X340590D01*
X340090D02*
Y150500D01*
X340590D01*
Y151000D01*
X341590D01*
Y150500D02*
Y151000D01*
Y150500D02*
X342090D01*
Y149500D02*
Y150500D01*
X341590Y149500D02*
X342090D01*
X341590Y149000D02*
Y149500D01*
X340590Y149000D02*
X341590D01*
X340590D02*
Y149500D01*
X235259Y144500D02*
X235759D01*
X235259D02*
Y145500D01*
X235759D01*
Y146000D01*
X236759D01*
Y145500D02*
Y146000D01*
Y145500D02*
X237259D01*
Y144500D02*
Y145500D01*
X236759Y144500D02*
X237259D01*
X236759Y144000D02*
Y144500D01*
X235759Y144000D02*
X236759D01*
X235759D02*
Y144500D01*
X286197Y70353D02*
X286697D01*
X286197D02*
Y71353D01*
X286697D01*
Y71853D01*
X287697D01*
Y71353D02*
Y71853D01*
Y71353D02*
X288197D01*
Y70353D02*
Y71353D01*
X287697Y70353D02*
X288197D01*
X287697Y69853D02*
Y70353D01*
X286697Y69853D02*
X287697D01*
X286697D02*
Y70353D01*
X281246Y49421D02*
X281747D01*
X281246D02*
Y50421D01*
X281747D01*
Y50921D01*
X282747D01*
Y50421D02*
Y50921D01*
Y50421D02*
X283246D01*
Y49421D02*
Y50421D01*
X282747Y49421D02*
X283246D01*
X282747Y48921D02*
Y49421D01*
X281747Y48921D02*
X282747D01*
X281747D02*
Y49421D01*
X186500Y347000D02*
X187000D01*
X186500D02*
Y348000D01*
X187000D01*
Y348500D01*
X188000D01*
Y348000D02*
Y348500D01*
Y348000D02*
X188500D01*
Y347000D02*
Y348000D01*
X188000Y347000D02*
X188500D01*
X188000Y346500D02*
Y347000D01*
X187000Y346500D02*
X188000D01*
X187000D02*
Y347000D01*
X69000Y347314D02*
X69500D01*
X69000D02*
Y348314D01*
X69500D01*
Y348814D01*
X70500D01*
Y348314D02*
Y348814D01*
Y348314D02*
X71000D01*
Y347314D02*
Y348314D01*
X70500Y347314D02*
X71000D01*
X70500Y346814D02*
Y347314D01*
X69500Y346814D02*
X70500D01*
X69500D02*
Y347314D01*
X140000Y371000D02*
X140500D01*
X140000D02*
Y372000D01*
X140500D01*
Y372500D01*
X141500D01*
Y372000D02*
Y372500D01*
Y372000D02*
X142000D01*
Y371000D02*
Y372000D01*
X141500Y371000D02*
X142000D01*
X141500Y370500D02*
Y371000D01*
X140500Y370500D02*
X141500D01*
X140500D02*
Y371000D01*
X150000Y354500D02*
X150500D01*
X150000D02*
Y355500D01*
X150500D01*
Y356000D01*
X151500D01*
Y355500D02*
Y356000D01*
Y355500D02*
X152000D01*
Y354500D02*
Y355500D01*
X151500Y354500D02*
X152000D01*
X151500Y354000D02*
Y354500D01*
X150500Y354000D02*
X151500D01*
X150500D02*
Y354500D01*
X186500Y370414D02*
X187000D01*
X186500D02*
Y371414D01*
X187000D01*
Y371914D01*
X188000D01*
Y371414D02*
Y371914D01*
Y371414D02*
X188500D01*
Y370414D02*
Y371414D01*
X188000Y370414D02*
X188500D01*
X188000Y369914D02*
Y370414D01*
X187000Y369914D02*
X188000D01*
X187000D02*
Y370414D01*
X269000Y342000D02*
X269500D01*
X269000D02*
Y343000D01*
X269500D01*
Y343500D01*
X270500D01*
Y343000D02*
Y343500D01*
Y343000D02*
X271000D01*
Y342000D02*
Y343000D01*
X270500Y342000D02*
X271000D01*
X270500Y341500D02*
Y342000D01*
X269500Y341500D02*
X270500D01*
X269500D02*
Y342000D01*
X219000Y199500D02*
X219500D01*
X219000D02*
Y200500D01*
X219500D01*
Y201000D01*
X220500D01*
Y200500D02*
Y201000D01*
Y200500D02*
X221000D01*
Y199500D02*
Y200500D01*
X220500Y199500D02*
X221000D01*
X220500Y199000D02*
Y199500D01*
X219500Y199000D02*
X220500D01*
X219500D02*
Y199500D01*
X371841Y209500D02*
X372341D01*
X371841D02*
Y210500D01*
X372341D01*
Y211000D01*
X373341D01*
Y210500D02*
Y211000D01*
Y210500D02*
X373841D01*
Y209500D02*
Y210500D01*
X373341Y209500D02*
X373841D01*
X373341Y209000D02*
Y209500D01*
X372341Y209000D02*
X373341D01*
X372341D02*
Y209500D01*
X368241Y291129D02*
X368741D01*
X368241D02*
Y292129D01*
X368741D01*
Y292629D01*
X369741D01*
Y292129D02*
Y292629D01*
Y292129D02*
X370241D01*
Y291129D02*
Y292129D01*
X369741Y291129D02*
X370241D01*
X369741Y290629D02*
Y291129D01*
X368741Y290629D02*
X369741D01*
X368741D02*
Y291129D01*
X541839Y108402D02*
X542339D01*
X541839D02*
Y109402D01*
X542339D01*
Y109902D01*
X543339D01*
Y109402D02*
Y109902D01*
Y109402D02*
X543839D01*
Y108402D02*
Y109402D01*
X543339Y108402D02*
X543839D01*
X543339Y107902D02*
Y108402D01*
X542339Y107902D02*
X543339D01*
X542339D02*
Y108402D01*
X511661Y129177D02*
X512161D01*
X511661D02*
Y130177D01*
X512161D01*
Y130677D01*
X513161D01*
Y130177D02*
Y130677D01*
Y130177D02*
X513661D01*
Y129177D02*
Y130177D01*
X513161Y129177D02*
X513661D01*
X513161Y128677D02*
Y129177D01*
X512161Y128677D02*
X513161D01*
X512161D02*
Y129177D01*
X465793Y89432D02*
X466293D01*
X465793D02*
Y90431D01*
X466293D01*
Y90931D01*
X467293D01*
Y90431D02*
Y90931D01*
Y90431D02*
X467793D01*
Y89432D02*
Y90431D01*
X467293Y89432D02*
X467793D01*
X467293Y88932D02*
Y89432D01*
X466293Y88932D02*
X467293D01*
X466293D02*
Y89432D01*
X339000Y71200D02*
X339500D01*
X339000D02*
Y72200D01*
X339500D01*
Y72700D01*
X340500D01*
Y72200D02*
Y72700D01*
Y72200D02*
X341000D01*
Y71200D02*
Y72200D01*
X340500Y71200D02*
X341000D01*
X340500Y70700D02*
Y71200D01*
X339500Y70700D02*
X340500D01*
X339500D02*
Y71200D01*
X29700Y52500D02*
X30200D01*
X29700D02*
Y53500D01*
X30200D01*
Y54000D01*
X31200D01*
Y53500D02*
Y54000D01*
Y53500D02*
X31700D01*
Y52500D02*
Y53500D01*
X31200Y52500D02*
X31700D01*
X31200Y52000D02*
Y52500D01*
X30200Y52000D02*
X31200D01*
X30200D02*
Y52500D01*
X66500Y44000D02*
X67000D01*
X66500D02*
Y45000D01*
X67000D01*
Y45500D01*
X68000D01*
Y45000D02*
Y45500D01*
Y45000D02*
X68500D01*
Y44000D02*
Y45000D01*
X68000Y44000D02*
X68500D01*
X68000Y43500D02*
Y44000D01*
X67000Y43500D02*
X68000D01*
X67000D02*
Y44000D01*
X20000Y334500D02*
X20500D01*
X20000D02*
Y335500D01*
X20500D01*
Y336000D01*
X21500D01*
Y335500D02*
Y336000D01*
Y335500D02*
X22000D01*
Y334500D02*
Y335500D01*
X21500Y334500D02*
X22000D01*
X21500Y334000D02*
Y334500D01*
X20500Y334000D02*
X21500D01*
X20500D02*
Y334500D01*
X16500Y317000D02*
X17000D01*
X16500D02*
Y318000D01*
X17000D01*
Y318500D01*
X18000D01*
Y318000D02*
Y318500D01*
Y318000D02*
X18500D01*
Y317000D02*
Y318000D01*
X18000Y317000D02*
X18500D01*
X18000Y316500D02*
Y317000D01*
X17000Y316500D02*
X18000D01*
X17000D02*
Y317000D01*
X12900Y342400D02*
X13400D01*
X12900D02*
Y343400D01*
X13400D01*
Y343900D01*
X14400D01*
Y343400D02*
Y343900D01*
Y343400D02*
X14900D01*
Y342400D02*
Y343400D01*
X14400Y342400D02*
X14900D01*
X14400Y341900D02*
Y342400D01*
X13400Y341900D02*
X14400D01*
X13400D02*
Y342400D01*
X152276Y277815D02*
X152776D01*
X152276D02*
Y278815D01*
X152776D01*
Y279315D01*
X153776D01*
Y278815D02*
Y279315D01*
Y278815D02*
X154276D01*
Y277815D02*
Y278815D01*
X153776Y277815D02*
X154276D01*
X153776Y277315D02*
Y277815D01*
X152776Y277315D02*
X153776D01*
X152776D02*
Y277815D01*
X96500Y154500D02*
X97000D01*
X96500D02*
Y155500D01*
X97000D01*
Y156000D01*
X98000D01*
Y155500D02*
Y156000D01*
Y155500D02*
X98500D01*
Y154500D02*
Y155500D01*
X98000Y154500D02*
X98500D01*
X98000Y154000D02*
Y154500D01*
X97000Y154000D02*
X98000D01*
X97000D02*
Y154500D01*
X96500Y212000D02*
X97000D01*
X96500D02*
Y213000D01*
X97000D01*
Y213500D01*
X98000D01*
Y213000D02*
Y213500D01*
Y213000D02*
X98500D01*
Y212000D02*
Y213000D01*
X98000Y212000D02*
X98500D01*
X98000Y211500D02*
Y212000D01*
X97000Y211500D02*
X98000D01*
X97000D02*
Y212000D01*
X66500D02*
X67000D01*
X66500D02*
Y213000D01*
X67000D01*
Y213500D01*
X68000D01*
Y213000D02*
Y213500D01*
Y213000D02*
X68500D01*
Y212000D02*
Y213000D01*
X68000Y212000D02*
X68500D01*
X68000Y211500D02*
Y212000D01*
X67000Y211500D02*
X68000D01*
X67000D02*
Y212000D01*
X52900D02*
X53400D01*
X52900D02*
Y213000D01*
X53400D01*
Y213500D01*
X54400D01*
Y213000D02*
Y213500D01*
Y213000D02*
X54900D01*
Y212000D02*
Y213000D01*
X54400Y212000D02*
X54900D01*
X54400Y211500D02*
Y212000D01*
X53400Y211500D02*
X54400D01*
X53400D02*
Y212000D01*
X52900Y254500D02*
X53400D01*
X52900D02*
Y255500D01*
X53400D01*
Y256000D01*
X54400D01*
Y255500D02*
Y256000D01*
Y255500D02*
X54900D01*
Y254500D02*
Y255500D01*
X54400Y254500D02*
X54900D01*
X54400Y254000D02*
Y254500D01*
X53400Y254000D02*
X54400D01*
X53400D02*
Y254500D01*
X176500Y257000D02*
X177000D01*
X176500D02*
Y258000D01*
X177000D01*
Y258500D01*
X178000D01*
Y258000D02*
Y258500D01*
Y258000D02*
X178500D01*
Y257000D02*
Y258000D01*
X178000Y257000D02*
X178500D01*
X178000Y256500D02*
Y257000D01*
X177000Y256500D02*
X178000D01*
X177000D02*
Y257000D01*
X176500Y182499D02*
X177000D01*
X176500D02*
Y183499D01*
X177000D01*
Y183999D01*
X178000D01*
Y183499D02*
Y183999D01*
Y183499D02*
X178500D01*
Y182499D02*
Y183499D01*
X178000Y182499D02*
X178500D01*
X178000Y181999D02*
Y182499D01*
X177000Y181999D02*
X178000D01*
X177000D02*
Y182499D01*
X194626Y279500D02*
X195126D01*
X194626D02*
Y280500D01*
X195126D01*
Y281000D01*
X196126D01*
Y280500D02*
Y281000D01*
Y280500D02*
X196626D01*
Y279500D02*
Y280500D01*
X196126Y279500D02*
X196626D01*
X196126Y279000D02*
Y279500D01*
X195126Y279000D02*
X196126D01*
X195126D02*
Y279500D01*
X140000Y122000D02*
X140500D01*
X140000D02*
Y123000D01*
X140500D01*
Y123500D01*
X141500D01*
Y123000D02*
Y123500D01*
Y123000D02*
X142000D01*
Y122000D02*
Y123000D01*
X141500Y122000D02*
X142000D01*
X141500Y121500D02*
Y122000D01*
X140500Y121500D02*
X141500D01*
X140500D02*
Y122000D01*
X96500Y192000D02*
X97000D01*
X96500D02*
Y193000D01*
X97000D01*
Y193500D01*
X98000D01*
Y193000D02*
Y193500D01*
Y193000D02*
X98500D01*
Y192000D02*
Y193000D01*
X98000Y192000D02*
X98500D01*
X98000Y191500D02*
Y192000D01*
X97000Y191500D02*
X98000D01*
X97000D02*
Y192000D01*
X29700Y104500D02*
X30200D01*
X29700D02*
Y105500D01*
X30200D01*
Y106000D01*
X31200D01*
Y105500D02*
Y106000D01*
Y105500D02*
X31700D01*
Y104500D02*
Y105500D01*
X31200Y104500D02*
X31700D01*
X31200Y104000D02*
Y104500D01*
X30200Y104000D02*
X31200D01*
X30200D02*
Y104500D01*
X66500Y58200D02*
X67000D01*
X66500D02*
Y59200D01*
X67000D01*
Y59700D01*
X68000D01*
Y59200D02*
Y59700D01*
Y59200D02*
X68500D01*
Y58200D02*
Y59200D01*
X68000Y58200D02*
X68500D01*
X68000Y57700D02*
Y58200D01*
X67000Y57700D02*
X68000D01*
X67000D02*
Y58200D01*
X66500Y104500D02*
X67000D01*
X66500D02*
Y105500D01*
X67000D01*
Y106000D01*
X68000D01*
Y105500D02*
Y106000D01*
Y105500D02*
X68500D01*
Y104500D02*
Y105500D01*
X68000Y104500D02*
X68500D01*
X68000Y104000D02*
Y104500D01*
X67000Y104000D02*
X68000D01*
X67000D02*
Y104500D01*
X184000Y199500D02*
X184500D01*
X184000D02*
Y200500D01*
X184500D01*
Y201000D01*
X185500D01*
Y200500D02*
Y201000D01*
Y200500D02*
X186000D01*
Y199500D02*
Y200500D01*
X185500Y199500D02*
X186000D01*
X185500Y199000D02*
Y199500D01*
X184500Y199000D02*
X185500D01*
X184500D02*
Y199500D01*
X151959Y96414D02*
X152459D01*
X151959D02*
Y97414D01*
X152459D01*
Y97914D01*
X153459D01*
Y97414D02*
Y97914D01*
Y97414D02*
X153959D01*
Y96414D02*
Y97414D01*
X153459Y96414D02*
X153959D01*
X153459Y95914D02*
Y96414D01*
X152459Y95914D02*
X153459D01*
X152459D02*
Y96414D01*
X151959Y127000D02*
X152459D01*
X151959D02*
Y128000D01*
X152459D01*
Y128500D01*
X153459D01*
Y128000D02*
Y128500D01*
Y128000D02*
X153959D01*
Y127000D02*
Y128000D01*
X153459Y127000D02*
X153959D01*
X153459Y126500D02*
Y127000D01*
X152459Y126500D02*
X153459D01*
X152459D02*
Y127000D01*
X244000Y299500D02*
X244500D01*
X244000D02*
Y300500D01*
X244500D01*
Y301000D01*
X245500D01*
Y300500D02*
Y301000D01*
Y300500D02*
X246000D01*
Y299500D02*
Y300500D01*
X245500Y299500D02*
X246000D01*
X245500Y299000D02*
Y299500D01*
X244500Y299000D02*
X245500D01*
X244500D02*
Y299500D01*
X194626Y239266D02*
X195126D01*
X194626D02*
Y240266D01*
X195126D01*
Y240766D01*
X196126D01*
Y240266D02*
Y240766D01*
Y240266D02*
X196626D01*
Y239266D02*
Y240266D01*
X196126Y239266D02*
X196626D01*
X196126Y238766D02*
Y239266D01*
X195126Y238766D02*
X196126D01*
X195126D02*
Y239266D01*
X176500Y222000D02*
X177000D01*
X176500D02*
Y223000D01*
X177000D01*
Y223500D01*
X178000D01*
Y223000D02*
Y223500D01*
Y223000D02*
X178500D01*
Y222000D02*
Y223000D01*
X178000Y222000D02*
X178500D01*
X178000Y221500D02*
Y222000D01*
X177000Y221500D02*
X178000D01*
X177000D02*
Y222000D01*
X219000Y172823D02*
X219500D01*
X219000D02*
Y173823D01*
X219500D01*
Y174323D01*
X220500D01*
Y173823D02*
Y174323D01*
Y173823D02*
X221000D01*
Y172823D02*
Y173823D01*
X220500Y172823D02*
X221000D01*
X220500Y172323D02*
Y172823D01*
X219500Y172323D02*
X220500D01*
X219500D02*
Y172823D01*
X219000Y182000D02*
X219500D01*
X219000D02*
Y183000D01*
X219500D01*
Y183500D01*
X220500D01*
Y183000D02*
Y183500D01*
Y183000D02*
X221000D01*
Y182000D02*
Y183000D01*
X220500Y182000D02*
X221000D01*
X220500Y181500D02*
Y182000D01*
X219500Y181500D02*
X220500D01*
X219500D02*
Y182000D01*
X219000Y149500D02*
X219500D01*
X219000D02*
Y150500D01*
X219500D01*
Y151000D01*
X220500D01*
Y150500D02*
Y151000D01*
Y150500D02*
X221000D01*
Y149500D02*
Y150500D01*
X220500Y149500D02*
X221000D01*
X220500Y149000D02*
Y149500D01*
X219500Y149000D02*
X220500D01*
X219500D02*
Y149500D01*
X219000Y126697D02*
X219500D01*
X219000D02*
Y127697D01*
X219500D01*
Y128197D01*
X220500D01*
Y127697D02*
Y128197D01*
Y127697D02*
X221000D01*
Y126697D02*
Y127697D01*
X220500Y126697D02*
X221000D01*
X220500Y126197D02*
Y126697D01*
X219500Y126197D02*
X220500D01*
X219500D02*
Y126697D01*
X221500Y299500D02*
X222000D01*
X221500D02*
Y300500D01*
X222000D01*
Y301000D01*
X223000D01*
Y300500D02*
Y301000D01*
Y300500D02*
X223500D01*
Y299500D02*
Y300500D01*
X223000Y299500D02*
X223500D01*
X223000Y299000D02*
Y299500D01*
X222000Y299000D02*
X223000D01*
X222000D02*
Y299500D01*
X269000Y54500D02*
X269500D01*
X269000D02*
Y55500D01*
X269500D01*
Y56000D01*
X270500D01*
Y55500D02*
Y56000D01*
Y55500D02*
X271000D01*
Y54500D02*
Y55500D01*
X270500Y54500D02*
X271000D01*
X270500Y54000D02*
Y54500D01*
X269500Y54000D02*
X270500D01*
X269500D02*
Y54500D01*
X259113Y58471D02*
X259613D01*
X259113D02*
Y59471D01*
X259613D01*
Y59971D01*
X260613D01*
Y59471D02*
Y59971D01*
Y59471D02*
X261113D01*
Y58471D02*
Y59471D01*
X260613Y58471D02*
X261113D01*
X260613Y57971D02*
Y58471D01*
X259613Y57971D02*
X260613D01*
X259613D02*
Y58471D01*
X291500Y63100D02*
X292000D01*
X291500D02*
Y64100D01*
X292000D01*
Y64600D01*
X293000D01*
Y64100D02*
Y64600D01*
Y64100D02*
X293500D01*
Y63100D02*
Y64100D01*
X293000Y63100D02*
X293500D01*
X293000Y62600D02*
Y63100D01*
X292000Y62600D02*
X293000D01*
X292000D02*
Y63100D01*
X219000Y232000D02*
X219500D01*
X219000D02*
Y233000D01*
X219500D01*
Y233500D01*
X220500D01*
Y233000D02*
Y233500D01*
Y233000D02*
X221000D01*
Y232000D02*
Y233000D01*
X220500Y232000D02*
X221000D01*
X220500Y231500D02*
Y232000D01*
X219500Y231500D02*
X220500D01*
X219500D02*
Y232000D01*
X416900Y240199D02*
X417400D01*
X416900D02*
Y241199D01*
X417400D01*
Y241699D01*
X418400D01*
Y241199D02*
Y241699D01*
Y241199D02*
X418900D01*
Y240199D02*
Y241199D01*
X418400Y240199D02*
X418900D01*
X418400Y239699D02*
Y240199D01*
X417400Y239699D02*
X418400D01*
X417400D02*
Y240199D01*
X416900Y282000D02*
X417400D01*
X416900D02*
Y283000D01*
X417400D01*
Y283500D01*
X418400D01*
Y283000D02*
Y283500D01*
Y283000D02*
X418900D01*
Y282000D02*
Y283000D01*
X418400Y282000D02*
X418900D01*
X418400Y281500D02*
Y282000D01*
X417400Y281500D02*
X418400D01*
X417400D02*
Y282000D01*
X416900Y262200D02*
X417400D01*
X416900D02*
Y263200D01*
X417400D01*
Y263700D01*
X418400D01*
Y263200D02*
Y263700D01*
Y263200D02*
X418900D01*
Y262200D02*
Y263200D01*
X418400Y262200D02*
X418900D01*
X418400Y261700D02*
Y262200D01*
X417400Y261700D02*
X418400D01*
X417400D02*
Y262200D01*
X438100Y288900D02*
X438600D01*
X438100D02*
Y289900D01*
X438600D01*
Y290400D01*
X439600D01*
Y289900D02*
Y290400D01*
Y289900D02*
X440100D01*
Y288900D02*
Y289900D01*
X439600Y288900D02*
X440100D01*
X439600Y288400D02*
Y288900D01*
X438600Y288400D02*
X439600D01*
X438600D02*
Y288900D01*
X465793Y322901D02*
X466293D01*
X465793D02*
Y323901D01*
X466293D01*
Y324401D01*
X467293D01*
Y323901D02*
Y324401D01*
Y323901D02*
X467793D01*
Y322901D02*
Y323901D01*
X467293Y322901D02*
X467793D01*
X467293Y322401D02*
Y322901D01*
X466293Y322401D02*
X467293D01*
X466293D02*
Y322901D01*
X461500Y139735D02*
X462000D01*
X461500D02*
Y140735D01*
X462000D01*
Y141235D01*
X463000D01*
Y140735D02*
Y141235D01*
Y140735D02*
X463500D01*
Y139735D02*
Y140735D01*
X463000Y139735D02*
X463500D01*
X463000Y139235D02*
Y139735D01*
X462000Y139235D02*
X463000D01*
X462000D02*
Y139735D01*
X461500Y155500D02*
X462000D01*
X461500D02*
Y156500D01*
X462000D01*
Y157000D01*
X463000D01*
Y156500D02*
Y157000D01*
Y156500D02*
X463500D01*
Y155500D02*
Y156500D01*
X463000Y155500D02*
X463500D01*
X463000Y155000D02*
Y155500D01*
X462000Y155000D02*
X463000D01*
X462000D02*
Y155500D01*
X461500Y129435D02*
X462000D01*
X461500D02*
Y130435D01*
X462000D01*
Y130935D01*
X463000D01*
Y130435D02*
Y130935D01*
Y130435D02*
X463500D01*
Y129435D02*
Y130435D01*
X463000Y129435D02*
X463500D01*
X463000Y128935D02*
Y129435D01*
X462000Y128935D02*
X463000D01*
X462000D02*
Y129435D01*
X357501Y107399D02*
X358001D01*
X357501D02*
Y108399D01*
X358001D01*
Y108899D01*
X359001D01*
Y108399D02*
Y108899D01*
Y108399D02*
X359501D01*
Y107399D02*
Y108399D01*
X359001Y107399D02*
X359501D01*
X359001Y106899D02*
Y107399D01*
X358001Y106899D02*
X359001D01*
X358001D02*
Y107399D01*
X358416Y132032D02*
X358916D01*
X358416D02*
Y133031D01*
X358916D01*
Y133531D01*
X359916D01*
Y133031D02*
Y133531D01*
Y133031D02*
X360416D01*
Y132032D02*
Y133031D01*
X359916Y132032D02*
X360416D01*
X359916Y131532D02*
Y132032D01*
X358916Y131532D02*
X359916D01*
X358916D02*
Y132032D01*
X281246Y114000D02*
X281747D01*
X281246D02*
Y115000D01*
X281747D01*
Y115500D01*
X282747D01*
Y115000D02*
Y115500D01*
Y115000D02*
X283246D01*
Y114000D02*
Y115000D01*
X282747Y114000D02*
X283246D01*
X282747Y113500D02*
Y114000D01*
X281747Y113500D02*
X282747D01*
X281747D02*
Y114000D01*
X261500Y75838D02*
X262000D01*
X261500D02*
Y76838D01*
X262000D01*
Y77338D01*
X263000D01*
Y76838D02*
Y77338D01*
Y76838D02*
X263500D01*
Y75838D02*
Y76838D01*
X263000Y75838D02*
X263500D01*
X263000Y75338D02*
Y75838D01*
X262000Y75338D02*
X263000D01*
X262000D02*
Y75838D01*
X97086Y170858D02*
X97586D01*
X97086D02*
Y171858D01*
X97586D01*
Y172358D01*
X98586D01*
Y171858D02*
Y172358D01*
Y171858D02*
X99086D01*
Y170858D02*
Y171858D01*
X98586Y170858D02*
X99086D01*
X98586Y170358D02*
Y170858D01*
X97586Y170358D02*
X98586D01*
X97586D02*
Y170858D01*
X29500Y169600D02*
X30000D01*
X29500D02*
Y170600D01*
X30000D01*
Y171100D01*
X31000D01*
Y170600D02*
Y171100D01*
Y170600D02*
X31500D01*
Y169600D02*
Y170600D01*
X31000Y169600D02*
X31500D01*
X31000Y169100D02*
Y169600D01*
X30000Y169100D02*
X31000D01*
X30000D02*
Y169600D01*
X430378Y342157D02*
X430878D01*
X430378D02*
Y343157D01*
X430878D01*
Y343657D01*
X431878D01*
Y343157D02*
Y343657D01*
Y343157D02*
X432378D01*
Y342157D02*
Y343157D01*
X431878Y342157D02*
X432378D01*
X431878Y341657D02*
Y342157D01*
X430878Y341657D02*
X431878D01*
X430878D02*
Y342157D01*
X500300Y371500D02*
X500800D01*
X500300D02*
Y372500D01*
X500800D01*
Y373000D01*
X501800D01*
Y372500D02*
Y373000D01*
Y372500D02*
X502300D01*
Y371500D02*
Y372500D01*
X501800Y371500D02*
X502300D01*
X501800Y371000D02*
Y371500D01*
X500800Y371000D02*
X501800D01*
X500800D02*
Y371500D01*
X524431Y253500D02*
X524931D01*
X524431D02*
Y254500D01*
X524931D01*
Y255000D01*
X525931D01*
Y254500D02*
Y255000D01*
Y254500D02*
X526431D01*
Y253500D02*
Y254500D01*
X525931Y253500D02*
X526431D01*
X525931Y253000D02*
Y253500D01*
X524931Y253000D02*
X525931D01*
X524931D02*
Y253500D01*
X541839Y65827D02*
X542339D01*
X541839D02*
Y66827D01*
X542339D01*
Y67327D01*
X543339D01*
Y66827D02*
Y67327D01*
Y66827D02*
X543839D01*
Y65827D02*
Y66827D01*
X543339Y65827D02*
X543839D01*
X543339Y65327D02*
Y65827D01*
X542339Y65327D02*
X543339D01*
X542339D02*
Y65827D01*
X465911Y51934D02*
X466411D01*
X465911D02*
Y52934D01*
X466411D01*
Y53434D01*
X467411D01*
Y52934D02*
Y53434D01*
Y52934D02*
X467911D01*
Y51934D02*
Y52934D01*
X467411Y51934D02*
X467911D01*
X467411Y51434D02*
Y51934D01*
X466411Y51434D02*
X467411D01*
X466411D02*
Y51934D01*
X408667Y201191D02*
X409167D01*
X408667D02*
Y202191D01*
X409167D01*
Y202691D01*
X410167D01*
Y202191D02*
Y202691D01*
Y202191D02*
X410667D01*
Y201191D02*
Y202191D01*
X410167Y201191D02*
X410667D01*
X410167Y200691D02*
Y201191D01*
X409167Y200691D02*
X410167D01*
X409167D02*
Y201191D01*
X219809Y254109D02*
X220309D01*
X219809D02*
Y255109D01*
X220309D01*
Y255609D01*
X221309D01*
Y255109D02*
Y255609D01*
Y255109D02*
X221809D01*
Y254109D02*
Y255109D01*
X221309Y254109D02*
X221809D01*
X221309Y253609D02*
Y254109D01*
X220309Y253609D02*
X221309D01*
X220309D02*
Y254109D01*
X152110Y171259D02*
X152610D01*
X152110D02*
Y172259D01*
X152610D01*
Y172759D01*
X153610D01*
Y172259D02*
Y172759D01*
Y172259D02*
X154110D01*
Y171259D02*
Y172259D01*
X153610Y171259D02*
X154110D01*
X153610Y170759D02*
Y171259D01*
X152610Y170759D02*
X153610D01*
X152610D02*
Y171259D01*
X66005Y15588D02*
X66505D01*
X66005D02*
Y16588D01*
X66505D01*
Y17088D01*
X67506D01*
Y16588D02*
Y17088D01*
Y16588D02*
X68006D01*
Y15588D02*
Y16588D01*
X67506Y15588D02*
X68006D01*
X67506Y15088D02*
Y15588D01*
X66505Y15088D02*
X67506D01*
X66505D02*
Y15588D01*
X29500Y205571D02*
X30000D01*
X29500D02*
Y206571D01*
X30000D01*
Y207071D01*
X31000D01*
Y206571D02*
Y207071D01*
Y206571D02*
X31500D01*
Y205571D02*
Y206571D01*
X31000Y205571D02*
X31500D01*
X31000Y205071D02*
Y205571D01*
X30000Y205071D02*
X31000D01*
X30000D02*
Y205571D01*
X415753Y56995D02*
X416253D01*
X415753D02*
Y57995D01*
X416253D01*
Y58495D01*
X417253D01*
Y57995D02*
Y58495D01*
Y57995D02*
X417753D01*
Y56995D02*
Y57995D01*
X417253Y56995D02*
X417753D01*
X417253Y56495D02*
Y56995D01*
X416253Y56495D02*
X417253D01*
X416253D02*
Y56995D01*
X350428Y194346D02*
X350928D01*
X350428D02*
Y195346D01*
X350928D01*
Y195846D01*
X351928D01*
Y195346D02*
Y195846D01*
Y195346D02*
X352428D01*
Y194346D02*
Y195346D01*
X351928Y194346D02*
X352428D01*
X351928Y193846D02*
Y194346D01*
X350928Y193846D02*
X351928D01*
X350928D02*
Y194346D01*
X121965Y240829D02*
X122465D01*
X121965D02*
Y241829D01*
X122465D01*
Y242329D01*
X123465D01*
Y241829D02*
Y242329D01*
Y241829D02*
X123965D01*
Y240829D02*
Y241829D01*
X123465Y240829D02*
X123965D01*
X123465Y240329D02*
Y240829D01*
X122465Y240329D02*
X123465D01*
X122465D02*
Y240829D01*
X337100Y275500D02*
X337600D01*
X337100D02*
Y276500D01*
X337600D01*
Y277000D01*
X338600D01*
Y276500D02*
Y277000D01*
Y276500D02*
X339100D01*
Y275500D02*
Y276500D01*
X338600Y275500D02*
X339100D01*
X338600Y275000D02*
Y275500D01*
X337600Y275000D02*
X338600D01*
X337600D02*
Y275500D01*
X573800Y94153D02*
X574300D01*
X573800D02*
Y95153D01*
X574300D01*
Y95653D01*
X575300D01*
Y95153D02*
Y95653D01*
Y95153D02*
X575800D01*
Y94153D02*
Y95153D01*
X575300Y94153D02*
X575800D01*
X575300Y93653D02*
Y94153D01*
X574300Y93653D02*
X575300D01*
X574300D02*
Y94153D01*
X443501Y146445D02*
X444001D01*
X443501D02*
Y147445D01*
X444001D01*
Y147945D01*
X445001D01*
Y147445D02*
Y147945D01*
Y147445D02*
X445501D01*
Y146445D02*
Y147445D01*
X445001Y146445D02*
X445501D01*
X445001Y145945D02*
Y146445D01*
X444001Y145945D02*
X445001D01*
X444001D02*
Y146445D01*
X214135Y384900D02*
X214635D01*
X214135D02*
Y385900D01*
X214635D01*
Y386400D01*
X215635D01*
Y385900D02*
Y386400D01*
Y385900D02*
X216135D01*
Y384900D02*
Y385900D01*
X215635Y384900D02*
X216135D01*
X215635Y384400D02*
Y384900D01*
X214635Y384400D02*
X215635D01*
X214635D02*
Y384900D01*
X275249Y240075D02*
X275749D01*
X275249D02*
Y241075D01*
X275749D01*
Y241575D01*
X276749D01*
Y241075D02*
Y241575D01*
Y241075D02*
X277249D01*
Y240075D02*
Y241075D01*
X276749Y240075D02*
X277249D01*
X276749Y239575D02*
Y240075D01*
X275749Y239575D02*
X276749D01*
X275749D02*
Y240075D01*
X449000Y19000D02*
X451000D01*
Y21000D01*
X449000D02*
X451000D01*
X449000Y19000D02*
Y21000D01*
X429000Y19000D02*
X431000D01*
Y21000D01*
X429000D02*
X431000D01*
X429000Y19000D02*
Y21000D01*
X525500Y19000D02*
X527500D01*
Y21000D01*
X525500D02*
X527500D01*
X525500Y19000D02*
Y21000D01*
X505500Y19000D02*
X507500D01*
Y21000D01*
X505500D02*
X507500D01*
X505500Y19000D02*
Y21000D01*
X577500Y316323D02*
X578500Y318323D01*
X576500D02*
X578500D01*
X576500D02*
X577500Y316323D01*
Y299000D02*
X578500Y301000D01*
X576500D02*
X578500D01*
X576500D02*
X577500Y299000D01*
X293800Y376100D02*
X294300Y375600D01*
X293300Y376100D02*
X293800D01*
X293300D02*
X293800Y376600D01*
X293300Y377100D02*
X293800Y376600D01*
X293300Y377100D02*
X293800D01*
X294300Y377600D01*
X294800Y377100D01*
X295300D01*
X294800Y376600D02*
X295300Y377100D01*
X294800Y376600D02*
X295300Y376100D01*
X294800D02*
X295300D01*
X294300Y375600D02*
X294800Y376100D01*
X398918D02*
X399418Y375600D01*
X398418Y376100D02*
X398918D01*
X398418D02*
X398918Y376600D01*
X398418Y377100D02*
X398918Y376600D01*
X398418Y377100D02*
X398918D01*
X399418Y377600D01*
X399918Y377100D01*
X400418D01*
X399918Y376600D02*
X400418Y377100D01*
X399918Y376600D02*
X400418Y376100D01*
X399918D02*
X400418D01*
X399418Y375600D02*
X399918Y376100D01*
X398918Y250116D02*
X399418Y249616D01*
X398418Y250116D02*
X398918D01*
X398418D02*
X398918Y250616D01*
X398418Y251116D02*
X398918Y250616D01*
X398418Y251116D02*
X398918D01*
X399418Y251616D01*
X399918Y251116D01*
X400418D01*
X399918Y250616D02*
X400418Y251116D01*
X399918Y250616D02*
X400418Y250116D01*
X399918D02*
X400418D01*
X399418Y249616D02*
X399918Y250116D01*
X293800D02*
X294300Y249616D01*
X293300Y250116D02*
X293800D01*
X293300D02*
X293800Y250616D01*
X293300Y251116D02*
X293800Y250616D01*
X293300Y251116D02*
X293800D01*
X294300Y251616D01*
X294800Y251116D01*
X295300D01*
X294800Y250616D02*
X295300Y251116D01*
X294800Y250616D02*
X295300Y250116D01*
X294800D02*
X295300D01*
X294300Y249616D02*
X294800Y250116D01*
D68*
X670028Y110600D02*
X1729135D01*
X670028Y20600D02*
X1729135D01*
X670028Y5600D02*
X1729135D01*
Y125600D01*
X670028D02*
X1729135D01*
X670028Y5600D02*
Y125600D01*
X1591274Y5600D02*
Y125600D01*
X1457913Y5600D02*
Y125600D01*
X1372537Y5600D02*
Y125600D01*
X1307554Y5600D02*
Y125600D01*
X1232974Y5600D02*
Y125600D01*
X1173989Y5600D02*
Y125600D01*
X1024034Y5600D02*
Y125600D01*
X950654Y5600D02*
Y125600D01*
X900066Y5600D02*
Y125600D01*
X785100Y5600D02*
Y125600D01*
X725116Y5600D02*
Y125600D01*
X670479Y534146D02*
X1124359D01*
X670479Y546146D02*
X1124359D01*
X670479Y450146D02*
Y546146D01*
Y450146D02*
X711470D01*
X670479Y462146D02*
X711470D01*
X670479Y474146D02*
X711470D01*
X670479Y486146D02*
X711470D01*
X670479Y498146D02*
X711470D01*
X670479Y510146D02*
X711470D01*
X670479Y522146D02*
X711470D01*
Y450146D02*
Y546146D01*
Y450146D02*
X804444D01*
X711470Y462146D02*
X804444D01*
X711470Y474146D02*
X804444D01*
X711470Y486146D02*
X804444D01*
X711470Y498146D02*
X804444D01*
X711470Y510146D02*
X804444D01*
X711470Y522146D02*
X804444D01*
Y450146D02*
Y546146D01*
Y450146D02*
X890421D01*
X804444Y462146D02*
X890421D01*
X804444Y474146D02*
X890421D01*
X804444Y486146D02*
X890421D01*
X804444Y498146D02*
X890421D01*
X804444Y510146D02*
X890421D01*
X804444Y522146D02*
X890421D01*
Y450146D02*
Y546146D01*
Y450146D02*
X955405D01*
X890421Y462146D02*
X955405D01*
X890421Y474146D02*
X955405D01*
X890421Y486146D02*
X955405D01*
X890421Y498146D02*
X955405D01*
X890421Y510146D02*
X955405D01*
X890421Y522146D02*
X955405D01*
Y450146D02*
Y546146D01*
Y450146D02*
X1012391D01*
X955405Y462146D02*
X1012391D01*
X955405Y474146D02*
X1012391D01*
X955405Y486146D02*
X1012391D01*
X955405Y498146D02*
X1012391D01*
X955405Y510146D02*
X1012391D01*
X955405Y522146D02*
X1012391D01*
Y450146D02*
Y546146D01*
Y450146D02*
X1124359D01*
X1012391Y462146D02*
X1124359D01*
X1012391Y474146D02*
X1124359D01*
X1012391Y486146D02*
X1124359D01*
X1012391Y498146D02*
X1124359D01*
X1012391Y510146D02*
X1124359D01*
X1012391Y522146D02*
X1124359D01*
Y450146D02*
Y546146D01*
X670479Y144559D02*
X1124359D01*
Y447146D01*
X670479D02*
X1124359D01*
X670479Y144559D02*
Y447146D01*
D69*
X1118359Y450146D02*
X1124359Y456146D01*
X1112359Y450146D02*
X1124359Y462146D01*
X1106359Y450146D02*
X1118359Y462146D01*
X1100359Y450146D02*
X1112359Y462146D01*
X1094359Y450146D02*
X1106359Y462146D01*
X1088359Y450146D02*
X1100359Y462146D01*
X1082359Y450146D02*
X1094359Y462146D01*
X1076359Y450146D02*
X1088359Y462146D01*
X1070359Y450146D02*
X1082359Y462146D01*
X1064359Y450146D02*
X1076359Y462146D01*
X1058359Y450146D02*
X1070359Y462146D01*
X1052359Y450146D02*
X1064359Y462146D01*
X1046359Y450146D02*
X1058359Y462146D01*
X1040359Y450146D02*
X1052359Y462146D01*
X1034359Y450146D02*
X1046359Y462146D01*
X1028359Y450146D02*
X1040359Y462146D01*
X1022359Y450146D02*
X1034359Y462146D01*
X1016359Y450146D02*
X1028359Y462146D01*
X1012391Y452178D02*
X1022359Y462146D01*
X1012391Y458178D02*
X1016359Y462146D01*
X1118359D02*
X1124359Y468146D01*
X1112359Y462146D02*
X1124359Y474146D01*
X1106359Y462146D02*
X1118359Y474146D01*
X1100359Y462146D02*
X1112359Y474146D01*
X1094359Y462146D02*
X1106359Y474146D01*
X1088359Y462146D02*
X1100359Y474146D01*
X1082359Y462146D02*
X1094359Y474146D01*
X1076359Y462146D02*
X1088359Y474146D01*
X1070359Y462146D02*
X1082359Y474146D01*
X1064359Y462146D02*
X1076359Y474146D01*
X1058359Y462146D02*
X1070359Y474146D01*
X1052359Y462146D02*
X1064359Y474146D01*
X1046359Y462146D02*
X1058359Y474146D01*
X1040359Y462146D02*
X1052359Y474146D01*
X1034359Y462146D02*
X1046359Y474146D01*
X1028359Y462146D02*
X1040359Y474146D01*
X1022359Y462146D02*
X1034359Y474146D01*
X1016359Y462146D02*
X1028359Y474146D01*
X1012391Y464178D02*
X1022359Y474146D01*
X1012391Y470178D02*
X1016359Y474146D01*
X1118359D02*
X1124359Y480146D01*
X1112359Y474146D02*
X1124359Y486146D01*
X1106359Y474146D02*
X1118359Y486146D01*
X1100359Y474146D02*
X1112359Y486146D01*
X1094359Y474146D02*
X1106359Y486146D01*
X1088359Y474146D02*
X1100359Y486146D01*
X1082359Y474146D02*
X1094359Y486146D01*
X1076359Y474146D02*
X1088359Y486146D01*
X1070359Y474146D02*
X1082359Y486146D01*
X1064359Y474146D02*
X1076359Y486146D01*
X1058359Y474146D02*
X1070359Y486146D01*
X1052359Y474146D02*
X1064359Y486146D01*
X1046359Y474146D02*
X1058359Y486146D01*
X1040359Y474146D02*
X1052359Y486146D01*
X1034359Y474146D02*
X1046359Y486146D01*
X1028359Y474146D02*
X1040359Y486146D01*
X1022359Y474146D02*
X1034359Y486146D01*
X1016359Y474146D02*
X1028359Y486146D01*
X1012391Y476178D02*
X1022359Y486146D01*
X1012391Y482178D02*
X1016359Y486146D01*
X1118359D02*
X1124359Y492146D01*
X1112359Y486146D02*
X1124359Y498146D01*
X1106359Y486146D02*
X1118359Y498146D01*
X1100359Y486146D02*
X1112359Y498146D01*
X1094359Y486146D02*
X1106359Y498146D01*
X1088359Y486146D02*
X1100359Y498146D01*
X1082359Y486146D02*
X1094359Y498146D01*
X1076359Y486146D02*
X1088359Y498146D01*
X1070359Y486146D02*
X1082359Y498146D01*
X1064359Y486146D02*
X1076359Y498146D01*
X1058359Y486146D02*
X1070359Y498146D01*
X1052359Y486146D02*
X1064359Y498146D01*
X1046359Y486146D02*
X1058359Y498146D01*
X1040359Y486146D02*
X1052359Y498146D01*
X1034359Y486146D02*
X1046359Y498146D01*
X1028359Y486146D02*
X1040359Y498146D01*
X1022359Y486146D02*
X1034359Y498146D01*
X1016359Y486146D02*
X1028359Y498146D01*
X1012391Y488178D02*
X1022359Y498146D01*
X1012391Y494178D02*
X1016359Y498146D01*
X1118359D02*
X1124359Y504146D01*
X1112359Y498146D02*
X1124359Y510146D01*
X1106359Y498146D02*
X1118359Y510146D01*
X1100359Y498146D02*
X1112359Y510146D01*
X1094359Y498146D02*
X1106359Y510146D01*
X1088359Y498146D02*
X1100359Y510146D01*
X1082359Y498146D02*
X1094359Y510146D01*
X1076359Y498146D02*
X1088359Y510146D01*
X1070359Y498146D02*
X1082359Y510146D01*
X1064359Y498146D02*
X1076359Y510146D01*
X1058359Y498146D02*
X1070359Y510146D01*
X1052359Y498146D02*
X1064359Y510146D01*
X1046359Y498146D02*
X1058359Y510146D01*
X1040359Y498146D02*
X1052359Y510146D01*
X1034359Y498146D02*
X1046359Y510146D01*
X1028359Y498146D02*
X1040359Y510146D01*
X1022359Y498146D02*
X1034359Y510146D01*
X1016359Y498146D02*
X1028359Y510146D01*
X1012391Y500178D02*
X1022359Y510146D01*
X1012391Y506178D02*
X1016359Y510146D01*
X1118359D02*
X1124359Y516146D01*
X1112359Y510146D02*
X1124359Y522146D01*
X1106359Y510146D02*
X1118359Y522146D01*
X1100359Y510146D02*
X1112359Y522146D01*
X1094359Y510146D02*
X1106359Y522146D01*
X1088359Y510146D02*
X1100359Y522146D01*
X1082359Y510146D02*
X1094359Y522146D01*
X1076359Y510146D02*
X1088359Y522146D01*
X1070359Y510146D02*
X1082359Y522146D01*
X1064359Y510146D02*
X1076359Y522146D01*
X1058359Y510146D02*
X1070359Y522146D01*
X1052359Y510146D02*
X1064359Y522146D01*
X1046359Y510146D02*
X1058359Y522146D01*
X1040359Y510146D02*
X1052359Y522146D01*
X1034359Y510146D02*
X1046359Y522146D01*
X1028359Y510146D02*
X1040359Y522146D01*
X1022359Y510146D02*
X1034359Y522146D01*
X1016359Y510146D02*
X1028359Y522146D01*
X1012391Y512178D02*
X1022359Y522146D01*
X1012391Y518178D02*
X1016359Y522146D01*
X1118359D02*
X1124359Y528146D01*
X1112359Y522146D02*
X1124359Y534146D01*
X1106359Y522146D02*
X1118359Y534146D01*
X1100359Y522146D02*
X1112359Y534146D01*
X1094359Y522146D02*
X1106359Y534146D01*
X1088359Y522146D02*
X1100359Y534146D01*
X1082359Y522146D02*
X1094359Y534146D01*
X1076359Y522146D02*
X1088359Y534146D01*
X1070359Y522146D02*
X1082359Y534146D01*
X1064359Y522146D02*
X1076359Y534146D01*
X1058359Y522146D02*
X1070359Y534146D01*
X1052359Y522146D02*
X1064359Y534146D01*
X1046359Y522146D02*
X1058359Y534146D01*
X1040359Y522146D02*
X1052359Y534146D01*
X1034359Y522146D02*
X1046359Y534146D01*
X1028359Y522146D02*
X1040359Y534146D01*
X1022359Y522146D02*
X1034359Y534146D01*
X1016359Y522146D02*
X1028359Y534146D01*
X1012391Y524178D02*
X1022359Y534146D01*
X1012391Y530178D02*
X1016359Y534146D01*
X1118305Y144505D02*
X1124359Y150559D01*
X1112305Y144505D02*
X1124359Y156559D01*
X1106305Y144505D02*
X1124359Y162559D01*
X1100305Y144505D02*
X1124359Y168559D01*
X1094305Y144505D02*
X1124359Y174559D01*
X1088305Y144505D02*
X1124359Y180559D01*
X1082305Y144505D02*
X1124359Y186559D01*
X1076305Y144505D02*
X1124359Y192559D01*
X1070305Y144505D02*
X1124359Y198559D01*
X1064305Y144505D02*
X1124359Y204559D01*
X1058305Y144505D02*
X1124359Y210559D01*
X1052305Y144505D02*
X1124359Y216559D01*
X1046305Y144505D02*
X1124359Y222559D01*
X1040305Y144505D02*
X1124359Y228559D01*
X1034305Y144505D02*
X1124359Y234559D01*
X1028305Y144505D02*
X1124359Y240559D01*
X1022305Y144505D02*
X1124359Y246559D01*
X1016305Y144505D02*
X1124359Y252559D01*
X1010305Y144505D02*
X1124359Y258559D01*
X1004305Y144505D02*
X1124359Y264559D01*
X998305Y144505D02*
X1124359Y270559D01*
X992305Y144505D02*
X1124359Y276559D01*
X986305Y144505D02*
X1124359Y282559D01*
X980305Y144505D02*
X1124359Y288559D01*
X974305Y144505D02*
X1124359Y294559D01*
X968305Y144505D02*
X1124359Y300559D01*
X962305Y144505D02*
X1124359Y306559D01*
X956305Y144505D02*
X1124359Y312559D01*
X950305Y144505D02*
X1124359Y318559D01*
X944305Y144505D02*
X1124359Y324559D01*
X938305Y144505D02*
X1124359Y330559D01*
X932305Y144505D02*
X1124359Y336559D01*
X926305Y144505D02*
X1124359Y342559D01*
X920305Y144505D02*
X1124359Y348559D01*
X914305Y144505D02*
X1124359Y354559D01*
X908305Y144505D02*
X1124359Y360559D01*
X902305Y144505D02*
X1124359Y366559D01*
X896305Y144505D02*
X1124359Y372559D01*
X890305Y144505D02*
X1124359Y378559D01*
X884305Y144505D02*
X1124359Y384559D01*
X878305Y144505D02*
X1124359Y390559D01*
X872305Y144505D02*
X1124359Y396559D01*
X866305Y144505D02*
X1124359Y402559D01*
X860305Y144505D02*
X1124359Y408559D01*
X854305Y144505D02*
X1124359Y414559D01*
X848305Y144505D02*
X1124359Y420559D01*
X842305Y144505D02*
X1124359Y426559D01*
X836305Y144505D02*
X1124359Y432559D01*
X830305Y144505D02*
X1124359Y438559D01*
X824305Y144505D02*
X1124359Y444559D01*
X818305Y144505D02*
X1121000Y447200D01*
X812305Y144505D02*
X1115000Y447200D01*
X806305Y144505D02*
X1109000Y447200D01*
X800305Y144505D02*
X1103000Y447200D01*
X794305Y144505D02*
X1097000Y447200D01*
X788305Y144505D02*
X1091000Y447200D01*
X782305Y144505D02*
X1085000Y447200D01*
X776305Y144505D02*
X1079000Y447200D01*
X770305Y144505D02*
X1073000Y447200D01*
X764305Y144505D02*
X1067000Y447200D01*
X758305Y144505D02*
X1061000Y447200D01*
X752305Y144505D02*
X1055000Y447200D01*
X746305Y144505D02*
X1049000Y447200D01*
X740305Y144505D02*
X1043000Y447200D01*
X734305Y144505D02*
X1037000Y447200D01*
X728305Y144505D02*
X1031000Y447200D01*
X722305Y144505D02*
X1025000Y447200D01*
X716305Y144505D02*
X1019000Y447200D01*
X710305Y144505D02*
X1013000Y447200D01*
X704305Y144505D02*
X1007000Y447200D01*
X698305Y144505D02*
X1001000Y447200D01*
X692305Y144505D02*
X995000Y447200D01*
X686305Y144505D02*
X989000Y447200D01*
X680305Y144505D02*
X983000Y447200D01*
X674305Y144505D02*
X977000Y447200D01*
X670479Y146679D02*
X971000Y447200D01*
X670479Y152679D02*
X965000Y447200D01*
X670479Y158679D02*
X959000Y447200D01*
X670479Y164679D02*
X953000Y447200D01*
X670479Y170679D02*
X947000Y447200D01*
X670479Y176679D02*
X941000Y447200D01*
X670479Y182679D02*
X935000Y447200D01*
X670479Y188679D02*
X929000Y447200D01*
X670479Y194679D02*
X923000Y447200D01*
X670479Y200679D02*
X917000Y447200D01*
X670479Y206679D02*
X911000Y447200D01*
X670479Y212679D02*
X905000Y447200D01*
X670479Y218679D02*
X899000Y447200D01*
X670479Y224679D02*
X893000Y447200D01*
X670479Y230679D02*
X887000Y447200D01*
X670479Y236679D02*
X881000Y447200D01*
X670479Y242679D02*
X875000Y447200D01*
X670479Y248679D02*
X869000Y447200D01*
X670479Y254679D02*
X863000Y447200D01*
X670479Y260679D02*
X857000Y447200D01*
X670479Y266679D02*
X851000Y447200D01*
X670479Y272679D02*
X845000Y447200D01*
X670479Y278679D02*
X839000Y447200D01*
X670479Y284679D02*
X833000Y447200D01*
X670479Y290679D02*
X827000Y447200D01*
X670479Y296679D02*
X821000Y447200D01*
X670479Y302679D02*
X815000Y447200D01*
X670479Y308679D02*
X809000Y447200D01*
X670479Y314679D02*
X803000Y447200D01*
X670479Y320679D02*
X797000Y447200D01*
X670479Y326679D02*
X791000Y447200D01*
X670479Y332679D02*
X785000Y447200D01*
X670479Y338679D02*
X779000Y447200D01*
X670479Y344679D02*
X773000Y447200D01*
X670479Y350679D02*
X767000Y447200D01*
X670479Y356679D02*
X761000Y447200D01*
X670479Y362679D02*
X755000Y447200D01*
X670479Y368679D02*
X749000Y447200D01*
X670479Y374679D02*
X743000Y447200D01*
X670479Y380679D02*
X737000Y447200D01*
X670479Y386679D02*
X731000Y447200D01*
X670479Y392679D02*
X725000Y447200D01*
X670479Y398679D02*
X719000Y447200D01*
X670479Y404679D02*
X713000Y447200D01*
X670479Y410679D02*
X707000Y447200D01*
X670479Y416679D02*
X701000Y447200D01*
X670479Y422679D02*
X695000Y447200D01*
X670479Y428679D02*
X689000Y447200D01*
X670479Y434679D02*
X683000Y447200D01*
X670479Y440679D02*
X677000Y447200D01*
X670479Y446679D02*
X671000Y447200D01*
D70*
X1595774Y122298D02*
Y115100D01*
Y118699D01*
X1600572D01*
Y122298D01*
Y115100D01*
X1604171D02*
X1606570D01*
X1607770Y116300D01*
Y118699D01*
X1606570Y119898D01*
X1604171D01*
X1602971Y118699D01*
Y116300D01*
X1604171Y115100D01*
X1610169D02*
X1612568D01*
X1611369D01*
Y122298D01*
X1610169D01*
X1619766Y115100D02*
X1617367D01*
X1616167Y116300D01*
Y118699D01*
X1617367Y119898D01*
X1619766D01*
X1620966Y118699D01*
Y117499D01*
X1616167D01*
X1630563Y122298D02*
X1635361D01*
X1632962D01*
Y115100D01*
X1638960D02*
X1641359D01*
X1642559Y116300D01*
Y118699D01*
X1641359Y119898D01*
X1638960D01*
X1637760Y118699D01*
Y116300D01*
X1638960Y115100D01*
X1644958D02*
X1647357D01*
X1646158D01*
Y122298D01*
X1644958D01*
X1654555Y115100D02*
X1652156D01*
X1650956Y116300D01*
Y118699D01*
X1652156Y119898D01*
X1654555D01*
X1655754Y118699D01*
Y117499D01*
X1650956D01*
X1658154Y119898D02*
Y115100D01*
Y117499D01*
X1659353Y118699D01*
X1660553Y119898D01*
X1661753D01*
X1666551D02*
X1668950D01*
X1670150Y118699D01*
Y115100D01*
X1666551D01*
X1665351Y116300D01*
X1666551Y117499D01*
X1670150D01*
X1672549Y115100D02*
Y119898D01*
X1676148D01*
X1677348Y118699D01*
Y115100D01*
X1684545Y119898D02*
X1680946D01*
X1679747Y118699D01*
Y116300D01*
X1680946Y115100D01*
X1684545D01*
X1690543D02*
X1688144D01*
X1686944Y116300D01*
Y118699D01*
X1688144Y119898D01*
X1690543D01*
X1691743Y118699D01*
Y117499D01*
X1686944D01*
X1703739Y115100D02*
X1701340Y117499D01*
Y119898D01*
X1703739Y122298D01*
X1707338Y118699D02*
X1712136D01*
X1714535Y115100D02*
X1716935Y117499D01*
Y119898D01*
X1714535Y122298D01*
X1462413D02*
Y115100D01*
Y118699D01*
X1467212D01*
Y122298D01*
Y115100D01*
X1470810D02*
X1473210D01*
X1474409Y116300D01*
Y118699D01*
X1473210Y119898D01*
X1470810D01*
X1469611Y118699D01*
Y116300D01*
X1470810Y115100D01*
X1476808D02*
X1479208D01*
X1478008D01*
Y122298D01*
X1476808D01*
X1486405Y115100D02*
X1484006D01*
X1482806Y116300D01*
Y118699D01*
X1484006Y119898D01*
X1486405D01*
X1487605Y118699D01*
Y117499D01*
X1482806D01*
X1497202Y122298D02*
X1502000D01*
X1499601D01*
Y115100D01*
X1505599D02*
X1507998D01*
X1509198Y116300D01*
Y118699D01*
X1507998Y119898D01*
X1505599D01*
X1504399Y118699D01*
Y116300D01*
X1505599Y115100D01*
X1511597D02*
X1513996D01*
X1512797D01*
Y122298D01*
X1511597D01*
X1521194Y115100D02*
X1518795D01*
X1517595Y116300D01*
Y118699D01*
X1518795Y119898D01*
X1521194D01*
X1522394Y118699D01*
Y117499D01*
X1517595D01*
X1524793Y119898D02*
Y115100D01*
Y117499D01*
X1525992Y118699D01*
X1527192Y119898D01*
X1528392D01*
X1533190D02*
X1535589D01*
X1536789Y118699D01*
Y115100D01*
X1533190D01*
X1531991Y116300D01*
X1533190Y117499D01*
X1536789D01*
X1539188Y115100D02*
Y119898D01*
X1542787D01*
X1543987Y118699D01*
Y115100D01*
X1551184Y119898D02*
X1547585D01*
X1546386Y118699D01*
Y116300D01*
X1547585Y115100D01*
X1551184D01*
X1557182D02*
X1554783D01*
X1553584Y116300D01*
Y118699D01*
X1554783Y119898D01*
X1557182D01*
X1558382Y118699D01*
Y117499D01*
X1553584D01*
X1570378Y115100D02*
X1567979Y117499D01*
Y119898D01*
X1570378Y122298D01*
X1573977Y118699D02*
X1578775D01*
X1576376Y121098D02*
Y116300D01*
X1581175Y115100D02*
X1583574Y117499D01*
Y119898D01*
X1581175Y122298D01*
X1377037D02*
Y115100D01*
X1380636D01*
X1381835Y116300D01*
Y121098D01*
X1380636Y122298D01*
X1377037D01*
X1387833Y115100D02*
X1385434D01*
X1384234Y116300D01*
Y118699D01*
X1385434Y119898D01*
X1387833D01*
X1389033Y118699D01*
Y117499D01*
X1384234D01*
X1391432Y115100D02*
X1395031D01*
X1396231Y116300D01*
X1395031Y117499D01*
X1392632D01*
X1391432Y118699D01*
X1392632Y119898D01*
X1396231D01*
X1403428D02*
X1399829D01*
X1398630Y118699D01*
Y116300D01*
X1399829Y115100D01*
X1403428D01*
X1405827Y119898D02*
Y115100D01*
Y117499D01*
X1407027Y118699D01*
X1408227Y119898D01*
X1409426D01*
X1413025Y115100D02*
X1415424D01*
X1414225D01*
Y119898D01*
X1413025D01*
X1419023Y112701D02*
Y119898D01*
X1422622D01*
X1423822Y118699D01*
Y116300D01*
X1422622Y115100D01*
X1419023D01*
X1427421Y121098D02*
Y119898D01*
X1426221D01*
X1428620D01*
X1427421D01*
Y116300D01*
X1428620Y115100D01*
X1432219D02*
X1434618D01*
X1433418D01*
Y119898D01*
X1432219D01*
X1439417Y115100D02*
X1441816D01*
X1443015Y116300D01*
Y118699D01*
X1441816Y119898D01*
X1439417D01*
X1438217Y118699D01*
Y116300D01*
X1439417Y115100D01*
X1445415D02*
Y119898D01*
X1449014D01*
X1450213Y118699D01*
Y115100D01*
X1312054Y122298D02*
X1316852D01*
X1314453D01*
Y115100D01*
X1322850D02*
X1320451D01*
X1319252Y116300D01*
Y118699D01*
X1320451Y119898D01*
X1322850D01*
X1324050Y118699D01*
Y117499D01*
X1319252D01*
X1326449Y115100D02*
Y119898D01*
X1327649D01*
X1328848Y118699D01*
Y115100D01*
Y118699D01*
X1330048Y119898D01*
X1331248Y118699D01*
Y115100D01*
X1333647Y112701D02*
Y119898D01*
X1337246D01*
X1338445Y118699D01*
Y116300D01*
X1337246Y115100D01*
X1333647D01*
X1340845D02*
X1343244D01*
X1342044D01*
Y122298D01*
X1340845D01*
X1348042Y119898D02*
X1350441D01*
X1351641Y118699D01*
Y115100D01*
X1348042D01*
X1346843Y116300D01*
X1348042Y117499D01*
X1351641D01*
X1355240Y121098D02*
Y119898D01*
X1354040D01*
X1356439D01*
X1355240D01*
Y116300D01*
X1356439Y115100D01*
X1363637D02*
X1361238D01*
X1360038Y116300D01*
Y118699D01*
X1361238Y119898D01*
X1363637D01*
X1364837Y118699D01*
Y117499D01*
X1360038D01*
X1237474Y115100D02*
Y122298D01*
X1241073D01*
X1242272Y121098D01*
Y118699D01*
X1241073Y117499D01*
X1237474D01*
X1245871Y119898D02*
X1248271D01*
X1249470Y118699D01*
Y115100D01*
X1245871D01*
X1244672Y116300D01*
X1245871Y117499D01*
X1249470D01*
X1256668Y122298D02*
Y115100D01*
X1253069D01*
X1251869Y116300D01*
Y118699D01*
X1253069Y119898D01*
X1256668D01*
X1271063Y121098D02*
X1269864Y122298D01*
X1267464D01*
X1266265Y121098D01*
Y119898D01*
X1267464Y118699D01*
X1269864D01*
X1271063Y117499D01*
Y116300D01*
X1269864Y115100D01*
X1267464D01*
X1266265Y116300D01*
X1273462Y122298D02*
Y115100D01*
Y118699D01*
X1274662Y119898D01*
X1277061D01*
X1278261Y118699D01*
Y115100D01*
X1281860Y119898D02*
X1284259D01*
X1285458Y118699D01*
Y115100D01*
X1281860D01*
X1280660Y116300D01*
X1281860Y117499D01*
X1285458D01*
X1287858Y112701D02*
Y119898D01*
X1291457D01*
X1292656Y118699D01*
Y116300D01*
X1291457Y115100D01*
X1287858D01*
X1298654D02*
X1296255D01*
X1295055Y116300D01*
Y118699D01*
X1296255Y119898D01*
X1298654D01*
X1299854Y118699D01*
Y117499D01*
X1295055D01*
X1178489Y122298D02*
Y117499D01*
X1180888Y115100D01*
X1183288Y117499D01*
Y122298D01*
X1185687Y115100D02*
X1188086D01*
X1186887D01*
Y119898D01*
X1185687D01*
X1192885D02*
X1195284D01*
X1196483Y118699D01*
Y115100D01*
X1192885D01*
X1191685Y116300D01*
X1192885Y117499D01*
X1196483D01*
X1198883Y115100D02*
X1203681Y119898D01*
X1206080Y115100D02*
Y122298D01*
X1209679D01*
X1210879Y121098D01*
Y118699D01*
X1209679Y117499D01*
X1206080D01*
X1214478Y119898D02*
X1216877D01*
X1218076Y118699D01*
Y115100D01*
X1214478D01*
X1213278Y116300D01*
X1214478Y117499D01*
X1218076D01*
X1225274Y122298D02*
Y115100D01*
X1221675D01*
X1220476Y116300D01*
Y118699D01*
X1221675Y119898D01*
X1225274D01*
X1028534Y122298D02*
Y115100D01*
X1032133D01*
X1033333Y116300D01*
Y121098D01*
X1032133Y122298D01*
X1028534D01*
X1035732Y119898D02*
Y115100D01*
Y117499D01*
X1036931Y118699D01*
X1038131Y119898D01*
X1039331D01*
X1042929Y115100D02*
X1045329D01*
X1044129D01*
Y119898D01*
X1042929D01*
X1048927Y115100D02*
X1051327D01*
X1050127D01*
Y122298D01*
X1048927D01*
X1054926Y115100D02*
X1057325D01*
X1056125D01*
Y122298D01*
X1054926D01*
X1068121D02*
Y115100D01*
X1072920D01*
X1076519Y119898D02*
X1078918D01*
X1080117Y118699D01*
Y115100D01*
X1076519D01*
X1075319Y116300D01*
X1076519Y117499D01*
X1080117D01*
X1082517Y119898D02*
Y116300D01*
X1083716Y115100D01*
X1087315D01*
Y113900D01*
X1086115Y112701D01*
X1084916D01*
X1087315Y115100D02*
Y119898D01*
X1093313Y115100D02*
X1090914D01*
X1089714Y116300D01*
Y118699D01*
X1090914Y119898D01*
X1093313D01*
X1094513Y118699D01*
Y117499D01*
X1089714D01*
X1096912Y119898D02*
Y115100D01*
Y117499D01*
X1098112Y118699D01*
X1099311Y119898D01*
X1100511D01*
X1111307Y115100D02*
Y122298D01*
X1114906D01*
X1116106Y121098D01*
Y118699D01*
X1114906Y117499D01*
X1111307D01*
X1119705Y119898D02*
X1122104D01*
X1123304Y118699D01*
Y115100D01*
X1119705D01*
X1118505Y116300D01*
X1119705Y117499D01*
X1123304D01*
X1125703Y115100D02*
X1128102D01*
X1126902D01*
Y119898D01*
X1125703D01*
X1131701D02*
Y115100D01*
Y117499D01*
X1132900Y118699D01*
X1134100Y119898D01*
X1135300D01*
X955154Y122298D02*
Y115100D01*
Y118699D01*
X959952D01*
Y122298D01*
Y115100D01*
X963551D02*
X965950D01*
X967150Y116300D01*
Y118699D01*
X965950Y119898D01*
X963551D01*
X962352Y118699D01*
Y116300D01*
X963551Y115100D01*
X969549D02*
X971949D01*
X970749D01*
Y122298D01*
X969549D01*
X979146Y115100D02*
X976747D01*
X975547Y116300D01*
Y118699D01*
X976747Y119898D01*
X979146D01*
X980346Y118699D01*
Y117499D01*
X975547D01*
X989943Y122298D02*
X994741D01*
X992342D01*
Y115100D01*
X997140Y119898D02*
Y116300D01*
X998340Y115100D01*
X1001939D01*
Y113900D01*
X1000739Y112701D01*
X999540D01*
X1001939Y115100D02*
Y119898D01*
X1004338Y112701D02*
Y119898D01*
X1007937D01*
X1009136Y118699D01*
Y116300D01*
X1007937Y115100D01*
X1004338D01*
X1015135D02*
X1012735D01*
X1011536Y116300D01*
Y118699D01*
X1012735Y119898D01*
X1015135D01*
X1016334Y118699D01*
Y117499D01*
X1011536D01*
X904566Y115100D02*
Y122298D01*
X908165D01*
X909365Y121098D01*
Y118699D01*
X908165Y117499D01*
X904566D01*
X911764Y115100D02*
X914163D01*
X912964D01*
Y122298D01*
X911764D01*
X918962Y119898D02*
X921361D01*
X922561Y118699D01*
Y115100D01*
X918962D01*
X917762Y116300D01*
X918962Y117499D01*
X922561D01*
X926159Y121098D02*
Y119898D01*
X924960D01*
X927359D01*
X926159D01*
Y116300D01*
X927359Y115100D01*
X934557D02*
X932157D01*
X930958Y116300D01*
Y118699D01*
X932157Y119898D01*
X934557D01*
X935756Y118699D01*
Y117499D01*
X930958D01*
X942954Y122298D02*
Y115100D01*
X939355D01*
X938155Y116300D01*
Y118699D01*
X939355Y119898D01*
X942954D01*
X789600Y122298D02*
Y115100D01*
Y118699D01*
X794398D01*
Y122298D01*
Y115100D01*
X797997D02*
X800397D01*
X801596Y116300D01*
Y118699D01*
X800397Y119898D01*
X797997D01*
X796798Y118699D01*
Y116300D01*
X797997Y115100D01*
X803995D02*
X806395D01*
X805195D01*
Y122298D01*
X803995D01*
X813592Y115100D02*
X811193D01*
X809993Y116300D01*
Y118699D01*
X811193Y119898D01*
X813592D01*
X814792Y118699D01*
Y117499D01*
X809993D01*
X829187Y121098D02*
X827988Y122298D01*
X825588D01*
X824389Y121098D01*
Y119898D01*
X825588Y118699D01*
X827988D01*
X829187Y117499D01*
Y116300D01*
X827988Y115100D01*
X825588D01*
X824389Y116300D01*
X831586Y115100D02*
X833986D01*
X832786D01*
Y119898D01*
X831586D01*
X837584D02*
X842383D01*
X837584Y115100D01*
X842383D01*
X848381D02*
X845982D01*
X844782Y116300D01*
Y118699D01*
X845982Y119898D01*
X848381D01*
X849581Y118699D01*
Y117499D01*
X844782D01*
X734414Y121098D02*
X733215Y122298D01*
X730816D01*
X729616Y121098D01*
Y116300D01*
X730816Y115100D01*
X733215D01*
X734414Y116300D01*
X738013Y115100D02*
X740412D01*
X741612Y116300D01*
Y118699D01*
X740412Y119898D01*
X738013D01*
X736813Y118699D01*
Y116300D01*
X738013Y115100D01*
X744011Y119898D02*
Y116300D01*
X745211Y115100D01*
X748810D01*
Y119898D01*
X751209Y115100D02*
Y119898D01*
X754808D01*
X756007Y118699D01*
Y115100D01*
X759606Y121098D02*
Y119898D01*
X758406D01*
X760806D01*
X759606D01*
Y116300D01*
X760806Y115100D01*
X683827Y121098D02*
X682627Y122298D01*
X680228D01*
X679028Y121098D01*
Y119898D01*
X680228Y118699D01*
X682627D01*
X683827Y117499D01*
Y116300D01*
X682627Y115100D01*
X680228D01*
X679028Y116300D01*
X686226Y119898D02*
Y116300D01*
X687426Y115100D01*
X691024D01*
Y113900D01*
X689825Y112701D01*
X688625D01*
X691024Y115100D02*
Y119898D01*
X693424Y115100D02*
Y119898D01*
X694623D01*
X695823Y118699D01*
Y115100D01*
Y118699D01*
X697022Y119898D01*
X698222Y118699D01*
Y115100D01*
X700621Y122298D02*
Y115100D01*
X704220D01*
X705420Y116300D01*
Y117499D01*
Y118699D01*
X704220Y119898D01*
X700621D01*
X709019Y115100D02*
X711418D01*
X712617Y116300D01*
Y118699D01*
X711418Y119898D01*
X709019D01*
X707819Y118699D01*
Y116300D01*
X709019Y115100D01*
X715017D02*
X717416D01*
X716216D01*
Y122298D01*
X715017D01*
D71*
X-40201Y181905D02*
X-46199D01*
X-43200Y178906D01*
Y182905D01*
X-45199Y184904D02*
X-46199Y185904D01*
Y187903D01*
X-45199Y188903D01*
X-41201D01*
X-40201Y187903D01*
Y185904D01*
X-41201Y184904D01*
X-45199D01*
Y190902D02*
X-46199Y191902D01*
Y193901D01*
X-45199Y194901D01*
X-41201D01*
X-40201Y193901D01*
Y191902D01*
X-41201Y190902D01*
X-45199D01*
Y196900D02*
X-46199Y197900D01*
Y199899D01*
X-45199Y200899D01*
X-41201D01*
X-40201Y199899D01*
Y197900D01*
X-41201Y196900D01*
X-45199D01*
X-40201Y202899D02*
X-41201D01*
Y203898D01*
X-40201D01*
Y202899D01*
X-45199Y207897D02*
X-46199Y208897D01*
Y210896D01*
X-45199Y211896D01*
X-41201D01*
X-40201Y210896D01*
Y208897D01*
X-41201Y207897D01*
X-45199D01*
Y213895D02*
X-46199Y214895D01*
Y216894D01*
X-45199Y217894D01*
X-41201D01*
X-40201Y216894D01*
Y214895D01*
X-41201Y213895D01*
X-45199D01*
X282905Y435199D02*
X280906Y434199D01*
X278906Y432200D01*
Y430201D01*
X279906Y429201D01*
X281905D01*
X282905Y430201D01*
Y431200D01*
X281905Y432200D01*
X278906D01*
X284904Y434199D02*
X285904Y435199D01*
X287903D01*
X288903Y434199D01*
Y430201D01*
X287903Y429201D01*
X285904D01*
X284904Y430201D01*
Y434199D01*
X290902D02*
X291902Y435199D01*
X293901D01*
X294901Y434199D01*
Y430201D01*
X293901Y429201D01*
X291902D01*
X290902Y430201D01*
Y434199D01*
X296901D02*
X297900Y435199D01*
X299900D01*
X300899Y434199D01*
Y430201D01*
X299900Y429201D01*
X297900D01*
X296901Y430201D01*
Y434199D01*
X302899Y429201D02*
Y430201D01*
X303898D01*
Y429201D01*
X302899D01*
X307897Y434199D02*
X308897Y435199D01*
X310896D01*
X311896Y434199D01*
Y430201D01*
X310896Y429201D01*
X308897D01*
X307897Y430201D01*
Y434199D01*
X313895D02*
X314895Y435199D01*
X316894D01*
X317894Y434199D01*
Y430201D01*
X316894Y429201D01*
X314895D01*
X313895Y430201D01*
Y434199D01*
M02*
