G04*
G04 #@! TF.GenerationSoftware,Altium Limited,Altium Designer,22.1.2 (22)*
G04*
G04 Layer_Color=65535*
%FSLAX25Y25*%
%MOIN*%
G70*
G04*
G04 #@! TF.SameCoordinates,7B21E419-2DB3-41AA-89A7-F06F8FB5CF2D*
G04*
G04*
G04 #@! TF.FilePolarity,Positive*
G04*
G01*
G75*
%ADD10C,0.00984*%
%ADD11C,0.02362*%
%ADD12C,0.00787*%
%ADD13C,0.01000*%
%ADD14C,0.01968*%
%ADD15C,0.00800*%
D10*
X476734Y319390D02*
G03*
X476734Y319390I-492J0D01*
G01*
X502425Y143795D02*
G03*
X502425Y143795I-492J0D01*
G01*
X454096Y225000D02*
G03*
X454096Y225000I-492J0D01*
G01*
X456004Y79909D02*
G03*
X456004Y79909I-492J0D01*
G01*
X532504Y79934D02*
G03*
X532504Y79934I-492J0D01*
G01*
X305579Y127847D02*
G03*
X305579Y127847I-492J0D01*
G01*
D11*
X508429Y152457D02*
G03*
X508429Y152457I-1181J0D01*
G01*
X316307Y123653D02*
G03*
X316307Y123653I-1181J0D01*
G01*
D12*
X26000Y64500D02*
X216600D01*
X26000Y84500D02*
X216600D01*
X26000Y64500D02*
Y84500D01*
X216600Y64500D02*
Y84500D01*
X481557Y278858D02*
Y318228D01*
X489431Y278858D02*
Y318228D01*
X481557D02*
X489431D01*
X481557Y278858D02*
X489431D01*
X503311Y148520D02*
X529689D01*
X503311Y163480D02*
X529689D01*
X503311Y148520D02*
Y163480D01*
X529689Y148520D02*
Y163480D01*
X541657Y127461D02*
X542445D01*
X541657Y122539D02*
X542445D01*
X119100Y19500D02*
X180000D01*
Y9500D02*
Y19500D01*
X172500Y9500D02*
X180000D01*
X119100D02*
X172500D01*
X119100D02*
Y19500D01*
X460494Y234252D02*
X510494D01*
X460494Y215748D02*
X510494D01*
Y230709D02*
Y234252D01*
Y215748D02*
Y219291D01*
X460494Y215748D02*
Y219291D01*
Y230709D02*
Y234252D01*
X455905Y59240D02*
Y77350D01*
X444095Y59240D02*
Y77350D01*
X454921D02*
X455905D01*
X454921Y59240D02*
X455905D01*
X444095Y77350D02*
X445079D01*
X444095Y59240D02*
X445079D01*
X216600Y304500D02*
Y324500D01*
X26000Y304500D02*
Y324500D01*
X216600D01*
X26000Y304500D02*
X216600D01*
X520595Y59265D02*
X521579D01*
X520595Y77375D02*
X521579D01*
X531421Y59265D02*
X532406D01*
X531421Y77375D02*
X532406D01*
X520595Y59265D02*
Y77375D01*
X532406Y59265D02*
Y77375D01*
X562200Y173000D02*
X586900D01*
Y133000D02*
Y173000D01*
X562200Y133000D02*
Y173000D01*
Y133000D02*
X586900D01*
X567500D02*
Y172900D01*
X533587Y190560D02*
X534374D01*
X533587Y185638D02*
X534374D01*
X395000Y7500D02*
Y32200D01*
X335000D02*
X395000D01*
X335000Y7500D02*
Y32200D01*
Y7500D02*
X395000D01*
X335000Y27000D02*
X395000D01*
X311189Y76410D02*
X334811D01*
X311189Y127591D02*
X334811D01*
Y76410D02*
Y127591D01*
X311189Y76410D02*
Y127591D01*
X312000Y7500D02*
Y32200D01*
X252000D02*
X312000D01*
X252000Y7500D02*
Y32200D01*
Y7500D02*
X312000D01*
X252000Y27000D02*
X312000D01*
D13*
X285100Y239800D02*
X409900D01*
X285100D02*
Y385400D01*
X409900D01*
Y239800D02*
Y385400D01*
X496500Y2300D02*
Y37700D01*
X536500D01*
Y2300D02*
Y37700D01*
X496500Y2300D02*
X536500D01*
X485183Y89866D02*
X487079Y87970D01*
X485183Y106940D02*
X487079Y108836D01*
X506049Y103403D02*
Y108836D01*
X487079D02*
X506049D01*
X487079Y87970D02*
X506049D01*
Y93738D01*
X485183Y89866D02*
Y93668D01*
Y103068D02*
Y106940D01*
X562537Y237902D02*
X564433Y236005D01*
X562537Y217035D02*
X564433Y218932D01*
X543567Y217035D02*
Y222468D01*
Y217035D02*
X562537D01*
X543567Y237902D02*
X562537D01*
X543567Y232133D02*
Y237902D01*
X564433Y232204D02*
Y236005D01*
Y218932D02*
Y222804D01*
X420000Y2300D02*
Y37700D01*
X460000D01*
Y2300D02*
Y37700D01*
X420000Y2300D02*
X460000D01*
X409667Y89931D02*
X411563Y88035D01*
X409667Y107006D02*
X411563Y108902D01*
X430533Y103469D02*
Y108902D01*
X411563D02*
X430533D01*
X411563Y88035D02*
X430533D01*
Y93804D01*
X409667Y89931D02*
Y93733D01*
Y103133D02*
Y107006D01*
X53607Y361126D02*
Y367124D01*
X57605Y361126D01*
Y367124D01*
X60604Y365125D02*
X62604D01*
X63603Y364125D01*
Y361126D01*
X60604D01*
X59605Y362126D01*
X60604Y363125D01*
X63603D01*
X65603Y365125D02*
Y361126D01*
Y363125D01*
X66602Y364125D01*
X67602Y365125D01*
X68602D01*
X74600Y361126D02*
X72601D01*
X71601Y362126D01*
Y364125D01*
X72601Y365125D01*
X74600D01*
X75599Y364125D01*
Y363125D01*
X71601D01*
X77599Y361126D02*
Y365125D01*
X80598D01*
X81598Y364125D01*
Y361126D01*
X93594Y366125D02*
X92594Y367124D01*
X90595D01*
X89595Y366125D01*
Y365125D01*
X90595Y364125D01*
X92594D01*
X93594Y363125D01*
Y362126D01*
X92594Y361126D01*
X90595D01*
X89595Y362126D01*
X95593Y365125D02*
Y362126D01*
X96593Y361126D01*
X99592D01*
Y365125D01*
X101591Y367124D02*
Y361126D01*
X104590D01*
X105590Y362126D01*
Y363125D01*
Y364125D01*
X104590Y365125D01*
X101591D01*
X107589Y367124D02*
Y361126D01*
X110588D01*
X111588Y362126D01*
Y363125D01*
Y364125D01*
X110588Y365125D01*
X107589D01*
X113587D02*
Y362126D01*
X114587Y361126D01*
X117586D01*
Y365125D01*
X119585D02*
Y361126D01*
Y363125D01*
X120585Y364125D01*
X121585Y365125D01*
X122584D01*
X126583D02*
X128582D01*
X129582Y364125D01*
Y361126D01*
X126583D01*
X125583Y362126D01*
X126583Y363125D01*
X129582D01*
X131581Y359127D02*
X132581D01*
X133581Y360126D01*
Y365125D01*
X143578Y364125D02*
X147576D01*
X155574Y366125D02*
X156573Y367124D01*
X158573D01*
X159572Y366125D01*
Y365125D01*
X158573Y364125D01*
X159572Y363125D01*
Y362126D01*
X158573Y361126D01*
X156573D01*
X155574Y362126D01*
Y363125D01*
X156573Y364125D01*
X155574Y365125D01*
Y366125D01*
X156573Y364125D02*
X158573D01*
X161572Y367124D02*
X165570D01*
Y366125D01*
X161572Y362126D01*
Y361126D01*
X167570Y367124D02*
X171568D01*
Y366125D01*
X167570Y362126D01*
Y361126D01*
X177567D02*
X173568D01*
X177567Y365125D01*
Y366125D01*
X176567Y367124D01*
X174567D01*
X173568Y366125D01*
X182565Y361126D02*
Y367124D01*
X179566Y364125D01*
X183565D01*
X189563Y367124D02*
X185564D01*
Y364125D01*
X187563Y365125D01*
X188563D01*
X189563Y364125D01*
Y362126D01*
X188563Y361126D01*
X186564D01*
X185564Y362126D01*
X195561Y361126D02*
X191562D01*
X195561Y365125D01*
Y366125D01*
X194561Y367124D01*
X192562D01*
X191562Y366125D01*
X119700Y22900D02*
Y28898D01*
X122699D01*
X123699Y27898D01*
Y25899D01*
X122699Y24899D01*
X119700D01*
X128697Y22900D02*
Y28898D01*
X125698Y25899D01*
X129697D01*
X453600Y243698D02*
Y242698D01*
X455599Y240699D01*
X457599Y242698D01*
Y243698D01*
X455599Y240699D02*
Y237700D01*
X459598D02*
X461597D01*
X460598D01*
Y243698D01*
X459598Y242698D01*
X496211Y182398D02*
Y177400D01*
X497211Y176400D01*
X499211D01*
X500210Y177400D01*
Y182398D01*
X502210Y181398D02*
X503209Y182398D01*
X505209D01*
X506208Y181398D01*
Y180399D01*
X505209Y179399D01*
X504209D01*
X505209D01*
X506208Y178399D01*
Y177400D01*
X505209Y176400D01*
X503209D01*
X502210Y177400D01*
X300400Y137898D02*
Y132900D01*
X301400Y131900D01*
X303399D01*
X304399Y132900D01*
Y137898D01*
X310397Y131900D02*
X306398D01*
X310397Y135899D01*
Y136898D01*
X309397Y137898D01*
X307398D01*
X306398Y136898D01*
X476501Y329399D02*
Y324401D01*
X477501Y323401D01*
X479500D01*
X480500Y324401D01*
Y329399D01*
X482499Y323401D02*
X484499D01*
X483499D01*
Y329399D01*
X482499Y328399D01*
X526000Y196100D02*
Y202098D01*
X528999D01*
X529999Y201098D01*
Y199099D01*
X528999Y198099D01*
X526000D01*
X527999D02*
X529999Y196100D01*
X535997D02*
X531998D01*
X535997Y200099D01*
Y201098D01*
X534997Y202098D01*
X532998D01*
X531998Y201098D01*
X535100Y133055D02*
Y139053D01*
X538099D01*
X539098Y138053D01*
Y136054D01*
X538099Y135054D01*
X535100D01*
X537099D02*
X539098Y133055D01*
X541098D02*
X543097D01*
X542098D01*
Y139053D01*
X541098Y138053D01*
X19900Y327900D02*
Y333898D01*
X22899D01*
X23899Y332898D01*
Y330899D01*
X22899Y329899D01*
X19900D01*
X25898Y327900D02*
X27897D01*
X26898D01*
Y333898D01*
X25898Y332898D01*
X30896D02*
X31896Y333898D01*
X33895D01*
X34895Y332898D01*
Y328900D01*
X33895Y327900D01*
X31896D01*
X30896Y328900D01*
Y332898D01*
X19900Y87900D02*
Y93898D01*
X22899D01*
X23899Y92898D01*
Y90899D01*
X22899Y89899D01*
X19900D01*
X25898Y93898D02*
X29897D01*
Y92898D01*
X25898Y88900D01*
Y87900D01*
X562800Y176400D02*
Y182398D01*
X565799D01*
X566799Y181398D01*
Y179399D01*
X565799Y178399D01*
X562800D01*
X572797Y182398D02*
X570797Y181398D01*
X568798Y179399D01*
Y177400D01*
X569798Y176400D01*
X571797D01*
X572797Y177400D01*
Y178399D01*
X571797Y179399D01*
X568798D01*
X496600Y41200D02*
Y47198D01*
X499599D01*
X500599Y46198D01*
Y44199D01*
X499599Y43199D01*
X496600D01*
X506597Y47198D02*
X502598D01*
Y44199D01*
X504597Y45199D01*
X505597D01*
X506597Y44199D01*
Y42200D01*
X505597Y41200D01*
X503598D01*
X502598Y42200D01*
X252600Y35600D02*
Y41598D01*
X255599D01*
X256599Y40598D01*
Y38599D01*
X255599Y37599D01*
X252600D01*
X258598Y40598D02*
X259598Y41598D01*
X261597D01*
X262597Y40598D01*
Y39599D01*
X261597Y38599D01*
X260597D01*
X261597D01*
X262597Y37599D01*
Y36600D01*
X261597Y35600D01*
X259598D01*
X258598Y36600D01*
X335600Y35600D02*
Y41598D01*
X338599D01*
X339599Y40598D01*
Y38599D01*
X338599Y37599D01*
X335600D01*
X345597Y35600D02*
X341598D01*
X345597Y39599D01*
Y40598D01*
X344597Y41598D01*
X342598D01*
X341598Y40598D01*
X420100Y41200D02*
Y47198D01*
X423099D01*
X424099Y46198D01*
Y44199D01*
X423099Y43199D01*
X420100D01*
X426098Y41200D02*
X428097D01*
X427098D01*
Y47198D01*
X426098Y46198D01*
X564499Y341598D02*
X562499D01*
X563499D01*
Y336600D01*
X562499Y335600D01*
X561500D01*
X560500Y336600D01*
X566498Y335600D02*
X568497D01*
X567498D01*
Y341598D01*
X566498Y340598D01*
X285600Y395098D02*
Y389100D01*
X288599D01*
X289599Y390100D01*
Y394098D01*
X288599Y395098D01*
X285600D01*
X295597Y394098D02*
X294597Y395098D01*
X292598D01*
X291598Y394098D01*
Y393099D01*
X292598Y392099D01*
X294597D01*
X295597Y391099D01*
Y390100D01*
X294597Y389100D01*
X292598D01*
X291598Y390100D01*
X297596Y389100D02*
X299595D01*
X298596D01*
Y395098D01*
X297596Y394098D01*
X519500Y91598D02*
Y85600D01*
X522499D01*
X523499Y86600D01*
Y90598D01*
X522499Y91598D01*
X519500D01*
X529497Y85600D02*
X525498D01*
X529497Y89599D01*
Y90598D01*
X528497Y91598D01*
X526498D01*
X525498Y90598D01*
X443000Y91598D02*
Y85600D01*
X445999D01*
X446999Y86600D01*
Y90598D01*
X445999Y91598D01*
X443000D01*
X448998Y85600D02*
X450997D01*
X449998D01*
Y91598D01*
X448998Y90598D01*
X479499Y174698D02*
X478499Y175698D01*
X476500D01*
X475500Y174698D01*
Y170700D01*
X476500Y169700D01*
X478499D01*
X479499Y170700D01*
X481498Y169700D02*
X483497D01*
X482498D01*
Y175698D01*
X481498Y174698D01*
X490495Y169700D02*
X486496D01*
X490495Y173699D01*
Y174698D01*
X489496Y175698D01*
X487496D01*
X486496Y174698D01*
X491699Y201298D02*
X490699Y202298D01*
X488700D01*
X487700Y201298D01*
Y197300D01*
X488700Y196300D01*
X490699D01*
X491699Y197300D01*
X493698Y196300D02*
X495697D01*
X494698D01*
Y202298D01*
X493698Y201298D01*
X498696Y196300D02*
X500696D01*
X499696D01*
Y202298D01*
X498696Y201298D01*
X479499Y146999D02*
X478499Y147999D01*
X476500D01*
X475500Y146999D01*
Y143001D01*
X476500Y142001D01*
X478499D01*
X479499Y143001D01*
X481498Y142001D02*
X483497D01*
X482498D01*
Y147999D01*
X481498Y146999D01*
X486496D02*
X487496Y147999D01*
X489496D01*
X490495Y146999D01*
Y143001D01*
X489496Y142001D01*
X487496D01*
X486496Y143001D01*
Y146999D01*
X485499Y117298D02*
X484499Y118298D01*
X482500D01*
X481500Y117298D01*
Y113300D01*
X482500Y112300D01*
X484499D01*
X485499Y113300D01*
X487498D02*
X488498Y112300D01*
X490497D01*
X491497Y113300D01*
Y117298D01*
X490497Y118298D01*
X488498D01*
X487498Y117298D01*
Y116299D01*
X488498Y115299D01*
X491497D01*
X500199Y267198D02*
X499199Y268198D01*
X497200D01*
X496200Y267198D01*
Y263200D01*
X497200Y262200D01*
X499199D01*
X500199Y263200D01*
X502198Y267198D02*
X503198Y268198D01*
X505197D01*
X506197Y267198D01*
Y266199D01*
X505197Y265199D01*
X506197Y264199D01*
Y263200D01*
X505197Y262200D01*
X503198D01*
X502198Y263200D01*
Y264199D01*
X503198Y265199D01*
X502198Y266199D01*
Y267198D01*
X503198Y265199D02*
X505197D01*
X462799Y267198D02*
X461799Y268198D01*
X459800D01*
X458800Y267198D01*
Y263200D01*
X459800Y262200D01*
X461799D01*
X462799Y263200D01*
X464798Y268198D02*
X468797D01*
Y267198D01*
X464798Y263200D01*
Y262200D01*
X379799Y109898D02*
X378799Y110898D01*
X376800D01*
X375800Y109898D01*
Y105900D01*
X376800Y104900D01*
X378799D01*
X379799Y105900D01*
X385797Y110898D02*
X383797Y109898D01*
X381798Y107899D01*
Y105900D01*
X382798Y104900D01*
X384797D01*
X385797Y105900D01*
Y106899D01*
X384797Y107899D01*
X381798D01*
X450799Y326498D02*
X449799Y327498D01*
X447800D01*
X446800Y326498D01*
Y322500D01*
X447800Y321500D01*
X449799D01*
X450799Y322500D01*
X456797Y327498D02*
X452798D01*
Y324499D01*
X454797Y325499D01*
X455797D01*
X456797Y324499D01*
Y322500D01*
X455797Y321500D01*
X453798D01*
X452798Y322500D01*
X543899Y246398D02*
X542899Y247398D01*
X540900D01*
X539900Y246398D01*
Y242400D01*
X540900Y241400D01*
X542899D01*
X543899Y242400D01*
X548897Y241400D02*
Y247398D01*
X545898Y244399D01*
X549897D01*
X409999Y117398D02*
X408999Y118398D01*
X407000D01*
X406000Y117398D01*
Y113400D01*
X407000Y112400D01*
X408999D01*
X409999Y113400D01*
X411998Y117398D02*
X412998Y118398D01*
X414997D01*
X415997Y117398D01*
Y116399D01*
X414997Y115399D01*
X413997D01*
X414997D01*
X415997Y114399D01*
Y113400D01*
X414997Y112400D01*
X412998D01*
X411998Y113400D01*
X549999Y269698D02*
X548999Y270698D01*
X547000D01*
X546000Y269698D01*
Y265700D01*
X547000Y264700D01*
X548999D01*
X549999Y265700D01*
X555997Y264700D02*
X551998D01*
X555997Y268699D01*
Y269698D01*
X554997Y270698D01*
X552998D01*
X551998Y269698D01*
X403899Y145698D02*
X402899Y146698D01*
X400900D01*
X399900Y145698D01*
Y141700D01*
X400900Y140700D01*
X402899D01*
X403899Y141700D01*
X405898Y140700D02*
X407897D01*
X406898D01*
Y146698D01*
X405898Y145698D01*
X270300Y748700D02*
Y754698D01*
X272299Y752699D01*
X274299Y754698D01*
Y748700D01*
X280297Y754698D02*
X276298D01*
Y751699D01*
X278297Y752699D01*
X279297D01*
X280297Y751699D01*
Y749700D01*
X279297Y748700D01*
X277298D01*
X276298Y749700D01*
X21500Y350500D02*
Y356498D01*
X23499Y354499D01*
X25499Y356498D01*
Y350500D01*
X27498D02*
X29497D01*
X28498D01*
Y356498D01*
X27498Y355498D01*
X567500Y349000D02*
Y354998D01*
X569499Y352999D01*
X571499Y354998D01*
Y349000D01*
X577497D02*
X573498D01*
X577497Y352999D01*
Y353998D01*
X576497Y354998D01*
X574498D01*
X573498Y353998D01*
X569500Y43500D02*
Y49498D01*
X571499Y47499D01*
X573499Y49498D01*
Y43500D01*
X575498Y48498D02*
X576498Y49498D01*
X578497D01*
X579497Y48498D01*
Y47499D01*
X578497Y46499D01*
X577497D01*
X578497D01*
X579497Y45499D01*
Y44500D01*
X578497Y43500D01*
X576498D01*
X575498Y44500D01*
X21500Y44500D02*
Y50498D01*
X23499Y48499D01*
X25499Y50498D01*
Y44500D01*
X30497D02*
Y50498D01*
X27498Y47499D01*
X31497D01*
D14*
X560472Y321457D02*
X600827D01*
X560472Y295866D02*
Y321457D01*
Y295866D02*
X600827D01*
Y321457D01*
D15*
X220500Y81165D02*
X221333Y81998D01*
X222999D01*
X223832Y81165D01*
Y80332D01*
X222999Y79499D01*
X222166D01*
X222999D01*
X223832Y78666D01*
Y77833D01*
X222999Y77000D01*
X221333D01*
X220500Y77833D01*
X225498Y81165D02*
X226331Y81998D01*
X227998D01*
X228831Y81165D01*
Y80332D01*
X227998Y79499D01*
X228831Y78666D01*
Y77833D01*
X227998Y77000D01*
X226331D01*
X225498Y77833D01*
Y78666D01*
X226331Y79499D01*
X225498Y80332D01*
Y81165D01*
X226331Y79499D02*
X227998D01*
X220100Y71265D02*
X220933Y72098D01*
X222599D01*
X223432Y71265D01*
Y70432D01*
X222599Y69599D01*
X221766D01*
X222599D01*
X223432Y68766D01*
Y67933D01*
X222599Y67100D01*
X220933D01*
X220100Y67933D01*
X225098Y72098D02*
X228431D01*
Y71265D01*
X225098Y67933D01*
Y67100D01*
X21000Y67500D02*
X22666D01*
X21833D01*
Y72498D01*
X21000Y71665D01*
X23032Y77600D02*
X19700D01*
X23032Y80932D01*
Y81765D01*
X22199Y82598D01*
X20533D01*
X19700Y81765D01*
X23032Y317600D02*
X19700D01*
X23032Y320932D01*
Y321765D01*
X22199Y322598D01*
X20533D01*
X19700Y321765D01*
X21000Y307500D02*
X22666D01*
X21833D01*
Y312498D01*
X21000Y311665D01*
X220100Y311265D02*
X220933Y312098D01*
X222599D01*
X223432Y311265D01*
Y310432D01*
X222599Y309599D01*
X221766D01*
X222599D01*
X223432Y308766D01*
Y307933D01*
X222599Y307100D01*
X220933D01*
X220100Y307933D01*
X225098Y312098D02*
X228431D01*
Y311265D01*
X225098Y307933D01*
Y307100D01*
X220500Y321165D02*
X221333Y321998D01*
X222999D01*
X223832Y321165D01*
Y320332D01*
X222999Y319499D01*
X222166D01*
X222999D01*
X223832Y318666D01*
Y317833D01*
X222999Y317000D01*
X221333D01*
X220500Y317833D01*
X225498Y321165D02*
X226331Y321998D01*
X227998D01*
X228831Y321165D01*
Y320332D01*
X227998Y319499D01*
X228831Y318666D01*
Y317833D01*
X227998Y317000D01*
X226331D01*
X225498Y317833D01*
Y318666D01*
X226331Y319499D01*
X225498Y320332D01*
Y321165D01*
X226331Y319499D02*
X227998D01*
M02*
